<?xml version="1.0" encoding="utf-8"?>
<!-- Generator: Adobe Illustrator 18.1.1, SVG Export Plug-In . SVG Version: 6.00 Build 0)  -->
<svg version="1.1" id="Capa_1" xmlns="http://www.w3.org/2000/svg" xmlns:xlink="http://www.w3.org/1999/xlink" x="0px" y="0px"
	 viewBox="0 90 612 612" enable-background="new 0 90 612 612" xml:space="preserve">
<rect y="90" fill="none" width="612" height="612"/>
<path fill="#494B38" enable-background="new    " d="M546.7,337.8L208.6,115.4c-21.7-14.2-51.1-14.4-73-0.6l-99.9,63.6
	c-4.2,2.7-6.9,7.5-7.1,12.5c0,5.2,2.5,10,6.7,12.9l3.8,2.5v325c0,12.7,10.4,23.1,23.1,23.1c4.6,0,9-1.3,12.9-4l130.6-88.9
	c3.5-2.3,5.6-6.3,5.6-10.6V322.8l105.8,71.6L57.8,568.3c-9.2,6.1-14.8,16.3-15,27.5c-0.2,10.9,5,21.5,13.8,28l71.1,51.9
	c10.6,7.7,23.2,11.7,36.5,11.7l0,0c12.1,0,24-3.5,34-10.2l272-178.8c4.6,2.1,10.4,1.7,14.8-1.2l61.5-40.5
	c20.2-13.3,32.1-35.5,32.1-59.5C578.8,373.3,566.9,351.1,546.7,337.8z M443.2,480.1L181.7,652.1c-10.8,7.1-25.5,6.7-35.9-1
	l-71.1-51.9c-1-0.8-1.5-1.7-1.5-2.9c0-1.2,0.6-2.1,1.5-2.9L344,412.9L443.2,480.1z M185.8,305.7V444L64.5,526.4V223.7L185.8,305.7z
	 M548.4,397.3c0,14-6.7,26.5-18.4,34.2l-53,35L71.5,191.6l80.3-51.1c11.7-7.5,28.4-7.3,40.1,0.4L530,363.3
	C541.7,370.8,548.4,383.3,548.4,397.3z"/>
</svg>
