<?xml version="1.0" encoding="utf-8"?>
<!-- Generator: Adobe Illustrator 18.1.1, SVG Export Plug-In . SVG Version: 6.00 Build 0)  -->
<svg version="1.1" id="Capa_1" xmlns="http://www.w3.org/2000/svg" xmlns:xlink="http://www.w3.org/1999/xlink" x="0px" y="0px"
	 viewBox="0 0 318.6 318.6" enable-background="new 0 0 318.6 318.6" xml:space="preserve">
<rect x="0" y="0" fill="none" width="318.6" height="318.6"/>
<g>
	<g>
		<path fill="#4B3452" d="M167.1,163.4h-56.7c-0.3,0-0.5-0.2-0.5-0.5v-10.4c0-0.3,0.2-0.5,0.5-0.5h56.7c0.3,0,0.5,0.2,0.5,0.5v10.4
			C167.6,163.1,167.4,163.4,167.1,163.4z"/>
		<circle fill="#4B3452" cx="182.8" cy="157.5" r="5.7"/>
		<circle fill="#4B3452" cx="203.6" cy="157.5" r="5.7"/>
		<path fill="#4B3452" d="M167.1,210.8h-56.7c-0.3,0-0.5-0.2-0.5-0.5v-10.4c0-0.3,0.2-0.5,0.5-0.5h56.7c0.3,0,0.5,0.2,0.5,0.5v10.4
			C167.6,210.6,167.4,210.8,167.1,210.8z"/>
		<circle fill="#4B3452" cx="182.8" cy="205" r="5.7"/>
		<circle fill="#4B3452" cx="203.6" cy="205" r="5.7"/>
		<path fill="#4B3452" d="M236.5,205.8c0-9.7-4.7-18.3-11.9-23.7c7.2-5.4,11.9-14,11.9-23.7c0-16.4-13.3-29.6-29.6-29.6h-94.9
			c-16.4,0-29.6,13.3-29.6,29.6c0,9.7,4.7,18.3,11.9,23.7c-7.2,5.4-11.9,14-11.9,23.7c0,9.7,4.7,18.3,11.9,23.7
			c-7.2,5.4-11.9,14-11.9,23.7c0,16.4,13.3,29.6,29.6,29.6h94.9c16.4,0,29.6-13.3,29.6-29.6c0-9.7-4.7-18.3-11.9-23.7
			C231.8,224.1,236.5,215.5,236.5,205.8z M111.9,140.6h94.9c9.8,0,17.8,8,17.8,17.8c0,9.8-8,17.8-17.8,17.8h-94.9
			c-9.8,0-17.8-8-17.8-17.8C94.1,148.5,102.1,140.6,111.9,140.6z M206.8,271.1h-94.9c-9.8,0-17.8-8-17.8-17.8
			c0-9.8,8-17.8,17.8-17.8h94.9c9.8,0,17.8,8,17.8,17.8C224.6,263.2,216.6,271.1,206.8,271.1z M206.8,223.7h-94.9
			c-9.8,0-17.8-8-17.8-17.8s8-17.8,17.8-17.8h94.9c9.8,0,17.8,8,17.8,17.8S216.6,223.7,206.8,223.7z"/>
		<path fill="#4B3452" d="M167.1,258.3h-56.7c-0.3,0-0.5-0.2-0.5-0.5v-10.4c0-0.3,0.2-0.5,0.5-0.5h56.7c0.3,0,0.5,0.2,0.5,0.5v10.4
			C167.6,258.1,167.4,258.3,167.1,258.3z"/>
		<circle fill="#4B3452" cx="182.8" cy="252.5" r="5.7"/>
		<circle fill="#4B3452" cx="203.6" cy="252.5" r="5.7"/>
		<path fill="#4B3452" d="M299.2,122.3c-7.5-10.9-17.8-19.5-29.9-25c-7.4-19.5-20.3-36.1-37.3-48.2C214.3,36.6,193.5,30,171.7,30
			c-25.2,0-49.5,9.1-68.5,25.6C86,70.6,74.1,91,69.5,113.2c-0.3,0-0.7,0-1,0C34.6,113.2,7,140.8,7,174.7c0,14.6,5.2,28.8,14.7,39.9
			c9.4,11,22.4,18.3,36.6,20.7c0.3,0.1,0.7,0.1,1,0.1c3.1,0,5.7-2.2,6.2-5.3c0.6-3.4-1.7-6.7-5.2-7.2c-11.3-1.9-21.6-7.7-29.1-16.5
			c-7.6-8.8-11.7-20.1-11.7-31.8c0-27,21.9-48.9,48.9-48.9c1.9,0,3.7,0.1,5.5,0.3c0.2,0,0.5,0,0.7,0c3.1,0,5.8-2.3,6.2-5.4
			c3.2-21.5,14-41.3,30.5-55.7c16.7-14.5,38.1-22.5,60.2-22.5c19.1,0,37.4,5.8,53,16.8c15.2,10.8,26.6,25.7,33.1,43
			c0,0.1,0.1,0.2,0.1,0.3c0.3,2.3,1.8,4.3,3.9,5.1c11,4.4,20.3,11.9,27.1,21.6c6.9,10,10.5,21.7,10.5,33.9
			c0,14.3-5.1,28.1-14.4,38.9c-9.2,10.7-21.8,17.8-35.7,20.1c-3.4,0.6-5.8,3.8-5.2,7.2c0.5,3.1,3.1,5.3,6.2,5.3c0.3,0,0.7,0,1-0.1
			c16.8-2.7,32.1-11.4,43.2-24.3c11.2-13.1,17.4-29.8,17.4-47.1C311.9,148.6,307.5,134.4,299.2,122.3z"/>
	</g>
</g>
</svg>
