<?xml version="1.0" encoding="utf-8"?>
<!-- Generator: Adobe Illustrator 18.1.1, SVG Export Plug-In . SVG Version: 6.00 Build 0)  -->
<svg version="1.1" id="Capa_1" xmlns="http://www.w3.org/2000/svg" xmlns:xlink="http://www.w3.org/1999/xlink" x="0px" y="0px"
	 viewBox="0 0 318.6 318.6" enable-background="new 0 0 318.6 318.6" xml:space="preserve">
<g>
	<path fill="#2C4F47" d="M131.2,22.8c-70,0-126.8,56.8-126.8,126.8c0,34.3,13.6,65.4,35.7,88.2c0,0-11.4,48.4-1.5,54.7
		c10,6.3,52.2-22.7,52.2-22.7c12.7,4.3,26.3,6.6,40.4,6.6c70,0,126.8-56.8,126.8-126.8S201.2,22.8,131.2,22.8z M131,253.4
		c-14.8,0-28.8-3.1-41.5-8.6l-29.8,17.5l4.5-33.1c-22.7-19.1-37.2-47.7-37.2-79.7c0-57.4,46.5-104,104-104c57.4,0,104,46.5,104,104
		S188.4,253.4,131,253.4z"/>
	<path fill="#2C4F47" d="M144,287.6c7.3,2.7,15,4.8,23,6.1c33.8,5.7,66.7-2.5,92.9-20.5c0,0,45.8,19.3,53.7,10.6
		c7.9-8.8-13.6-55.3-13.6-55.3c6.3-11.8,10.8-24.8,13.2-38.7c10.7-63.2-27.4-123.3-86.8-142c13.5,13.8,23.3,28.3,29.8,43.5
		c26.9,23.2,41.2,59.7,34.5,97.2c-2.6,14.5-8.1,27.8-15.8,39.3l11.9,32.4l-31.8-10.3c-17.2,14.3-38.9,23.1-62,24
		C177.6,281.8,161.4,286.5,144,287.6z"/>
</g>
<rect x="0" y="0" fill="none" width="318.6" height="318.6"/>
</svg>
