<?xml version="1.0" encoding="utf-8"?>
<!-- Generator: Adobe Illustrator 18.1.1, SVG Export Plug-In . SVG Version: 6.00 Build 0)  -->
<svg version="1.1" id="Capa_1" xmlns="http://www.w3.org/2000/svg" xmlns:xlink="http://www.w3.org/1999/xlink" x="0px" y="0px"
	 viewBox="0 0 318.6 318.6" enable-background="new 0 0 318.6 318.6" xml:space="preserve">
<rect x="0" y="0" fill="none" width="318.6" height="318.6"/>
<g>
	<path fill="#2F4052" d="M162.2,6.9C80,6.9,13.4,73.5,13.4,155.6c0,28.1,7.8,54.5,21.4,76.9L7.8,311.7l81.8-26.3
		c21.5,12,46.2,18.9,72.5,18.9c82.1,0,148.7-66.6,148.7-148.7S244.3,6.9,162.2,6.9z M162.3,280.1c-25.6,0-49.4-7.7-69.2-20.9
		l-48.3,16l15.9-47.4c-14.6-20.5-23.3-45.5-23.3-72.6c0-68.9,55.9-124.8,124.8-124.8s124.8,55.9,124.8,124.8
		S231.2,280.1,162.3,280.1z"/>
	<path fill="#2F4052" d="M112.3,88.5c0,0-6.5,0.3-11.8,6.5c-5.4,6.2-11.3,16.9-10.1,29.6s9,34.1,27.9,53.5s28.7,29.3,51.6,38
		s34.9,13.5,50.2,4.5c15.7-8.8,16.8-16.8,17.8-27.1c0-5.6-0.6-4.5-5.4-7c-4.8-2.5-25.6-12.4-25.6-12.4s-6.5-4.2-9.9,1.1
		c-3.4,5.4-11.8,14.7-11.8,14.7s-2,2.8-7.6,0.6c-5.6-2.3-30.4-12.4-47.9-41.4c-2.9-5-0.6-8.2-0.6-8.2l9.3-11c0,0,3-2.3,0.3-9.3
		c-3.4-7.9-11.6-28.2-11.6-28.2s-1.1-3.9-6.5-3.9C112.3,88.5,112.3,88.5,112.3,88.5z"/>
</g>
</svg>
