<?xml version="1.0" encoding="utf-8"?>
<!-- Generator: Adobe Illustrator 18.1.1, SVG Export Plug-In . SVG Version: 6.00 Build 0)  -->
<svg version="1.1" id="Capa_1" xmlns="http://www.w3.org/2000/svg" xmlns:xlink="http://www.w3.org/1999/xlink" x="0px" y="0px"
	 viewBox="0 0 318.6 318.6" enable-background="new 0 0 318.6 318.6" xml:space="preserve">
<rect x="0" y="0" fill="none" width="318.6" height="318.6"/>
<g>
	<g>
		<path fill="#4A3337" d="M302.5,75.6c-12.3-0.6-222.9,0-222.9,0l-4.4-33.8L13.3,22c0,0-9.8,7.6-6.9,22.1c20.5,6,47,14.8,47,14.8
			l22.7,162.9c0,0,0.9,12.9,14.2,13.6c13.3,0.6,196.4,0,196.4,0s11.7-2.5,11.7-11.7c0-9.2-10.4-12-10.4-12L98.9,212l-1.6-14.8
			l201.1-29.4c0,0,6.6-1.3,7.9-9.5c1.3-8.2,5.4-72.6,5.4-72.6S314.9,76.3,302.5,75.6z M82.8,99.6h54.9l3.8,33.2l-53.7,5.4L82.8,99.6
			z M92.9,175.1l-3.8-29.4l54.6-6l3.8,27.5L92.9,175.1z M149.1,99.6h58.4l4.1,25.3l-58.7,6.3L149.1,99.6z M157,165l-3.5-26.8
			l59.7-6.9l3.2,26.2L157,165z M284.2,148.1l-57.3,8.1l-3.5-26.3l62.4-6.5L284.2,148.1z M287.4,116.4l-65.4,6.9l-2.8-23.7h68.2
			V116.4z"/>
		<circle fill="#4A3337" cx="122.6" cy="275.5" r="21.1"/>
		<circle fill="#4A3337" cx="253.1" cy="275.5" r="21.1"/>
	</g>
</g>
</svg>
