<?xml version="1.0" encoding="utf-8"?>
<!-- Generator: Adobe Illustrator 18.1.1, SVG Export Plug-In . SVG Version: 6.00 Build 0)  -->
<svg version="1.1" id="Capa_1" xmlns="http://www.w3.org/2000/svg" xmlns:xlink="http://www.w3.org/1999/xlink" x="0px" y="0px"
	 viewBox="0 90 612 612" enable-background="new 0 90 612 612" xml:space="preserve">
<rect y="90" fill="none" width="612" height="612"/>
<g>
	<g>
		<g>
			<path fill="#4B473A" d="M530.9,266.3v-94.5c0-10.4-5.4-19.8-14.4-25c-9-5.4-19.8-5.4-29-0.2c-87.4,48.8-182.3,77.4-282.4,84.7
				c-0.8,0-91.2,0.4-91.2,0.4c-22.7,0-41.5,17.1-44,39.2H51.3c-20.4,0-36.9,16.5-36.9,36.9v80.9c0,20.4,16.5,36.9,36.9,36.9h18.6
				c1.9,15.9,12.1,29.2,26.1,35.3l66.1,182.3c4,11.3,15,19,27.1,19h66.3c9.4,0,18.2-4.6,23.6-12.3c5.4-7.7,6.7-17.5,3.5-26.3
				L225.9,467c92.4,9.6,180.4,37.5,261.8,83c4.4,2.5,9.4,3.8,14.2,3.8c5,0,10.2-1.3,14.8-4c9-5.2,14.4-14.6,14.4-25v-94.7
				c40.5-5.2,71.8-40,71.8-81.6C602.8,306.3,571.5,271.7,530.9,266.3z M69.5,397.1H51.3c-4.6,0-8.5-3.8-8.5-8.5v-81.1
				c0-4.6,3.8-8.5,8.5-8.5h18.2V397.1z M107.6,434.8c-5.6-2.5-9.4-8.1-9.4-14.6V276.1l0,0c0-8.8,7.1-15.9,15.9-15.9h77.4v176.1
				c0,0-78,0-78.4,0C110.1,435.9,109.5,435.7,107.6,434.8z M255.9,633.2c0,0.2,0,0.2,0,0.4c-0.2,0.2-0.2,0.2-0.4,0.2h-66.3
				c-0.2,0-0.4-0.2-0.4-0.2l-61.1-168.8h67L255.9,633.2z M502.5,524.5c0,0.2,0,0.4-0.4,0.6c-0.4,0.2-0.6,0-0.8,0
				c-87.4-48.8-182.1-78.2-281.8-87.2V258.4c99.7-9,194.4-38.4,281.8-87.2c0.2-0.2,0.4-0.2,0.8,0c0.4,0.2,0.4,0.4,0.4,0.6V524.5z
				 M530.9,401.1V295.3c24.8,5,43.4,26.9,43.4,53C574.4,374.3,555.7,396.2,530.9,401.1z"/>
		</g>
	</g>
</g>
</svg>
