<?xml version="1.0" encoding="utf-8"?>
<!-- Generator: Adobe Illustrator 18.1.1, SVG Export Plug-In . SVG Version: 6.00 Build 0)  -->
<svg version="1.1" id="Capa_1" xmlns="http://www.w3.org/2000/svg" xmlns:xlink="http://www.w3.org/1999/xlink" x="0px" y="0px"
	 viewBox="0 0 318.6 318.6" enable-background="new 0 0 318.6 318.6" xml:space="preserve">
<rect x="0" y="0" fill="none" width="318.6" height="318.6"/>
<path fill="#304F38" d="M301,10.1H104.3c-1.3,0-2.6,0.3-3.7,0.9c-0.2,0.1-0.4,0.2-0.7,0.4l-0.6,0.5L12.7,98.4
	c-0.2,0.2-0.4,0.4-0.6,0.6l-1.7,3.5c0,0.2-0.1,0.4-0.1,0.8c0,0.3,0,0.6,0,0.8v196.6c0,2.2,0.8,4.2,2.3,5.7c0.5,0.5,1.1,0.9,1.9,1.4
	l1.1,0.5l0.7-1.7l-0.3,1.8l1.5,0.3c0.2,0,0.5,0,0.8,0H215l0.1,0c0.2,0,0.5,0,0.7,0l-0.2-1.8l0,0l0.6,1.8l3.9-1.7
	c0.2-0.2,0.4-0.4,0.6-0.6l86-86l1.1-1.4c0.1-0.2,0.2-0.3,0.3-0.6c0.6-1.1,0.9-2.4,0.9-3.6V18C309,13.6,305.4,10.1,301,10.1z
	 M207,222.7v70.1H37.6l70.1-70.1H207z M37.6,96.1l58.8-58.8v58.8H37.6z M96.4,112.1v99.3l-70.1,70.1V112.1H96.4z M207,112.1v94.7
	h-94.7v-94.7H207z M281.8,26l-70.1,70.1h-99.3V26H281.8z M293,37.3v169.4H223v-99.3L293,37.3z M281.8,222.7L223,281.5v-58.8H281.8z
	 M13,101L13,101L13,101L13,101z M12.7,101.6L12.7,101.6L12.7,101.6L12.7,101.6z M12.5,102.1L12.5,102.1L12.5,102.1L12.5,102.1z
	 M12.3,102.6L12.3,102.6L12.3,102.6L12.3,102.6z M16.5,306.7L16.5,306.7L16.5,306.7L16.5,306.7z M17.1,306.8L17.1,306.8L17.1,306.8
	L17.1,306.8z M17.5,306.9L17.5,306.9L17.5,306.9L17.5,306.9z M216,306.8L216,306.8L216,306.8L216,306.8z M216.6,306.7L216.6,306.7
	L216.6,306.7L216.6,306.7z M217.2,306.5L217.2,306.5L217.2,306.5L217.2,306.5z M217.7,306.3L217.7,306.3L217.7,306.3L217.7,306.3z
	 M218.2,306L218.2,306L218.2,306L218.2,306z M218.7,305.7L218.7,305.7L218.7,305.7L218.7,305.7z M306.5,217.6L306.5,217.6
	L306.5,217.6L306.5,217.6z"/>
</svg>
