<?xml version="1.0" encoding="utf-8"?>
<!-- Generator: Adobe Illustrator 18.1.1, SVG Export Plug-In . SVG Version: 6.00 Build 0)  -->
<svg version="1.1" id="Capa_1" xmlns="http://www.w3.org/2000/svg" xmlns:xlink="http://www.w3.org/1999/xlink" x="0px" y="0px"
	 viewBox="0 0 318.6 318.6" enable-background="new 0 0 318.6 318.6" xml:space="preserve">
<rect x="0" y="0" fill="none" width="318.6" height="318.6"/>
<path fill="#4B3C2E" d="M246.6,45.4C228.2,24.9,202.7,11.3,175,7.3c-6-0.9-12.1-1.3-18.2-1.3C91.3,5.9,38,57.3,38,120.5l0,0.9
	c0,5.6,4.7,10.2,10.3,10.2h19.2l49.1,51.5h-13.3c-6.9,0-12.5,5.6-12.5,12.5v103.9c0,6.9,5.6,12.5,12.5,12.5h110.6
	c6.9,0,12.5-5.6,12.5-12.5V195.5c0-6.9-5.6-12.5-12.5-12.5h-11.6l49.1-51.5h14.1c5.6,0,10.2-4.6,10.3-10.2l0-0.8
	C275.7,92.9,265.4,66.2,246.6,45.4z M257.2,113.3h-36.4c-0.8-31.8-5.6-57.6-14.3-76.7c10,5.5,19.1,12.6,26.7,21
	C247.2,73.2,255.6,92.8,257.2,113.3z M142,25.2c10.1-1.4,20.4-1.4,30.3,0.1c1.5,0.2,3,0.5,4.5,0.8c1.4,1,23.9,17.2,25.7,87.3h-86
	c0.6-21.7,3.5-50.5,13.6-71.1c6.1-12.6,12.2-16.3,12.2-16.3L142,25.2z M114.5,33.1c-9.8,19.4-15.2,46.4-16,80.3h-42
	C59.2,78.6,81.7,47.7,114.5,33.1z M142.8,257.6h29.7c6.8,0,12.3-5.5,12.3-12.3v-43.9h23.1v91.9h-98.6v-91.9h21.3v43.9
	C130.6,252.1,136.1,257.6,142.8,257.6z M149.1,239.1v-37.4h17.2v37.4H149.1z M151.2,131.5V183h-9.1L93,131.5H151.2z M176.7,183h-7.1
	v-51.5h56.2L176.7,183z"/>
</svg>
