<?xml version="1.0" encoding="utf-8"?>
<!-- Generator: Adobe Illustrator 18.1.1, SVG Export Plug-In . SVG Version: 6.00 Build 0)  -->
<svg version="1.1" id="Capa_1" xmlns="http://www.w3.org/2000/svg" xmlns:xlink="http://www.w3.org/1999/xlink" x="0px" y="0px"
	 viewBox="0 0 280.5 381.8" enable-background="new 0 0 280.5 381.8" xml:space="preserve">
<path fill="#FAFAFA" d="M267.8,381.8H12.7c-7,0-12.7-5.7-12.7-12.7V12.7C0,5.7,5.7,0,12.7,0h255.1c7,0,12.7,5.7,12.7,12.7v356.4
	C280.5,376.1,274.8,381.8,267.8,381.8z"/>
<g>
	<path fill="#429DFF" d="M36.3,155.9l-6.8,9.1h-0.8l-6.7-9.1v15.3h-4v-21h4.6l6.6,9l6.6-9h4.5v21h-4V155.9z"/>
	<path fill="#429DFF" d="M54.5,156.4H58v14.8h-3.5l-0.2-2.2c-0.8,1.7-3.1,2.6-4.8,2.6c-4.4,0-7.6-2.7-7.6-7.9c0-5.1,3.4-7.8,7.7-7.7
		c2,0,3.9,0.9,4.7,2.4L54.5,156.4z M45.7,163.7c0,2.8,2,4.5,4.4,4.5c5.8,0,5.8-9,0-9C47.6,159.3,45.7,160.9,45.7,163.7z"/>
	<path fill="#429DFF" d="M63.3,156.4l0.3,1.7c1.1-1.8,2.7-2.1,4.2-2.1c1.5,0,3,0.6,3.8,1.4l-1.6,3.2c-0.8-0.6-1.4-1-2.6-1
		c-1.9,0-3.7,1-3.7,3.7v7.8h-3.7v-14.8H63.3z"/>
	<path fill="#429DFF" d="M75.3,150.2v12.1l5-5.9h4.4v0.2l-6,6.8l6.9,7.6v0.3h-4.4l-5.8-6.7v6.7h-3.7v-21H75.3z"/>
	<path fill="#429DFF" d="M89.1,165.1c0.2,1.8,1.8,3.2,4.4,3.2c1.4,0,3.1-0.5,4-1.4l2.3,2.3c-1.6,1.6-4.1,2.4-6.4,2.4
		c-5.1,0-8.1-3.2-8.1-7.9c0-4.5,3.1-7.7,7.9-7.7c4.9,0,8,3.1,7.5,9.1H89.1z M97.2,162c-0.2-1.9-1.7-2.9-3.8-2.9c-2,0-3.6,1-4.1,2.9
		H97.2z"/>
	<path fill="#429DFF" d="M106.8,152.2v4.2h4.1v3.1h-4.1v6.4c0,1.4,0.8,2.1,1.9,2.1c0.6,0,1.2-0.2,1.8-0.4l1,3.1
		c-1,0.4-1.9,0.6-3,0.6c-3.2,0.1-5.3-1.7-5.3-5.4v-6.4h-2.8v-3.1h2.8v-3.8L106.8,152.2z"/>
	<path fill="#429DFF" d="M116.4,152.2c0,2.8-4.3,2.8-4.3,0S116.4,149.3,116.4,152.2z M112.4,156.3v14.8h3.7v-14.8H112.4z"/>
	<path fill="#429DFF" d="M129.1,171.1v-7.7c0-2.2-1.2-4-3.6-4c-2.2,0-3.8,1.9-3.8,4.1v7.6h-3.6v-14.8h3.3l0.2,2
		c1.5-1.5,3-2.2,4.9-2.2c3.5,0,6.3,2.6,6.3,7.3v7.8H129.1z"/>
	<path fill="#429DFF" d="M146.3,154.9l2.7,2l-1.7,2.1c1.1,1.3,1.6,2.8,1.6,4.4c0,1.8-0.7,4.4-3.1,5.5c2.5,1.2,3.1,3,3.1,4.9
		c0,4.1-3.1,6.6-7.4,6.6c-4.3,0-7.5-2.6-7.5-6.6h3.6c0,1.9,1.8,3.2,3.9,3.2c2.1,0,3.8-1.1,3.8-3.2c0-2-1.9-3-3.8-3
		c-4.6,0-7.5-2.8-7.5-7.4s3.4-7.5,7.5-7.5c1.2,0,2.4,0.2,3.4,0.8L146.3,154.9z M137.6,163.4c0,2.6,1.7,4.1,3.9,4.1
		c2.1,0,3.8-1.6,3.8-4.1s-1.7-4.2-3.8-4.2C139.3,159.2,137.6,160.8,137.6,163.4z"/>
	<path fill="#429DFF" d="M173.7,160.5c0.1,5.3-3.1,10.7-10.5,10.7c-2.6,0-5.7,0-8.2,0v-21c2.6,0,5.7,0,8.2,0
		C170.4,150.1,173.6,155.3,173.7,160.5z M158.8,167.3h4.3c4.8,0,6.7-3.5,6.6-6.9c-0.1-3.3-2-6.5-6.6-6.5h-4.3V167.3z"/>
	<path fill="#429DFF" d="M178.8,152.2c0,2.8-4.3,2.8-4.3,0S178.8,149.3,178.8,152.2z M174.8,156.3v14.8h3.7v-14.8H174.8z"/>
	<path fill="#429DFF" d="M192.2,154.9l2.7,2l-1.7,2.1c1.1,1.3,1.6,2.8,1.6,4.4c0,1.8-0.7,4.4-3.1,5.5c2.5,1.2,3.1,3,3.1,4.9
		c0,4.1-3.1,6.6-7.4,6.6c-4.3,0-7.5-2.6-7.5-6.6h3.6c0,1.9,1.8,3.2,3.9,3.2c2.1,0,3.8-1.1,3.8-3.2c0-2-1.9-3-3.8-3
		c-4.6,0-7.5-2.8-7.5-7.4s3.4-7.5,7.5-7.5c1.2,0,2.4,0.2,3.4,0.8L192.2,154.9z M183.4,163.4c0,2.6,1.7,4.1,3.9,4.1
		c2.1,0,3.8-1.6,3.8-4.1s-1.7-4.2-3.8-4.2C185.2,159.2,183.4,160.8,183.4,163.4z"/>
	<path fill="#429DFF" d="M199.9,152.2c0,2.8-4.3,2.8-4.3,0S199.9,149.3,199.9,152.2z M195.9,156.3v14.8h3.7v-14.8H195.9z"/>
	<path fill="#429DFF" d="M206.8,152.2v4.2h4.1v3.1h-4.1v6.4c0,1.4,0.8,2.1,1.9,2.1c0.6,0,1.2-0.2,1.8-0.4l1,3.1
		c-1,0.4-1.9,0.6-3,0.6c-3.2,0.1-5.3-1.7-5.3-5.4v-6.4h-2.8v-3.1h2.8v-3.8L206.8,152.2z"/>
	<path fill="#429DFF" d="M224.2,156.4h3.5v14.8h-3.5l-0.2-2.2c-0.8,1.7-3.2,2.6-4.8,2.6c-4.4,0-7.6-2.7-7.6-7.9
		c0-5.1,3.4-7.8,7.7-7.7c2,0,3.9,0.9,4.7,2.4L224.2,156.4z M215.3,163.7c0,2.8,1.9,4.5,4.4,4.5c5.8,0,5.8-9,0-9
		C217.3,159.3,215.3,160.9,215.3,163.7z"/>
	<path fill="#429DFF" d="M233.2,150.2v21h-3.6v-21H233.2z"/>
</g>
<g>
	<g>
		<path fill="#444444" d="M32.4,197.6c0,2.7-0.8,4.8-2.3,6.2s-3.7,2.2-6.5,2.2H19v-16.4h5.1c2.6,0,4.6,0.7,6.1,2.1
			C31.6,193.1,32.4,195,32.4,197.6z M29.5,197.7c0-3.9-1.8-5.9-5.5-5.9h-2.3v11.9h1.9C27.6,203.7,29.5,201.7,29.5,197.7z"/>
		<path fill="#444444" d="M41,206.2c-1.9,0-3.4-0.6-4.5-1.7c-1.1-1.1-1.6-2.7-1.6-4.7c0-2,0.5-3.6,1.5-4.8c1-1.2,2.4-1.7,4.2-1.7
			c1.6,0,2.9,0.5,3.9,1.5c1,1,1.4,2.4,1.4,4.1v1.4h-8.3c0,1.2,0.4,2.1,1,2.8c0.6,0.6,1.5,1,2.6,1c0.7,0,1.4-0.1,2-0.2
			c0.6-0.1,1.3-0.4,2-0.7v2.1c-0.6,0.3-1.3,0.5-2,0.7C42.6,206.1,41.9,206.2,41,206.2z M40.6,195.3c-0.8,0-1.5,0.3-2,0.8
			c-0.5,0.5-0.8,1.3-0.9,2.3h5.6c0-1-0.3-1.8-0.7-2.3C42.1,195.6,41.4,195.3,40.6,195.3z"/>
		<path fill="#444444" d="M57.2,202.4c0,1.2-0.4,2.1-1.3,2.8c-0.9,0.6-2.1,1-3.8,1c-1.7,0-3-0.3-4-0.8v-2.3c1.5,0.7,2.8,1,4.1,1
			c1.6,0,2.4-0.5,2.4-1.5c0-0.3-0.1-0.6-0.3-0.8c-0.2-0.2-0.5-0.4-0.9-0.7s-1-0.5-1.7-0.8c-1.4-0.6-2.4-1.1-2.9-1.7
			c-0.5-0.6-0.8-1.3-0.8-2.2c0-1.1,0.4-1.9,1.3-2.5c0.9-0.6,2-0.9,3.5-0.9c1.5,0,2.8,0.3,4.1,0.9l-0.9,2c-1.3-0.6-2.5-0.8-3.4-0.8
			c-1.4,0-2.1,0.4-2.1,1.2c0,0.4,0.2,0.7,0.5,1c0.4,0.3,1.2,0.6,2.4,1.1c1,0.4,1.8,0.8,2.2,1.1c0.5,0.3,0.8,0.7,1,1.1
			C57.1,201.3,57.2,201.8,57.2,202.4z"/>
		<path fill="#444444" d="M67.8,206l-0.5-1.7h-0.1c-0.6,0.8-1.2,1.3-1.8,1.5c-0.6,0.3-1.4,0.4-2.3,0.4c-1.2,0-2.2-0.3-2.9-1
			c-0.7-0.7-1-1.6-1-2.8c0-1.3,0.5-2.2,1.4-2.9s2.4-1,4.3-1.1l2.1-0.1v-0.7c0-0.8-0.2-1.4-0.6-1.8c-0.4-0.4-0.9-0.6-1.7-0.6
			c-0.6,0-1.2,0.1-1.8,0.3c-0.6,0.2-1.1,0.4-1.7,0.7l-0.9-1.9c0.7-0.4,1.4-0.6,2.2-0.8s1.6-0.3,2.3-0.3c1.6,0,2.8,0.3,3.6,1
			c0.8,0.7,1.2,1.8,1.2,3.2v8.4H67.8z M63.9,204.2c1,0,1.7-0.3,2.3-0.8c0.6-0.5,0.9-1.3,0.9-2.3V200l-1.6,0.1
			c-1.2,0-2.1,0.3-2.7,0.6c-0.6,0.4-0.8,0.9-0.8,1.7c0,0.6,0.2,1,0.5,1.3C62.7,204,63.2,204.2,63.9,204.2z"/>
		<path fill="#444444" d="M79.7,193.3c0.5,0,1,0,1.3,0.1l-0.3,2.5c-0.4-0.1-0.8-0.1-1.2-0.1c-1.1,0-1.9,0.3-2.6,1
			c-0.7,0.7-1,1.6-1,2.7v6.5h-2.6v-12.4h2.1l0.3,2.2H76c0.4-0.7,0.9-1.3,1.6-1.8C78.2,193.5,78.9,193.3,79.7,193.3z"/>
		<path fill="#444444" d="M89.6,193.3c0.5,0,1,0,1.3,0.1l-0.3,2.5c-0.4-0.1-0.8-0.1-1.2-0.1c-1.1,0-1.9,0.3-2.6,1
			c-0.7,0.7-1,1.6-1,2.7v6.5h-2.6v-12.4h2.1l0.3,2.2h0.1c0.4-0.7,0.9-1.3,1.6-1.8C88.1,193.5,88.9,193.3,89.6,193.3z"/>
		<path fill="#444444" d="M104.3,199.7c0,2-0.5,3.6-1.6,4.8c-1,1.1-2.5,1.7-4.3,1.7c-1.2,0-2.2-0.3-3.1-0.8
			c-0.9-0.5-1.6-1.3-2.1-2.3c-0.5-1-0.7-2.1-0.7-3.4c0-2,0.5-3.6,1.5-4.7c1-1.1,2.5-1.7,4.4-1.7c1.8,0,3.2,0.6,4.3,1.7
			C103.7,196.2,104.3,197.8,104.3,199.7z M95.2,199.7c0,2.9,1.1,4.3,3.2,4.3c2.1,0,3.1-1.4,3.1-4.3c0-2.8-1.1-4.3-3.2-4.3
			c-1.1,0-1.9,0.4-2.4,1.1C95.5,197.3,95.2,198.4,95.2,199.7z"/>
		<path fill="#444444" d="M109.9,206h-2.6v-17.5h2.6V206z"/>
		<path fill="#444444" d="M116.3,206h-2.6v-17.5h2.6V206z"/>
		<path fill="#444444" d="M131.1,199.7c0,2-0.5,3.6-1.6,4.8c-1,1.1-2.5,1.7-4.3,1.7c-1.2,0-2.2-0.3-3.1-0.8
			c-0.9-0.5-1.6-1.3-2.1-2.3c-0.5-1-0.7-2.1-0.7-3.4c0-2,0.5-3.6,1.5-4.7c1-1.1,2.5-1.7,4.4-1.7c1.8,0,3.2,0.6,4.3,1.7
			C130.6,196.2,131.1,197.8,131.1,199.7z M122.1,199.7c0,2.9,1.1,4.3,3.2,4.3c2.1,0,3.1-1.4,3.1-4.3c0-2.8-1.1-4.3-3.2-4.3
			c-1.1,0-1.9,0.4-2.4,1.1C122.3,197.3,122.1,198.4,122.1,199.7z"/>
		<path fill="#444444" d="M144.3,206.2c-1.5,0-2.8-0.6-3.6-1.7c-0.9-1.1-1.3-2.7-1.3-4.7c0-2,0.4-3.6,1.3-4.8
			c0.9-1.1,2.1-1.7,3.7-1.7c1.6,0,2.9,0.6,3.7,1.8h0.1c-0.1-0.9-0.2-1.6-0.2-2.1v-4.5h2.7V206h-2.1l-0.5-1.6H148
			C147.2,205.6,146,206.2,144.3,206.2z M145,204c1.1,0,1.9-0.3,2.4-0.9s0.7-1.6,0.8-3v-0.4c0-1.6-0.3-2.7-0.8-3.3
			c-0.5-0.7-1.3-1-2.4-1c-0.9,0-1.6,0.4-2.1,1.1c-0.5,0.8-0.8,1.8-0.8,3.2c0,1.4,0.2,2.4,0.7,3.1C143.3,203.7,144.1,204,145,204z"/>
		<path fill="#444444" d="M159.9,206.2c-1.9,0-3.4-0.6-4.5-1.7c-1.1-1.1-1.6-2.7-1.6-4.7c0-2,0.5-3.6,1.5-4.8c1-1.2,2.4-1.7,4.2-1.7
			c1.6,0,2.9,0.5,3.9,1.5c1,1,1.4,2.4,1.4,4.1v1.4h-8.3c0,1.2,0.4,2.1,1,2.8c0.6,0.6,1.5,1,2.6,1c0.7,0,1.4-0.1,2-0.2
			c0.6-0.1,1.3-0.4,2-0.7v2.1c-0.6,0.3-1.3,0.5-2,0.7C161.5,206.1,160.7,206.2,159.9,206.2z M159.4,195.3c-0.8,0-1.5,0.3-2,0.8
			c-0.5,0.5-0.8,1.3-0.9,2.3h5.6c0-1-0.3-1.8-0.7-2.3C160.9,195.6,160.2,195.3,159.4,195.3z"/>
		<path fill="#444444" d="M23.7,233.2c-1.9,0-3.3-0.5-4.3-1.6c-1-1.1-1.5-2.7-1.5-4.7c0-2.1,0.5-3.7,1.5-4.8c1-1.1,2.5-1.7,4.4-1.7
			c1.3,0,2.5,0.2,3.5,0.7l-0.8,2.1c-1.1-0.4-2-0.7-2.8-0.7c-2.1,0-3.2,1.4-3.2,4.3c0,1.4,0.3,2.4,0.8,3.1c0.5,0.7,1.3,1,2.4,1
			c1.2,0,2.3-0.3,3.3-0.9v2.3c-0.5,0.3-1,0.5-1.5,0.6C25.2,233.1,24.5,233.2,23.7,233.2z"/>
		<path fill="#444444" d="M37.9,233l-0.5-1.7h-0.1c-0.6,0.8-1.2,1.3-1.8,1.5c-0.6,0.3-1.4,0.4-2.3,0.4c-1.2,0-2.2-0.3-2.9-1
			c-0.7-0.7-1-1.6-1-2.8c0-1.3,0.5-2.2,1.4-2.9s2.4-1,4.3-1.1l2.1-0.1v-0.7c0-0.8-0.2-1.4-0.6-1.8c-0.4-0.4-0.9-0.6-1.7-0.6
			c-0.6,0-1.2,0.1-1.8,0.3c-0.6,0.2-1.1,0.4-1.7,0.7l-0.9-1.9c0.7-0.4,1.4-0.6,2.2-0.8c0.8-0.2,1.6-0.3,2.3-0.3c1.6,0,2.8,0.3,3.6,1
			c0.8,0.7,1.2,1.8,1.2,3.2v8.4H37.9z M34,231.2c1,0,1.7-0.3,2.3-0.8c0.6-0.5,0.9-1.3,0.9-2.3V227l-1.6,0.1c-1.2,0-2.1,0.3-2.7,0.6
			c-0.6,0.4-0.8,0.9-0.8,1.7c0,0.6,0.2,1,0.5,1.3C32.8,231,33.3,231.2,34,231.2z"/>
		<path fill="#444444" d="M53.9,233h-2.7v-7.7c0-1-0.2-1.7-0.5-2.1s-0.9-0.7-1.7-0.7c-1,0-1.8,0.3-2.2,1c-0.5,0.7-0.7,1.8-0.7,3.3
			v6.2h-2.6v-12.4h2.1l0.4,1.6H46c0.3-0.6,0.8-1,1.5-1.4c0.7-0.3,1.4-0.5,2.2-0.5c1.9,0,3.2,0.7,3.8,2h0.2c0.4-0.6,0.9-1.1,1.5-1.4
			c0.7-0.3,1.4-0.5,2.3-0.5c1.5,0,2.6,0.4,3.2,1.1c0.7,0.7,1,1.9,1,3.4v8.1h-2.6v-7.7c0-1-0.2-1.7-0.5-2.1c-0.4-0.5-0.9-0.7-1.7-0.7
			c-1,0-1.8,0.3-2.3,1c-0.5,0.6-0.7,1.6-0.7,2.9V233z"/>
		<path fill="#444444" d="M71.8,233.2c-1.6,0-2.8-0.6-3.7-1.7h-0.2c0.1,1,0.2,1.7,0.2,1.9v5.1h-2.6v-17.9h2.1
			c0.1,0.2,0.2,0.8,0.4,1.7h0.1c0.8-1.3,2.1-1.9,3.7-1.9c1.5,0,2.8,0.6,3.6,1.7c0.9,1.1,1.3,2.7,1.3,4.7c0,2-0.4,3.6-1.3,4.8
			C74.5,232.6,73.3,233.2,71.8,233.2z M71.1,222.5c-1,0-1.8,0.3-2.3,0.9c-0.5,0.6-0.7,1.6-0.7,2.9v0.4c0,1.5,0.2,2.6,0.7,3.3
			c0.5,0.7,1.3,1,2.3,1c0.9,0,1.6-0.4,2.1-1.1c0.5-0.7,0.7-1.8,0.7-3.2c0-1.4-0.2-2.4-0.7-3.2C72.8,222.8,72.1,222.5,71.1,222.5z"/>
		<path fill="#444444" d="M87.6,233l-0.5-1.7h-0.1c-0.6,0.8-1.2,1.3-1.8,1.5c-0.6,0.3-1.4,0.4-2.3,0.4c-1.2,0-2.2-0.3-2.9-1
			c-0.7-0.7-1-1.6-1-2.8c0-1.3,0.5-2.2,1.4-2.9s2.4-1,4.3-1.1l2.1-0.1v-0.7c0-0.8-0.2-1.4-0.6-1.8c-0.4-0.4-0.9-0.6-1.7-0.6
			c-0.6,0-1.2,0.1-1.8,0.3c-0.6,0.2-1.1,0.4-1.7,0.7l-0.9-1.9c0.7-0.4,1.4-0.6,2.2-0.8s1.6-0.3,2.3-0.3c1.6,0,2.8,0.3,3.6,1
			c0.8,0.7,1.2,1.8,1.2,3.2v8.4H87.6z M83.6,231.2c1,0,1.7-0.3,2.3-0.8c0.6-0.5,0.9-1.3,0.9-2.3V227l-1.6,0.1
			c-1.2,0-2.1,0.3-2.7,0.6c-0.6,0.4-0.8,0.9-0.8,1.7c0,0.6,0.2,1,0.5,1.3C82.5,231,83,231.2,83.6,231.2z"/>
		<path fill="#444444" d="M104.1,233h-2.7v-7.6c0-1-0.2-1.7-0.6-2.1c-0.4-0.5-1-0.7-1.8-0.7c-1.1,0-1.9,0.3-2.4,1
			c-0.5,0.7-0.8,1.8-0.8,3.3v6.2h-2.6v-12.4h2.1l0.4,1.6h0.1c0.4-0.6,0.9-1,1.6-1.4c0.7-0.3,1.5-0.5,2.3-0.5c3,0,4.5,1.5,4.5,4.5
			V233z M100.3,219c-0.3,0-0.6-0.1-0.9-0.2c-0.3-0.1-0.6-0.3-0.9-0.4s-0.6-0.3-0.9-0.4c-0.3-0.1-0.5-0.2-0.8-0.2
			c-0.6,0-1,0.4-1.2,1.3h-1.4c0.1-1,0.4-1.8,0.9-2.4c0.5-0.5,1.1-0.8,1.9-0.8c0.3,0,0.6,0.1,0.9,0.2c0.3,0.1,0.6,0.3,0.9,0.4
			s0.6,0.3,0.8,0.4c0.3,0.1,0.5,0.2,0.8,0.2c0.6,0,1-0.4,1.2-1.3h1.4c-0.1,1-0.4,1.8-0.9,2.4C101.7,218.7,101.1,219,100.3,219z"/>
		<path fill="#444444" d="M115.5,233l-0.5-1.7h-0.1c-0.6,0.8-1.2,1.3-1.8,1.5c-0.6,0.3-1.4,0.4-2.3,0.4c-1.2,0-2.2-0.3-2.9-1
			c-0.7-0.7-1-1.6-1-2.8c0-1.3,0.5-2.2,1.4-2.9s2.4-1,4.3-1.1l2.1-0.1v-0.7c0-0.8-0.2-1.4-0.6-1.8c-0.4-0.4-0.9-0.6-1.7-0.6
			c-0.6,0-1.2,0.1-1.8,0.3c-0.6,0.2-1.1,0.4-1.7,0.7l-0.9-1.9c0.7-0.4,1.4-0.6,2.2-0.8s1.6-0.3,2.3-0.3c1.6,0,2.8,0.3,3.6,1
			c0.8,0.7,1.2,1.8,1.2,3.2v8.4H115.5z M111.6,231.2c1,0,1.7-0.3,2.3-0.8c0.6-0.5,0.9-1.3,0.9-2.3V227l-1.6,0.1
			c-1.2,0-2.1,0.3-2.7,0.6c-0.6,0.4-0.8,0.9-0.8,1.7c0,0.6,0.2,1,0.5,1.3C110.4,231,110.9,231.2,111.6,231.2z"/>
		<path fill="#444444" d="M129.4,229.4c0,1.2-0.4,2.1-1.3,2.8c-0.9,0.6-2.1,1-3.8,1c-1.7,0-3-0.3-4-0.8v-2.3c1.5,0.7,2.8,1,4.1,1
			c1.6,0,2.4-0.5,2.4-1.5c0-0.3-0.1-0.6-0.3-0.8c-0.2-0.2-0.5-0.4-0.9-0.7s-1-0.5-1.7-0.8c-1.4-0.6-2.4-1.1-2.9-1.7
			c-0.5-0.6-0.8-1.3-0.8-2.2c0-1.1,0.4-1.9,1.3-2.5c0.9-0.6,2-0.9,3.5-0.9c1.5,0,2.8,0.3,4.1,0.9l-0.9,2c-1.3-0.6-2.5-0.8-3.4-0.8
			c-1.4,0-2.1,0.4-2.1,1.2c0,0.4,0.2,0.7,0.5,1c0.4,0.3,1.2,0.6,2.4,1.1c1,0.4,1.8,0.8,2.2,1.1c0.5,0.3,0.8,0.7,1,1.1
			C129.3,228.3,129.4,228.8,129.4,229.4z"/>
		<path fill="#444444" d="M146,233l-0.5-1.7h-0.1c-0.6,0.8-1.2,1.3-1.8,1.5c-0.6,0.3-1.4,0.4-2.3,0.4c-1.2,0-2.2-0.3-2.9-1
			c-0.7-0.7-1-1.6-1-2.8c0-1.3,0.5-2.2,1.4-2.9s2.4-1,4.3-1.1l2.1-0.1v-0.7c0-0.8-0.2-1.4-0.6-1.8c-0.4-0.4-0.9-0.6-1.7-0.6
			c-0.6,0-1.2,0.1-1.8,0.3c-0.6,0.2-1.1,0.4-1.7,0.7l-0.9-1.9c0.7-0.4,1.4-0.6,2.2-0.8c0.8-0.2,1.6-0.3,2.3-0.3c1.6,0,2.8,0.3,3.6,1
			c0.8,0.7,1.2,1.8,1.2,3.2v8.4H146z M142.1,231.2c1,0,1.7-0.3,2.3-0.8c0.6-0.5,0.9-1.3,0.9-2.3V227l-1.6,0.1
			c-1.2,0-2.1,0.3-2.7,0.6c-0.6,0.4-0.8,0.9-0.8,1.7c0,0.6,0.2,1,0.5,1.3C140.9,231,141.4,231.2,142.1,231.2z"/>
		<path fill="#444444" d="M162.2,231c0.6,0,1.3-0.1,1.9-0.3v2c-0.3,0.1-0.7,0.2-1.1,0.3c-0.5,0.1-0.9,0.1-1.4,0.1
			c-2.5,0-3.8-1.3-3.8-4v-6.7h-1.7v-1.2l1.8-1l0.9-2.6h1.6v2.8h3.5v2h-3.5v6.6c0,0.6,0.2,1.1,0.5,1.4
			C161.2,230.9,161.7,231,162.2,231z"/>
		<path fill="#444444" d="M172.9,220.3c0.5,0,1,0,1.3,0.1l-0.3,2.5c-0.4-0.1-0.8-0.1-1.2-0.1c-1.1,0-1.9,0.3-2.6,1
			c-0.7,0.7-1,1.6-1,2.7v6.5h-2.6v-12.4h2.1l0.3,2.2h0.1c0.4-0.7,0.9-1.3,1.6-1.8C171.4,220.5,172.1,220.3,172.9,220.3z"/>
		<path fill="#444444" d="M184.3,233l-0.5-1.7h-0.1c-0.6,0.8-1.2,1.3-1.8,1.5c-0.6,0.3-1.4,0.4-2.3,0.4c-1.2,0-2.2-0.3-2.9-1
			c-0.7-0.7-1-1.6-1-2.8c0-1.3,0.5-2.2,1.4-2.9c1-0.7,2.4-1,4.3-1.1l2.1-0.1v-0.7c0-0.8-0.2-1.4-0.6-1.8c-0.4-0.4-0.9-0.6-1.7-0.6
			c-0.6,0-1.2,0.1-1.8,0.3c-0.6,0.2-1.1,0.4-1.7,0.7l-0.9-1.9c0.7-0.4,1.4-0.6,2.2-0.8c0.8-0.2,1.6-0.3,2.3-0.3c1.6,0,2.8,0.3,3.6,1
			c0.8,0.7,1.2,1.8,1.2,3.2v8.4H184.3z M180.4,231.2c1,0,1.7-0.3,2.3-0.8c0.6-0.5,0.9-1.3,0.9-2.3V227l-1.6,0.1
			c-1.2,0-2.1,0.3-2.7,0.6c-0.6,0.4-0.8,0.9-0.8,1.7c0,0.6,0.2,1,0.5,1.3C179.2,231,179.7,231.2,180.4,231.2z"/>
		<path fill="#444444" d="M192.7,233l-4.7-12.4h2.8l2.5,7.2c0.4,1.2,0.7,2.2,0.8,2.9h0.1c0.1-0.5,0.3-1.5,0.8-2.9l2.5-7.2h2.8
			l-4.7,12.4H192.7z"/>
		<path fill="#444444" d="M207.6,233.2c-1.9,0-3.4-0.6-4.5-1.7c-1.1-1.1-1.6-2.7-1.6-4.7c0-2,0.5-3.6,1.5-4.8c1-1.2,2.4-1.7,4.2-1.7
			c1.6,0,2.9,0.5,3.9,1.5c1,1,1.4,2.4,1.4,4.1v1.4h-8.3c0,1.2,0.4,2.1,1,2.8c0.6,0.6,1.5,1,2.6,1c0.7,0,1.4-0.1,2-0.2
			c0.6-0.1,1.3-0.4,2-0.7v2.1c-0.6,0.3-1.3,0.5-2,0.7C209.2,233.1,208.4,233.2,207.6,233.2z M207.1,222.3c-0.8,0-1.5,0.3-2,0.8
			c-0.5,0.5-0.8,1.3-0.9,2.3h5.6c0-1-0.3-1.8-0.7-2.3C208.6,222.6,207.9,222.3,207.1,222.3z"/>
		<path fill="#444444" d="M223.7,233h-9.4v-1.6l6.3-8.8h-5.9v-2h8.9v1.8l-6.1,8.6h6.3V233z"/>
		<path fill="#444444" d="M236.6,233.2c-1.5,0-2.8-0.6-3.6-1.7c-0.9-1.1-1.3-2.7-1.3-4.7c0-2,0.4-3.6,1.3-4.8
			c0.9-1.1,2.1-1.7,3.7-1.7c1.6,0,2.9,0.6,3.7,1.8h0.1c-0.1-0.9-0.2-1.6-0.2-2.1v-4.5h2.7V233h-2.1l-0.5-1.6h-0.1
			C239.4,232.6,238.2,233.2,236.6,233.2z M237.3,231c1.1,0,1.9-0.3,2.4-0.9s0.7-1.6,0.8-3v-0.4c0-1.6-0.3-2.7-0.8-3.3
			c-0.5-0.7-1.3-1-2.4-1c-0.9,0-1.6,0.4-2.1,1.1c-0.5,0.8-0.8,1.8-0.8,3.2c0,1.4,0.2,2.4,0.7,3.1C235.6,230.7,236.3,231,237.3,231z"
			/>
		<path fill="#444444" d="M252.1,233.2c-1.9,0-3.4-0.6-4.5-1.7c-1.1-1.1-1.6-2.7-1.6-4.7c0-2,0.5-3.6,1.5-4.8c1-1.2,2.4-1.7,4.2-1.7
			c1.6,0,2.9,0.5,3.9,1.5c1,1,1.4,2.4,1.4,4.1v1.4h-8.3c0,1.2,0.4,2.1,1,2.8c0.6,0.6,1.5,1,2.6,1c0.7,0,1.4-0.1,2-0.2
			c0.6-0.1,1.3-0.4,2-0.7v2.1c-0.6,0.3-1.3,0.5-2,0.7C253.7,233.1,253,233.2,252.1,233.2z M251.7,222.3c-0.8,0-1.5,0.3-2,0.8
			c-0.5,0.5-0.8,1.3-0.9,2.3h5.6c0-1-0.3-1.8-0.7-2.3C253.2,222.6,252.5,222.3,251.7,222.3z"/>
		<path fill="#444444" d="M21.7,260H19v-16.4h9.3v2.3h-6.6v5.1h6.2v2.3h-6.2V260z"/>
		<path fill="#444444" d="M38.7,260l-0.5-1.7h-0.1c-0.6,0.8-1.2,1.3-1.8,1.5c-0.6,0.3-1.4,0.4-2.3,0.4c-1.2,0-2.2-0.3-2.9-1
			c-0.7-0.7-1-1.6-1-2.8c0-1.3,0.5-2.2,1.4-2.9c1-0.7,2.4-1,4.3-1.1l2.1-0.1v-0.7c0-0.8-0.2-1.4-0.6-1.8c-0.4-0.4-0.9-0.6-1.7-0.6
			c-0.6,0-1.2,0.1-1.8,0.3c-0.6,0.2-1.1,0.4-1.7,0.7l-0.9-1.9c0.7-0.4,1.4-0.6,2.2-0.8s1.6-0.3,2.3-0.3c1.6,0,2.8,0.3,3.6,1
			c0.8,0.7,1.2,1.8,1.2,3.2v8.4H38.7z M34.8,258.2c1,0,1.7-0.3,2.3-0.8c0.6-0.5,0.9-1.3,0.9-2.3V254l-1.6,0.1
			c-1.2,0-2.1,0.3-2.7,0.6c-0.6,0.4-0.8,0.9-0.8,1.7c0,0.6,0.2,1,0.5,1.3C33.7,258,34.2,258.2,34.8,258.2z"/>
		<path fill="#444444" d="M49.3,260.2c-1.9,0-3.3-0.5-4.3-1.6c-1-1.1-1.5-2.7-1.5-4.7c0-2.1,0.5-3.7,1.5-4.8c1-1.1,2.5-1.7,4.4-1.7
			c1.3,0,2.5,0.2,3.5,0.7l-0.8,2.1c-1.1-0.4-2-0.7-2.8-0.7c-2.1,0-3.2,1.4-3.2,4.3c0,1.4,0.3,2.4,0.8,3.1c0.5,0.7,1.3,1,2.4,1
			c1.2,0,2.3-0.3,3.3-0.9v2.3c-0.5,0.3-1,0.5-1.5,0.6C50.7,260.1,50.1,260.2,49.3,260.2z"/>
		<path fill="#444444" d="M61.1,260.2c-1.9,0-3.4-0.6-4.5-1.7c-1.1-1.1-1.6-2.7-1.6-4.7c0-2,0.5-3.6,1.5-4.8c1-1.2,2.4-1.7,4.2-1.7
			c1.6,0,2.9,0.5,3.9,1.5c1,1,1.4,2.4,1.4,4.1v1.4h-8.3c0,1.2,0.4,2.1,1,2.8c0.6,0.6,1.5,1,2.6,1c0.7,0,1.4-0.1,2-0.2
			c0.6-0.1,1.3-0.4,2-0.7v2.1c-0.6,0.3-1.3,0.5-2,0.7C62.7,260.1,62,260.2,61.1,260.2z M60.6,249.3c-0.8,0-1.5,0.3-2,0.8
			c-0.5,0.5-0.8,1.3-0.9,2.3h5.6c0-1-0.3-1.8-0.7-2.3C62.1,249.6,61.5,249.3,60.6,249.3z"/>
		<path fill="#444444" d="M75.3,247.3c1.5,0,2.8,0.6,3.6,1.7c0.9,1.1,1.3,2.7,1.3,4.7c0,2-0.4,3.6-1.3,4.8c-0.9,1.1-2.1,1.7-3.6,1.7
			c-1.6,0-2.8-0.6-3.7-1.7h-0.2l-0.5,1.5h-2v-17.5h2.6v4.2c0,0.3,0,0.8,0,1.4s-0.1,1-0.1,1.2h0.1C72.4,247.9,73.7,247.3,75.3,247.3z
			 M74.6,249.5c-1.1,0-1.8,0.3-2.3,0.9c-0.5,0.6-0.7,1.7-0.7,3.1v0.2c0,1.5,0.2,2.6,0.7,3.3c0.5,0.7,1.3,1,2.3,1
			c0.9,0,1.6-0.4,2.1-1.1c0.5-0.7,0.7-1.8,0.7-3.2C77.5,250.9,76.5,249.5,74.6,249.5z"/>
		<path fill="#444444" d="M94.3,253.7c0,2-0.5,3.6-1.6,4.8c-1,1.1-2.5,1.7-4.3,1.7c-1.2,0-2.2-0.3-3.1-0.8c-0.9-0.5-1.6-1.3-2.1-2.3
			c-0.5-1-0.7-2.1-0.7-3.4c0-2,0.5-3.6,1.5-4.7c1-1.1,2.5-1.7,4.4-1.7c1.8,0,3.2,0.6,4.3,1.7C93.8,250.2,94.3,251.8,94.3,253.7z
			 M85.3,253.7c0,2.9,1.1,4.3,3.2,4.3c2.1,0,3.1-1.4,3.1-4.3c0-2.8-1.1-4.3-3.2-4.3c-1.1,0-1.9,0.4-2.4,1.1
			C85.5,251.3,85.3,252.4,85.3,253.7z"/>
		<path fill="#444444" d="M108.4,253.7c0,2-0.5,3.6-1.6,4.8c-1,1.1-2.5,1.7-4.3,1.7c-1.2,0-2.2-0.3-3.1-0.8
			c-0.9-0.5-1.6-1.3-2.1-2.3c-0.5-1-0.7-2.1-0.7-3.4c0-2,0.5-3.6,1.5-4.7c1-1.1,2.5-1.7,4.4-1.7c1.8,0,3.2,0.6,4.3,1.7
			C107.8,250.2,108.4,251.8,108.4,253.7z M99.3,253.7c0,2.9,1.1,4.3,3.2,4.3c2.1,0,3.1-1.4,3.1-4.3c0-2.8-1.1-4.3-3.2-4.3
			c-1.1,0-1.9,0.4-2.4,1.1C99.6,251.3,99.3,252.4,99.3,253.7z"/>
		<path fill="#444444" d="M113.9,253.4l1.5-1.9l3.8-4h3l-5,5.3l5.3,7.1h-3.1l-4-5.4l-1.4,1.2v4.3h-2.6v-17.5h2.6v8.5L113.9,253.4
			L113.9,253.4z"/>
		<path fill="#444444" d="M141,260l-1.6-4.6h-6.3l-1.6,4.6h-2.8l6.1-16.5h2.9l6.1,16.5H141z M138.6,253.1l-1.5-4.5
			c-0.1-0.3-0.3-0.8-0.5-1.4c-0.2-0.6-0.3-1.1-0.4-1.4c-0.2,0.9-0.5,1.9-0.9,3l-1.5,4.3H138.6z"/>
		<path fill="#444444" d="M149.9,260.2c-1.5,0-2.8-0.6-3.6-1.7c-0.9-1.1-1.3-2.7-1.3-4.7c0-2,0.4-3.6,1.3-4.8
			c0.9-1.1,2.1-1.7,3.7-1.7c1.6,0,2.9,0.6,3.7,1.8h0.1c-0.1-0.9-0.2-1.6-0.2-2.1v-4.5h2.7V260h-2.1l-0.5-1.6h-0.1
			C152.8,259.6,151.5,260.2,149.9,260.2z M150.6,258c1.1,0,1.9-0.3,2.4-0.9s0.7-1.6,0.8-3v-0.4c0-1.6-0.3-2.7-0.8-3.3
			c-0.5-0.7-1.3-1-2.4-1c-0.9,0-1.6,0.4-2.1,1.1c-0.5,0.8-0.8,1.8-0.8,3.2c0,1.4,0.2,2.4,0.7,3.1C148.9,257.7,149.6,258,150.6,258z"
			/>
		<path fill="#444444" d="M164.2,260.2c-1.5,0-2.8-0.6-3.6-1.7c-0.9-1.1-1.3-2.7-1.3-4.7c0-2,0.4-3.6,1.3-4.8
			c0.9-1.1,2.1-1.7,3.7-1.7c1.6,0,2.9,0.6,3.7,1.8h0.1c-0.1-0.9-0.2-1.6-0.2-2.1v-4.5h2.7V260h-2.1l-0.5-1.6H168
			C167.1,259.6,165.9,260.2,164.2,260.2z M164.9,258c1.1,0,1.9-0.3,2.4-0.9s0.7-1.6,0.8-3v-0.4c0-1.6-0.3-2.7-0.8-3.3
			c-0.5-0.7-1.3-1-2.4-1c-0.9,0-1.6,0.4-2.1,1.1c-0.5,0.8-0.8,1.8-0.8,3.2c0,1.4,0.2,2.4,0.7,3.1C163.2,257.7,164,258,164.9,258z"/>
		<path fill="#444444" d="M182.7,256.4c0,1.2-0.4,2.1-1.3,2.8c-0.9,0.6-2.1,1-3.8,1c-1.7,0-3-0.3-4-0.8v-2.3c1.5,0.7,2.8,1,4.1,1
			c1.6,0,2.4-0.5,2.4-1.5c0-0.3-0.1-0.6-0.3-0.8c-0.2-0.2-0.5-0.4-0.9-0.7c-0.4-0.2-1-0.5-1.7-0.8c-1.4-0.6-2.4-1.1-2.9-1.7
			c-0.5-0.6-0.8-1.3-0.8-2.2c0-1.1,0.4-1.9,1.3-2.5s2-0.9,3.5-0.9c1.5,0,2.8,0.3,4.1,0.9l-0.9,2c-1.3-0.6-2.5-0.8-3.4-0.8
			c-1.4,0-2.1,0.4-2.1,1.2c0,0.4,0.2,0.7,0.5,1s1.2,0.6,2.4,1.1c1,0.4,1.8,0.8,2.2,1.1c0.5,0.3,0.8,0.7,1,1.1
			C182.6,255.3,182.7,255.8,182.7,256.4z"/>
		<path fill="#444444" d="M189.7,247.5h2.9l2.5,7c0.4,1,0.6,1.9,0.8,2.8h0.1c0.1-0.4,0.2-0.9,0.4-1.5c0.2-0.6,1.1-3.4,2.9-8.4h2.9
			l-5.3,14.1c-1,2.6-2.6,3.9-4.8,3.9c-0.6,0-1.2-0.1-1.7-0.2v-2.1c0.4,0.1,0.8,0.1,1.4,0.1c1.3,0,2.2-0.7,2.7-2.2l0.5-1.2
			L189.7,247.5z"/>
		<path fill="#444444" d="M25.7,278.1h6v8.2c-1,0.3-1.9,0.5-2.8,0.7c-0.9,0.1-1.9,0.2-2.9,0.2c-2.5,0-4.4-0.7-5.8-2.2
			c-1.3-1.5-2-3.5-2-6.2c0-2.6,0.8-4.7,2.3-6.2c1.5-1.5,3.6-2.2,6.3-2.2c1.7,0,3.3,0.3,4.9,1l-0.9,2.2c-1.3-0.6-2.7-0.9-4-0.9
			c-1.8,0-3.1,0.6-4.2,1.7s-1.5,2.6-1.5,4.5c0,2,0.5,3.5,1.4,4.6c0.9,1,2.2,1.6,4,1.6c0.9,0,1.8-0.1,2.8-0.3v-4.2h-3.4V278.1z"/>
		<path fill="#444444" d="M46.5,280.7c0,2-0.5,3.6-1.6,4.8c-1,1.1-2.5,1.7-4.3,1.7c-1.2,0-2.2-0.3-3.1-0.8c-0.9-0.5-1.6-1.3-2.1-2.3
			c-0.5-1-0.7-2.1-0.7-3.4c0-2,0.5-3.6,1.5-4.7c1-1.1,2.5-1.7,4.4-1.7c1.8,0,3.2,0.6,4.3,1.7C45.9,277.2,46.5,278.8,46.5,280.7z
			 M37.4,280.7c0,2.9,1.1,4.3,3.2,4.3c2.1,0,3.1-1.4,3.1-4.3c0-2.8-1.1-4.3-3.2-4.3c-1.1,0-1.9,0.4-2.4,1.1
			C37.7,278.3,37.4,279.4,37.4,280.7z"/>
		<path fill="#444444" d="M60.5,280.7c0,2-0.5,3.6-1.6,4.8c-1,1.1-2.5,1.7-4.3,1.7c-1.2,0-2.2-0.3-3.1-0.8c-0.9-0.5-1.6-1.3-2.1-2.3
			c-0.5-1-0.7-2.1-0.7-3.4c0-2,0.5-3.6,1.5-4.7c1-1.1,2.5-1.7,4.4-1.7c1.8,0,3.2,0.6,4.3,1.7C60,277.2,60.5,278.8,60.5,280.7z
			 M51.5,280.7c0,2.9,1.1,4.3,3.2,4.3c2.1,0,3.1-1.4,3.1-4.3c0-2.8-1.1-4.3-3.2-4.3c-1.1,0-1.9,0.4-2.4,1.1
			C51.7,278.3,51.5,279.4,51.5,280.7z"/>
		<path fill="#444444" d="M74,274.5v1.4l-2.1,0.4c0.2,0.3,0.4,0.6,0.5,1s0.2,0.8,0.2,1.2c0,1.3-0.4,2.3-1.3,3
			c-0.9,0.7-2.1,1.1-3.6,1.1c-0.4,0-0.8,0-1.1-0.1c-0.6,0.4-0.9,0.8-0.9,1.2c0,0.3,0.1,0.5,0.4,0.6c0.3,0.1,0.8,0.2,1.5,0.2h2.2
			c1.4,0,2.4,0.3,3.1,0.9s1.1,1.4,1.1,2.5c0,1.4-0.6,2.5-1.7,3.3s-2.8,1.1-5,1.1c-1.7,0-3-0.3-3.9-0.9c-0.9-0.6-1.3-1.5-1.3-2.6
			c0-0.8,0.2-1.4,0.7-1.9c0.5-0.5,1.2-0.9,2-1.1c-0.4-0.1-0.6-0.4-0.9-0.7c-0.2-0.3-0.3-0.7-0.3-1c0-0.5,0.1-0.9,0.4-1.2
			c0.3-0.3,0.7-0.6,1.2-1c-0.6-0.3-1.2-0.7-1.6-1.4c-0.4-0.6-0.6-1.4-0.6-2.2c0-1.3,0.4-2.4,1.3-3.1c0.9-0.7,2.1-1.1,3.6-1.1
			c0.4,0,0.7,0,1.1,0.1c0.4,0,0.7,0.1,0.9,0.2H74z M64.3,288.9c0,0.6,0.3,1,0.8,1.3c0.5,0.3,1.2,0.5,2.2,0.5c1.4,0,2.5-0.2,3.2-0.6
			c0.7-0.4,1.1-1,1.1-1.6c0-0.5-0.2-0.9-0.6-1.2c-0.4-0.2-1.1-0.3-2.2-0.3h-2c-0.8,0-1.4,0.2-1.8,0.5
			C64.5,287.8,64.3,288.3,64.3,288.9z M65.4,278.6c0,0.8,0.2,1.4,0.6,1.8c0.4,0.4,1,0.6,1.7,0.6c1.5,0,2.3-0.8,2.3-2.4
			c0-0.8-0.2-1.4-0.6-1.9c-0.4-0.4-1-0.7-1.7-0.7c-0.8,0-1.3,0.2-1.7,0.7C65.6,277.1,65.4,277.7,65.4,278.6z"/>
		<path fill="#444444" d="M79,287h-2.6v-17.5H79V287z"/>
		<path fill="#444444" d="M88.2,287.2c-1.9,0-3.4-0.6-4.5-1.7c-1.1-1.1-1.6-2.7-1.6-4.7c0-2,0.5-3.6,1.5-4.8c1-1.2,2.4-1.7,4.2-1.7
			c1.6,0,2.9,0.5,3.9,1.5c1,1,1.4,2.4,1.4,4.1v1.4h-8.3c0,1.2,0.4,2.1,1,2.8c0.6,0.6,1.5,1,2.6,1c0.7,0,1.4-0.1,2-0.2
			c0.6-0.1,1.3-0.4,2-0.7v2.1c-0.6,0.3-1.3,0.5-2,0.7C89.8,287.1,89,287.2,88.2,287.2z M87.7,276.3c-0.8,0-1.5,0.3-2,0.8
			c-0.5,0.5-0.8,1.3-0.9,2.3h5.6c0-1-0.3-1.8-0.7-2.3C89.2,276.6,88.5,276.3,87.7,276.3z"/>
		<path fill="#444444" d="M112.4,287l-1.6-4.6h-6.3l-1.6,4.6h-2.8l6.1-16.5h2.9l6.1,16.5H112.4z M110.1,280.1l-1.5-4.5
			c-0.1-0.3-0.3-0.8-0.5-1.4c-0.2-0.6-0.3-1.1-0.4-1.4c-0.2,0.9-0.5,1.9-0.9,3l-1.5,4.3H110.1z"/>
		<path fill="#444444" d="M121.4,287.2c-1.5,0-2.8-0.6-3.6-1.7s-1.3-2.7-1.3-4.7c0-2,0.4-3.6,1.3-4.8c0.9-1.1,2.1-1.7,3.7-1.7
			c1.6,0,2.9,0.6,3.7,1.8h0.1c-0.1-0.9-0.2-1.6-0.2-2.1v-4.5h2.7V287h-2.1l-0.5-1.6h-0.1C124.2,286.6,123,287.2,121.4,287.2z
			 M122.1,285c1.1,0,1.9-0.3,2.4-0.9s0.7-1.6,0.8-3v-0.4c0-1.6-0.3-2.7-0.8-3.3c-0.5-0.7-1.3-1-2.4-1c-0.9,0-1.6,0.4-2.1,1.1
			c-0.5,0.8-0.8,1.8-0.8,3.2c0,1.4,0.2,2.4,0.7,3.1C120.4,284.7,121.1,285,122.1,285z"/>
		<path fill="#444444" d="M135.7,287.2c-1.5,0-2.8-0.6-3.6-1.7s-1.3-2.7-1.3-4.7c0-2,0.4-3.6,1.3-4.8c0.9-1.1,2.1-1.7,3.7-1.7
			c1.6,0,2.9,0.6,3.7,1.8h0.1c-0.1-0.9-0.2-1.6-0.2-2.1v-4.5h2.7V287H140l-0.5-1.6h-0.1C138.6,286.6,137.3,287.2,135.7,287.2z
			 M136.4,285c1.1,0,1.9-0.3,2.4-0.9s0.7-1.6,0.8-3v-0.4c0-1.6-0.3-2.7-0.8-3.3c-0.5-0.7-1.3-1-2.4-1c-0.9,0-1.6,0.4-2.1,1.1
			c-0.5,0.8-0.8,1.8-0.8,3.2c0,1.4,0.2,2.4,0.7,3.1C134.7,284.7,135.4,285,136.4,285z"/>
		<path fill="#444444" d="M154.2,283.4c0,1.2-0.4,2.1-1.3,2.8c-0.9,0.6-2.1,1-3.8,1c-1.7,0-3-0.3-4-0.8v-2.3c1.5,0.7,2.8,1,4.1,1
			c1.6,0,2.4-0.5,2.4-1.5c0-0.3-0.1-0.6-0.3-0.8c-0.2-0.2-0.5-0.4-0.9-0.7c-0.4-0.2-1-0.5-1.7-0.8c-1.4-0.6-2.4-1.1-2.9-1.7
			c-0.5-0.6-0.8-1.3-0.8-2.2c0-1.1,0.4-1.9,1.3-2.5s2-0.9,3.5-0.9c1.5,0,2.8,0.3,4.1,0.9l-0.9,2c-1.3-0.6-2.5-0.8-3.4-0.8
			c-1.4,0-2.1,0.4-2.1,1.2c0,0.4,0.2,0.7,0.5,1s1.2,0.6,2.4,1.1c1,0.4,1.8,0.8,2.2,1.1c0.5,0.3,0.8,0.7,1,1.1
			C154.1,282.3,154.2,282.8,154.2,283.4z"/>
		<path fill="#444444" d="M169.3,287.2c-1.6,0-2.8-0.6-3.7-1.7h-0.2c0.1,1,0.2,1.7,0.2,1.9v5.1H163v-17.9h2.1
			c0.1,0.2,0.2,0.8,0.4,1.7h0.1c0.8-1.3,2.1-1.9,3.7-1.9c1.5,0,2.8,0.6,3.6,1.7c0.9,1.1,1.3,2.7,1.3,4.7c0,2-0.4,3.6-1.3,4.8
			C172.1,286.6,170.9,287.2,169.3,287.2z M168.7,276.5c-1,0-1.8,0.3-2.3,0.9c-0.5,0.6-0.7,1.6-0.7,2.9v0.4c0,1.5,0.2,2.6,0.7,3.3
			c0.5,0.7,1.3,1,2.3,1c0.9,0,1.6-0.4,2.1-1.1c0.5-0.7,0.7-1.8,0.7-3.2c0-1.4-0.2-2.4-0.7-3.2C170.3,276.8,169.6,276.5,168.7,276.5z
			"/>
		<path fill="#444444" d="M185.1,287l-0.5-1.7h-0.1c-0.6,0.8-1.2,1.3-1.8,1.5c-0.6,0.3-1.4,0.4-2.3,0.4c-1.2,0-2.2-0.3-2.9-1
			c-0.7-0.7-1-1.6-1-2.8c0-1.3,0.5-2.2,1.4-2.9c1-0.7,2.4-1,4.3-1.1l2.1-0.1v-0.7c0-0.8-0.2-1.4-0.6-1.8c-0.4-0.4-0.9-0.6-1.7-0.6
			c-0.6,0-1.2,0.1-1.8,0.3c-0.6,0.2-1.1,0.4-1.7,0.7l-0.9-1.9c0.7-0.4,1.4-0.6,2.2-0.8c0.8-0.2,1.6-0.3,2.3-0.3c1.6,0,2.8,0.3,3.6,1
			c0.8,0.7,1.2,1.8,1.2,3.2v8.4H185.1z M181.2,285.2c1,0,1.7-0.3,2.3-0.8s0.9-1.3,0.9-2.3V281l-1.6,0.1c-1.2,0-2.1,0.3-2.7,0.6
			c-0.6,0.4-0.8,0.9-0.8,1.7c0,0.6,0.2,1,0.5,1.3C180,285,180.5,285.2,181.2,285.2z"/>
		<path fill="#444444" d="M197,274.3c0.5,0,1,0,1.3,0.1l-0.3,2.5c-0.4-0.1-0.8-0.1-1.2-0.1c-1.1,0-1.9,0.3-2.6,1
			c-0.7,0.7-1,1.6-1,2.7v6.5h-2.6v-12.4h2.1l0.3,2.2h0.1c0.4-0.7,0.9-1.3,1.6-1.8C195.5,274.5,196.2,274.3,197,274.3z"/>
		<path fill="#444444" d="M208.4,287l-0.5-1.7h-0.1c-0.6,0.8-1.2,1.3-1.8,1.5c-0.6,0.3-1.4,0.4-2.3,0.4c-1.2,0-2.2-0.3-2.9-1
			c-0.7-0.7-1-1.6-1-2.8c0-1.3,0.5-2.2,1.4-2.9c1-0.7,2.4-1,4.3-1.1l2.1-0.1v-0.7c0-0.8-0.2-1.4-0.6-1.8c-0.4-0.4-0.9-0.6-1.7-0.6
			c-0.6,0-1.2,0.1-1.8,0.3c-0.6,0.2-1.1,0.4-1.7,0.7l-0.9-1.9c0.7-0.4,1.4-0.6,2.2-0.8c0.8-0.2,1.6-0.3,2.3-0.3c1.6,0,2.8,0.3,3.6,1
			c0.8,0.7,1.2,1.8,1.2,3.2v8.4H208.4z M204.4,285.2c1,0,1.7-0.3,2.3-0.8c0.6-0.5,0.9-1.3,0.9-2.3V281l-1.6,0.1
			c-1.2,0-2.1,0.3-2.7,0.6c-0.6,0.4-0.8,0.9-0.8,1.7c0,0.6,0.2,1,0.5,1.3C203.3,285,203.8,285.2,204.4,285.2z"/>
		<path fill="#444444" d="M222.5,287h-2.6v-17.5h2.6V287z"/>
		<path fill="#444444" d="M234.1,287l-0.5-1.7h-0.1c-0.6,0.8-1.2,1.3-1.8,1.5c-0.6,0.3-1.4,0.4-2.3,0.4c-1.2,0-2.2-0.3-2.9-1
			c-0.7-0.7-1-1.6-1-2.8c0-1.3,0.5-2.2,1.4-2.9c1-0.7,2.4-1,4.3-1.1l2.1-0.1v-0.7c0-0.8-0.2-1.4-0.6-1.8c-0.4-0.4-0.9-0.6-1.7-0.6
			c-0.6,0-1.2,0.1-1.8,0.3c-0.6,0.2-1.1,0.4-1.7,0.7l-0.9-1.9c0.7-0.4,1.4-0.6,2.2-0.8c0.8-0.2,1.6-0.3,2.3-0.3c1.6,0,2.8,0.3,3.6,1
			c0.8,0.7,1.2,1.8,1.2,3.2v8.4H234.1z M230.2,285.2c1,0,1.7-0.3,2.3-0.8s0.9-1.3,0.9-2.3V281l-1.6,0.1c-1.2,0-2.1,0.3-2.7,0.6
			c-0.6,0.4-0.8,0.9-0.8,1.7c0,0.6,0.2,1,0.5,1.3C229,285,229.5,285.2,230.2,285.2z"/>
		<path fill="#444444" d="M29.2,301.5v1.4l-2.1,0.4c0.2,0.3,0.4,0.6,0.5,1s0.2,0.8,0.2,1.2c0,1.3-0.4,2.3-1.3,3
			c-0.9,0.7-2.1,1.1-3.6,1.1c-0.4,0-0.8,0-1.1-0.1c-0.6,0.4-0.9,0.8-0.9,1.2c0,0.3,0.1,0.5,0.4,0.6c0.3,0.1,0.8,0.2,1.5,0.2h2.2
			c1.4,0,2.4,0.3,3.1,0.9s1.1,1.4,1.1,2.5c0,1.4-0.6,2.5-1.7,3.3s-2.8,1.1-5,1.1c-1.7,0-3-0.3-3.9-0.9c-0.9-0.6-1.3-1.5-1.3-2.6
			c0-0.8,0.2-1.4,0.7-1.9c0.5-0.5,1.2-0.9,2-1.1c-0.4-0.1-0.6-0.4-0.9-0.7c-0.2-0.3-0.3-0.7-0.3-1c0-0.5,0.1-0.9,0.4-1.2
			c0.3-0.3,0.7-0.6,1.2-1c-0.6-0.3-1.2-0.7-1.6-1.4c-0.4-0.6-0.6-1.4-0.6-2.2c0-1.3,0.4-2.4,1.3-3.1c0.9-0.7,2.1-1.1,3.6-1.1
			c0.4,0,0.7,0,1.1,0.1c0.4,0,0.7,0.1,0.9,0.2H29.2z M19.5,315.9c0,0.6,0.3,1,0.8,1.3c0.5,0.3,1.2,0.5,2.2,0.5
			c1.4,0,2.5-0.2,3.2-0.6c0.7-0.4,1.1-1,1.1-1.6c0-0.5-0.2-0.9-0.6-1.2c-0.4-0.2-1.1-0.3-2.2-0.3h-2c-0.8,0-1.4,0.2-1.8,0.5
			C19.7,314.8,19.5,315.3,19.5,315.9z M20.6,305.6c0,0.8,0.2,1.4,0.6,1.8c0.4,0.4,1,0.6,1.7,0.6c1.5,0,2.3-0.8,2.3-2.4
			c0-0.8-0.2-1.4-0.6-1.9c-0.4-0.4-1-0.7-1.7-0.7c-0.8,0-1.3,0.2-1.7,0.7C20.8,304.1,20.6,304.7,20.6,305.6z"/>
		<path fill="#444444" d="M36.9,314.2c-1.9,0-3.4-0.6-4.5-1.7c-1.1-1.1-1.6-2.7-1.6-4.7c0-2,0.5-3.6,1.5-4.8c1-1.2,2.4-1.7,4.2-1.7
			c1.6,0,2.9,0.5,3.9,1.5c1,1,1.4,2.4,1.4,4.1v1.4h-8.3c0,1.2,0.4,2.1,1,2.8c0.6,0.6,1.5,1,2.6,1c0.7,0,1.4-0.1,2-0.2
			c0.6-0.1,1.3-0.4,2-0.7v2.1c-0.6,0.3-1.3,0.5-2,0.7C38.5,314.1,37.8,314.2,36.9,314.2z M36.5,303.3c-0.8,0-1.5,0.3-2,0.8
			c-0.5,0.5-0.8,1.3-0.9,2.3h5.6c0-1-0.3-1.8-0.7-2.3C38,303.6,37.3,303.3,36.5,303.3z"/>
		<path fill="#444444" d="M55.7,314h-2.7v-7.6c0-1-0.2-1.7-0.6-2.1c-0.4-0.5-1-0.7-1.8-0.7c-1.1,0-1.9,0.3-2.4,1
			c-0.5,0.7-0.8,1.8-0.8,3.3v6.2h-2.6v-12.4h2.1l0.4,1.6h0.1c0.4-0.6,0.9-1,1.6-1.4c0.7-0.3,1.5-0.5,2.3-0.5c3,0,4.5,1.5,4.5,4.5
			V314z"/>
		<path fill="#444444" d="M64.8,314.2c-1.9,0-3.4-0.6-4.5-1.7c-1.1-1.1-1.6-2.7-1.6-4.7c0-2,0.5-3.6,1.5-4.8c1-1.2,2.4-1.7,4.2-1.7
			c1.6,0,2.9,0.5,3.9,1.5c1,1,1.4,2.4,1.4,4.1v1.4h-8.3c0,1.2,0.4,2.1,1,2.8c0.6,0.6,1.5,1,2.6,1c0.7,0,1.4-0.1,2-0.2
			c0.6-0.1,1.3-0.4,2-0.7v2.1c-0.6,0.3-1.3,0.5-2,0.7C66.4,314.1,65.6,314.2,64.8,314.2z M64.3,303.3c-0.8,0-1.5,0.3-2,0.8
			c-0.5,0.5-0.8,1.3-0.9,2.3H67c0-1-0.3-1.8-0.7-2.3C65.8,303.6,65.2,303.3,64.3,303.3z"/>
		<path fill="#444444" d="M78.9,301.3c0.5,0,1,0,1.3,0.1l-0.3,2.5c-0.4-0.1-0.8-0.1-1.2-0.1c-1.1,0-1.9,0.3-2.6,1
			c-0.7,0.7-1,1.6-1,2.7v6.5h-2.6v-12.4h2.1l0.3,2.2h0.1c0.4-0.7,0.9-1.3,1.6-1.8C77.5,301.5,78.2,301.3,78.9,301.3z"/>
		<path fill="#444444" d="M90.3,314l-0.5-1.7h-0.1c-0.6,0.8-1.2,1.3-1.8,1.5c-0.6,0.3-1.4,0.4-2.3,0.4c-1.2,0-2.2-0.3-2.9-1
			c-0.7-0.7-1-1.6-1-2.8c0-1.3,0.5-2.2,1.4-2.9s2.4-1,4.3-1.1l2.1-0.1v-0.7c0-0.8-0.2-1.4-0.6-1.8c-0.4-0.4-0.9-0.6-1.7-0.6
			c-0.6,0-1.2,0.1-1.8,0.3c-0.6,0.2-1.1,0.4-1.7,0.7l-0.9-1.9c0.7-0.4,1.4-0.6,2.2-0.8s1.6-0.3,2.3-0.3c1.6,0,2.8,0.3,3.6,1
			c0.8,0.7,1.2,1.8,1.2,3.2v8.4H90.3z M86.4,312.2c1,0,1.7-0.3,2.3-0.8c0.6-0.5,0.9-1.3,0.9-2.3V308l-1.6,0.1
			c-1.2,0-2.1,0.3-2.7,0.6c-0.6,0.4-0.8,0.9-0.8,1.7c0,0.6,0.2,1,0.5,1.3C85.2,312,85.7,312.2,86.4,312.2z"/>
		<path fill="#444444" d="M100.9,314.2c-1.9,0-3.3-0.5-4.3-1.6c-1-1.1-1.5-2.7-1.5-4.7c0-2.1,0.5-3.7,1.5-4.8c1-1.1,2.5-1.7,4.4-1.7
			c1.3,0,2.5,0.2,3.5,0.7l-0.8,2.1c-1.1-0.4-2-0.7-2.8-0.7c-2.1,0-3.2,1.4-3.2,4.3c0,1.4,0.3,2.4,0.8,3.1c0.5,0.7,1.3,1,2.4,1
			c1.2,0,2.3-0.3,3.3-0.9v2.3c-0.5,0.3-1,0.5-1.5,0.6C102.3,314.1,101.7,314.2,100.9,314.2z"/>
		<path fill="#444444" d="M107.1,298.2c0-0.5,0.1-0.8,0.4-1.1c0.3-0.3,0.6-0.4,1.1-0.4c0.5,0,0.8,0.1,1.1,0.4
			c0.3,0.3,0.4,0.6,0.4,1.1c0,0.4-0.1,0.8-0.4,1.1c-0.3,0.3-0.6,0.4-1.1,0.4c-0.5,0-0.8-0.1-1.1-0.4
			C107.2,299,107.1,298.7,107.1,298.2z M109.9,314h-2.6v-12.4h2.6V314z"/>
		<path fill="#444444" d="M124.7,307.7c0,2-0.5,3.6-1.6,4.8c-1,1.1-2.5,1.7-4.3,1.7c-1.2,0-2.2-0.3-3.1-0.8
			c-0.9-0.5-1.6-1.3-2.1-2.3c-0.5-1-0.7-2.1-0.7-3.4c0-2,0.5-3.6,1.5-4.7c1-1.1,2.5-1.7,4.4-1.7c1.8,0,3.2,0.6,4.3,1.7
			C124.2,304.2,124.7,305.8,124.7,307.7z M115.7,307.7c0,2.9,1.1,4.3,3.2,4.3c2.1,0,3.1-1.4,3.1-4.3c0-2.8-1.1-4.3-3.2-4.3
			c-1.1,0-1.9,0.4-2.4,1.1C115.9,305.3,115.7,306.4,115.7,307.7z"/>
		<path fill="#444444" d="M138.7,314H136v-7.6c0-1-0.2-1.7-0.6-2.1c-0.4-0.5-1-0.7-1.8-0.7c-1.1,0-1.9,0.3-2.4,1
			c-0.5,0.7-0.8,1.8-0.8,3.3v6.2h-2.6v-12.4h2.1l0.4,1.6h0.1c0.4-0.6,0.9-1,1.6-1.4c0.7-0.3,1.5-0.5,2.3-0.5c3,0,4.5,1.5,4.5,4.5
			V314z"/>
		<path fill="#444444" d="M152.5,314.2c-1.5,0-2.8-0.6-3.6-1.7c-0.9-1.1-1.3-2.7-1.3-4.7c0-2,0.4-3.6,1.3-4.8
			c0.9-1.1,2.1-1.7,3.7-1.7c1.6,0,2.9,0.6,3.7,1.8h0.1c-0.1-0.9-0.2-1.6-0.2-2.1v-4.5h2.7V314h-2.1l-0.5-1.6h-0.1
			C155.4,313.6,154.1,314.2,152.5,314.2z M153.2,312c1.1,0,1.9-0.3,2.4-0.9s0.7-1.6,0.8-3v-0.4c0-1.6-0.3-2.7-0.8-3.3
			c-0.5-0.7-1.3-1-2.4-1c-0.9,0-1.6,0.4-2.1,1.1c-0.5,0.8-0.8,1.8-0.8,3.2c0,1.4,0.2,2.4,0.7,3.1C151.5,311.7,152.2,312,153.2,312z"
			/>
		<path fill="#444444" d="M168.1,314.2c-1.9,0-3.4-0.6-4.5-1.7c-1.1-1.1-1.6-2.7-1.6-4.7c0-2,0.5-3.6,1.5-4.8c1-1.2,2.4-1.7,4.2-1.7
			c1.6,0,2.9,0.5,3.9,1.5c1,1,1.4,2.4,1.4,4.1v1.4h-8.3c0,1.2,0.4,2.1,1,2.8c0.6,0.6,1.5,1,2.6,1c0.7,0,1.4-0.1,2-0.2
			c0.6-0.1,1.3-0.4,2-0.7v2.1c-0.6,0.3-1.3,0.5-2,0.7C169.7,314.1,168.9,314.2,168.1,314.2z M167.6,303.3c-0.8,0-1.5,0.3-2,0.8
			c-0.5,0.5-0.8,1.3-0.9,2.3h5.6c0-1-0.3-1.8-0.7-2.3C169.1,303.6,168.4,303.3,167.6,303.3z"/>
		<path fill="#444444" d="M23.7,341.2c-1.9,0-3.3-0.5-4.3-1.6c-1-1.1-1.5-2.7-1.5-4.7c0-2.1,0.5-3.7,1.5-4.8c1-1.1,2.5-1.7,4.4-1.7
			c1.3,0,2.5,0.2,3.5,0.7l-0.8,2.1c-1.1-0.4-2-0.7-2.8-0.7c-2.1,0-3.2,1.4-3.2,4.3c0,1.4,0.3,2.4,0.8,3.1c0.5,0.7,1.3,1,2.4,1
			c1.2,0,2.3-0.3,3.3-0.9v2.3c-0.5,0.3-1,0.5-1.5,0.6C25.2,341.1,24.5,341.2,23.7,341.2z"/>
		<path fill="#444444" d="M41.1,334.7c0,2-0.5,3.6-1.6,4.8c-1,1.1-2.5,1.7-4.3,1.7c-1.2,0-2.2-0.3-3.1-0.8c-0.9-0.5-1.6-1.3-2.1-2.3
			c-0.5-1-0.7-2.1-0.7-3.4c0-2,0.5-3.6,1.5-4.7c1-1.1,2.5-1.7,4.4-1.7c1.8,0,3.2,0.6,4.3,1.7C40.6,331.2,41.1,332.8,41.1,334.7z
			 M32.1,334.7c0,2.9,1.1,4.3,3.2,4.3c2.1,0,3.1-1.4,3.1-4.3c0-2.8-1.1-4.3-3.2-4.3c-1.1,0-1.9,0.4-2.4,1.1
			C32.3,332.3,32.1,333.4,32.1,334.7z"/>
		<path fill="#444444" d="M55.1,341h-2.7v-7.6c0-1-0.2-1.7-0.6-2.1c-0.4-0.5-1-0.7-1.8-0.7c-1.1,0-1.9,0.3-2.4,1
			c-0.5,0.7-0.8,1.8-0.8,3.3v6.2h-2.6v-12.4h2.1l0.4,1.6h0.1c0.4-0.6,0.9-1,1.6-1.4c0.7-0.3,1.5-0.5,2.3-0.5c3,0,4.5,1.5,4.5,4.5
			V341z"/>
		<path fill="#444444" d="M61.6,341l-4.7-12.4h2.8l2.5,7.2c0.4,1.2,0.7,2.2,0.8,2.9h0.1c0.1-0.5,0.3-1.5,0.8-2.9l2.5-7.2h2.8
			L64.5,341H61.6z"/>
		<path fill="#444444" d="M76.5,341.2c-1.9,0-3.4-0.6-4.5-1.7c-1.1-1.1-1.6-2.7-1.6-4.7c0-2,0.5-3.6,1.5-4.8c1-1.2,2.4-1.7,4.2-1.7
			c1.6,0,2.9,0.5,3.9,1.5c1,1,1.4,2.4,1.4,4.1v1.4h-8.3c0,1.2,0.4,2.1,1,2.8c0.6,0.6,1.5,1,2.6,1c0.7,0,1.4-0.1,2-0.2
			c0.6-0.1,1.3-0.4,2-0.7v2.1c-0.6,0.3-1.3,0.5-2,0.7C78.1,341.1,77.3,341.2,76.5,341.2z M76,330.3c-0.8,0-1.5,0.3-2,0.8
			c-0.5,0.5-0.8,1.3-0.9,2.3h5.6c0-1-0.3-1.8-0.7-2.3C77.5,330.6,76.9,330.3,76,330.3z"/>
		<path fill="#444444" d="M90.6,328.3c0.5,0,1,0,1.3,0.1l-0.3,2.5c-0.4-0.1-0.8-0.1-1.2-0.1c-1.1,0-1.9,0.3-2.6,1
			c-0.7,0.7-1,1.6-1,2.7v6.5h-2.6v-12.4h2.1l0.3,2.2h0.1c0.4-0.7,0.9-1.3,1.6-1.8C89.2,328.5,89.9,328.3,90.6,328.3z"/>
		<path fill="#444444" d="M102.6,337.4c0,1.2-0.4,2.1-1.3,2.8c-0.9,0.6-2.1,1-3.8,1c-1.7,0-3-0.3-4-0.8v-2.3c1.5,0.7,2.8,1,4.1,1
			c1.6,0,2.4-0.5,2.4-1.5c0-0.3-0.1-0.6-0.3-0.8c-0.2-0.2-0.5-0.4-0.9-0.7s-1-0.5-1.7-0.8c-1.4-0.6-2.4-1.1-2.9-1.7
			c-0.5-0.6-0.8-1.3-0.8-2.2c0-1.1,0.4-1.9,1.3-2.5c0.9-0.6,2-0.9,3.5-0.9c1.5,0,2.8,0.3,4.1,0.9l-0.9,2c-1.3-0.6-2.5-0.8-3.4-0.8
			c-1.4,0-2.1,0.4-2.1,1.2c0,0.4,0.2,0.7,0.5,1c0.4,0.3,1.2,0.6,2.4,1.1c1,0.4,1.8,0.8,2.2,1.1c0.5,0.3,0.8,0.7,1,1.1
			C102.5,336.3,102.6,336.8,102.6,337.4z"/>
		<path fill="#444444" d="M105.3,325.2c0-0.5,0.1-0.8,0.4-1.1c0.3-0.3,0.6-0.4,1.1-0.4c0.5,0,0.8,0.1,1.1,0.4
			c0.3,0.3,0.4,0.6,0.4,1.1c0,0.4-0.1,0.8-0.4,1.1c-0.3,0.3-0.6,0.4-1.1,0.4c-0.5,0-0.8-0.1-1.1-0.4
			C105.4,326,105.3,325.7,105.3,325.2z M108.1,341h-2.6v-12.4h2.6V341z"/>
		<path fill="#444444" d="M122.9,334.7c0,2-0.5,3.6-1.6,4.8c-1,1.1-2.5,1.7-4.3,1.7c-1.2,0-2.2-0.3-3.1-0.8
			c-0.9-0.5-1.6-1.3-2.1-2.3c-0.5-1-0.7-2.1-0.7-3.4c0-2,0.5-3.6,1.5-4.7c1-1.1,2.5-1.7,4.4-1.7c1.8,0,3.2,0.6,4.3,1.7
			C122.3,331.2,122.9,332.8,122.9,334.7z M113.8,334.7c0,2.9,1.1,4.3,3.2,4.3c2.1,0,3.1-1.4,3.1-4.3c0-2.8-1.1-4.3-3.2-4.3
			c-1.1,0-1.9,0.4-2.4,1.1C114.1,332.3,113.8,333.4,113.8,334.7z"/>
		<path fill="#444444" d="M136.8,341h-2.7v-7.6c0-1-0.2-1.7-0.6-2.1c-0.4-0.5-1-0.7-1.8-0.7c-1.1,0-1.9,0.3-2.4,1
			c-0.5,0.7-0.8,1.8-0.8,3.3v6.2h-2.6v-12.4h2.1l0.4,1.6h0.1c0.4-0.6,0.9-1,1.6-1.4c0.7-0.3,1.5-0.5,2.3-0.5c3,0,4.5,1.5,4.5,4.5
			V341z"/>
		<path fill="#444444" d="M145.9,341.2c-1.9,0-3.4-0.6-4.5-1.7c-1.1-1.1-1.6-2.7-1.6-4.7c0-2,0.5-3.6,1.5-4.8c1-1.2,2.4-1.7,4.2-1.7
			c1.6,0,2.9,0.5,3.9,1.5c1,1,1.4,2.4,1.4,4.1v1.4h-8.3c0,1.2,0.4,2.1,1,2.8c0.6,0.6,1.5,1,2.6,1c0.7,0,1.4-0.1,2-0.2
			c0.6-0.1,1.3-0.4,2-0.7v2.1c-0.6,0.3-1.3,0.5-2,0.7C147.5,341.1,146.8,341.2,145.9,341.2z M145.4,330.3c-0.8,0-1.5,0.3-2,0.8
			c-0.5,0.5-0.8,1.3-0.9,2.3h5.6c0-1-0.3-1.8-0.7-2.3C146.9,330.6,146.3,330.3,145.4,330.3z"/>
		<path fill="#444444" d="M162.1,337.4c0,1.2-0.4,2.1-1.3,2.8c-0.9,0.6-2.1,1-3.8,1c-1.7,0-3-0.3-4-0.8v-2.3c1.5,0.7,2.8,1,4.1,1
			c1.6,0,2.4-0.5,2.4-1.5c0-0.3-0.1-0.6-0.3-0.8c-0.2-0.2-0.5-0.4-0.9-0.7c-0.4-0.2-1-0.5-1.7-0.8c-1.4-0.6-2.4-1.1-2.9-1.7
			c-0.5-0.6-0.8-1.3-0.8-2.2c0-1.1,0.4-1.9,1.3-2.5s2-0.9,3.5-0.9c1.5,0,2.8,0.3,4.1,0.9l-0.9,2c-1.3-0.6-2.5-0.8-3.4-0.8
			c-1.4,0-2.1,0.4-2.1,1.2c0,0.4,0.2,0.7,0.5,1s1.2,0.6,2.4,1.1c1,0.4,1.8,0.8,2.2,1.1c0.5,0.3,0.8,0.7,1,1.1
			C162,336.3,162.1,336.8,162.1,337.4z"/>
		<path fill="#444444" d="M169,328.5h2.9l2.5,7c0.4,1,0.6,1.9,0.8,2.8h0.1c0.1-0.4,0.2-0.9,0.4-1.5c0.2-0.6,1.1-3.4,2.9-8.4h2.9
			l-5.3,14.1c-1,2.6-2.6,3.9-4.8,3.9c-0.6,0-1.2-0.1-1.7-0.2v-2.1c0.4,0.1,0.8,0.1,1.4,0.1c1.3,0,2.2-0.7,2.7-2.2l0.5-1.2L169,328.5
			z"/>
		<path fill="#444444" d="M200.3,334.7c0,2-0.5,3.6-1.6,4.8c-1,1.1-2.5,1.7-4.3,1.7c-1.2,0-2.2-0.3-3.1-0.8
			c-0.9-0.5-1.6-1.3-2.1-2.3c-0.5-1-0.7-2.1-0.7-3.4c0-2,0.5-3.6,1.5-4.7c1-1.1,2.5-1.7,4.4-1.7c1.8,0,3.2,0.6,4.3,1.7
			C199.7,331.2,200.3,332.8,200.3,334.7z M191.2,334.7c0,2.9,1.1,4.3,3.2,4.3c2.1,0,3.1-1.4,3.1-4.3c0-2.8-1.1-4.3-3.2-4.3
			c-1.1,0-1.9,0.4-2.4,1.1C191.5,332.3,191.2,333.4,191.2,334.7z"/>
		<path fill="#444444" d="M207.9,339c0.6,0,1.3-0.1,1.9-0.3v2c-0.3,0.1-0.7,0.2-1.1,0.3c-0.5,0.1-0.9,0.1-1.4,0.1
			c-2.5,0-3.8-1.3-3.8-4v-6.7h-1.7v-1.2l1.8-1l0.9-2.6h1.6v2.8h3.5v2h-3.5v6.6c0,0.6,0.2,1.1,0.5,1.4C207,338.9,207.4,339,207.9,339
			z"/>
		<path fill="#444444" d="M218.6,328.3c0.5,0,1,0,1.3,0.1l-0.3,2.5c-0.4-0.1-0.8-0.1-1.2-0.1c-1.1,0-1.9,0.3-2.6,1
			c-0.7,0.7-1,1.6-1,2.7v6.5h-2.6v-12.4h2.1l0.3,2.2h0.1c0.4-0.7,0.9-1.3,1.6-1.8C217.1,328.5,217.9,328.3,218.6,328.3z"/>
		<path fill="#444444" d="M233.3,334.7c0,2-0.5,3.6-1.6,4.8c-1,1.1-2.5,1.7-4.3,1.7c-1.2,0-2.2-0.3-3.1-0.8
			c-0.9-0.5-1.6-1.3-2.1-2.3c-0.5-1-0.7-2.1-0.7-3.4c0-2,0.5-3.6,1.5-4.7c1-1.1,2.5-1.7,4.4-1.7c1.8,0,3.2,0.6,4.3,1.7
			C232.7,331.2,233.3,332.8,233.3,334.7z M224.2,334.7c0,2.9,1.1,4.3,3.2,4.3c2.1,0,3.1-1.4,3.1-4.3c0-2.8-1.1-4.3-3.2-4.3
			c-1.1,0-1.9,0.4-2.4,1.1C224.5,332.3,224.2,333.4,224.2,334.7z"/>
		<path fill="#444444" d="M244.6,337.4c0,1.2-0.4,2.1-1.3,2.8c-0.9,0.6-2.1,1-3.8,1c-1.7,0-3-0.3-4-0.8v-2.3c1.5,0.7,2.8,1,4.1,1
			c1.6,0,2.4-0.5,2.4-1.5c0-0.3-0.1-0.6-0.3-0.8c-0.2-0.2-0.5-0.4-0.9-0.7c-0.4-0.2-1-0.5-1.7-0.8c-1.4-0.6-2.4-1.1-2.9-1.7
			c-0.5-0.6-0.8-1.3-0.8-2.2c0-1.1,0.4-1.9,1.3-2.5c0.9-0.6,2-0.9,3.5-0.9c1.5,0,2.8,0.3,4.1,0.9l-0.9,2c-1.3-0.6-2.5-0.8-3.4-0.8
			c-1.4,0-2.1,0.4-2.1,1.2c0,0.4,0.2,0.7,0.5,1c0.4,0.3,1.2,0.6,2.4,1.1c1,0.4,1.8,0.8,2.2,1.1c0.5,0.3,0.8,0.7,1,1.1
			C244.5,336.3,244.6,336.8,244.6,337.4z"/>
		<path fill="#444444" d="M29.8,361.7c0,2-0.5,3.6-1.6,4.8c-1,1.1-2.5,1.7-4.3,1.7c-1.2,0-2.2-0.3-3.1-0.8c-0.9-0.5-1.6-1.3-2.1-2.3
			c-0.5-1-0.7-2.1-0.7-3.4c0-2,0.5-3.6,1.5-4.7c1-1.1,2.5-1.7,4.4-1.7c1.8,0,3.2,0.6,4.3,1.7C29.2,358.2,29.8,359.8,29.8,361.7z
			 M20.7,361.7c0,2.9,1.1,4.3,3.2,4.3c2.1,0,3.1-1.4,3.1-4.3c0-2.8-1.1-4.3-3.2-4.3c-1.1,0-1.9,0.4-2.4,1.1
			C21,359.3,20.7,360.4,20.7,361.7z"/>
		<path fill="#444444" d="M39.1,355.3c1.5,0,2.8,0.6,3.6,1.7c0.9,1.1,1.3,2.7,1.3,4.7c0,2-0.4,3.6-1.3,4.8c-0.9,1.1-2.1,1.7-3.6,1.7
			c-1.6,0-2.8-0.6-3.7-1.7h-0.2l-0.5,1.5h-2v-17.5h2.6v4.2c0,0.3,0,0.8,0,1.4s-0.1,1-0.1,1.2h0.1C36.3,355.9,37.5,355.3,39.1,355.3z
			 M38.4,357.5c-1.1,0-1.8,0.3-2.3,0.9c-0.5,0.6-0.7,1.7-0.7,3.1v0.2c0,1.5,0.2,2.6,0.7,3.3c0.5,0.7,1.3,1,2.3,1
			c0.9,0,1.6-0.4,2.1-1.1c0.5-0.7,0.7-1.8,0.7-3.2C41.3,358.9,40.4,357.5,38.4,357.5z"/>
		<path fill="#444444" d="M45.8,373.5c-0.8,0-1.5-0.1-2-0.3v-2.1c0.5,0.1,1,0.2,1.6,0.2c1.1,0,1.7-0.6,1.7-1.9v-13.9h2.6v14
			c0,1.3-0.3,2.2-1,2.9C48.1,373.2,47.1,373.5,45.8,373.5z M47,352.2c0-0.5,0.1-0.8,0.4-1.1c0.3-0.3,0.6-0.4,1.1-0.4
			c0.5,0,0.8,0.1,1.1,0.4c0.3,0.3,0.4,0.6,0.4,1.1c0,0.4-0.1,0.8-0.4,1.1c-0.3,0.3-0.6,0.4-1.1,0.4c-0.5,0-0.8-0.1-1.1-0.4
			C47.1,353,47,352.7,47,352.2z"/>
		<path fill="#444444" d="M59,368.2c-1.9,0-3.4-0.6-4.5-1.7c-1.1-1.1-1.6-2.7-1.6-4.7c0-2,0.5-3.6,1.5-4.8c1-1.2,2.4-1.7,4.2-1.7
			c1.6,0,2.9,0.5,3.9,1.5c1,1,1.4,2.4,1.4,4.1v1.4h-8.3c0,1.2,0.4,2.1,1,2.8c0.6,0.6,1.5,1,2.6,1c0.7,0,1.4-0.1,2-0.2
			c0.6-0.1,1.3-0.4,2-0.7v2.1c-0.6,0.3-1.3,0.5-2,0.7C60.5,368.1,59.8,368.2,59,368.2z M58.5,357.3c-0.8,0-1.5,0.3-2,0.8
			c-0.5,0.5-0.8,1.3-0.9,2.3h5.6c0-1-0.3-1.8-0.7-2.3C60,357.6,59.3,357.3,58.5,357.3z"/>
		<path fill="#444444" d="M71.4,366c0.6,0,1.3-0.1,1.9-0.3v2c-0.3,0.1-0.7,0.2-1.1,0.3c-0.5,0.1-0.9,0.1-1.4,0.1
			c-2.5,0-3.8-1.3-3.8-4v-6.7h-1.7v-1.2l1.8-1l0.9-2.6h1.6v2.8h3.5v2h-3.5v6.6c0,0.6,0.2,1.1,0.5,1.4C70.5,365.9,70.9,366,71.4,366z
			"/>
		<path fill="#444444" d="M75.7,352.2c0-0.5,0.1-0.8,0.4-1.1c0.3-0.3,0.6-0.4,1.1-0.4c0.5,0,0.8,0.1,1.1,0.4
			c0.3,0.3,0.4,0.6,0.4,1.1c0,0.4-0.1,0.8-0.4,1.1c-0.3,0.3-0.6,0.4-1.1,0.4c-0.5,0-0.8-0.1-1.1-0.4C75.8,353,75.7,352.7,75.7,352.2
			z M78.5,368h-2.6v-12.4h2.6V368z"/>
		<path fill="#444444" d="M85.1,368l-4.7-12.4h2.8l2.5,7.2c0.4,1.2,0.7,2.2,0.8,2.9h0.1c0.1-0.5,0.3-1.5,0.8-2.9l2.5-7.2h2.8
			L87.9,368H85.1z"/>
		<path fill="#444444" d="M105.6,361.7c0,2-0.5,3.6-1.6,4.8c-1,1.1-2.5,1.7-4.3,1.7c-1.2,0-2.2-0.3-3.1-0.8
			c-0.9-0.5-1.6-1.3-2.1-2.3c-0.5-1-0.7-2.1-0.7-3.4c0-2,0.5-3.6,1.5-4.7c1-1.1,2.5-1.7,4.4-1.7c1.8,0,3.2,0.6,4.3,1.7
			C105,358.2,105.6,359.8,105.6,361.7z M96.5,361.7c0,2.9,1.1,4.3,3.2,4.3c2.1,0,3.1-1.4,3.1-4.3c0-2.8-1.1-4.3-3.2-4.3
			c-1.1,0-1.9,0.4-2.4,1.1C96.8,359.3,96.5,360.4,96.5,361.7z"/>
		<path fill="#444444" d="M116.9,364.4c0,1.2-0.4,2.1-1.3,2.8c-0.9,0.6-2.1,1-3.8,1c-1.7,0-3-0.3-4-0.8v-2.3c1.5,0.7,2.8,1,4.1,1
			c1.6,0,2.4-0.5,2.4-1.5c0-0.3-0.1-0.6-0.3-0.8c-0.2-0.2-0.5-0.4-0.9-0.7s-1-0.5-1.7-0.8c-1.4-0.6-2.4-1.1-2.9-1.7
			c-0.5-0.6-0.8-1.3-0.8-2.2c0-1.1,0.4-1.9,1.3-2.5c0.9-0.6,2-0.9,3.5-0.9c1.5,0,2.8,0.3,4.1,0.9l-0.9,2c-1.3-0.6-2.5-0.8-3.4-0.8
			c-1.4,0-2.1,0.4-2.1,1.2c0,0.4,0.2,0.7,0.5,1c0.4,0.3,1.2,0.6,2.4,1.1c1,0.4,1.8,0.8,2.2,1.1c0.5,0.3,0.8,0.7,1,1.1
			C116.8,363.3,116.9,363.8,116.9,364.4z"/>
		<path fill="#444444" d="M119.4,366.6c0-0.5,0.1-1,0.4-1.3s0.7-0.4,1.2-0.4c0.5,0,1,0.2,1.2,0.5c0.3,0.3,0.4,0.7,0.4,1.2
			c0,0.5-0.1,1-0.4,1.3c-0.3,0.3-0.7,0.5-1.2,0.5s-1-0.2-1.2-0.5C119.5,367.5,119.4,367.1,119.4,366.6z"/>
	</g>
</g>
<g>
	<g>
		<path fill="#429DFF" d="M135.4,44.9V23.4c0-2.4-1.2-4.5-3.3-5.7c-2-1.2-4.5-1.2-6.6-0.1c-19.8,11.1-41.4,17.6-64.1,19.2
			c-0.2,0-20.7,0.1-20.7,0.1c-5.2,0-9.4,3.9-10,8.9h-4.2c-4.6,0-8.4,3.8-8.4,8.4v18.4c0,4.6,3.8,8.4,8.4,8.4h4.2
			c0.4,3.6,2.7,6.6,5.9,8l15,41.4c0.9,2.6,3.4,4.3,6.1,4.3h15c2.1,0,4.1-1,5.4-2.8c1.2-1.7,1.5-4,0.8-6L66.1,90.4
			c21,2.2,41,8.5,59.4,18.8c1,0.6,2.1,0.9,3.2,0.9c1.2,0,2.3-0.3,3.3-0.9c2-1.2,3.3-3.3,3.3-5.7V82c9.2-1.2,16.3-9.1,16.3-18.6
			C151.7,54,144.6,46.1,135.4,44.9z M30.7,74.6h-4.1c-1.1,0-1.9-0.9-1.9-1.9V54.3c0-1.1,0.9-1.9,1.9-1.9h4.1V74.6z M39.3,83.1
			c-1.3-0.6-2.1-1.8-2.1-3.3V47.1h0c0-2,1.6-3.6,3.6-3.6h17.6v40c0,0-17.7,0-17.8,0C39.9,83.4,39.7,83.3,39.3,83.1z M72.9,128.2
			C72.9,128.2,73,128.2,72.9,128.2c0,0.1-0.1,0.1-0.1,0.1h-15c0,0-0.1,0-0.1-0.1L43.8,89.9h15.2L72.9,128.2z M128.9,103.5
			c0,0,0,0.1-0.1,0.1c-0.1,0-0.1,0-0.2,0c-19.8-11.1-41.3-17.7-63.9-19.8V43.1c22.6-2.1,44.1-8.7,63.9-19.8c0,0,0.1,0,0.2,0
			c0.1,0,0.1,0.1,0.1,0.1V103.5z M135.4,75.5v-24c5.6,1.1,9.8,6.1,9.8,12C145.2,69.4,141,74.4,135.4,75.5z"/>
	</g>
</g>
</svg>
