<?xml version="1.0" encoding="utf-8"?>
<!-- Generator: Adobe Illustrator 18.1.1, SVG Export Plug-In . SVG Version: 6.00 Build 0)  -->
<svg version="1.1" id="Capa_1" xmlns="http://www.w3.org/2000/svg" xmlns:xlink="http://www.w3.org/1999/xlink" x="0px" y="0px"
	 viewBox="0 0 280.5 381.8" enable-background="new 0 0 280.5 381.8" xml:space="preserve">
<path fill="#FAFAFA" d="M267.8,381.8H12.7c-7,0-12.7-5.7-12.7-12.7V12.7C0,5.7,5.7,0,12.7,0h255.1c7,0,12.7,5.7,12.7,12.7v356.4
	C280.5,376.1,274.8,381.8,267.8,381.8z"/>
<g>
	<path fill="#429DFF" d="M35.7,167.2h-11l-1.8,4h-4.3l9.4-21h4.3l9.4,21h-4.3L35.7,167.2z M30.2,154.6l-3.9,8.9h7.8L30.2,154.6z"/>
	<path fill="#429DFF" d="M41.8,177.3v-21h3.4l0.2,2c1.1-1.7,3.1-2.4,4.8-2.4c4.6,0,7.6,3.4,7.6,7.7c0,4.3-2.7,7.7-7.5,7.7
		c-1.6,0-3.9-0.5-4.9-2.1v7.9H41.8z M54.1,163.8c0-2.3-1.6-4.2-4.2-4.2c-2.6,0-4.2,1.9-4.2,4.2c0,2.3,1.7,4.2,4.2,4.2
		S54.1,166.1,54.1,163.8z"/>
	<path fill="#429DFF" d="M59.3,177.3v-21h3.4l0.2,2c1.1-1.7,3.1-2.4,4.8-2.4c4.6,0,7.6,3.4,7.6,7.7c0,4.3-2.7,7.7-7.5,7.7
		c-1.6,0-3.9-0.5-4.9-2.1v7.9H59.3z M71.7,163.8c0-2.3-1.6-4.2-4.2-4.2c-2.6,0-4.2,1.9-4.2,4.2c0,2.3,1.7,4.2,4.2,4.2
		S71.7,166.1,71.7,163.8z"/>
	<path fill="#429DFF" d="M86.5,160.3c-1-1-2.2-1.3-3.7-1.3c-1.7,0-2.7,0.5-2.7,1.5c0,1,0.9,1.5,2.8,1.6c2.8,0.2,6.3,0.8,6.3,4.7
		c0,2.6-2.1,4.9-6.4,4.9c-2.3,0-4.7-0.4-6.8-2.6l1.8-2.6c1,1.2,3.4,2,5.1,2.1c1.4,0,2.7-0.7,2.7-1.8c0-1-0.8-1.4-2.9-1.6
		c-2.8-0.2-6.1-1.2-6.1-4.6c0-3.4,3.5-4.6,6.2-4.6c2.3,0,4,0.5,5.8,2L86.5,160.3z"/>
</g>
<g>
	<g>
		<path fill="#444444" d="M32.3,207.5l-1.8-5h-6.8l-1.7,5h-3.1l6.7-17.9h3.2l6.7,17.9H32.3z M29.7,200l-1.7-4.9
			c-0.1-0.3-0.3-0.8-0.5-1.5c-0.2-0.7-0.4-1.2-0.4-1.5c-0.2,1-0.5,2.1-1,3.3l-1.6,4.7H29.7z"/>
		<path fill="#444444" d="M44.3,207.7c-1.7,0-3-0.6-4-1.8h-0.2c0.1,1.1,0.2,1.8,0.2,2.1v5.5h-2.9V194h2.3c0.1,0.3,0.2,0.9,0.4,1.8
			h0.1c0.9-1.4,2.2-2.1,4-2.1c1.7,0,3,0.6,3.9,1.8c0.9,1.2,1.4,2.9,1.4,5.1c0,2.2-0.5,3.9-1.4,5.2C47.3,207.1,46,207.7,44.3,207.7z
			 M43.6,196.1c-1.1,0-2,0.3-2.5,1c-0.5,0.7-0.8,1.7-0.8,3.2v0.4c0,1.6,0.3,2.8,0.8,3.6c0.5,0.7,1.4,1.1,2.6,1.1
			c1,0,1.8-0.4,2.3-1.2s0.8-2,0.8-3.5c0-1.5-0.3-2.7-0.8-3.4C45.4,196.5,44.6,196.1,43.6,196.1z"/>
		<path fill="#444444" d="M55.9,207.5H53v-19h2.9V207.5z"/>
		<path fill="#444444" d="M59.8,190.4c0-0.5,0.1-0.9,0.4-1.2c0.3-0.3,0.7-0.4,1.2-0.4c0.5,0,0.9,0.1,1.2,0.4
			c0.3,0.3,0.4,0.7,0.4,1.2c0,0.5-0.1,0.9-0.4,1.2c-0.3,0.3-0.7,0.4-1.2,0.4c-0.5,0-0.9-0.1-1.2-0.4
			C59.9,191.3,59.8,190.9,59.8,190.4z M62.8,207.5H60V194h2.9V207.5z"/>
		<path fill="#444444" d="M72.4,207.7c-2,0-3.6-0.6-4.7-1.8c-1.1-1.2-1.6-2.9-1.6-5.1c0-2.3,0.6-4,1.7-5.2c1.1-1.2,2.7-1.8,4.8-1.8
			c1.4,0,2.7,0.3,3.8,0.8l-0.9,2.3c-1.2-0.5-2.2-0.7-3-0.7c-2.3,0-3.5,1.5-3.5,4.7c0,1.5,0.3,2.7,0.9,3.4c0.6,0.8,1.4,1.1,2.6,1.1
			c1.3,0,2.5-0.3,3.6-1v2.5c-0.5,0.3-1.1,0.5-1.6,0.6C73.9,207.7,73.2,207.7,72.4,207.7z"/>
		<path fill="#444444" d="M87.8,207.5l-0.6-1.9h-0.1c-0.7,0.8-1.3,1.4-2,1.7c-0.7,0.3-1.5,0.4-2.5,0.4c-1.3,0-2.4-0.4-3.1-1.1
			c-0.7-0.7-1.1-1.7-1.1-3c0-1.4,0.5-2.4,1.6-3.1c1-0.7,2.6-1.1,4.7-1.2l2.3-0.1v-0.7c0-0.9-0.2-1.5-0.6-1.9c-0.4-0.4-1-0.6-1.9-0.6
			c-0.7,0-1.4,0.1-2,0.3c-0.6,0.2-1.2,0.4-1.8,0.7l-0.9-2.1c0.7-0.4,1.5-0.7,2.4-0.9c0.9-0.2,1.7-0.3,2.5-0.3c1.7,0,3,0.4,3.9,1.1
			c0.9,0.7,1.3,1.9,1.3,3.5v9.1H87.8z M83.5,205.5c1,0,1.9-0.3,2.5-0.9c0.6-0.6,0.9-1.4,0.9-2.4V201l-1.7,0.1
			c-1.4,0-2.3,0.3-2.9,0.7c-0.6,0.4-0.9,1-0.9,1.8c0,0.6,0.2,1.1,0.5,1.4C82.2,205.4,82.8,205.5,83.5,205.5z"/>
		<path fill="#444444" d="M99.3,207.7c-2,0-3.6-0.6-4.7-1.8c-1.1-1.2-1.6-2.9-1.6-5.1c0-2.3,0.6-4,1.7-5.2c1.1-1.2,2.7-1.8,4.8-1.8
			c1.4,0,2.7,0.3,3.8,0.8l-0.9,2.3c-1.2-0.5-2.2-0.7-3-0.7c-2.3,0-3.5,1.5-3.5,4.7c0,1.5,0.3,2.7,0.9,3.4c0.6,0.8,1.4,1.1,2.6,1.1
			c1.3,0,2.5-0.3,3.6-1v2.5c-0.5,0.3-1.1,0.5-1.6,0.6C100.8,207.7,100.1,207.7,99.3,207.7z"/>
		<path fill="#444444" d="M106,190.4c0-0.5,0.1-0.9,0.4-1.2c0.3-0.3,0.7-0.4,1.2-0.4c0.5,0,0.9,0.1,1.2,0.4c0.3,0.3,0.4,0.7,0.4,1.2
			c0,0.5-0.1,0.9-0.4,1.2c-0.3,0.3-0.7,0.4-1.2,0.4c-0.5,0-0.9-0.1-1.2-0.4C106.2,191.3,106,190.9,106,190.4z M109.1,207.5h-2.9V194
			h2.9V207.5z"/>
		<path fill="#444444" d="M125.1,200.7c0,2.2-0.6,3.9-1.7,5.2c-1.1,1.2-2.7,1.9-4.7,1.9c-1.3,0-2.4-0.3-3.3-0.9
			c-1-0.6-1.7-1.4-2.2-2.5c-0.5-1.1-0.8-2.3-0.8-3.7c0-2.2,0.6-3.9,1.7-5.1c1.1-1.2,2.7-1.8,4.7-1.8c2,0,3.5,0.6,4.6,1.9
			C124.6,196.9,125.1,198.6,125.1,200.7z M115.3,200.7c0,3.1,1.2,4.7,3.5,4.7c2.3,0,3.4-1.6,3.4-4.7c0-3.1-1.1-4.6-3.4-4.6
			c-1.2,0-2.1,0.4-2.6,1.2C115.6,198.1,115.3,199.2,115.3,200.7z"/>
		<path fill="#444444" d="M140.3,207.5h-2.9v-8.3c0-1-0.2-1.8-0.6-2.3c-0.4-0.5-1.1-0.8-2-0.8c-1.2,0-2.1,0.4-2.7,1.1
			s-0.8,1.9-0.8,3.6v6.7h-2.9V194h2.2l0.4,1.8h0.1c0.4-0.6,1-1.1,1.7-1.5c0.7-0.3,1.6-0.5,2.5-0.5c3.2,0,4.9,1.6,4.9,4.9V207.5z"/>
		<path fill="#444444" d="M150.2,207.7c-2.1,0-3.7-0.6-4.9-1.8c-1.2-1.2-1.8-2.9-1.8-5.1c0-2.2,0.5-3.9,1.6-5.2
			c1.1-1.3,2.6-1.9,4.5-1.9c1.8,0,3.2,0.5,4.2,1.6c1,1.1,1.6,2.6,1.6,4.5v1.6h-9c0,1.3,0.4,2.3,1.1,3c0.7,0.7,1.6,1.1,2.8,1.1
			c0.8,0,1.5-0.1,2.2-0.2c0.7-0.2,1.4-0.4,2.2-0.8v2.3c-0.7,0.3-1.4,0.6-2.1,0.7C151.9,207.7,151.1,207.7,150.2,207.7z M149.7,195.9
			c-0.9,0-1.6,0.3-2.2,0.9c-0.5,0.6-0.9,1.4-1,2.5h6.1c0-1.1-0.3-2-0.8-2.5C151.3,196.2,150.6,195.9,149.7,195.9z"/>
		<path fill="#444444" d="M167.8,203.6c0,1.3-0.5,2.3-1.4,3c-1,0.7-2.3,1.1-4.1,1.1c-1.8,0-3.2-0.3-4.3-0.8v-2.5
			c1.6,0.7,3.1,1.1,4.4,1.1c1.8,0,2.6-0.5,2.6-1.6c0-0.3-0.1-0.6-0.3-0.9c-0.2-0.2-0.5-0.5-1-0.7c-0.4-0.2-1.1-0.5-1.9-0.8
			c-1.6-0.6-2.6-1.2-3.2-1.8c-0.5-0.6-0.8-1.4-0.8-2.3c0-1.2,0.5-2.1,1.4-2.7c0.9-0.6,2.2-1,3.8-1c1.6,0,3.1,0.3,4.5,1l-0.9,2.2
			c-1.5-0.6-2.7-0.9-3.7-0.9c-1.5,0-2.3,0.4-2.3,1.3c0,0.4,0.2,0.8,0.6,1.1c0.4,0.3,1.3,0.7,2.6,1.2c1.1,0.4,1.9,0.8,2.4,1.2
			c0.5,0.4,0.9,0.8,1.1,1.2C167.7,202.4,167.8,203,167.8,203.6z"/>
		<path fill="#444444" d="M188.8,207.5h-2.9v-8.3c0-1-0.2-1.8-0.6-2.3s-1-0.8-1.8-0.8c-1.1,0-1.9,0.4-2.4,1.1
			c-0.5,0.7-0.8,1.9-0.8,3.6v6.7h-2.9V194h2.2l0.4,1.8h0.1c0.4-0.6,0.9-1.1,1.6-1.5c0.7-0.3,1.5-0.5,2.3-0.5c2.1,0,3.5,0.7,4.1,2.1
			h0.2c0.4-0.7,1-1.2,1.7-1.6s1.6-0.6,2.5-0.6c1.6,0,2.8,0.4,3.5,1.2c0.7,0.8,1.1,2.1,1.1,3.7v8.8h-2.9v-8.3c0-1-0.2-1.8-0.6-2.3
			s-1-0.8-1.8-0.8c-1.1,0-1.9,0.3-2.4,1c-0.5,0.7-0.8,1.8-0.8,3.2V207.5z"/>
		<path fill="#444444" d="M213.3,200.7c0,2.2-0.6,3.9-1.7,5.2c-1.1,1.2-2.7,1.9-4.7,1.9c-1.3,0-2.4-0.3-3.3-0.9s-1.7-1.4-2.2-2.5
			c-0.5-1.1-0.8-2.3-0.8-3.7c0-2.2,0.6-3.9,1.7-5.1c1.1-1.2,2.7-1.8,4.7-1.8c2,0,3.5,0.6,4.6,1.9
			C212.7,196.9,213.3,198.6,213.3,200.7z M203.4,200.7c0,3.1,1.2,4.7,3.5,4.7c2.3,0,3.4-1.6,3.4-4.7c0-3.1-1.1-4.6-3.4-4.6
			c-1.2,0-2.1,0.4-2.6,1.2S203.4,199.2,203.4,200.7z M205,192.3V192c0.5-0.6,0.9-1.2,1.4-1.9c0.5-0.7,0.9-1.3,1.2-1.8h3.3v0.3
			c-0.4,0.5-1.1,1.1-1.9,1.9c-0.8,0.8-1.6,1.4-2.1,1.8H205z"/>
		<path fill="#444444" d="M219.6,207.5l-5.1-13.5h3l2.7,7.8c0.5,1.3,0.8,2.4,0.9,3.2h0.1c0.1-0.6,0.4-1.7,0.9-3.2l2.7-7.8h3.1
			l-5.2,13.5H219.6z"/>
		<path fill="#444444" d="M229.8,190.4c0-0.5,0.1-0.9,0.4-1.2c0.3-0.3,0.7-0.4,1.2-0.4c0.5,0,0.9,0.1,1.2,0.4
			c0.3,0.3,0.4,0.7,0.4,1.2c0,0.5-0.1,0.9-0.4,1.2c-0.3,0.3-0.7,0.4-1.2,0.4c-0.5,0-0.9-0.1-1.2-0.4
			C229.9,191.3,229.8,190.9,229.8,190.4z M232.8,207.5h-2.9V194h2.9V207.5z"/>
		<path fill="#444444" d="M239.8,207.5h-2.9v-19h2.9V207.5z"/>
		<path fill="#444444" d="M249.8,207.7c-2.1,0-3.7-0.6-4.9-1.8c-1.2-1.2-1.8-2.9-1.8-5.1c0-2.2,0.5-3.9,1.6-5.2
			c1.1-1.3,2.6-1.9,4.5-1.9c1.8,0,3.2,0.5,4.2,1.6c1,1.1,1.6,2.6,1.6,4.5v1.6h-9c0,1.3,0.4,2.3,1.1,3c0.7,0.7,1.6,1.1,2.8,1.1
			c0.8,0,1.5-0.1,2.2-0.2c0.7-0.2,1.4-0.4,2.2-0.8v2.3c-0.7,0.3-1.4,0.6-2.1,0.7C251.5,207.7,250.7,207.7,249.8,207.7z M249.2,195.9
			c-0.9,0-1.6,0.3-2.2,0.9c-0.5,0.6-0.9,1.4-1,2.5h6.1c0-1.1-0.3-2-0.8-2.5C250.9,196.2,250.2,195.9,249.2,195.9z"/>
		<path fill="#444444" d="M267.3,203.6c0,1.3-0.5,2.3-1.4,3c-1,0.7-2.3,1.1-4.1,1.1c-1.8,0-3.2-0.3-4.3-0.8v-2.5
			c1.6,0.7,3.1,1.1,4.4,1.1c1.8,0,2.6-0.5,2.6-1.6c0-0.3-0.1-0.6-0.3-0.9c-0.2-0.2-0.5-0.5-1-0.7c-0.4-0.2-1.1-0.5-1.9-0.8
			c-1.6-0.6-2.6-1.2-3.2-1.8c-0.5-0.6-0.8-1.4-0.8-2.3c0-1.2,0.5-2.1,1.4-2.7c0.9-0.6,2.2-1,3.8-1c1.6,0,3.1,0.3,4.5,1l-0.9,2.2
			c-1.5-0.6-2.7-0.9-3.7-0.9c-1.5,0-2.3,0.4-2.3,1.3c0,0.4,0.2,0.8,0.6,1.1c0.4,0.3,1.3,0.7,2.6,1.2c1.1,0.4,1.9,0.8,2.4,1.2
			c0.5,0.4,0.9,0.8,1.1,1.2C267.2,202.4,267.3,203,267.3,203.6z"/>
		<path fill="#444444" d="M27.7,234.7c-1.7,0-3-0.6-4-1.8h-0.2c0.1,1.1,0.2,1.8,0.2,2.1v5.5h-2.9V221h2.3c0.1,0.3,0.2,0.9,0.4,1.8
			h0.1c0.9-1.4,2.2-2.1,4-2.1c1.7,0,3,0.6,3.9,1.8c0.9,1.2,1.4,2.9,1.4,5.1c0,2.2-0.5,3.9-1.4,5.2C30.8,234.1,29.4,234.7,27.7,234.7
			z M27.1,223.1c-1.1,0-2,0.3-2.5,1c-0.5,0.7-0.8,1.7-0.8,3.2v0.4c0,1.6,0.3,2.8,0.8,3.6c0.5,0.7,1.4,1.1,2.6,1.1
			c1,0,1.8-0.4,2.3-1.2s0.8-2,0.8-3.5c0-1.5-0.3-2.7-0.8-3.4C28.9,223.5,28.1,223.1,27.1,223.1z"/>
		<path fill="#444444" d="M44.9,234.5l-0.6-1.9h-0.1c-0.7,0.8-1.3,1.4-2,1.7c-0.7,0.3-1.5,0.4-2.5,0.4c-1.3,0-2.4-0.4-3.1-1.1
			c-0.7-0.7-1.1-1.7-1.1-3c0-1.4,0.5-2.4,1.6-3.1c1-0.7,2.6-1.1,4.7-1.2l2.3-0.1v-0.7c0-0.9-0.2-1.5-0.6-1.9c-0.4-0.4-1-0.6-1.9-0.6
			c-0.7,0-1.4,0.1-2,0.3c-0.6,0.2-1.2,0.4-1.8,0.7l-0.9-2.1c0.7-0.4,1.5-0.7,2.4-0.9c0.9-0.2,1.7-0.3,2.5-0.3c1.7,0,3,0.4,3.9,1.1
			c0.9,0.7,1.3,1.9,1.3,3.5v9.1H44.9z M40.6,232.5c1,0,1.9-0.3,2.5-0.9c0.6-0.6,0.9-1.4,0.9-2.4V228l-1.7,0.1
			c-1.4,0-2.3,0.3-2.9,0.7c-0.6,0.4-0.9,1-0.9,1.8c0,0.6,0.2,1.1,0.5,1.4C39.4,232.4,39.9,232.5,40.6,232.5z"/>
		<path fill="#444444" d="M57.8,220.7c0.6,0,1.1,0,1.4,0.1l-0.3,2.7c-0.4-0.1-0.8-0.1-1.3-0.1c-1.1,0-2.1,0.4-2.8,1.1
			c-0.7,0.7-1.1,1.7-1.1,2.9v7.1H51V221h2.2l0.4,2.4h0.1c0.4-0.8,1-1.4,1.8-1.9C56.2,221,57,220.7,57.8,220.7z"/>
		<path fill="#444444" d="M70.2,234.5l-0.6-1.9h-0.1c-0.7,0.8-1.3,1.4-2,1.7c-0.7,0.3-1.5,0.4-2.5,0.4c-1.3,0-2.4-0.4-3.1-1.1
			c-0.7-0.7-1.1-1.7-1.1-3c0-1.4,0.5-2.4,1.6-3.1c1-0.7,2.6-1.1,4.7-1.2l2.3-0.1v-0.7c0-0.9-0.2-1.5-0.6-1.9c-0.4-0.4-1-0.6-1.9-0.6
			c-0.7,0-1.4,0.1-2,0.3c-0.6,0.2-1.2,0.4-1.8,0.7l-0.9-2.1c0.7-0.4,1.5-0.7,2.4-0.9c0.9-0.2,1.7-0.3,2.5-0.3c1.7,0,3,0.4,3.9,1.1
			c0.9,0.7,1.3,1.9,1.3,3.5v9.1H70.2z M65.9,232.5c1,0,1.9-0.3,2.5-0.9c0.6-0.6,0.9-1.4,0.9-2.4V228l-1.7,0.1
			c-1.4,0-2.3,0.3-2.9,0.7c-0.6,0.4-0.9,1-0.9,1.8c0,0.6,0.2,1.1,0.5,1.4C64.7,232.4,65.2,232.5,65.9,232.5z"/>
		<path fill="#444444" d="M82.6,217.4c0-0.5,0.1-0.9,0.4-1.2c0.3-0.3,0.7-0.4,1.2-0.4c0.5,0,0.9,0.1,1.2,0.4
			c0.3,0.3,0.4,0.7,0.4,1.2c0,0.5-0.1,0.9-0.4,1.2c-0.3,0.3-0.7,0.4-1.2,0.4c-0.5,0-0.9-0.1-1.2-0.4
			C82.7,218.3,82.6,217.9,82.6,217.4z M85.6,234.5h-2.9V221h2.9V234.5z"/>
		<path fill="#444444" d="M105.9,225.5c0,2.9-0.7,5.2-2.2,6.8c-1.5,1.6-3.5,2.4-6.2,2.4c-2.7,0-4.8-0.8-6.2-2.4
			c-1.4-1.6-2.2-3.9-2.2-6.8c0-2.9,0.7-5.2,2.2-6.8c1.5-1.6,3.5-2.4,6.2-2.4c2.7,0,4.7,0.8,6.2,2.4
			C105.1,220.4,105.9,222.6,105.9,225.5z M92.2,225.5c0,2.2,0.4,3.9,1.3,5c0.9,1.1,2.2,1.7,3.9,1.7c1.7,0,3-0.6,3.9-1.7
			c0.9-1.1,1.3-2.8,1.3-5c0-2.2-0.4-3.8-1.3-5c-0.9-1.1-2.2-1.7-3.9-1.7c-1.8,0-3.1,0.6-4,1.7C92.7,221.7,92.2,223.3,92.2,225.5z"/>
		<path fill="#444444" d="M120,229.6c0,1.6-0.6,2.8-1.7,3.7s-2.7,1.4-4.7,1.4c-2,0-3.7-0.3-5-0.9V231c0.8,0.4,1.7,0.7,2.6,0.9
			c0.9,0.2,1.8,0.3,2.6,0.3c1.2,0,2-0.2,2.6-0.7c0.5-0.4,0.8-1,0.8-1.8c0-0.7-0.3-1.2-0.8-1.7c-0.5-0.5-1.5-1-3.1-1.6
			c-1.6-0.7-2.8-1.4-3.4-2.3c-0.7-0.8-1-1.9-1-3.1c0-1.5,0.5-2.7,1.6-3.5c1.1-0.9,2.5-1.3,4.3-1.3c1.7,0,3.4,0.4,5.1,1.1l-0.9,2.4
			c-1.6-0.7-3-1-4.2-1c-0.9,0-1.7,0.2-2.1,0.6s-0.7,1-0.7,1.6c0,0.5,0.1,0.9,0.3,1.2c0.2,0.3,0.5,0.6,1,0.9c0.4,0.3,1.3,0.7,2.4,1.2
			c1.3,0.5,2.3,1.1,2.9,1.5s1.1,1,1.3,1.6C119.9,228.1,120,228.8,120,229.6z"/>
		<path fill="#444444" d="M127.6,221h3.1l2.7,7.7c0.4,1.1,0.7,2.1,0.8,3.1h0.1c0.1-0.4,0.2-1,0.4-1.6c0.2-0.6,1.2-3.7,3.1-9.1h3.1
			l-5.8,15.3c-1,2.8-2.8,4.2-5.2,4.2c-0.6,0-1.3-0.1-1.9-0.2V238c0.4,0.1,0.9,0.1,1.5,0.1c1.4,0,2.4-0.8,2.9-2.4l0.5-1.3L127.6,221z
			"/>
		<path fill="#444444" d="M160.9,234.5l-1.8-5h-6.8l-1.7,5h-3.1l6.7-17.9h3.2l6.7,17.9H160.9z M158.4,227l-1.7-4.9
			c-0.1-0.3-0.3-0.8-0.5-1.5c-0.2-0.7-0.4-1.2-0.4-1.5c-0.2,1-0.5,2.1-1,3.3l-1.6,4.7H158.4z"/>
		<path fill="#444444" d="M177.9,234.5h-2.9v-8.3c0-1-0.2-1.8-0.6-2.3s-1.1-0.8-2-0.8c-1.2,0-2.1,0.4-2.7,1.1s-0.8,1.9-0.8,3.6v6.7
			h-2.9V221h2.2l0.4,1.8h0.1c0.4-0.6,1-1.1,1.7-1.5c0.7-0.3,1.6-0.5,2.5-0.5c3.2,0,4.9,1.6,4.9,4.9V234.5z"/>
		<path fill="#444444" d="M186.5,234.7c-1.7,0-3-0.6-3.9-1.8s-1.4-2.9-1.4-5.1c0-2.2,0.5-3.9,1.4-5.2c1-1.2,2.3-1.8,4-1.8
			c1.8,0,3.1,0.7,4.1,2h0.1c-0.1-1-0.2-1.7-0.2-2.3v-4.9h2.9v19h-2.2l-0.5-1.8h-0.1C189.6,234.1,188.3,234.7,186.5,234.7z
			 M187.3,232.4c1.2,0,2-0.3,2.6-1s0.8-1.7,0.8-3.2v-0.4c0-1.7-0.3-2.9-0.8-3.6c-0.6-0.7-1.4-1.1-2.6-1.1c-1,0-1.8,0.4-2.3,1.2
			c-0.5,0.8-0.8,2-0.8,3.5c0,1.5,0.3,2.6,0.8,3.4C185.4,232,186.2,232.4,187.3,232.4z"/>
		<path fill="#444444" d="M204.4,220.7c0.6,0,1.1,0,1.4,0.1l-0.3,2.7c-0.4-0.1-0.8-0.1-1.3-0.1c-1.1,0-2.1,0.4-2.8,1.1
			c-0.7,0.7-1.1,1.7-1.1,2.9v7.1h-2.9V221h2.2l0.4,2.4h0.1c0.4-0.8,1-1.4,1.8-1.9C202.8,221,203.5,220.7,204.4,220.7z"/>
		<path fill="#444444" d="M220.3,227.7c0,2.2-0.6,3.9-1.7,5.2c-1.1,1.2-2.7,1.9-4.7,1.9c-1.3,0-2.4-0.3-3.3-0.9s-1.7-1.4-2.2-2.5
			c-0.5-1.1-0.8-2.3-0.8-3.7c0-2.2,0.6-3.9,1.7-5.1c1.1-1.2,2.7-1.8,4.7-1.8c2,0,3.5,0.6,4.6,1.9
			C219.7,223.9,220.3,225.6,220.3,227.7z M210.4,227.7c0,3.1,1.2,4.7,3.5,4.7c2.3,0,3.4-1.6,3.4-4.7c0-3.1-1.1-4.6-3.4-4.6
			c-1.2,0-2.1,0.4-2.6,1.2S210.4,226.2,210.4,227.7z"/>
		<path fill="#444444" d="M223.4,217.4c0-0.5,0.1-0.9,0.4-1.2c0.3-0.3,0.7-0.4,1.2-0.4c0.5,0,0.9,0.1,1.2,0.4
			c0.3,0.3,0.4,0.7,0.4,1.2c0,0.5-0.1,0.9-0.4,1.2c-0.3,0.3-0.7,0.4-1.2,0.4c-0.5,0-0.9-0.1-1.2-0.4
			C223.5,218.3,223.4,217.9,223.4,217.4z M226.4,234.5h-2.9V221h2.9V234.5z"/>
		<path fill="#444444" d="M235.1,234.7c-1.7,0-3-0.6-3.9-1.8c-0.9-1.2-1.4-2.9-1.4-5.1c0-2.2,0.5-3.9,1.4-5.2c1-1.2,2.3-1.8,4-1.8
			c1.8,0,3.1,0.7,4.1,2h0.1c-0.1-1-0.2-1.7-0.2-2.3v-4.9h2.9v19h-2.2l-0.5-1.8h-0.1C238.2,234.1,236.9,234.7,235.1,234.7z
			 M235.9,232.4c1.2,0,2-0.3,2.6-1s0.8-1.7,0.8-3.2v-0.4c0-1.7-0.3-2.9-0.8-3.6s-1.4-1.1-2.6-1.1c-1,0-1.8,0.4-2.3,1.2
			c-0.5,0.8-0.8,2-0.8,3.5c0,1.5,0.3,2.6,0.8,3.4C234,232,234.8,232.4,235.9,232.4z"/>
		<path fill="#444444" d="M249.1,231.9c-0.4,1.5-1.1,3.5-2.1,5.8h-2.1c0.6-2.2,1-4.2,1.3-6.1h2.8L249.1,231.9z"/>
		<path fill="#444444" d="M27.7,261.7c-1.7,0-3-0.6-4-1.8h-0.2c0.1,1.1,0.2,1.8,0.2,2.1v5.5h-2.9V248h2.3c0.1,0.3,0.2,0.9,0.4,1.8
			h0.1c0.9-1.4,2.2-2.1,4-2.1c1.7,0,3,0.6,3.9,1.8c0.9,1.2,1.4,2.9,1.4,5.1c0,2.2-0.5,3.9-1.4,5.2C30.8,261.1,29.4,261.7,27.7,261.7
			z M27.1,250.1c-1.1,0-2,0.3-2.5,1c-0.5,0.7-0.8,1.7-0.8,3.2v0.4c0,1.6,0.3,2.8,0.8,3.6c0.5,0.7,1.4,1.1,2.6,1.1
			c1,0,1.8-0.4,2.3-1.2s0.8-2,0.8-3.5c0-1.5-0.3-2.7-0.8-3.4C28.9,250.5,28.1,250.1,27.1,250.1z"/>
		<path fill="#444444" d="M44.9,261.5l-0.6-1.9h-0.1c-0.7,0.8-1.3,1.4-2,1.7c-0.7,0.3-1.5,0.4-2.5,0.4c-1.3,0-2.4-0.4-3.1-1.1
			c-0.7-0.7-1.1-1.7-1.1-3c0-1.4,0.5-2.4,1.6-3.1c1-0.7,2.6-1.1,4.7-1.2l2.3-0.1v-0.7c0-0.9-0.2-1.5-0.6-1.9c-0.4-0.4-1-0.6-1.9-0.6
			c-0.7,0-1.4,0.1-2,0.3c-0.6,0.2-1.2,0.4-1.8,0.7l-0.9-2.1c0.7-0.4,1.5-0.7,2.4-0.9c0.9-0.2,1.7-0.3,2.5-0.3c1.7,0,3,0.4,3.9,1.1
			c0.9,0.7,1.3,1.9,1.3,3.5v9.1H44.9z M40.6,259.5c1,0,1.9-0.3,2.5-0.9c0.6-0.6,0.9-1.4,0.9-2.4V255l-1.7,0.1
			c-1.4,0-2.3,0.3-2.9,0.7c-0.6,0.4-0.9,1-0.9,1.8c0,0.6,0.2,1.1,0.5,1.4C39.4,259.4,39.9,259.5,40.6,259.5z"/>
		<path fill="#444444" d="M57.8,247.7c0.6,0,1.1,0,1.4,0.1l-0.3,2.7c-0.4-0.1-0.8-0.1-1.3-0.1c-1.1,0-2.1,0.4-2.8,1.1
			c-0.7,0.7-1.1,1.7-1.1,2.9v7.1H51V248h2.2l0.4,2.4h0.1c0.4-0.8,1-1.4,1.8-1.9C56.2,248,57,247.7,57.8,247.7z"/>
		<path fill="#444444" d="M70.2,261.5l-0.6-1.9h-0.1c-0.7,0.8-1.3,1.4-2,1.7c-0.7,0.3-1.5,0.4-2.5,0.4c-1.3,0-2.4-0.4-3.1-1.1
			c-0.7-0.7-1.1-1.7-1.1-3c0-1.4,0.5-2.4,1.6-3.1c1-0.7,2.6-1.1,4.7-1.2l2.3-0.1v-0.7c0-0.9-0.2-1.5-0.6-1.9c-0.4-0.4-1-0.6-1.9-0.6
			c-0.7,0-1.4,0.1-2,0.3c-0.6,0.2-1.2,0.4-1.8,0.7l-0.9-2.1c0.7-0.4,1.5-0.7,2.4-0.9c0.9-0.2,1.7-0.3,2.5-0.3c1.7,0,3,0.4,3.9,1.1
			c0.9,0.7,1.3,1.9,1.3,3.5v9.1H70.2z M65.9,259.5c1,0,1.9-0.3,2.5-0.9c0.6-0.6,0.9-1.4,0.9-2.4V255l-1.7,0.1
			c-1.4,0-2.3,0.3-2.9,0.7c-0.6,0.4-0.9,1-0.9,1.8c0,0.6,0.2,1.1,0.5,1.4C64.7,259.4,65.2,259.5,65.9,259.5z"/>
		<path fill="#444444" d="M85.6,261.5h-2.9v-19h2.9V261.5z"/>
		<path fill="#444444" d="M92.6,261.5h-2.9v-19h2.9V261.5z"/>
		<path fill="#444444" d="M102.6,261.7c-2.1,0-3.7-0.6-4.9-1.8c-1.2-1.2-1.8-2.9-1.8-5.1c0-2.2,0.5-3.9,1.6-5.2
			c1.1-1.3,2.6-1.9,4.5-1.9c1.8,0,3.2,0.5,4.2,1.6c1,1.1,1.6,2.6,1.6,4.5v1.6h-9c0,1.3,0.4,2.3,1.1,3c0.7,0.7,1.6,1.1,2.8,1.1
			c0.8,0,1.5-0.1,2.2-0.2c0.7-0.2,1.4-0.4,2.2-0.8v2.3c-0.7,0.3-1.4,0.6-2.1,0.7C104.3,261.7,103.5,261.7,102.6,261.7z M102.1,249.9
			c-0.9,0-1.6,0.3-2.2,0.9c-0.5,0.6-0.9,1.4-1,2.5h6.1c0-1.1-0.3-2-0.8-2.5C103.7,250.2,103,249.9,102.1,249.9z"/>
		<path fill="#444444" d="M114.2,261.5L109,248h3l2.7,7.8c0.5,1.3,0.8,2.4,0.9,3.2h0.1c0.1-0.6,0.4-1.7,0.9-3.2l2.7-7.8h3.1
			l-5.2,13.5H114.2z"/>
		<path fill="#444444" d="M132.9,261.5l-0.6-1.9h-0.1c-0.7,0.8-1.3,1.4-2,1.7c-0.7,0.3-1.5,0.4-2.5,0.4c-1.3,0-2.4-0.4-3.1-1.1
			c-0.7-0.7-1.1-1.7-1.1-3c0-1.4,0.5-2.4,1.6-3.1c1-0.7,2.6-1.1,4.7-1.2l2.3-0.1v-0.7c0-0.9-0.2-1.5-0.6-1.9c-0.4-0.4-1-0.6-1.9-0.6
			c-0.7,0-1.4,0.1-2,0.3c-0.6,0.2-1.2,0.4-1.8,0.7l-0.9-2.1c0.7-0.4,1.5-0.7,2.4-0.9c0.9-0.2,1.7-0.3,2.5-0.3c1.7,0,3,0.4,3.9,1.1
			c0.9,0.7,1.3,1.9,1.3,3.5v9.1H132.9z M128.6,259.5c1,0,1.9-0.3,2.5-0.9c0.6-0.6,0.9-1.4,0.9-2.4V255l-1.7,0.1
			c-1.4,0-2.3,0.3-2.9,0.7c-0.6,0.4-0.9,1-0.9,1.8c0,0.6,0.2,1.1,0.5,1.4C127.4,259.4,127.9,259.5,128.6,259.5z"/>
		<path fill="#444444" d="M145.8,247.7c0.6,0,1.1,0,1.4,0.1l-0.3,2.7c-0.4-0.1-0.8-0.1-1.3-0.1c-1.1,0-2.1,0.4-2.8,1.1
			c-0.7,0.7-1.1,1.7-1.1,2.9v7.1H139V248h2.2l0.4,2.4h0.1c0.4-0.8,1-1.4,1.8-1.9C144.2,248,145,247.7,145.8,247.7z"/>
		<path fill="#444444" d="M164.7,261.5l-0.6-1.9H164c-0.7,0.8-1.3,1.4-2,1.7c-0.7,0.3-1.5,0.4-2.5,0.4c-1.3,0-2.4-0.4-3.1-1.1
			c-0.7-0.7-1.1-1.7-1.1-3c0-1.4,0.5-2.4,1.6-3.1c1-0.7,2.6-1.1,4.7-1.2l2.3-0.1v-0.7c0-0.9-0.2-1.5-0.6-1.9c-0.4-0.4-1-0.6-1.9-0.6
			c-0.7,0-1.4,0.1-2,0.3c-0.6,0.2-1.2,0.4-1.8,0.7l-0.9-2.1c0.7-0.4,1.5-0.7,2.4-0.9s1.7-0.3,2.5-0.3c1.7,0,3,0.4,3.9,1.1
			c0.9,0.7,1.3,1.9,1.3,3.5v9.1H164.7z M160.4,259.5c1,0,1.9-0.3,2.5-0.9s0.9-1.4,0.9-2.4V255l-1.7,0.1c-1.4,0-2.3,0.3-2.9,0.7
			c-0.6,0.4-0.9,1-0.9,1.8c0,0.6,0.2,1.1,0.5,1.4C159.2,259.4,159.7,259.5,160.4,259.5z"/>
		<path fill="#444444" d="M182.3,259.4c0.7,0,1.4-0.1,2.1-0.3v2.2c-0.3,0.1-0.7,0.3-1.2,0.3c-0.5,0.1-1,0.1-1.6,0.1
			c-2.7,0-4.1-1.4-4.1-4.3v-7.3h-1.8v-1.3l2-1l1-2.9h1.8v3h3.8v2.2h-3.8v7.2c0,0.7,0.2,1.2,0.5,1.5
			C181.3,259.2,181.7,259.4,182.3,259.4z"/>
		<path fill="#444444" d="M196.6,261.5l-0.4-1.8H196c-0.4,0.6-1,1.1-1.7,1.5c-0.7,0.4-1.6,0.5-2.5,0.5c-1.6,0-2.9-0.4-3.7-1.2
			s-1.2-2-1.2-3.7V248h2.9v8.3c0,1,0.2,1.8,0.6,2.3s1.1,0.8,2,0.8c1.2,0,2.1-0.4,2.7-1.1c0.6-0.7,0.8-1.9,0.8-3.6V248h2.9v13.5
			H196.6z"/>
		<path fill="#444444" d="M32.8,288.5h-2.9v-8.3c0-1-0.2-1.8-0.6-2.3c-0.4-0.5-1.1-0.8-2-0.8c-1.2,0-2.1,0.4-2.7,1.1
			s-0.8,1.9-0.8,3.6v6.7h-2.9V275h2.2l0.4,1.8h0.1c0.4-0.6,1-1.1,1.7-1.5c0.7-0.3,1.6-0.5,2.5-0.5c3.2,0,4.9,1.6,4.9,4.9V288.5z"/>
		<path fill="#444444" d="M42.7,288.7c-2.1,0-3.7-0.6-4.9-1.8c-1.2-1.2-1.8-2.9-1.8-5.1c0-2.2,0.5-3.9,1.6-5.2
			c1.1-1.3,2.6-1.9,4.5-1.9c1.8,0,3.2,0.5,4.2,1.6c1,1.1,1.6,2.6,1.6,4.5v1.6h-9c0,1.3,0.4,2.3,1.1,3c0.7,0.7,1.6,1.1,2.8,1.1
			c0.8,0,1.5-0.1,2.2-0.2c0.7-0.2,1.4-0.4,2.2-0.8v2.3c-0.7,0.3-1.4,0.6-2.1,0.7C44.4,288.7,43.6,288.7,42.7,288.7z M42.1,276.9
			c-0.9,0-1.6,0.3-2.2,0.9c-0.5,0.6-0.9,1.4-1,2.5h6.1c0-1.1-0.3-2-0.8-2.5C43.8,277.2,43,276.9,42.1,276.9z"/>
		<path fill="#444444" d="M62.6,275v1.6l-2.3,0.4c0.2,0.3,0.4,0.6,0.5,1c0.1,0.4,0.2,0.9,0.2,1.3c0,1.4-0.5,2.5-1.4,3.3
			c-1,0.8-2.3,1.2-4,1.2c-0.4,0-0.8,0-1.2-0.1c-0.6,0.4-0.9,0.8-0.9,1.3c0,0.3,0.1,0.5,0.4,0.7c0.3,0.2,0.8,0.2,1.6,0.2h2.4
			c1.5,0,2.6,0.3,3.4,1c0.8,0.6,1.2,1.6,1.2,2.7c0,1.5-0.6,2.7-1.9,3.5c-1.3,0.8-3.1,1.2-5.5,1.2c-1.8,0-3.2-0.3-4.2-1
			c-1-0.7-1.5-1.6-1.5-2.8c0-0.8,0.3-1.5,0.8-2.1c0.5-0.6,1.3-1,2.2-1.2c-0.4-0.2-0.7-0.4-0.9-0.8c-0.2-0.4-0.4-0.7-0.4-1.1
			c0-0.5,0.1-0.9,0.4-1.3c0.3-0.3,0.7-0.7,1.3-1c-0.7-0.3-1.3-0.8-1.7-1.5c-0.4-0.7-0.7-1.5-0.7-2.4c0-1.5,0.5-2.6,1.4-3.4
			c0.9-0.8,2.2-1.2,3.9-1.2c0.4,0,0.8,0,1.2,0.1c0.4,0.1,0.7,0.1,0.9,0.2H62.6z M52,290.6c0,0.6,0.3,1.1,0.8,1.4
			c0.6,0.3,1.3,0.5,2.3,0.5c1.6,0,2.7-0.2,3.5-0.7c0.8-0.4,1.1-1,1.1-1.8c0-0.6-0.2-1-0.6-1.3c-0.4-0.2-1.2-0.4-2.3-0.4h-2.2
			c-0.8,0-1.5,0.2-2,0.6C52.2,289.4,52,289.9,52,290.6z M53.2,279.3c0,0.8,0.2,1.5,0.7,2c0.4,0.5,1.1,0.7,1.9,0.7
			c1.7,0,2.5-0.9,2.5-2.7c0-0.9-0.2-1.6-0.6-2c-0.4-0.5-1-0.7-1.9-0.7c-0.8,0-1.5,0.2-1.9,0.7C53.4,277.8,53.2,278.4,53.2,279.3z"/>
		<path fill="#444444" d="M77.1,281.7c0,2.2-0.6,3.9-1.7,5.2c-1.1,1.2-2.7,1.9-4.7,1.9c-1.3,0-2.4-0.3-3.3-0.9
			c-1-0.6-1.7-1.4-2.2-2.5c-0.5-1.1-0.8-2.3-0.8-3.7c0-2.2,0.6-3.9,1.7-5.1c1.1-1.2,2.7-1.8,4.7-1.8c2,0,3.5,0.6,4.6,1.9
			C76.5,277.9,77.1,279.6,77.1,281.7z M67.2,281.7c0,3.1,1.2,4.7,3.5,4.7c2.3,0,3.4-1.6,3.4-4.7c0-3.1-1.1-4.6-3.4-4.6
			c-1.2,0-2.1,0.4-2.6,1.2C67.5,279.1,67.2,280.2,67.2,281.7z"/>
		<path fill="#444444" d="M85.8,288.7c-2,0-3.6-0.6-4.7-1.8c-1.1-1.2-1.6-2.9-1.6-5.1c0-2.3,0.6-4,1.7-5.2c1.1-1.2,2.7-1.8,4.8-1.8
			c1.4,0,2.7,0.3,3.8,0.8l-0.9,2.3c-1.2-0.5-2.2-0.7-3-0.7c-2.3,0-3.5,1.5-3.5,4.7c0,1.5,0.3,2.7,0.9,3.4c0.6,0.8,1.4,1.1,2.6,1.1
			c1.3,0,2.5-0.3,3.6-1v2.5c-0.5,0.3-1.1,0.5-1.6,0.6C87.3,288.7,86.6,288.7,85.8,288.7z"/>
		<path fill="#444444" d="M92.6,271.4c0-0.5,0.1-0.9,0.4-1.2c0.3-0.3,0.7-0.4,1.2-0.4c0.5,0,0.9,0.1,1.2,0.4
			c0.3,0.3,0.4,0.7,0.4,1.2c0,0.5-0.1,0.9-0.4,1.2c-0.3,0.3-0.7,0.4-1.2,0.4c-0.5,0-0.9-0.1-1.2-0.4
			C92.7,272.3,92.6,271.9,92.6,271.4z M95.6,288.5h-2.9V275h2.9V288.5z"/>
		<path fill="#444444" d="M111.7,281.7c0,2.2-0.6,3.9-1.7,5.2c-1.1,1.2-2.7,1.9-4.7,1.9c-1.3,0-2.4-0.3-3.3-0.9
			c-1-0.6-1.7-1.4-2.2-2.5c-0.5-1.1-0.8-2.3-0.8-3.7c0-2.2,0.6-3.9,1.7-5.1c1.1-1.2,2.7-1.8,4.7-1.8c2,0,3.5,0.6,4.6,1.9
			C111.1,277.9,111.7,279.6,111.7,281.7z M101.8,281.7c0,3.1,1.2,4.7,3.5,4.7c2.3,0,3.4-1.6,3.4-4.7c0-3.1-1.1-4.6-3.4-4.6
			c-1.2,0-2.1,0.4-2.6,1.2C102.1,279.1,101.8,280.2,101.8,281.7z"/>
		<path fill="#444444" d="M129.9,288.5l-0.6-1.9h-0.1c-0.7,0.8-1.3,1.4-2,1.7c-0.7,0.3-1.5,0.4-2.5,0.4c-1.3,0-2.4-0.4-3.1-1.1
			c-0.7-0.7-1.1-1.7-1.1-3c0-1.4,0.5-2.4,1.6-3.1c1-0.7,2.6-1.1,4.7-1.2l2.3-0.1v-0.7c0-0.9-0.2-1.5-0.6-1.9c-0.4-0.4-1-0.6-1.9-0.6
			c-0.7,0-1.4,0.1-2,0.3c-0.6,0.2-1.2,0.4-1.8,0.7l-0.9-2.1c0.7-0.4,1.5-0.7,2.4-0.9c0.9-0.2,1.7-0.3,2.5-0.3c1.7,0,3,0.4,3.9,1.1
			c0.9,0.7,1.3,1.9,1.3,3.5v9.1H129.9z M125.6,286.5c1,0,1.9-0.3,2.5-0.9c0.6-0.6,0.9-1.4,0.9-2.4V282l-1.7,0.1
			c-1.4,0-2.3,0.3-2.9,0.7c-0.6,0.4-0.9,1-0.9,1.8c0,0.6,0.2,1.1,0.5,1.4C124.4,286.4,124.9,286.5,125.6,286.5z"/>
		<path fill="#444444" d="M138.8,288.5H136v-19h2.9V288.5z"/>
		<path fill="#444444" d="M158.5,284.6c0,1.3-0.5,2.3-1.4,3c-1,0.7-2.3,1.1-4.1,1.1c-1.8,0-3.2-0.3-4.3-0.8v-2.5
			c1.6,0.7,3.1,1.1,4.4,1.1c1.8,0,2.6-0.5,2.6-1.6c0-0.3-0.1-0.6-0.3-0.9c-0.2-0.2-0.5-0.5-1-0.7s-1.1-0.5-1.9-0.8
			c-1.6-0.6-2.6-1.2-3.2-1.8c-0.5-0.6-0.8-1.4-0.8-2.3c0-1.2,0.5-2.1,1.4-2.7s2.2-1,3.8-1c1.6,0,3.1,0.3,4.5,1l-0.9,2.2
			c-1.5-0.6-2.7-0.9-3.7-0.9c-1.5,0-2.3,0.4-2.3,1.3c0,0.4,0.2,0.8,0.6,1.1s1.3,0.7,2.6,1.2c1.1,0.4,1.9,0.8,2.4,1.2
			s0.9,0.8,1.1,1.2C158.4,283.4,158.5,284,158.5,284.6z"/>
		<path fill="#444444" d="M161.4,271.4c0-0.5,0.1-0.9,0.4-1.2c0.3-0.3,0.7-0.4,1.2-0.4c0.5,0,0.9,0.1,1.2,0.4
			c0.3,0.3,0.4,0.7,0.4,1.2c0,0.5-0.1,0.9-0.4,1.2c-0.3,0.3-0.7,0.4-1.2,0.4c-0.5,0-0.9-0.1-1.2-0.4
			C161.6,272.3,161.4,271.9,161.4,271.4z M164.5,288.5h-2.9V275h2.9V288.5z"/>
		<path fill="#444444" d="M180,275v1.6l-2.3,0.4c0.2,0.3,0.4,0.6,0.5,1c0.1,0.4,0.2,0.9,0.2,1.3c0,1.4-0.5,2.5-1.4,3.3
			c-1,0.8-2.3,1.2-4,1.2c-0.4,0-0.8,0-1.2-0.1c-0.6,0.4-0.9,0.8-0.9,1.3c0,0.3,0.1,0.5,0.4,0.7c0.3,0.2,0.8,0.2,1.6,0.2h2.4
			c1.5,0,2.6,0.3,3.4,1s1.2,1.6,1.2,2.7c0,1.5-0.6,2.7-1.9,3.5s-3.1,1.2-5.5,1.2c-1.8,0-3.2-0.3-4.2-1c-1-0.7-1.5-1.6-1.5-2.8
			c0-0.8,0.3-1.5,0.8-2.1c0.5-0.6,1.3-1,2.2-1.2c-0.4-0.2-0.7-0.4-0.9-0.8c-0.2-0.4-0.4-0.7-0.4-1.1c0-0.5,0.1-0.9,0.4-1.3
			c0.3-0.3,0.7-0.7,1.3-1c-0.7-0.3-1.3-0.8-1.7-1.5c-0.4-0.7-0.7-1.5-0.7-2.4c0-1.5,0.5-2.6,1.4-3.4c0.9-0.8,2.2-1.2,3.9-1.2
			c0.4,0,0.8,0,1.2,0.1c0.4,0.1,0.7,0.1,0.9,0.2H180z M169.4,290.6c0,0.6,0.3,1.1,0.8,1.4c0.6,0.3,1.3,0.5,2.3,0.5
			c1.6,0,2.7-0.2,3.5-0.7c0.8-0.4,1.1-1,1.1-1.8c0-0.6-0.2-1-0.6-1.3s-1.2-0.4-2.3-0.4H172c-0.8,0-1.5,0.2-2,0.6
			C169.6,289.4,169.4,289.9,169.4,290.6z M170.6,279.3c0,0.8,0.2,1.5,0.7,2c0.4,0.5,1.1,0.7,1.9,0.7c1.7,0,2.5-0.9,2.5-2.7
			c0-0.9-0.2-1.6-0.6-2c-0.4-0.5-1-0.7-1.9-0.7c-0.8,0-1.5,0.2-1.9,0.7C170.8,277.8,170.6,278.4,170.6,279.3z"/>
		<path fill="#444444" d="M192,288.5l-0.4-1.8h-0.1c-0.4,0.6-1,1.1-1.7,1.5c-0.7,0.4-1.6,0.5-2.5,0.5c-1.6,0-2.9-0.4-3.7-1.2
			s-1.2-2-1.2-3.7V275h2.9v8.3c0,1,0.2,1.8,0.6,2.3c0.4,0.5,1.1,0.8,2,0.8c1.2,0,2.1-0.4,2.7-1.1c0.6-0.7,0.8-1.9,0.8-3.6V275h2.9
			v13.5H192z"/>
		<path fill="#444444" d="M198.2,271.4c0-0.5,0.1-0.9,0.4-1.2c0.3-0.3,0.7-0.4,1.2-0.4c0.5,0,0.9,0.1,1.2,0.4
			c0.3,0.3,0.4,0.7,0.4,1.2c0,0.5-0.1,0.9-0.4,1.2c-0.3,0.3-0.7,0.4-1.2,0.4c-0.5,0-0.9-0.1-1.2-0.4
			C198.3,272.3,198.2,271.9,198.2,271.4z M201.2,288.5h-2.9V275h2.9V288.5z"/>
		<path fill="#444444" d="M211.2,288.7c-2.1,0-3.7-0.6-4.9-1.8c-1.2-1.2-1.8-2.9-1.8-5.1c0-2.2,0.5-3.9,1.6-5.2
			c1.1-1.3,2.6-1.9,4.5-1.9c1.8,0,3.2,0.5,4.2,1.6c1,1.1,1.5,2.6,1.5,4.5v1.6h-9c0,1.3,0.4,2.3,1.1,3c0.7,0.7,1.6,1.1,2.8,1.1
			c0.8,0,1.5-0.1,2.2-0.2c0.7-0.2,1.4-0.4,2.2-0.8v2.3c-0.7,0.3-1.4,0.6-2.1,0.7C212.9,288.7,212.1,288.7,211.2,288.7z M210.7,276.9
			c-0.9,0-1.6,0.3-2.2,0.9c-0.5,0.6-0.9,1.4-1,2.5h6.1c0-1.1-0.3-2-0.8-2.5C212.3,277.2,211.6,276.9,210.7,276.9z"/>
		<path fill="#444444" d="M231.6,288.5h-2.9v-8.3c0-1-0.2-1.8-0.6-2.3c-0.4-0.5-1.1-0.8-2-0.8c-1.2,0-2.1,0.4-2.7,1.1
			s-0.8,1.9-0.8,3.6v6.7h-2.9V275h2.2l0.4,1.8h0.1c0.4-0.6,1-1.1,1.7-1.5c0.7-0.3,1.6-0.5,2.5-0.5c3.2,0,4.9,1.6,4.9,4.9V288.5z"/>
		<path fill="#444444" d="M240.6,286.4c0.7,0,1.4-0.1,2.1-0.3v2.2c-0.3,0.1-0.7,0.3-1.2,0.3c-0.5,0.1-1,0.1-1.6,0.1
			c-2.7,0-4.1-1.4-4.1-4.3v-7.3H234v-1.3l2-1l1-2.9h1.8v3h3.8v2.2h-3.8v7.2c0,0.7,0.2,1.2,0.5,1.5
			C239.6,286.2,240.1,286.4,240.6,286.4z"/>
		<path fill="#444444" d="M251.3,288.7c-2.1,0-3.7-0.6-4.9-1.8c-1.2-1.2-1.8-2.9-1.8-5.1c0-2.2,0.5-3.9,1.6-5.2
			c1.1-1.3,2.6-1.9,4.5-1.9c1.8,0,3.2,0.5,4.2,1.6c1,1.1,1.6,2.6,1.6,4.5v1.6h-9c0,1.3,0.4,2.3,1.1,3c0.7,0.7,1.6,1.1,2.8,1.1
			c0.8,0,1.5-0.1,2.2-0.2c0.7-0.2,1.4-0.4,2.2-0.8v2.3c-0.7,0.3-1.4,0.6-2.1,0.7C253,288.7,252.2,288.7,251.3,288.7z M250.8,276.9
			c-0.9,0-1.6,0.3-2.2,0.9c-0.5,0.6-0.9,1.4-1,2.5h6.1c0-1.1-0.3-2-0.8-2.5C252.4,277.2,251.7,276.9,250.8,276.9z"/>
		<path fill="#444444" d="M32.8,315.5h-2.9v-8.3c0-1-0.2-1.8-0.6-2.3c-0.4-0.5-1.1-0.8-2-0.8c-1.2,0-2.1,0.4-2.7,1.1
			s-0.8,1.9-0.8,3.6v6.7h-2.9V302h2.2l0.4,1.8h0.1c0.4-0.6,1-1.1,1.7-1.5c0.7-0.3,1.6-0.5,2.5-0.5c3.2,0,4.9,1.6,4.9,4.9V315.5z"/>
		<path fill="#444444" d="M36.6,298.4c0-0.5,0.1-0.9,0.4-1.2c0.3-0.3,0.7-0.4,1.2-0.4c0.5,0,0.9,0.1,1.2,0.4
			c0.3,0.3,0.4,0.7,0.4,1.2c0,0.5-0.1,0.9-0.4,1.2c-0.3,0.3-0.7,0.4-1.2,0.4c-0.5,0-0.9-0.1-1.2-0.4
			C36.7,299.3,36.6,298.9,36.6,298.4z M39.6,315.5h-2.9V302h2.9V315.5z"/>
		<path fill="#444444" d="M46.8,315.5L41.7,302h3l2.7,7.8c0.5,1.3,0.8,2.4,0.9,3.2h0.1c0.1-0.6,0.4-1.7,0.9-3.2L52,302h3.1
			l-5.2,13.5H46.8z"/>
		<path fill="#444444" d="M63,315.7c-2.1,0-3.7-0.6-4.9-1.8c-1.2-1.2-1.8-2.9-1.8-5.1c0-2.2,0.5-3.9,1.6-5.2
			c1.1-1.3,2.6-1.9,4.5-1.9c1.8,0,3.2,0.5,4.2,1.6c1,1.1,1.6,2.6,1.6,4.5v1.6h-9c0,1.3,0.4,2.3,1.1,3c0.7,0.7,1.6,1.1,2.8,1.1
			c0.8,0,1.5-0.1,2.2-0.2c0.7-0.2,1.4-0.4,2.2-0.8v2.3c-0.7,0.3-1.4,0.6-2.1,0.7C64.7,315.7,63.9,315.7,63,315.7z M62.5,303.9
			c-0.9,0-1.6,0.3-2.2,0.9c-0.5,0.6-0.9,1.4-1,2.5h6.1c0-1.1-0.3-2-0.8-2.5C64.1,304.2,63.4,303.9,62.5,303.9z"/>
		<path fill="#444444" d="M74.4,315.5h-2.9v-19h2.9V315.5z"/>
	</g>
</g>
<g>
	<path fill="#429DFF" d="M74.1,16.8H34.5c-8.8,0-16,7.2-16,16l0,44c0.2,2.4,1.9,7,7.2,7c2.2,0,3.6-0.4,4.8-1.5
		c1-0.9,15-15.2,15.5-15.8c0,0,1.5-1.4,3.6-1.4c1.3,0,2.5,0.6,3.6,1.7c1.1,1,1.6,2.1,1.6,3.3c0,2.1-1.8,3.7-1.9,3.8l-29.5,30.5
		c-0.2,0.2-4.9,5.6-4.9,14.4c0,8.8,7.2,16,16,16h39.6c8.8,0,16-7.2,16-16V32.8C90.1,24,82.9,16.8,74.1,16.8z M58.3,79.5
		c0.2-0.2,4.4-4.2,4.4-9.7c0-3.2-1.3-6.3-4.1-9.1c-2.4-2.4-5.1-3.6-8.1-3.6c-6.6,0-12,5.9-12.2,6.2L26.4,75.6V32.8
		c0-4.6,3.8-8.4,8.4-8.4h39.2c4.6,0,8.4,3.8,8.4,8.4v85.9c0,4.6-3.8,8.4-8.4,8.4H34.8c-4.6,0-8.4-3.8-8.4-8.4v-0.5
		c0-0.1,0.1-6,4.4-10.5C35.3,102.8,58.1,79.7,58.3,79.5z"/>
	<path fill="#429DFF" d="M61.3,26.4H47.6c-0.6,0-1.1,0.3-1.1,0.7v1.6c0,0.4,0.5,0.7,1.1,0.7h13.7c0.6,0,1.1-0.3,1.1-0.7v-1.6
		C62.3,26.7,61.9,26.4,61.3,26.4z"/>
	<g>
		<g>
			<defs>
				<circle id="SVGID_1_" cx="54.4" cy="118.3" r="4.5"/>
			</defs>
			<use xlink:href="#SVGID_1_"  overflow="visible" fill="#429DFF"/>
			<clipPath id="SVGID_2_">
				<use xlink:href="#SVGID_1_"  overflow="visible"/>
			</clipPath>
		</g>
		<path fill="#429DFF" d="M54.4,123.7c-3,0-5.4-2.4-5.4-5.4s2.4-5.4,5.4-5.4c3,0,5.4,2.4,5.4,5.4S57.3,123.7,54.4,123.7z
			 M54.4,114.6c-2,0-3.7,1.7-3.7,3.7c0,2,1.7,3.7,3.7,3.7c2,0,3.7-1.7,3.7-3.7C58.1,116.3,56.4,114.6,54.4,114.6z"/>
	</g>
</g>
</svg>
