<?xml version="1.0" encoding="utf-8"?>
<!-- Generator: Adobe Illustrator 18.1.1, SVG Export Plug-In . SVG Version: 6.00 Build 0)  -->
<svg version="1.1" id="Capa_1" xmlns="http://www.w3.org/2000/svg" xmlns:xlink="http://www.w3.org/1999/xlink" x="0px" y="0px"
	 viewBox="0 0 280.5 381.8" enable-background="new 0 0 280.5 381.8" xml:space="preserve">
<path fill="#FAFAFA" d="M267.8,381.8H12.7c-7,0-12.7-5.7-12.7-12.7V12.7C0,5.7,5.7,0,12.7,0h255.1c7,0,12.7,5.7,12.7,12.7v356.4
	C280.5,376.1,274.8,381.8,267.8,381.8z"/>
<g>
	<path fill="#429DFF" d="M35.6,171.1H19.9c0-7,0-14,0-21h15.7v3.8H23.8v4.8h11.4v3.7H23.8v4.7h11.8V171.1z"/>
	<path fill="#429DFF" d="M41.9,159.7H53v3.4H41.9V159.7z"/>
	<path fill="#429DFF" d="M78.2,168.5c-2.2,2.1-4.9,3.1-8,3.1c-7.8,0-11.1-5.4-11.1-10.8c0-5.5,3.5-11.1,11.1-11.1
		c2.9,0,5.5,1.1,7.7,3.2l-2.6,2.5c-1.4-1.3-3.2-2-5.1-2c-5.1,0-7.3,3.8-7.2,7.3c0,3.5,2,7.1,7.2,7.1c1.8,0,3.9-0.8,5.3-2.1
		L78.2,168.5z"/>
	<path fill="#429DFF" d="M93.4,163.8c0,4.3-2.9,7.7-7.7,7.7S78,168,78,163.8c0-4.2,2.9-7.7,7.6-7.7S93.4,159.5,93.4,163.8z
		 M81.7,163.8c0,2.2,1.3,4.4,4,4.4s4-2.1,4-4.4c0-2.2-1.6-4.4-4-4.4C83,159.4,81.7,161.5,81.7,163.8z"/>
	<path fill="#429DFF" d="M104.6,171.1v-7.9c0-1.9-1-3.7-3-3.7c-2,0-3.1,1.8-3.1,3.7v7.9h-3.7v-14.8h3.4l0.3,1.8c0.8-1.5,2.5-2,3.9-2
		c1.8,0,3.5,0.7,4.4,2.8c1.3-2.1,3-2.7,4.9-2.7c4.2,0,6.3,2.6,6.3,7v8h-3.7v-8c0-2-0.8-3.6-2.8-3.6s-3.2,1.7-3.2,3.7v7.9H104.6z"/>
	<path fill="#429DFF" d="M130.2,171.1v-7.9c0-1.9-1-3.7-3-3.7c-2,0-3.1,1.8-3.1,3.7v7.9h-3.7v-14.8h3.4l0.3,1.8c0.8-1.5,2.5-2,3.9-2
		c1.8,0,3.5,0.7,4.4,2.8c1.3-2.1,3-2.7,4.9-2.7c4.2,0,6.3,2.6,6.3,7v8h-3.7v-8c0-2-0.8-3.6-2.8-3.6s-3.2,1.7-3.2,3.7v7.9H130.2z"/>
	<path fill="#429DFF" d="M149.2,165.1c0.2,1.8,1.8,3.2,4.4,3.2c1.4,0,3.1-0.5,4-1.4l2.3,2.3c-1.6,1.6-4.1,2.4-6.4,2.4
		c-5.1,0-8.1-3.2-8.1-7.9c0-4.5,3.1-7.7,7.9-7.7c4.9,0,8,3.1,7.5,9.1H149.2z M157.2,162c-0.2-1.9-1.7-2.9-3.8-2.9
		c-2,0-3.6,1-4.1,2.9H157.2z"/>
	<path fill="#429DFF" d="M165.8,156.4l0.3,1.7c1.1-1.8,2.7-2.1,4.2-2.1c1.5,0,3,0.6,3.8,1.4l-1.7,3.2c-0.8-0.6-1.4-1-2.6-1
		c-1.9,0-3.7,1-3.7,3.7v7.8h-3.7v-14.8H165.8z"/>
	<path fill="#429DFF" d="M186.9,169.3c-1.7,1.7-3.5,2.3-5.7,2.3c-4.3,0-7.9-2.6-7.9-7.8c0-5.2,3.6-7.8,7.9-7.8
		c2.1,0,3.7,0.6,5.3,2.2l-2.3,2.4c-0.9-0.8-2-1.2-3-1.2c-2.5,0-4.3,1.8-4.3,4.4c0,2.8,1.9,4.3,4.2,4.3c1.2,0,2.3-0.3,3.2-1.2
		L186.9,169.3z"/>
	<path fill="#429DFF" d="M191,165.1c0.2,1.8,1.8,3.2,4.4,3.2c1.3,0,3.1-0.5,4-1.4l2.3,2.3c-1.6,1.6-4.1,2.4-6.4,2.4
		c-5.1,0-8.1-3.2-8.1-7.9c0-4.5,3.1-7.7,7.9-7.7c5,0,8,3.1,7.5,9.1H191z M199,162c-0.2-1.9-1.7-2.9-3.8-2.9c-2,0-3.6,1-4.1,2.9H199z
		"/>
</g>
<g>
	<g>
		<path fill="#444444" d="M31.3,207.5H21.2v-17.8h10.1v2.5h-7.2v4.9h6.7v2.4h-6.7v5.6h7.2V207.5z"/>
		<path fill="#444444" d="M46.2,207.5h-2.9v-8.3c0-1-0.2-1.8-0.6-2.3s-1-0.8-1.8-0.8c-1.1,0-1.9,0.4-2.4,1.1
			c-0.5,0.7-0.8,1.9-0.8,3.6v6.7h-2.9V194h2.2l0.4,1.8h0.1c0.4-0.6,0.9-1.1,1.6-1.5c0.7-0.3,1.5-0.5,2.4-0.5c2.1,0,3.5,0.7,4.1,2.1
			h0.2c0.4-0.7,1-1.2,1.7-1.6c0.7-0.4,1.6-0.6,2.5-0.6c1.6,0,2.8,0.4,3.5,1.2c0.7,0.8,1.1,2.1,1.1,3.7v8.8h-2.9v-8.3
			c0-1-0.2-1.8-0.6-2.3c-0.4-0.5-1-0.8-1.8-0.8c-1.1,0-1.9,0.3-2.4,1c-0.5,0.7-0.8,1.8-0.8,3.2V207.5z"/>
		<path fill="#444444" d="M65.6,207.7c-1.7,0-3-0.6-4-1.8h-0.2c0.1,1.1,0.2,1.8,0.2,2.1v5.5h-2.9V194h2.3c0.1,0.3,0.2,0.9,0.4,1.8
			h0.1c0.9-1.4,2.2-2.1,4-2.1c1.7,0,3,0.6,3.9,1.8c0.9,1.2,1.4,2.9,1.4,5.1c0,2.2-0.5,3.9-1.4,5.2C68.6,207.1,67.3,207.7,65.6,207.7
			z M64.9,196.1c-1.1,0-2,0.3-2.5,1c-0.5,0.7-0.8,1.7-0.8,3.2v0.4c0,1.6,0.3,2.8,0.8,3.6c0.5,0.7,1.4,1.1,2.6,1.1
			c1,0,1.8-0.4,2.3-1.2s0.8-2,0.8-3.5c0-1.5-0.3-2.7-0.8-3.4C66.7,196.5,65.9,196.1,64.9,196.1z"/>
		<path fill="#444444" d="M74.2,190.4c0-0.5,0.1-0.9,0.4-1.2c0.3-0.3,0.7-0.4,1.2-0.4c0.5,0,0.9,0.1,1.2,0.4
			c0.3,0.3,0.4,0.7,0.4,1.2c0,0.5-0.1,0.9-0.4,1.2c-0.3,0.3-0.7,0.4-1.2,0.4c-0.5,0-0.9-0.1-1.2-0.4
			C74.3,191.3,74.2,190.9,74.2,190.4z M77.2,207.5h-2.9V194h2.9V207.5z"/>
		<path fill="#444444" d="M87.2,207.7c-2.1,0-3.7-0.6-4.9-1.8c-1.2-1.2-1.8-2.9-1.8-5.1c0-2.2,0.5-3.9,1.6-5.2
			c1.1-1.3,2.6-1.9,4.5-1.9c1.8,0,3.2,0.5,4.2,1.6c1,1.1,1.6,2.6,1.6,4.5v1.6h-9c0,1.3,0.4,2.3,1.1,3c0.7,0.7,1.6,1.1,2.8,1.1
			c0.8,0,1.5-0.1,2.2-0.2c0.7-0.2,1.4-0.4,2.2-0.8v2.3c-0.7,0.3-1.4,0.6-2.1,0.7C88.9,207.7,88.1,207.7,87.2,207.7z M86.7,195.9
			c-0.9,0-1.6,0.3-2.2,0.9c-0.5,0.6-0.9,1.4-1,2.5h6.1c0-1.1-0.3-2-0.8-2.5C88.3,196.2,87.6,195.9,86.7,195.9z"/>
		<path fill="#444444" d="M104.7,207.5H94.5v-1.8l6.8-9.5h-6.4V194h9.6v2l-6.7,9.3h6.9V207.5z"/>
		<path fill="#444444" d="M116.1,207.5l-0.6-1.9h-0.1c-0.7,0.8-1.3,1.4-2,1.7c-0.7,0.3-1.5,0.4-2.5,0.4c-1.3,0-2.4-0.4-3.1-1.1
			c-0.7-0.7-1.1-1.7-1.1-3c0-1.4,0.5-2.4,1.6-3.1c1-0.7,2.6-1.1,4.7-1.2l2.3-0.1v-0.7c0-0.9-0.2-1.5-0.6-1.9c-0.4-0.4-1-0.6-1.9-0.6
			c-0.7,0-1.4,0.1-2,0.3c-0.6,0.2-1.2,0.4-1.8,0.7l-0.9-2.1c0.7-0.4,1.5-0.7,2.4-0.9c0.9-0.2,1.7-0.3,2.5-0.3c1.7,0,3,0.4,3.9,1.1
			c0.9,0.7,1.3,1.9,1.3,3.5v9.1H116.1z M111.8,205.5c1,0,1.9-0.3,2.5-0.9c0.6-0.6,0.9-1.4,0.9-2.4V201l-1.7,0.1
			c-1.4,0-2.3,0.3-2.9,0.7c-0.6,0.4-0.9,1-0.9,1.8c0,0.6,0.2,1.1,0.5,1.4C110.6,205.4,111.1,205.5,111.8,205.5z"/>
		<path fill="#444444" d="M137.1,207.5l-0.6-1.9h-0.1c-0.7,0.8-1.3,1.4-2,1.7c-0.7,0.3-1.5,0.4-2.5,0.4c-1.3,0-2.4-0.4-3.1-1.1
			c-0.7-0.7-1.1-1.7-1.1-3c0-1.4,0.5-2.4,1.6-3.1c1-0.7,2.6-1.1,4.7-1.2l2.3-0.1v-0.7c0-0.9-0.2-1.5-0.6-1.9c-0.4-0.4-1-0.6-1.9-0.6
			c-0.7,0-1.4,0.1-2,0.3c-0.6,0.2-1.2,0.4-1.8,0.7l-0.9-2.1c0.7-0.4,1.5-0.7,2.4-0.9c0.9-0.2,1.7-0.3,2.5-0.3c1.7,0,3,0.4,3.9,1.1
			c0.9,0.7,1.3,1.9,1.3,3.5v9.1H137.1z M132.8,205.5c1,0,1.9-0.3,2.5-0.9c0.6-0.6,0.9-1.4,0.9-2.4V201l-1.7,0.1
			c-1.4,0-2.3,0.3-2.9,0.7c-0.6,0.4-0.9,1-0.9,1.8c0,0.6,0.2,1.1,0.5,1.4C131.6,205.4,132.1,205.5,132.8,205.5z"/>
		<path fill="#444444" d="M152.7,207.5l-5.1-13.5h3l2.7,7.8c0.5,1.3,0.8,2.4,0.9,3.2h0.1c0.1-0.6,0.4-1.7,0.9-3.2l2.7-7.8h3.1
			l-5.2,13.5H152.7z"/>
		<path fill="#444444" d="M168.9,207.7c-2.1,0-3.7-0.6-4.9-1.8c-1.2-1.2-1.8-2.9-1.8-5.1c0-2.2,0.5-3.9,1.6-5.2
			c1.1-1.3,2.6-1.9,4.5-1.9c1.8,0,3.2,0.5,4.2,1.6c1,1.1,1.6,2.6,1.6,4.5v1.6h-9c0,1.3,0.4,2.3,1.1,3c0.7,0.7,1.6,1.1,2.8,1.1
			c0.8,0,1.5-0.1,2.2-0.2c0.7-0.2,1.4-0.4,2.2-0.8v2.3c-0.7,0.3-1.4,0.6-2.1,0.7C170.7,207.7,169.8,207.7,168.9,207.7z M168.4,195.9
			c-0.9,0-1.6,0.3-2.2,0.9c-0.5,0.6-0.9,1.4-1,2.5h6.1c0-1.1-0.3-2-0.8-2.5C170,196.2,169.3,195.9,168.4,195.9z"/>
		<path fill="#444444" d="M189.3,207.5h-2.9v-8.3c0-1-0.2-1.8-0.6-2.3s-1.1-0.8-2-0.8c-1.2,0-2.1,0.4-2.7,1.1s-0.8,1.9-0.8,3.6v6.7
			h-2.9V194h2.2l0.4,1.8h0.1c0.4-0.6,1-1.1,1.7-1.5c0.7-0.3,1.6-0.5,2.5-0.5c3.2,0,4.9,1.6,4.9,4.9V207.5z"/>
		<path fill="#444444" d="M197.9,207.7c-1.7,0-3-0.6-3.9-1.8s-1.4-2.9-1.4-5.1c0-2.2,0.5-3.9,1.4-5.2c1-1.2,2.3-1.8,4-1.8
			c1.8,0,3.1,0.7,4.1,2h0.1c-0.1-1-0.2-1.7-0.2-2.3v-4.9h2.9v19h-2.2l-0.5-1.8h-0.1C201,207.1,199.6,207.7,197.9,207.7z
			 M198.6,205.4c1.2,0,2-0.3,2.6-1s0.8-1.7,0.8-3.2v-0.4c0-1.7-0.3-2.9-0.8-3.6c-0.6-0.7-1.4-1.1-2.6-1.1c-1,0-1.8,0.4-2.3,1.2
			c-0.5,0.8-0.8,2-0.8,3.5c0,1.5,0.3,2.6,0.8,3.4C196.8,205,197.6,205.4,198.6,205.4z"/>
		<path fill="#444444" d="M214.8,207.7c-2.1,0-3.7-0.6-4.9-1.8c-1.2-1.2-1.8-2.9-1.8-5.1c0-2.2,0.5-3.9,1.6-5.2
			c1.1-1.3,2.6-1.9,4.5-1.9c1.8,0,3.2,0.5,4.2,1.6c1,1.1,1.6,2.6,1.6,4.5v1.6h-9c0,1.3,0.4,2.3,1.1,3c0.7,0.7,1.6,1.1,2.8,1.1
			c0.8,0,1.5-0.1,2.2-0.2c0.7-0.2,1.4-0.4,2.2-0.8v2.3c-0.7,0.3-1.4,0.6-2.1,0.7C216.5,207.7,215.7,207.7,214.8,207.7z M214.2,195.9
			c-0.9,0-1.6,0.3-2.2,0.9c-0.5,0.6-0.9,1.4-1,2.5h6.1c0-1.1-0.3-2-0.8-2.5C215.9,196.2,215.2,195.9,214.2,195.9z"/>
		<path fill="#444444" d="M230.1,193.7c0.6,0,1.1,0,1.4,0.1l-0.3,2.7c-0.4-0.1-0.8-0.1-1.3-0.1c-1.1,0-2.1,0.4-2.8,1.1
			c-0.7,0.7-1.1,1.7-1.1,2.9v7.1h-2.9V194h2.2l0.4,2.4h0.1c0.4-0.8,1-1.4,1.8-1.9C228.5,194,229.3,193.7,230.1,193.7z"/>
		<path fill="#444444" d="M26.8,234.7c-2.1,0-3.7-0.6-4.9-1.8c-1.2-1.2-1.8-2.9-1.8-5.1c0-2.2,0.5-3.9,1.6-5.2
			c1.1-1.3,2.6-1.9,4.5-1.9c1.8,0,3.2,0.5,4.2,1.6c1,1.1,1.6,2.6,1.6,4.5v1.6h-9c0,1.3,0.4,2.3,1.1,3c0.7,0.7,1.6,1.1,2.8,1.1
			c0.8,0,1.5-0.1,2.2-0.2c0.7-0.2,1.4-0.4,2.2-0.8v2.3c-0.7,0.3-1.4,0.6-2.1,0.7C28.5,234.7,27.7,234.7,26.8,234.7z M26.3,222.9
			c-0.9,0-1.6,0.3-2.2,0.9c-0.5,0.6-0.9,1.4-1,2.5h6.1c0-1.1-0.3-2-0.8-2.5C27.9,223.2,27.2,222.9,26.3,222.9z"/>
		<path fill="#444444" d="M47.2,234.5h-2.9v-8.3c0-1-0.2-1.8-0.6-2.3c-0.4-0.5-1.1-0.8-2-0.8c-1.2,0-2.1,0.4-2.7,1.1
			s-0.8,1.9-0.8,3.6v6.7h-2.9V221h2.2l0.4,1.8h0.1c0.4-0.6,1-1.1,1.7-1.5c0.7-0.3,1.6-0.5,2.5-0.5c3.2,0,4.9,1.6,4.9,4.9V234.5z"/>
		<path fill="#444444" d="M57.5,217.4c0-0.5,0.1-0.9,0.4-1.2c0.3-0.3,0.7-0.4,1.2-0.4c0.5,0,0.9,0.1,1.2,0.4
			c0.3,0.3,0.4,0.7,0.4,1.2c0,0.5-0.1,0.9-0.4,1.2c-0.3,0.3-0.7,0.4-1.2,0.4c-0.5,0-0.9-0.1-1.2-0.4
			C57.6,218.3,57.5,217.9,57.5,217.4z M60.5,234.5h-2.9V221h2.9V234.5z"/>
		<path fill="#444444" d="M76.5,234.5h-2.9v-8.3c0-1-0.2-1.8-0.6-2.3c-0.4-0.5-1.1-0.8-2-0.8c-1.2,0-2.1,0.4-2.7,1.1
			s-0.8,1.9-0.8,3.6v6.7h-2.9V221h2.2l0.4,1.8h0.1c0.4-0.6,1-1.1,1.7-1.5c0.7-0.3,1.6-0.5,2.5-0.5c3.2,0,4.9,1.6,4.9,4.9V234.5z"/>
		<path fill="#444444" d="M85.5,232.4c0.7,0,1.4-0.1,2.1-0.3v2.2c-0.3,0.1-0.7,0.3-1.2,0.3c-0.5,0.1-1,0.1-1.6,0.1
			c-2.7,0-4.1-1.4-4.1-4.3v-7.3h-1.8v-1.3l2-1l1-2.9h1.8v3h3.8v2.2h-3.8v7.2c0,0.7,0.2,1.2,0.5,1.5C84.5,232.2,85,232.4,85.5,232.4z
			"/>
		<path fill="#444444" d="M96.2,234.7c-2.1,0-3.7-0.6-4.9-1.8c-1.2-1.2-1.8-2.9-1.8-5.1c0-2.2,0.5-3.9,1.6-5.2
			c1.1-1.3,2.6-1.9,4.5-1.9c1.8,0,3.2,0.5,4.2,1.6c1,1.1,1.6,2.6,1.6,4.5v1.6h-9c0,1.3,0.4,2.3,1.1,3c0.7,0.7,1.6,1.1,2.8,1.1
			c0.8,0,1.5-0.1,2.2-0.2c0.7-0.2,1.4-0.4,2.2-0.8v2.3c-0.7,0.3-1.4,0.6-2.1,0.7C98,234.7,97.1,234.7,96.2,234.7z M95.7,222.9
			c-0.9,0-1.6,0.3-2.2,0.9c-0.5,0.6-0.9,1.4-1,2.5h6.1c0-1.1-0.3-2-0.8-2.5C97.3,223.2,96.6,222.9,95.7,222.9z"/>
		<path fill="#444444" d="M111.6,220.7c0.6,0,1.1,0,1.4,0.1l-0.3,2.7c-0.4-0.1-0.8-0.1-1.3-0.1c-1.1,0-2.1,0.4-2.8,1.1
			c-0.7,0.7-1.1,1.7-1.1,2.9v7.1h-2.9V221h2.2l0.4,2.4h0.1c0.4-0.8,1-1.4,1.8-1.9C110,221,110.8,220.7,111.6,220.7z"/>
		<path fill="#444444" d="M127.4,234.5h-2.9v-8.3c0-1-0.2-1.8-0.6-2.3c-0.4-0.5-1.1-0.8-2-0.8c-1.2,0-2.1,0.4-2.7,1.1
			s-0.8,1.9-0.8,3.6v6.7h-2.9V221h2.2l0.4,1.8h0.1c0.4-0.6,1-1.1,1.7-1.5c0.7-0.3,1.6-0.5,2.5-0.5c3.2,0,4.9,1.6,4.9,4.9V234.5z"/>
		<path fill="#444444" d="M137.3,234.7c-2.1,0-3.7-0.6-4.9-1.8c-1.2-1.2-1.8-2.9-1.8-5.1c0-2.2,0.5-3.9,1.6-5.2
			c1.1-1.3,2.6-1.9,4.5-1.9c1.8,0,3.2,0.5,4.2,1.6c1,1.1,1.6,2.6,1.6,4.5v1.6h-9c0,1.3,0.4,2.3,1.1,3c0.7,0.7,1.6,1.1,2.8,1.1
			c0.8,0,1.5-0.1,2.2-0.2c0.7-0.2,1.4-0.4,2.2-0.8v2.3c-0.7,0.3-1.4,0.6-2.1,0.7C139,234.7,138.2,234.7,137.3,234.7z M136.8,222.9
			c-0.9,0-1.6,0.3-2.2,0.9c-0.5,0.6-0.9,1.4-1,2.5h6.1c0-1.1-0.3-2-0.8-2.5C138.4,223.2,137.7,222.9,136.8,222.9z"/>
		<path fill="#444444" d="M150.8,232.4c0.7,0,1.4-0.1,2.1-0.3v2.2c-0.3,0.1-0.7,0.3-1.2,0.3c-0.5,0.1-1,0.1-1.6,0.1
			c-2.7,0-4.1-1.4-4.1-4.3v-7.3h-1.8v-1.3l2-1l1-2.9h1.8v3h3.8v2.2h-3.8v7.2c0,0.7,0.2,1.2,0.5,1.5
			C149.8,232.2,150.3,232.4,150.8,232.4z"/>
		<path fill="#444444" d="M158.6,231.9c-0.4,1.5-1.1,3.5-2.1,5.8h-2.1c0.6-2.2,1-4.2,1.3-6.1h2.8L158.6,231.9z"/>
		<path fill="#444444" d="M29.3,261.5l-0.6-1.9h-0.1c-0.7,0.8-1.3,1.4-2,1.7c-0.7,0.3-1.5,0.4-2.5,0.4c-1.3,0-2.4-0.4-3.1-1.1
			c-0.7-0.7-1.1-1.7-1.1-3c0-1.4,0.5-2.4,1.6-3.1c1-0.7,2.6-1.1,4.7-1.2l2.3-0.1v-0.7c0-0.9-0.2-1.5-0.6-1.9c-0.4-0.4-1-0.6-1.9-0.6
			c-0.7,0-1.4,0.1-2,0.3c-0.6,0.2-1.2,0.4-1.8,0.7l-0.9-2.1c0.7-0.4,1.5-0.7,2.4-0.9c0.9-0.2,1.7-0.3,2.5-0.3c1.7,0,3,0.4,3.9,1.1
			c0.9,0.7,1.3,1.9,1.3,3.5v9.1H29.3z M25.1,259.5c1,0,1.9-0.3,2.5-0.9c0.6-0.6,0.9-1.4,0.9-2.4V255l-1.7,0.1
			c-1.4,0-2.3,0.3-2.9,0.7c-0.6,0.4-0.9,1-0.9,1.8c0,0.6,0.2,1.1,0.5,1.4C23.8,259.4,24.4,259.5,25.1,259.5z"/>
		<path fill="#444444" d="M44.9,261.5l-0.4-1.8h-0.1c-0.4,0.6-1,1.1-1.7,1.5c-0.7,0.4-1.6,0.5-2.5,0.5c-1.6,0-2.9-0.4-3.7-1.2
			s-1.2-2-1.2-3.7V248h2.9v8.3c0,1,0.2,1.8,0.6,2.3c0.4,0.5,1.1,0.8,2,0.8c1.2,0,2.1-0.4,2.7-1.1c0.6-0.7,0.8-1.9,0.8-3.6V248h2.9
			v13.5H44.9z"/>
		<path fill="#444444" d="M62.6,261.5h-2.9v-8.3c0-1-0.2-1.8-0.6-2.3s-1-0.8-1.8-0.8c-1.1,0-1.9,0.4-2.4,1.1
			c-0.5,0.7-0.8,1.9-0.8,3.6v6.7h-2.9V248h2.2l0.4,1.8h0.1c0.4-0.6,0.9-1.1,1.6-1.5c0.7-0.3,1.5-0.5,2.4-0.5c2.1,0,3.5,0.7,4.1,2.1
			h0.2c0.4-0.7,1-1.2,1.7-1.6c0.7-0.4,1.6-0.6,2.5-0.6c1.6,0,2.8,0.4,3.5,1.2c0.7,0.8,1.1,2.1,1.1,3.7v8.8h-2.9v-8.3
			c0-1-0.2-1.8-0.6-2.3c-0.4-0.5-1-0.8-1.8-0.8c-1.1,0-1.9,0.3-2.4,1c-0.5,0.7-0.8,1.8-0.8,3.2V261.5z"/>
		<path fill="#444444" d="M81.1,261.7c-2.1,0-3.7-0.6-4.9-1.8c-1.2-1.2-1.8-2.9-1.8-5.1c0-2.2,0.5-3.9,1.6-5.2
			c1.1-1.3,2.6-1.9,4.5-1.9c1.8,0,3.2,0.5,4.2,1.6c1,1.1,1.6,2.6,1.6,4.5v1.6h-9c0,1.3,0.4,2.3,1.1,3c0.7,0.7,1.6,1.1,2.8,1.1
			c0.8,0,1.5-0.1,2.2-0.2c0.7-0.2,1.4-0.4,2.2-0.8v2.3c-0.7,0.3-1.4,0.6-2.1,0.7C82.8,261.7,82,261.7,81.1,261.7z M80.5,249.9
			c-0.9,0-1.6,0.3-2.2,0.9c-0.5,0.6-0.9,1.4-1,2.5h6.1c0-1.1-0.3-2-0.8-2.5C82.2,250.2,81.5,249.9,80.5,249.9z"/>
		<path fill="#444444" d="M101.5,261.5h-2.9v-8.3c0-1-0.2-1.8-0.6-2.3c-0.4-0.5-1.1-0.8-2-0.8c-1.2,0-2.1,0.4-2.7,1.1
			s-0.8,1.9-0.8,3.6v6.7h-2.9V248h2.2l0.4,1.8h0.1c0.4-0.6,1-1.1,1.7-1.5c0.7-0.3,1.6-0.5,2.5-0.5c3.2,0,4.9,1.6,4.9,4.9V261.5z"/>
		<path fill="#444444" d="M110.5,259.4c0.7,0,1.4-0.1,2.1-0.3v2.2c-0.3,0.1-0.7,0.3-1.2,0.3c-0.5,0.1-1,0.1-1.6,0.1
			c-2.7,0-4.1-1.4-4.1-4.3v-7.3h-1.8v-1.3l2-1l1-2.9h1.8v3h3.8v2.2h-3.8v7.2c0,0.7,0.2,1.2,0.5,1.5
			C109.5,259.2,109.9,259.4,110.5,259.4z"/>
		<path fill="#444444" d="M123.7,261.5l-0.6-1.9H123c-0.7,0.8-1.3,1.4-2,1.7c-0.7,0.3-1.5,0.4-2.5,0.4c-1.3,0-2.4-0.4-3.1-1.1
			c-0.7-0.7-1.1-1.7-1.1-3c0-1.4,0.5-2.4,1.6-3.1c1-0.7,2.6-1.1,4.7-1.2l2.3-0.1v-0.7c0-0.9-0.2-1.5-0.6-1.9c-0.4-0.4-1-0.6-1.9-0.6
			c-0.7,0-1.4,0.1-2,0.3c-0.6,0.2-1.2,0.4-1.8,0.7l-0.9-2.1c0.7-0.4,1.5-0.7,2.4-0.9c0.9-0.2,1.7-0.3,2.5-0.3c1.7,0,3,0.4,3.9,1.1
			c0.9,0.7,1.3,1.9,1.3,3.5v9.1H123.7z M119.4,259.5c1,0,1.9-0.3,2.5-0.9c0.6-0.6,0.9-1.4,0.9-2.4V255l-1.7,0.1
			c-1.4,0-2.3,0.3-2.9,0.7c-0.6,0.4-0.9,1-0.9,1.8c0,0.6,0.2,1.1,0.5,1.4C118.2,259.4,118.7,259.5,119.4,259.5z"/>
		<path fill="#444444" d="M141.3,259.4c0.7,0,1.4-0.1,2.1-0.3v2.2c-0.3,0.1-0.7,0.3-1.2,0.3c-0.5,0.1-1,0.1-1.6,0.1
			c-2.7,0-4.1-1.4-4.1-4.3v-7.3h-1.8v-1.3l2-1l1-2.9h1.8v3h3.8v2.2h-3.8v7.2c0,0.7,0.2,1.2,0.5,1.5
			C140.3,259.2,140.7,259.4,141.3,259.4z"/>
		<path fill="#444444" d="M155.6,261.5l-0.4-1.8h-0.1c-0.4,0.6-1,1.1-1.7,1.5c-0.7,0.4-1.6,0.5-2.5,0.5c-1.6,0-2.9-0.4-3.7-1.2
			s-1.2-2-1.2-3.7V248h2.9v8.3c0,1,0.2,1.8,0.6,2.3s1.1,0.8,2,0.8c1.2,0,2.1-0.4,2.7-1.1c0.6-0.7,0.8-1.9,0.8-3.6V248h2.9v13.5
			H155.6z"/>
		<path fill="#444444" d="M171,257.6c0,1.3-0.5,2.3-1.4,3c-1,0.7-2.3,1.1-4.1,1.1c-1.8,0-3.2-0.3-4.3-0.8v-2.5
			c1.6,0.7,3.1,1.1,4.4,1.1c1.8,0,2.6-0.5,2.6-1.6c0-0.3-0.1-0.6-0.3-0.9c-0.2-0.2-0.5-0.5-1-0.7s-1.1-0.5-1.9-0.8
			c-1.6-0.6-2.6-1.2-3.2-1.8c-0.5-0.6-0.8-1.4-0.8-2.3c0-1.2,0.5-2.1,1.4-2.7s2.2-1,3.8-1c1.6,0,3.1,0.3,4.5,1l-0.9,2.2
			c-1.5-0.6-2.7-0.9-3.7-0.9c-1.5,0-2.3,0.4-2.3,1.3c0,0.4,0.2,0.8,0.6,1.1s1.3,0.7,2.6,1.2c1.1,0.4,1.9,0.8,2.4,1.2
			s0.9,0.8,1.1,1.2C170.9,256.4,171,257,171,257.6z"/>
		<path fill="#444444" d="M24,288.5L18.8,275h3l2.7,7.8c0.5,1.3,0.8,2.4,0.9,3.2h0.1c0.1-0.6,0.4-1.7,0.9-3.2l2.7-7.8h3.1l-5.2,13.5
			H24z"/>
		<path fill="#444444" d="M40.2,288.7c-2.1,0-3.7-0.6-4.9-1.8c-1.2-1.2-1.8-2.9-1.8-5.1c0-2.2,0.5-3.9,1.6-5.2
			c1.1-1.3,2.6-1.9,4.5-1.9c1.8,0,3.2,0.5,4.2,1.6c1,1.1,1.6,2.6,1.6,4.5v1.6h-9c0,1.3,0.4,2.3,1.1,3c0.7,0.7,1.6,1.1,2.8,1.1
			c0.8,0,1.5-0.1,2.2-0.2c0.7-0.2,1.4-0.4,2.2-0.8v2.3c-0.7,0.3-1.4,0.6-2.1,0.7C41.9,288.7,41.1,288.7,40.2,288.7z M39.6,276.9
			c-0.9,0-1.6,0.3-2.2,0.9c-0.5,0.6-0.9,1.4-1,2.5h6.1c0-1.1-0.3-2-0.8-2.5C41.3,277.2,40.6,276.9,39.6,276.9z"/>
		<path fill="#444444" d="M60.6,288.5h-2.9v-8.3c0-1-0.2-1.8-0.6-2.3c-0.4-0.5-1.1-0.8-2-0.8c-1.2,0-2.1,0.4-2.7,1.1
			s-0.8,1.9-0.8,3.6v6.7h-2.9V275h2.2l0.4,1.8h0.1c0.4-0.6,1-1.1,1.7-1.5c0.7-0.3,1.6-0.5,2.5-0.5c3.2,0,4.9,1.6,4.9,4.9V288.5z"/>
		<path fill="#444444" d="M69.6,286.4c0.7,0,1.4-0.1,2.1-0.3v2.2c-0.3,0.1-0.7,0.3-1.2,0.3c-0.5,0.1-1,0.1-1.6,0.1
			c-2.7,0-4.1-1.4-4.1-4.3v-7.3H63v-1.3l2-1l1-2.9h1.8v3h3.8v2.2h-3.8v7.2c0,0.7,0.2,1.2,0.5,1.5C68.6,286.2,69,286.4,69.6,286.4z"
			/>
		<path fill="#444444" d="M82.8,288.5l-0.6-1.9h-0.1c-0.7,0.8-1.3,1.4-2,1.7c-0.7,0.3-1.5,0.4-2.5,0.4c-1.3,0-2.4-0.4-3.1-1.1
			c-0.7-0.7-1.1-1.7-1.1-3c0-1.4,0.5-2.4,1.6-3.1c1-0.7,2.6-1.1,4.7-1.2l2.3-0.1v-0.7c0-0.9-0.2-1.5-0.6-1.9c-0.4-0.4-1-0.6-1.9-0.6
			c-0.7,0-1.4,0.1-2,0.3c-0.6,0.2-1.2,0.4-1.8,0.7l-0.9-2.1c0.7-0.4,1.5-0.7,2.4-0.9c0.9-0.2,1.7-0.3,2.5-0.3c1.7,0,3,0.4,3.9,1.1
			c0.9,0.7,1.3,1.9,1.3,3.5v9.1H82.8z M78.6,286.5c1,0,1.9-0.3,2.5-0.9c0.6-0.6,0.9-1.4,0.9-2.4V282l-1.7,0.1
			c-1.4,0-2.3,0.3-2.9,0.7c-0.6,0.4-0.9,1-0.9,1.8c0,0.6,0.2,1.1,0.5,1.4C77.3,286.4,77.8,286.5,78.6,286.5z"/>
		<path fill="#444444" d="M97.9,284.6c0,1.3-0.5,2.3-1.4,3c-1,0.7-2.3,1.1-4.1,1.1c-1.8,0-3.2-0.3-4.3-0.8v-2.5
			c1.6,0.7,3.1,1.1,4.4,1.1c1.8,0,2.6-0.5,2.6-1.6c0-0.3-0.1-0.6-0.3-0.9c-0.2-0.2-0.5-0.5-1-0.7c-0.4-0.2-1.1-0.5-1.9-0.8
			c-1.6-0.6-2.6-1.2-3.2-1.8c-0.5-0.6-0.8-1.4-0.8-2.3c0-1.2,0.5-2.1,1.4-2.7c0.9-0.6,2.2-1,3.8-1c1.6,0,3.1,0.3,4.5,1l-0.9,2.2
			c-1.5-0.6-2.7-0.9-3.7-0.9c-1.5,0-2.3,0.4-2.3,1.3c0,0.4,0.2,0.8,0.6,1.1c0.4,0.3,1.3,0.7,2.6,1.2c1.1,0.4,1.9,0.8,2.4,1.2
			c0.5,0.4,0.9,0.8,1.1,1.2C97.8,283.4,97.9,284,97.9,284.6z"/>
		<path fill="#444444" d="M105.5,275h3.1l2.7,7.7c0.4,1.1,0.7,2.1,0.8,3.1h0.1c0.1-0.4,0.2-1,0.4-1.6c0.2-0.6,1.2-3.7,3.1-9.1h3.1
			l-5.8,15.3c-1,2.8-2.8,4.2-5.2,4.2c-0.6,0-1.3-0.1-1.9-0.2V292c0.4,0.1,0.9,0.1,1.5,0.1c1.4,0,2.4-0.8,2.9-2.4l0.5-1.3L105.5,275z
			"/>
		<path fill="#444444" d="M138.8,288.5h-2.9v-8.3c0-1-0.2-1.8-0.6-2.3s-1-0.8-1.8-0.8c-1.1,0-1.9,0.4-2.4,1.1
			c-0.5,0.7-0.8,1.9-0.8,3.6v6.7h-2.9V275h2.2l0.4,1.8h0.1c0.4-0.6,0.9-1.1,1.6-1.5c0.7-0.3,1.5-0.5,2.4-0.5c2.1,0,3.5,0.7,4.1,2.1
			h0.2c0.4-0.7,1-1.2,1.7-1.6c0.7-0.4,1.6-0.6,2.5-0.6c1.6,0,2.8,0.4,3.5,1.2c0.7,0.8,1.1,2.1,1.1,3.7v8.8h-2.9v-8.3
			c0-1-0.2-1.8-0.6-2.3s-1-0.8-1.8-0.8c-1.1,0-1.9,0.3-2.4,1c-0.5,0.7-0.8,1.8-0.8,3.2V288.5z"/>
		<path fill="#444444" d="M160.9,288.5l-0.4-1.8h-0.1c-0.4,0.6-1,1.1-1.7,1.5c-0.7,0.4-1.6,0.5-2.5,0.5c-1.6,0-2.9-0.4-3.7-1.2
			s-1.2-2-1.2-3.7V275h2.9v8.3c0,1,0.2,1.8,0.6,2.3s1.1,0.8,2,0.8c1.2,0,2.1-0.4,2.7-1.1c0.6-0.7,0.8-1.9,0.8-3.6V275h2.9v13.5
			H160.9z"/>
		<path fill="#444444" d="M172.7,288.7c-2,0-3.6-0.6-4.7-1.8c-1.1-1.2-1.6-2.9-1.6-5.1c0-2.3,0.6-4,1.7-5.2c1.1-1.2,2.7-1.8,4.8-1.8
			c1.4,0,2.7,0.3,3.8,0.8l-0.9,2.3c-1.2-0.5-2.2-0.7-3-0.7c-2.3,0-3.5,1.5-3.5,4.7c0,1.5,0.3,2.7,0.9,3.4c0.6,0.8,1.4,1.1,2.6,1.1
			c1.3,0,2.5-0.3,3.6-1v2.5c-0.5,0.3-1.1,0.5-1.6,0.6C174.2,288.7,173.5,288.7,172.7,288.7z"/>
		<path fill="#444444" d="M191.5,288.5h-2.9v-8.3c0-1-0.2-1.8-0.6-2.3c-0.4-0.5-1.1-0.8-2-0.8c-1.2,0-2.1,0.4-2.7,1.1
			c-0.6,0.7-0.8,1.9-0.8,3.6v6.7h-2.9v-19h2.9v4.8c0,0.8,0,1.6-0.1,2.5h0.2c0.4-0.7,0.9-1.2,1.6-1.5c0.7-0.4,1.5-0.5,2.4-0.5
			c3.3,0,4.9,1.6,4.9,4.9V288.5z"/>
		<path fill="#444444" d="M207.4,281.7c0,2.2-0.6,3.9-1.7,5.2c-1.1,1.2-2.7,1.9-4.7,1.9c-1.3,0-2.4-0.3-3.3-0.9s-1.7-1.4-2.2-2.5
			c-0.5-1.1-0.8-2.3-0.8-3.7c0-2.2,0.6-3.9,1.7-5.1c1.1-1.2,2.7-1.8,4.7-1.8c2,0,3.5,0.6,4.6,1.9
			C206.9,277.9,207.4,279.6,207.4,281.7z M197.6,281.7c0,3.1,1.2,4.7,3.5,4.7c2.3,0,3.4-1.6,3.4-4.7c0-3.1-1.1-4.6-3.4-4.6
			c-1.2,0-2.1,0.4-2.6,1.2S197.6,280.2,197.6,281.7z"/>
		<path fill="#444444" d="M32.3,315.5h-2.9v-8.3c0-1-0.2-1.8-0.6-2.3s-1-0.8-1.8-0.8c-1.1,0-1.9,0.4-2.4,1.1
			c-0.5,0.7-0.8,1.9-0.8,3.6v6.7h-2.9V302h2.2l0.4,1.8h0.1c0.4-0.6,0.9-1.1,1.6-1.5c0.7-0.3,1.5-0.5,2.4-0.5c2.1,0,3.5,0.7,4.1,2.1
			H32c0.4-0.7,1-1.2,1.7-1.6c0.7-0.4,1.6-0.6,2.5-0.6c1.6,0,2.8,0.4,3.5,1.2c0.7,0.8,1.1,2.1,1.1,3.7v8.8h-2.9v-8.3
			c0-1-0.2-1.8-0.6-2.3c-0.4-0.5-1-0.8-1.8-0.8c-1.1,0-1.9,0.3-2.4,1c-0.5,0.7-0.8,1.8-0.8,3.2V315.5z"/>
		<path fill="#444444" d="M53.2,315.5l-0.6-1.9h-0.1c-0.7,0.8-1.3,1.4-2,1.7c-0.7,0.3-1.5,0.4-2.5,0.4c-1.3,0-2.4-0.4-3.1-1.1
			c-0.7-0.7-1.1-1.7-1.1-3c0-1.4,0.5-2.4,1.6-3.1c1-0.7,2.6-1.1,4.7-1.2l2.3-0.1v-0.7c0-0.9-0.2-1.5-0.6-1.9c-0.4-0.4-1-0.6-1.9-0.6
			c-0.7,0-1.4,0.1-2,0.3c-0.6,0.2-1.2,0.4-1.8,0.7l-0.9-2.1c0.7-0.4,1.5-0.7,2.4-0.9c0.9-0.2,1.7-0.3,2.5-0.3c1.7,0,3,0.4,3.9,1.1
			c0.9,0.7,1.3,1.9,1.3,3.5v9.1H53.2z M49,313.5c1,0,1.9-0.3,2.5-0.9c0.6-0.6,0.9-1.4,0.9-2.4V309l-1.7,0.1c-1.4,0-2.3,0.3-2.9,0.7
			c-0.6,0.4-0.9,1-0.9,1.8c0,0.6,0.2,1.1,0.5,1.4C47.7,313.4,48.3,313.5,49,313.5z"/>
		<path fill="#444444" d="M68.4,311.6c0,1.3-0.5,2.3-1.4,3c-1,0.7-2.3,1.1-4.1,1.1c-1.8,0-3.2-0.3-4.3-0.8v-2.5
			c1.6,0.7,3.1,1.1,4.4,1.1c1.8,0,2.6-0.5,2.6-1.6c0-0.3-0.1-0.6-0.3-0.9c-0.2-0.2-0.5-0.5-1-0.7c-0.4-0.2-1.1-0.5-1.9-0.8
			c-1.6-0.6-2.6-1.2-3.2-1.8c-0.5-0.6-0.8-1.4-0.8-2.3c0-1.2,0.5-2.1,1.4-2.7c0.9-0.6,2.2-1,3.8-1c1.6,0,3.1,0.3,4.5,1l-0.9,2.2
			c-1.5-0.6-2.7-0.9-3.7-0.9c-1.5,0-2.3,0.4-2.3,1.3c0,0.4,0.2,0.8,0.6,1.1c0.4,0.3,1.3,0.7,2.6,1.2c1.1,0.4,1.9,0.8,2.4,1.2
			c0.5,0.4,0.9,0.8,1.1,1.2C68.2,310.4,68.4,311,68.4,311.6z"/>
		<path fill="#444444" d="M71,314c0-0.6,0.2-1,0.5-1.4c0.3-0.3,0.8-0.5,1.3-0.5c0.6,0,1,0.2,1.4,0.5c0.3,0.3,0.5,0.8,0.5,1.3
			c0,0.6-0.2,1-0.5,1.4c-0.3,0.3-0.8,0.5-1.3,0.5s-1-0.2-1.3-0.5C71.2,315,71,314.5,71,314z"/>
		<path fill="#444444" d="M77.9,314c0-0.6,0.2-1,0.5-1.4c0.3-0.3,0.8-0.5,1.3-0.5c0.6,0,1,0.2,1.4,0.5c0.3,0.3,0.5,0.8,0.5,1.3
			c0,0.6-0.2,1-0.5,1.4c-0.3,0.3-0.8,0.5-1.3,0.5s-1-0.2-1.3-0.5C78.1,315,77.9,314.5,77.9,314z"/>
		<path fill="#444444" d="M84.8,314c0-0.6,0.2-1,0.5-1.4c0.3-0.3,0.8-0.5,1.3-0.5c0.6,0,1,0.2,1.4,0.5c0.3,0.3,0.5,0.8,0.5,1.3
			c0,0.6-0.2,1-0.5,1.4c-0.3,0.3-0.8,0.5-1.3,0.5s-1-0.2-1.3-0.5C84.9,315,84.8,314.5,84.8,314z"/>
	</g>
</g>
<g>
	<path fill="#429DFF" d="M146.3,39.8c-5.3-0.3-95.7,0-95.7,0l-1.9-14.5l-26.6-8.5c0,0-4.2,3.3-3,9.5c8.8,2.6,20.2,6.4,20.2,6.4
		l9.8,70c0,0,0.4,5.6,6.1,5.8c5.7,0.3,84.4,0,84.4,0s5-1.1,5-5c0-3.9-4.5-5.2-4.5-5.2l-81.2,0.1L58.1,92l86.4-12.6
		c0,0,2.8-0.5,3.4-4.1c0.5-3.5,2.3-31.2,2.3-31.2S151.6,40.1,146.3,39.8z M51.9,50.1h23.6l1.6,14.2l-23.1,2.3L51.9,50.1z M56.2,82.5
		l-1.6-12.6l23.5-2.6l1.6,11.8L56.2,82.5z M80.4,50.1h25.1l1.8,10.8L82,63.7L80.4,50.1z M83.8,78.2l-1.5-11.5l25.6-3l1.4,11.3
		L83.8,78.2z M138.4,70.9l-24.6,3.5l-1.5-11.3l26.8-2.8L138.4,70.9z M139.8,57.3l-28.1,3l-1.2-10.2h29.3V57.3z"/>
	<circle fill="#429DFF" cx="69" cy="125.7" r="9.1"/>
	<circle fill="#429DFF" cx="125.1" cy="125.7" r="9.1"/>
</g>
</svg>
