<?xml version="1.0" encoding="utf-8"?>
<!-- Generator: Adobe Illustrator 18.1.1, SVG Export Plug-In . SVG Version: 6.00 Build 0)  -->
<svg version="1.1" id="Capa_1" xmlns="http://www.w3.org/2000/svg" xmlns:xlink="http://www.w3.org/1999/xlink" x="0px" y="0px"
	 viewBox="0 0 280.5 381.8" enable-background="new 0 0 280.5 381.8" xml:space="preserve">
<path fill="#FAFAFA" d="M267.8,381.8H12.7c-7,0-12.7-5.7-12.7-12.7V12.7C0,5.7,5.7,0,12.7,0h255.1c7,0,12.7,5.7,12.7,12.7v356.4
	C280.5,376.1,274.8,381.8,267.8,381.8z"/>
<g>
	<path fill="#429DFF" d="M35.9,156.2c0,1.6-0.8,3.2-2.7,4c2.5,0.8,3.4,3.4,3.4,4.7c0,4.7-3.5,6.2-7.9,6.2c-3.3,0-6.6,0-10,0v-21
		c3.3,0,6.6,0,10,0C32.8,150.1,35.9,152,35.9,156.2z M22.6,158.6h6.1c2.5,0,3.3-1,3.3-2.2c0-1-0.8-2.6-3.3-2.6h-6.1V158.6z
		 M22.6,167.5h6.1c1.6,0,3.9-0.5,3.9-2.5c0-1.9-2.3-2.9-3.9-2.9h-6.1V167.5z"/>
	<path fill="#429DFF" d="M41.3,156.4l0.3,1.7c1.1-1.8,2.7-2.1,4.2-2.1c1.5,0,3,0.6,3.8,1.4l-1.6,3.2c-0.8-0.6-1.4-1-2.6-1
		c-1.9,0-3.7,1-3.7,3.7v7.8h-3.7v-14.8H41.3z"/>
	<path fill="#429DFF" d="M61.4,156.4h3.5v14.8h-3.5l-0.2-2.2c-0.8,1.7-3.1,2.6-4.8,2.6c-4.4,0-7.6-2.7-7.6-7.9
		c0-5.1,3.4-7.8,7.7-7.7c2,0,3.9,0.9,4.7,2.4L61.4,156.4z M52.5,163.7c0,2.8,1.9,4.5,4.4,4.5c5.8,0,5.8-9,0-9
		C54.5,159.3,52.5,160.9,52.5,163.7z"/>
	<path fill="#429DFF" d="M77.7,171.1v-7.7c0-2.2-1.2-4-3.6-4c-2.2,0-3.8,1.9-3.8,4.1v7.6h-3.6v-14.8H70l0.2,2c1.5-1.5,3-2.2,4.9-2.2
		c3.5,0,6.3,2.6,6.3,7.3v7.8H77.7z"/>
	<path fill="#429DFF" d="M98.7,150.2v21h-3.4l-0.2-2c-1.1,1.8-3,2.4-4.8,2.4c-4.4,0-7.6-2.9-7.6-7.7c0-5.1,3.2-7.7,7.5-7.7
		c1.6,0,4,0.8,4.9,2.4v-8.2H98.7z M86.3,163.7c0,2.6,1.9,4.3,4.2,4.3c2.3,0,4.3-1.7,4.3-4.3c0-2.6-2-4.3-4.3-4.3
		C88.1,159.4,86.3,161.1,86.3,163.7z"/>
	<path fill="#429DFF" d="M104.6,152.2c0,2.8-4.3,2.8-4.3,0S104.6,149.3,104.6,152.2z M100.7,156.3v14.8h3.7v-14.8H100.7z"/>
	<path fill="#429DFF" d="M117.3,171.1v-7.7c0-2.2-1.2-4-3.6-4c-2.2,0-3.8,1.9-3.8,4.1v7.6h-3.6v-14.8h3.3l0.2,2
		c1.5-1.5,3-2.2,4.9-2.2c3.5,0,6.3,2.6,6.3,7.3v7.8H117.3z"/>
	<path fill="#429DFF" d="M134.5,154.9l2.7,2l-1.6,2.1c1.1,1.3,1.6,2.8,1.6,4.4c0,1.8-0.7,4.4-3.1,5.5c2.5,1.2,3.1,3,3.1,4.9
		c0,4.1-3.1,6.6-7.4,6.6c-4.3,0-7.5-2.6-7.5-6.6h3.6c0,1.9,1.8,3.2,3.9,3.2s3.8-1.1,3.8-3.2c0-2-1.9-3-3.8-3c-4.6,0-7.5-2.8-7.5-7.4
		s3.4-7.5,7.5-7.5c1.2,0,2.4,0.2,3.4,0.8L134.5,154.9z M125.8,163.4c0,2.6,1.7,4.1,3.9,4.1c2.1,0,3.8-1.6,3.8-4.1s-1.7-4.2-3.8-4.2
		C127.5,159.2,125.8,160.8,125.8,163.4z"/>
</g>
<g>
	<g>
		<path fill="#444444" d="M34.4,197.6c0,2.7-0.8,4.8-2.3,6.2c-1.5,1.4-3.7,2.2-6.5,2.2H21v-16.4h5.1c2.6,0,4.6,0.7,6.1,2.1
			C33.6,193.1,34.4,195,34.4,197.6z M31.5,197.7c0-3.9-1.8-5.9-5.5-5.9h-2.3v11.9h1.9C29.6,203.7,31.5,201.7,31.5,197.7z"/>
		<path fill="#444444" d="M37.5,190.2c0-0.5,0.1-0.8,0.4-1.1c0.3-0.3,0.6-0.4,1.1-0.4c0.5,0,0.8,0.1,1.1,0.4
			c0.3,0.3,0.4,0.6,0.4,1.1c0,0.4-0.1,0.8-0.4,1.1c-0.3,0.3-0.6,0.4-1.1,0.4c-0.5,0-0.8-0.1-1.1-0.4C37.6,191,37.5,190.7,37.5,190.2
			z M40.3,206h-2.6v-12.4h2.6V206z"/>
		<path fill="#444444" d="M52.4,202.4c0,1.2-0.4,2.1-1.3,2.8c-0.9,0.6-2.1,1-3.8,1c-1.7,0-3-0.3-4-0.8v-2.3c1.5,0.7,2.8,1,4.1,1
			c1.6,0,2.4-0.5,2.4-1.5c0-0.3-0.1-0.6-0.3-0.8c-0.2-0.2-0.5-0.4-0.9-0.7s-1-0.5-1.7-0.8c-1.4-0.6-2.4-1.1-2.9-1.7
			c-0.5-0.6-0.8-1.3-0.8-2.2c0-1.1,0.4-1.9,1.3-2.5c0.9-0.6,2-0.9,3.5-0.9c1.5,0,2.8,0.3,4.1,0.9l-0.9,2c-1.3-0.6-2.5-0.8-3.4-0.8
			c-1.4,0-2.1,0.4-2.1,1.2c0,0.4,0.2,0.7,0.5,1c0.4,0.3,1.2,0.6,2.4,1.1c1,0.4,1.8,0.8,2.2,1.1c0.5,0.3,0.8,0.7,1,1.1
			C52.3,201.3,52.4,201.8,52.4,202.4z"/>
		<path fill="#444444" d="M60.6,206.2c-1.9,0-3.4-0.6-4.5-1.7c-1.1-1.1-1.6-2.7-1.6-4.7c0-2,0.5-3.6,1.5-4.8c1-1.2,2.4-1.7,4.2-1.7
			c1.6,0,2.9,0.5,3.9,1.5c1,1,1.4,2.4,1.4,4.1v1.4h-8.3c0,1.2,0.4,2.1,1,2.8c0.6,0.6,1.5,1,2.6,1c0.7,0,1.4-0.1,2-0.2
			c0.6-0.1,1.3-0.4,2-0.7v2.1c-0.6,0.3-1.3,0.5-2,0.7C62.2,206.1,61.5,206.2,60.6,206.2z M60.2,195.3c-0.8,0-1.5,0.3-2,0.8
			c-0.5,0.5-0.8,1.3-0.9,2.3h5.6c0-1-0.3-1.8-0.7-2.3C61.7,195.6,61,195.3,60.2,195.3z"/>
		<path fill="#444444" d="M79.4,206h-2.7v-7.6c0-1-0.2-1.7-0.6-2.1c-0.4-0.5-1-0.7-1.8-0.7c-1.1,0-1.9,0.3-2.4,1
			c-0.5,0.7-0.8,1.8-0.8,3.3v6.2h-2.6v-12.4h2.1l0.4,1.6H71c0.4-0.6,0.9-1,1.6-1.4c0.7-0.3,1.5-0.5,2.3-0.5c3,0,4.5,1.5,4.5,4.5V206
			z M75.7,192c-0.3,0-0.6-0.1-0.9-0.2c-0.3-0.1-0.6-0.3-0.9-0.4s-0.6-0.3-0.9-0.4c-0.3-0.1-0.5-0.2-0.8-0.2c-0.6,0-1,0.4-1.2,1.3
			h-1.4c0.1-1,0.4-1.8,0.9-2.4c0.5-0.5,1.1-0.8,1.9-0.8c0.3,0,0.6,0.1,0.9,0.2c0.3,0.1,0.6,0.3,0.9,0.4c0.3,0.2,0.6,0.3,0.8,0.4
			c0.3,0.1,0.5,0.2,0.8,0.2c0.6,0,1-0.4,1.2-1.3h1.4c-0.1,1-0.4,1.8-0.9,2.4C77.1,191.7,76.5,192,75.7,192z"/>
		<path fill="#444444" d="M94.1,199.7c0,2-0.5,3.6-1.6,4.8c-1,1.1-2.5,1.7-4.3,1.7c-1.2,0-2.2-0.3-3.1-0.8c-0.9-0.5-1.6-1.3-2.1-2.3
			c-0.5-1-0.7-2.1-0.7-3.4c0-2,0.5-3.6,1.5-4.7c1-1.1,2.5-1.7,4.4-1.7c1.8,0,3.2,0.6,4.3,1.7C93.6,196.2,94.1,197.8,94.1,199.7z
			 M85.1,199.7c0,2.9,1.1,4.3,3.2,4.3c2.1,0,3.1-1.4,3.1-4.3c0-2.8-1.1-4.3-3.2-4.3c-1.1,0-1.9,0.4-2.4,1.1
			C85.3,197.3,85.1,198.4,85.1,199.7z"/>
		<path fill="#444444" d="M107.3,206.2c-1.5,0-2.8-0.6-3.6-1.7s-1.3-2.7-1.3-4.7c0-2,0.4-3.6,1.3-4.8c0.9-1.1,2.1-1.7,3.7-1.7
			c1.6,0,2.9,0.6,3.7,1.8h0.1c-0.1-0.9-0.2-1.6-0.2-2.1v-4.5h2.7V206h-2.1l-0.5-1.6H111C110.2,205.6,108.9,206.2,107.3,206.2z
			 M108,204c1.1,0,1.9-0.3,2.4-0.9s0.7-1.6,0.8-3v-0.4c0-1.6-0.3-2.7-0.8-3.3c-0.5-0.7-1.3-1-2.4-1c-0.9,0-1.6,0.4-2.1,1.1
			c-0.5,0.8-0.8,1.8-0.8,3.2c0,1.4,0.2,2.4,0.7,3.1C106.3,203.7,107,204,108,204z"/>
		<path fill="#444444" d="M122.9,206.2c-1.9,0-3.4-0.6-4.5-1.7c-1.1-1.1-1.6-2.7-1.6-4.7c0-2,0.5-3.6,1.5-4.8c1-1.2,2.4-1.7,4.2-1.7
			c1.6,0,2.9,0.5,3.9,1.5c1,1,1.4,2.4,1.4,4.1v1.4h-8.3c0,1.2,0.4,2.1,1,2.8c0.6,0.6,1.5,1,2.6,1c0.7,0,1.4-0.1,2-0.2
			c0.6-0.1,1.3-0.4,2-0.7v2.1c-0.6,0.3-1.3,0.5-2,0.7C124.5,206.1,123.7,206.2,122.9,206.2z M122.4,195.3c-0.8,0-1.5,0.3-2,0.8
			c-0.5,0.5-0.8,1.3-0.9,2.3h5.6c0-1-0.3-1.8-0.7-2.3C123.9,195.6,123.2,195.3,122.4,195.3z"/>
		<path fill="#444444" d="M136.5,190.2c0-0.5,0.1-0.8,0.4-1.1c0.3-0.3,0.6-0.4,1.1-0.4c0.5,0,0.8,0.1,1.1,0.4
			c0.3,0.3,0.4,0.6,0.4,1.1c0,0.4-0.1,0.8-0.4,1.1c-0.3,0.3-0.6,0.4-1.1,0.4c-0.5,0-0.8-0.1-1.1-0.4
			C136.6,191,136.5,190.7,136.5,190.2z M139.3,206h-2.6v-12.4h2.6V206z"/>
		<path fill="#444444" d="M153.5,206h-2.7v-7.7c0-1-0.2-1.7-0.5-2.1s-0.9-0.7-1.7-0.7c-1,0-1.8,0.3-2.2,1c-0.5,0.7-0.7,1.8-0.7,3.3
			v6.2h-2.6v-12.4h2.1l0.4,1.6h0.1c0.3-0.6,0.8-1,1.5-1.4c0.7-0.3,1.4-0.5,2.2-0.5c1.9,0,3.2,0.7,3.8,2h0.2c0.4-0.6,0.9-1.1,1.5-1.4
			c0.7-0.3,1.4-0.5,2.3-0.5c1.5,0,2.6,0.4,3.2,1.1c0.7,0.7,1,1.9,1,3.4v8.1h-2.6v-7.7c0-1-0.2-1.7-0.5-2.1s-0.9-0.7-1.7-0.7
			c-1,0-1.8,0.3-2.3,1c-0.5,0.6-0.7,1.6-0.7,2.9V206z"/>
		<path fill="#444444" d="M172.8,206l-0.5-1.7h-0.1c-0.6,0.8-1.2,1.3-1.8,1.5c-0.6,0.3-1.4,0.4-2.3,0.4c-1.2,0-2.2-0.3-2.9-1
			c-0.7-0.7-1-1.6-1-2.8c0-1.3,0.5-2.2,1.4-2.9c1-0.7,2.4-1,4.3-1.1l2.1-0.1v-0.7c0-0.8-0.2-1.4-0.6-1.8c-0.4-0.4-0.9-0.6-1.7-0.6
			c-0.6,0-1.2,0.1-1.8,0.3c-0.6,0.2-1.1,0.4-1.7,0.7l-0.9-1.9c0.7-0.4,1.4-0.6,2.2-0.8c0.8-0.2,1.6-0.3,2.3-0.3c1.6,0,2.8,0.3,3.6,1
			c0.8,0.7,1.2,1.8,1.2,3.2v8.4H172.8z M168.9,204.2c1,0,1.7-0.3,2.3-0.8c0.6-0.5,0.9-1.3,0.9-2.3V200l-1.6,0.1
			c-1.2,0-2.1,0.3-2.7,0.6c-0.6,0.4-0.8,0.9-0.8,1.7c0,0.6,0.2,1,0.5,1.3C167.7,204,168.2,204.2,168.9,204.2z"/>
		<path fill="#444444" d="M188.9,193.5v1.4l-2.1,0.4c0.2,0.3,0.4,0.6,0.5,1c0.1,0.4,0.2,0.8,0.2,1.2c0,1.3-0.4,2.3-1.3,3
			c-0.9,0.7-2.1,1.1-3.7,1.1c-0.4,0-0.8,0-1.1-0.1c-0.6,0.4-0.9,0.8-0.9,1.2c0,0.3,0.1,0.5,0.4,0.6c0.3,0.1,0.8,0.2,1.5,0.2h2.2
			c1.4,0,2.4,0.3,3.1,0.9c0.7,0.6,1.1,1.4,1.1,2.5c0,1.4-0.6,2.5-1.7,3.3c-1.2,0.8-2.8,1.1-5,1.1c-1.7,0-3-0.3-3.9-0.9
			c-0.9-0.6-1.3-1.5-1.3-2.6c0-0.8,0.2-1.4,0.7-1.9c0.5-0.5,1.2-0.9,2-1.1c-0.4-0.1-0.6-0.4-0.9-0.7c-0.2-0.3-0.3-0.7-0.3-1
			c0-0.5,0.1-0.9,0.4-1.2c0.3-0.3,0.7-0.6,1.2-1c-0.6-0.3-1.2-0.7-1.6-1.4c-0.4-0.6-0.6-1.4-0.6-2.2c0-1.3,0.4-2.4,1.3-3.1
			c0.9-0.7,2.1-1.1,3.6-1.1c0.4,0,0.7,0,1.1,0.1c0.4,0,0.7,0.1,0.9,0.2H188.9z M179.1,207.9c0,0.6,0.3,1,0.8,1.3
			c0.5,0.3,1.2,0.5,2.2,0.5c1.4,0,2.5-0.2,3.2-0.6c0.7-0.4,1.1-1,1.1-1.6c0-0.5-0.2-0.9-0.6-1.2s-1.1-0.3-2.2-0.3h-2
			c-0.8,0-1.4,0.2-1.8,0.5C179.4,206.8,179.1,207.3,179.1,207.9z M180.3,197.6c0,0.8,0.2,1.4,0.6,1.8c0.4,0.4,1,0.6,1.7,0.6
			c1.5,0,2.3-0.8,2.3-2.4c0-0.8-0.2-1.4-0.6-1.9c-0.4-0.4-1-0.7-1.7-0.7c-0.8,0-1.3,0.2-1.7,0.7
			C180.5,196.1,180.3,196.7,180.3,197.6z"/>
		<path fill="#444444" d="M196.6,206.2c-1.9,0-3.4-0.6-4.5-1.7c-1.1-1.1-1.6-2.7-1.6-4.7c0-2,0.5-3.6,1.5-4.8c1-1.2,2.4-1.7,4.2-1.7
			c1.6,0,2.9,0.5,3.9,1.5c1,1,1.4,2.4,1.4,4.1v1.4h-8.3c0,1.2,0.4,2.1,1,2.8c0.6,0.6,1.5,1,2.6,1c0.7,0,1.4-0.1,2-0.2
			c0.6-0.1,1.3-0.4,2-0.7v2.1c-0.6,0.3-1.3,0.5-2,0.7C198.2,206.1,197.5,206.2,196.6,206.2z M196.1,195.3c-0.8,0-1.5,0.3-2,0.8
			c-0.5,0.5-0.8,1.3-0.9,2.3h5.6c0-1-0.3-1.8-0.7-2.3C197.6,195.6,197,195.3,196.1,195.3z"/>
		<path fill="#444444" d="M215.4,206h-2.7v-7.6c0-1-0.2-1.7-0.6-2.1s-1-0.7-1.8-0.7c-1.1,0-1.9,0.3-2.4,1c-0.5,0.7-0.8,1.8-0.8,3.3
			v6.2h-2.6v-12.4h2.1l0.4,1.6h0.1c0.4-0.6,0.9-1,1.6-1.4c0.7-0.3,1.5-0.5,2.3-0.5c3,0,4.5,1.5,4.5,4.5V206z"/>
		<path fill="#444444" d="M25.7,233.2c-1.9,0-3.3-0.5-4.3-1.6c-1-1.1-1.5-2.7-1.5-4.7c0-2.1,0.5-3.7,1.5-4.8c1-1.1,2.5-1.7,4.4-1.7
			c1.3,0,2.5,0.2,3.5,0.7l-0.8,2.1c-1.1-0.4-2-0.7-2.8-0.7c-2.1,0-3.2,1.4-3.2,4.3c0,1.4,0.3,2.4,0.8,3.1c0.5,0.7,1.3,1,2.4,1
			c1.2,0,2.3-0.3,3.3-0.9v2.3c-0.5,0.3-1,0.5-1.5,0.6C27.2,233.1,26.5,233.2,25.7,233.2z"/>
		<path fill="#444444" d="M43.1,226.7c0,2-0.5,3.6-1.6,4.8c-1,1.1-2.5,1.7-4.3,1.7c-1.2,0-2.2-0.3-3.1-0.8c-0.9-0.5-1.6-1.3-2.1-2.3
			c-0.5-1-0.7-2.1-0.7-3.4c0-2,0.5-3.6,1.5-4.7c1-1.1,2.5-1.7,4.4-1.7c1.8,0,3.2,0.6,4.3,1.7C42.6,223.2,43.1,224.8,43.1,226.7z
			 M34.1,226.7c0,2.9,1.1,4.3,3.2,4.3c2.1,0,3.1-1.4,3.1-4.3c0-2.8-1.1-4.3-3.2-4.3c-1.1,0-1.9,0.4-2.4,1.1
			C34.3,224.3,34.1,225.4,34.1,226.7z"/>
		<path fill="#444444" d="M57.2,226.7c0,2-0.5,3.6-1.6,4.8c-1,1.1-2.5,1.7-4.3,1.7c-1.2,0-2.2-0.3-3.1-0.8c-0.9-0.5-1.6-1.3-2.1-2.3
			c-0.5-1-0.7-2.1-0.7-3.4c0-2,0.5-3.6,1.5-4.7c1-1.1,2.5-1.7,4.4-1.7c1.8,0,3.2,0.6,4.3,1.7C56.7,223.2,57.2,224.8,57.2,226.7z
			 M48.1,226.7c0,2.9,1.1,4.3,3.2,4.3c2.1,0,3.1-1.4,3.1-4.3c0-2.8-1.1-4.3-3.2-4.3c-1.1,0-1.9,0.4-2.4,1.1
			C48.4,224.3,48.1,225.4,48.1,226.7z"/>
		<path fill="#444444" d="M66.5,233.2c-1.6,0-2.8-0.6-3.7-1.7h-0.2c0.1,1,0.2,1.7,0.2,1.9v5.1h-2.6v-17.9h2.1
			c0.1,0.2,0.2,0.8,0.4,1.7h0.1c0.8-1.3,2.1-1.9,3.7-1.9c1.5,0,2.8,0.6,3.6,1.7c0.9,1.1,1.3,2.7,1.3,4.7c0,2-0.4,3.6-1.3,4.8
			C69.3,232.6,68.1,233.2,66.5,233.2z M65.9,222.5c-1,0-1.8,0.3-2.3,0.9c-0.5,0.6-0.7,1.6-0.7,2.9v0.4c0,1.5,0.2,2.6,0.7,3.3
			c0.5,0.7,1.3,1,2.3,1c0.9,0,1.6-0.4,2.1-1.1c0.5-0.7,0.7-1.8,0.7-3.2c0-1.4-0.2-2.4-0.7-3.2C67.6,222.8,66.8,222.5,65.9,222.5z"/>
		<path fill="#444444" d="M80,233.2c-1.9,0-3.4-0.6-4.5-1.7c-1.1-1.1-1.6-2.7-1.6-4.7c0-2,0.5-3.6,1.5-4.8c1-1.2,2.4-1.7,4.2-1.7
			c1.6,0,2.9,0.5,3.9,1.5c1,1,1.4,2.4,1.4,4.1v1.4h-8.3c0,1.2,0.4,2.1,1,2.8c0.6,0.6,1.5,1,2.6,1c0.7,0,1.4-0.1,2-0.2
			c0.6-0.1,1.3-0.4,2-0.7v2.1c-0.6,0.3-1.3,0.5-2,0.7C81.6,233.1,80.8,233.2,80,233.2z M79.5,222.3c-0.8,0-1.5,0.3-2,0.8
			c-0.5,0.5-0.8,1.3-0.9,2.3h5.6c0-1-0.3-1.8-0.7-2.3C81,222.6,80.3,222.3,79.5,222.3z"/>
		<path fill="#444444" d="M94.1,220.3c0.5,0,1,0,1.3,0.1l-0.3,2.5c-0.4-0.1-0.8-0.1-1.2-0.1c-1.1,0-1.9,0.3-2.6,1
			c-0.7,0.7-1,1.6-1,2.7v6.5h-2.6v-12.4h2.1l0.3,2.2h0.1c0.4-0.7,0.9-1.3,1.6-1.8C92.6,220.5,93.3,220.3,94.1,220.3z"/>
		<path fill="#444444" d="M105.5,233l-0.5-1.7h-0.1c-0.6,0.8-1.2,1.3-1.8,1.5c-0.6,0.3-1.4,0.4-2.3,0.4c-1.2,0-2.2-0.3-2.9-1
			c-0.7-0.7-1-1.6-1-2.8c0-1.3,0.5-2.2,1.4-2.9s2.4-1,4.3-1.1l2.1-0.1v-0.7c0-0.8-0.2-1.4-0.6-1.8c-0.4-0.4-0.9-0.6-1.7-0.6
			c-0.6,0-1.2,0.1-1.8,0.3c-0.6,0.2-1.1,0.4-1.7,0.7l-0.9-1.9c0.7-0.4,1.4-0.6,2.2-0.8s1.6-0.3,2.3-0.3c1.6,0,2.8,0.3,3.6,1
			c0.8,0.7,1.2,1.8,1.2,3.2v8.4H105.5z M101.6,231.2c1,0,1.7-0.3,2.3-0.8c0.6-0.5,0.9-1.3,0.9-2.3V227l-1.6,0.1
			c-1.2,0-2.1,0.3-2.7,0.6c-0.6,0.4-0.8,0.9-0.8,1.7c0,0.6,0.2,1,0.5,1.3C100.4,231,100.9,231.2,101.6,231.2z"/>
		<path fill="#444444" d="M115.7,231c0.6,0,1.3-0.1,1.9-0.3v2c-0.3,0.1-0.7,0.2-1.1,0.3c-0.5,0.1-0.9,0.1-1.4,0.1
			c-2.5,0-3.8-1.3-3.8-4v-6.7h-1.7v-1.2l1.8-1l0.9-2.6h1.6v2.8h3.5v2H114v6.6c0,0.6,0.2,1.1,0.5,1.4
			C114.8,230.9,115.2,231,115.7,231z"/>
		<path fill="#444444" d="M119.9,217.2c0-0.5,0.1-0.8,0.4-1.1c0.3-0.3,0.6-0.4,1.1-0.4c0.5,0,0.8,0.1,1.1,0.4
			c0.3,0.3,0.4,0.6,0.4,1.1c0,0.4-0.1,0.8-0.4,1.1c-0.3,0.3-0.6,0.4-1.1,0.4c-0.5,0-0.8-0.1-1.1-0.4
			C120.1,218,119.9,217.7,119.9,217.2z M122.7,233h-2.6v-12.4h2.6V233z"/>
		<path fill="#444444" d="M129.3,233l-4.7-12.4h2.8l2.5,7.2c0.4,1.2,0.7,2.2,0.8,2.9h0.1c0.1-0.5,0.3-1.5,0.8-2.9l2.5-7.2h2.8
			l-4.7,12.4H129.3z"/>
		<path fill="#444444" d="M146.6,233l-0.5-1.7H146c-0.6,0.8-1.2,1.3-1.8,1.5c-0.6,0.3-1.4,0.4-2.3,0.4c-1.2,0-2.2-0.3-2.9-1
			c-0.7-0.7-1-1.6-1-2.8c0-1.3,0.5-2.2,1.4-2.9s2.4-1,4.3-1.1l2.1-0.1v-0.7c0-0.8-0.2-1.4-0.6-1.8c-0.4-0.4-0.9-0.6-1.7-0.6
			c-0.6,0-1.2,0.1-1.8,0.3c-0.6,0.2-1.1,0.4-1.7,0.7l-0.9-1.9c0.7-0.4,1.4-0.6,2.2-0.8c0.8-0.2,1.6-0.3,2.3-0.3c1.6,0,2.8,0.3,3.6,1
			c0.8,0.7,1.2,1.8,1.2,3.2v8.4H146.6z M142.7,231.2c1,0,1.7-0.3,2.3-0.8c0.6-0.5,0.9-1.3,0.9-2.3V227l-1.6,0.1
			c-1.2,0-2.1,0.3-2.7,0.6c-0.6,0.4-0.8,0.9-0.8,1.7c0,0.6,0.2,1,0.5,1.3C141.5,231,142,231.2,142.7,231.2z"/>
		<path fill="#444444" d="M156.3,220.5h2.9l2.5,7c0.4,1,0.6,1.9,0.8,2.8h0.1c0.1-0.4,0.2-0.9,0.4-1.5c0.2-0.6,1.1-3.4,2.9-8.4h2.9
			l-5.3,14.1c-1,2.6-2.6,3.9-4.8,3.9c-0.6,0-1.2-0.1-1.7-0.2v-2.1c0.4,0.1,0.8,0.1,1.4,0.1c1.3,0,2.2-0.7,2.7-2.2l0.5-1.2
			L156.3,220.5z"/>
		<path fill="#444444" d="M26.2,260.2c-1.9,0-3.4-0.6-4.5-1.7c-1.1-1.1-1.6-2.7-1.6-4.7c0-2,0.5-3.6,1.5-4.8c1-1.2,2.4-1.7,4.2-1.7
			c1.6,0,2.9,0.5,3.9,1.5c1,1,1.4,2.4,1.4,4.1v1.4h-8.3c0,1.2,0.4,2.1,1,2.8c0.6,0.6,1.5,1,2.6,1c0.7,0,1.4-0.1,2-0.2
			c0.6-0.1,1.3-0.4,2-0.7v2.1c-0.6,0.3-1.3,0.5-2,0.7C27.8,260.1,27,260.2,26.2,260.2z M25.7,249.3c-0.8,0-1.5,0.3-2,0.8
			c-0.5,0.5-0.8,1.3-0.9,2.3h5.6c0-1-0.3-1.8-0.7-2.3C27.2,249.6,26.5,249.3,25.7,249.3z"/>
		<path fill="#444444" d="M42.3,256.4c0,1.2-0.4,2.1-1.3,2.8c-0.9,0.6-2.1,1-3.8,1c-1.7,0-3-0.3-4-0.8v-2.3c1.5,0.7,2.8,1,4.1,1
			c1.6,0,2.4-0.5,2.4-1.5c0-0.3-0.1-0.6-0.3-0.8c-0.2-0.2-0.5-0.4-0.9-0.7s-1-0.5-1.7-0.8c-1.4-0.6-2.4-1.1-2.9-1.7
			c-0.5-0.6-0.8-1.3-0.8-2.2c0-1.1,0.4-1.9,1.3-2.5c0.9-0.6,2-0.9,3.5-0.9c1.5,0,2.8,0.3,4.1,0.9l-0.9,2c-1.3-0.6-2.5-0.8-3.4-0.8
			c-1.4,0-2.1,0.4-2.1,1.2c0,0.4,0.2,0.7,0.5,1c0.4,0.3,1.2,0.6,2.4,1.1c1,0.4,1.8,0.8,2.2,1.1c0.5,0.3,0.8,0.7,1,1.1
			C42.2,255.3,42.3,255.8,42.3,256.4z"/>
		<path fill="#444444" d="M49.8,258c0.6,0,1.3-0.1,1.9-0.3v2c-0.3,0.1-0.7,0.2-1.1,0.3c-0.5,0.1-0.9,0.1-1.4,0.1
			c-2.5,0-3.8-1.3-3.8-4v-6.7h-1.7v-1.2l1.8-1l0.9-2.6h1.6v2.8h3.5v2h-3.5v6.6c0,0.6,0.2,1.1,0.5,1.4C48.9,257.9,49.3,258,49.8,258z
			"/>
		<path fill="#444444" d="M60.5,247.3c0.5,0,1,0,1.3,0.1l-0.3,2.5c-0.4-0.1-0.8-0.1-1.2-0.1c-1.1,0-1.9,0.3-2.6,1
			c-0.7,0.7-1,1.6-1,2.7v6.5h-2.6v-12.4h2.1l0.3,2.2h0.1c0.4-0.7,0.9-1.3,1.6-1.8C59,247.5,59.8,247.3,60.5,247.3z"/>
		<path fill="#444444" d="M72.9,260l-0.4-1.6h-0.1c-0.4,0.6-0.9,1-1.6,1.4c-0.7,0.3-1.5,0.5-2.3,0.5c-1.5,0-2.6-0.4-3.4-1.1
			c-0.7-0.7-1.1-1.9-1.1-3.4v-8.1h2.7v7.7c0,1,0.2,1.7,0.6,2.1s1,0.7,1.8,0.7c1.1,0,1.9-0.3,2.4-1c0.5-0.7,0.8-1.8,0.8-3.3v-6.2H75
			V260H72.9z"/>
		<path fill="#444444" d="M83.7,260.2c-1.9,0-3.3-0.5-4.3-1.6c-1-1.1-1.5-2.7-1.5-4.7c0-2.1,0.5-3.7,1.5-4.8c1-1.1,2.5-1.7,4.4-1.7
			c1.3,0,2.5,0.2,3.5,0.7l-0.8,2.1c-1.1-0.4-2-0.7-2.8-0.7c-2.1,0-3.2,1.4-3.2,4.3c0,1.4,0.3,2.4,0.8,3.1c0.5,0.7,1.3,1,2.4,1
			c1.2,0,2.3-0.3,3.3-0.9v2.3c-0.5,0.3-1,0.5-1.5,0.6C85.2,260.1,84.5,260.2,83.7,260.2z"/>
		<path fill="#444444" d="M94.8,258c0.6,0,1.3-0.1,1.9-0.3v2c-0.3,0.1-0.7,0.2-1.1,0.3c-0.5,0.1-0.9,0.1-1.4,0.1
			c-2.5,0-3.8-1.3-3.8-4v-6.7h-1.7v-1.2l1.8-1l0.9-2.6H93v2.8h3.5v2H93v6.6c0,0.6,0.2,1.1,0.5,1.4C93.8,257.9,94.2,258,94.8,258z"/>
		<path fill="#444444" d="M107.9,260l-0.4-1.6h-0.1c-0.4,0.6-0.9,1-1.6,1.4c-0.7,0.3-1.5,0.5-2.3,0.5c-1.5,0-2.6-0.4-3.4-1.1
			c-0.7-0.7-1.1-1.9-1.1-3.4v-8.1h2.7v7.7c0,1,0.2,1.7,0.6,2.1s1,0.7,1.8,0.7c1.1,0,1.9-0.3,2.4-1c0.5-0.7,0.8-1.8,0.8-3.3v-6.2h2.7
			V260H107.9z"/>
		<path fill="#444444" d="M120.1,247.3c0.5,0,1,0,1.3,0.1l-0.3,2.5c-0.4-0.1-0.8-0.1-1.2-0.1c-1.1,0-1.9,0.3-2.6,1
			c-0.7,0.7-1,1.6-1,2.7v6.5h-2.6v-12.4h2.1l0.3,2.2h0.1c0.4-0.7,0.9-1.3,1.6-1.8C118.6,247.5,119.3,247.3,120.1,247.3z"/>
		<path fill="#444444" d="M131.5,260l-0.5-1.7h-0.1c-0.6,0.8-1.2,1.3-1.8,1.5c-0.6,0.3-1.4,0.4-2.3,0.4c-1.2,0-2.2-0.3-2.9-1
			c-0.7-0.7-1-1.6-1-2.8c0-1.3,0.5-2.2,1.4-2.9s2.4-1,4.3-1.1l2.1-0.1v-0.7c0-0.8-0.2-1.4-0.6-1.8c-0.4-0.4-0.9-0.6-1.7-0.6
			c-0.6,0-1.2,0.1-1.8,0.3c-0.6,0.2-1.1,0.4-1.7,0.7l-0.9-1.9c0.7-0.4,1.4-0.6,2.2-0.8s1.6-0.3,2.3-0.3c1.6,0,2.8,0.3,3.6,1
			c0.8,0.7,1.2,1.8,1.2,3.2v8.4H131.5z M127.5,258.2c1,0,1.7-0.3,2.3-0.8c0.6-0.5,0.9-1.3,0.9-2.3V254l-1.6,0.1
			c-1.2,0-2.1,0.3-2.7,0.6c-0.6,0.4-0.8,0.9-0.8,1.7c0,0.6,0.2,1,0.5,1.3C126.4,258,126.9,258.2,127.5,258.2z"/>
		<path fill="#444444" d="M149.3,260.2c-1.6,0-2.8-0.6-3.7-1.7h-0.2c0.1,1,0.2,1.7,0.2,1.9v5.1H143v-17.9h2.1
			c0.1,0.2,0.2,0.8,0.4,1.7h0.1c0.8-1.3,2.1-1.9,3.7-1.9c1.5,0,2.8,0.6,3.6,1.7c0.9,1.1,1.3,2.7,1.3,4.7c0,2-0.4,3.6-1.3,4.8
			C152.1,259.6,150.9,260.2,149.3,260.2z M148.7,249.5c-1,0-1.8,0.3-2.3,0.9c-0.5,0.6-0.7,1.6-0.7,2.9v0.4c0,1.5,0.2,2.6,0.7,3.3
			c0.5,0.7,1.3,1,2.3,1c0.9,0,1.6-0.4,2.1-1.1c0.5-0.7,0.7-1.8,0.7-3.2c0-1.4-0.2-2.4-0.7-3.2C150.3,249.8,149.6,249.5,148.7,249.5z
			"/>
		<path fill="#444444" d="M166.1,260l-0.4-1.6h-0.1c-0.4,0.6-0.9,1-1.6,1.4c-0.7,0.3-1.5,0.5-2.3,0.5c-1.5,0-2.6-0.4-3.4-1.1
			c-0.7-0.7-1.1-1.9-1.1-3.4v-8.1h2.7v7.7c0,1,0.2,1.7,0.6,2.1c0.4,0.5,1,0.7,1.8,0.7c1.1,0,1.9-0.3,2.4-1c0.5-0.7,0.8-1.8,0.8-3.3
			v-6.2h2.7V260H166.1z"/>
		<path fill="#444444" d="M178.3,247.3c1.5,0,2.8,0.6,3.6,1.7c0.9,1.1,1.3,2.7,1.3,4.7c0,2-0.4,3.6-1.3,4.8
			c-0.9,1.1-2.1,1.7-3.6,1.7c-1.6,0-2.8-0.6-3.7-1.7h-0.2l-0.5,1.5h-2v-17.5h2.6v4.2c0,0.3,0,0.8,0,1.4c0,0.6-0.1,1-0.1,1.2h0.1
			C175.4,247.9,176.6,247.3,178.3,247.3z M177.6,249.5c-1.1,0-1.8,0.3-2.3,0.9c-0.5,0.6-0.7,1.7-0.7,3.1v0.2c0,1.5,0.2,2.6,0.7,3.3
			c0.5,0.7,1.3,1,2.3,1c0.9,0,1.6-0.4,2.1-1.1c0.5-0.7,0.7-1.8,0.7-3.2C180.5,250.9,179.5,249.5,177.6,249.5z"/>
		<path fill="#444444" d="M188.9,260h-2.6v-17.5h2.6V260z"/>
		<path fill="#444444" d="M192.5,244.2c0-0.5,0.1-0.8,0.4-1.1c0.3-0.3,0.6-0.4,1.1-0.4c0.5,0,0.8,0.1,1.1,0.4
			c0.3,0.3,0.4,0.6,0.4,1.1c0,0.4-0.1,0.8-0.4,1.1c-0.3,0.3-0.6,0.4-1.1,0.4c-0.5,0-0.8-0.1-1.1-0.4
			C192.6,245,192.5,244.7,192.5,244.2z M195.3,260h-2.6v-12.4h2.6V260z"/>
		<path fill="#444444" d="M204.1,260.2c-1.9,0-3.3-0.5-4.3-1.6c-1-1.1-1.5-2.7-1.5-4.7c0-2.1,0.5-3.7,1.5-4.8c1-1.1,2.5-1.7,4.4-1.7
			c1.3,0,2.5,0.2,3.5,0.7l-0.8,2.1c-1.1-0.4-2-0.7-2.8-0.7c-2.1,0-3.2,1.4-3.2,4.3c0,1.4,0.3,2.4,0.8,3.1c0.5,0.7,1.3,1,2.4,1
			c1.2,0,2.3-0.3,3.3-0.9v2.3c-0.5,0.3-1,0.5-1.5,0.6C205.5,260.1,204.9,260.2,204.1,260.2z"/>
		<path fill="#444444" d="M210.3,244.2c0-0.5,0.1-0.8,0.4-1.1c0.3-0.3,0.6-0.4,1.1-0.4c0.5,0,0.8,0.1,1.1,0.4
			c0.3,0.3,0.4,0.6,0.4,1.1c0,0.4-0.1,0.8-0.4,1.1c-0.3,0.3-0.6,0.4-1.1,0.4c-0.5,0-0.8-0.1-1.1-0.4
			C210.4,245,210.3,244.7,210.3,244.2z M213.1,260h-2.6v-12.4h2.6V260z"/>
		<path fill="#444444" d="M221.5,258c0.6,0,1.3-0.1,1.9-0.3v2c-0.3,0.1-0.7,0.2-1.1,0.3c-0.5,0.1-0.9,0.1-1.4,0.1
			c-2.5,0-3.8-1.3-3.8-4v-6.7h-1.7v-1.2l1.8-1l0.9-2.6h1.6v2.8h3.5v2h-3.5v6.6c0,0.6,0.2,1.1,0.5,1.4C220.6,257.9,221,258,221.5,258
			z"/>
		<path fill="#444444" d="M233.7,260l-0.5-1.7h-0.1c-0.6,0.8-1.2,1.3-1.8,1.5c-0.6,0.3-1.4,0.4-2.3,0.4c-1.2,0-2.2-0.3-2.9-1
			c-0.7-0.7-1-1.6-1-2.8c0-1.3,0.5-2.2,1.4-2.9c1-0.7,2.4-1,4.3-1.1l2.1-0.1v-0.7c0-0.8-0.2-1.4-0.6-1.8c-0.4-0.4-0.9-0.6-1.7-0.6
			c-0.6,0-1.2,0.1-1.8,0.3c-0.6,0.2-1.1,0.4-1.7,0.7l-0.9-1.9c0.7-0.4,1.4-0.6,2.2-0.8c0.8-0.2,1.6-0.3,2.3-0.3c1.6,0,2.8,0.3,3.6,1
			c0.8,0.7,1.2,1.8,1.2,3.2v8.4H233.7z M229.8,258.2c1,0,1.7-0.3,2.3-0.8c0.6-0.5,0.9-1.3,0.9-2.3V254l-1.6,0.1
			c-1.2,0-2.1,0.3-2.7,0.6c-0.6,0.4-0.8,0.9-0.8,1.7c0,0.6,0.2,1,0.5,1.3C228.6,258,229.1,258.2,229.8,258.2z"/>
		<path fill="#444444" d="M245.6,247.3c0.5,0,1,0,1.3,0.1l-0.3,2.5c-0.4-0.1-0.8-0.1-1.2-0.1c-1.1,0-1.9,0.3-2.6,1
			c-0.7,0.7-1,1.6-1,2.7v6.5h-2.6v-12.4h2.1l0.3,2.2h0.1c0.4-0.7,0.9-1.3,1.6-1.8C244.1,247.5,244.8,247.3,245.6,247.3z"/>
		<path fill="#444444" d="M249,244.2c0-0.5,0.1-0.8,0.4-1.1c0.3-0.3,0.6-0.4,1.1-0.4c0.5,0,0.8,0.1,1.1,0.4c0.3,0.3,0.4,0.6,0.4,1.1
			c0,0.4-0.1,0.8-0.4,1.1c-0.3,0.3-0.6,0.4-1.1,0.4c-0.5,0-0.8-0.1-1.1-0.4C249.2,245,249,244.7,249,244.2z M251.8,260h-2.6v-12.4
			h2.6V260z"/>
		<path fill="#444444" d="M263.4,260l-0.5-1.7h-0.1c-0.6,0.8-1.2,1.3-1.8,1.5c-0.6,0.3-1.4,0.4-2.3,0.4c-1.2,0-2.2-0.3-2.9-1
			c-0.7-0.7-1-1.6-1-2.8c0-1.3,0.5-2.2,1.4-2.9c1-0.7,2.4-1,4.3-1.1l2.1-0.1v-0.7c0-0.8-0.2-1.4-0.6-1.8c-0.4-0.4-0.9-0.6-1.7-0.6
			c-0.6,0-1.2,0.1-1.8,0.3c-0.6,0.2-1.1,0.4-1.7,0.7l-0.9-1.9c0.7-0.4,1.4-0.6,2.2-0.8c0.8-0.2,1.6-0.3,2.3-0.3c1.6,0,2.8,0.3,3.6,1
			c0.8,0.7,1.2,1.8,1.2,3.2v8.4H263.4z M259.4,258.2c1,0,1.7-0.3,2.3-0.8c0.6-0.5,0.9-1.3,0.9-2.3V254l-1.6,0.1
			c-1.2,0-2.1,0.3-2.7,0.6c-0.6,0.4-0.8,0.9-0.8,1.7c0,0.6,0.2,1,0.5,1.3C258.3,258,258.8,258.2,259.4,258.2z"/>
		<path fill="#444444" d="M268.5,258.6c0-0.5,0.1-1,0.4-1.3c0.3-0.3,0.7-0.4,1.2-0.4c0.5,0,1,0.2,1.2,0.5c0.3,0.3,0.4,0.7,0.4,1.2
			c0,0.5-0.1,1-0.4,1.3c-0.3,0.3-0.7,0.5-1.2,0.5s-1-0.2-1.2-0.5C268.7,259.5,268.5,259.1,268.5,258.6z"/>
	</g>
</g>
<path fill="#429DFF" d="M123.5,63.7L55,18.6c-4.4-2.9-10.4-2.9-14.8-0.1L20,31.4c-0.9,0.6-1.4,1.5-1.4,2.5c0,1,0.5,2,1.3,2.6
	l0.8,0.5v65.9c0,2.6,2.1,4.7,4.7,4.7c0.9,0,1.8-0.3,2.6-0.8l26.5-18c0.7-0.5,1.1-1.3,1.1-2.1V60.7L77,75.2l-52.5,35.2
	c-1.9,1.2-3,3.3-3,5.6c0,2.2,1,4.4,2.8,5.7l14.4,10.5c2.1,1.6,4.7,2.4,7.4,2.4h0c2.5,0,4.8-0.7,6.9-2.1l55.1-36.2
	c0.9,0.4,2.1,0.4,3-0.2l12.5-8.2c4.1-2.7,6.5-7.2,6.5-12.1C130,70.9,127.6,66.4,123.5,63.7z M102.6,92.5l-53,34.8
	c-2.2,1.4-5.2,1.4-7.3-0.2l-14.4-10.5c-0.2-0.1-0.3-0.3-0.3-0.6c0-0.2,0.1-0.4,0.3-0.6l54.6-36.6L102.6,92.5z M50.4,57.2v28
	l-24.6,16.7V40.6L50.4,57.2z M123.9,75.7c0,2.8-1.4,5.4-3.7,6.9l-10.7,7.1L27.2,34l16.3-10.4c2.4-1.5,5.8-1.5,8.1,0.1l68.5,45.1
	C122.5,70.4,123.9,72.9,123.9,75.7z"/>
</svg>
