<?xml version="1.0" encoding="utf-8"?>
<!-- Generator: Adobe Illustrator 18.1.1, SVG Export Plug-In . SVG Version: 6.00 Build 0)  -->
<svg version="1.1" id="Capa_1" xmlns="http://www.w3.org/2000/svg" xmlns:xlink="http://www.w3.org/1999/xlink" x="0px" y="0px"
	 viewBox="0 0 280.5 381.8" enable-background="new 0 0 280.5 381.8" xml:space="preserve">
<path fill="#FAFAFA" d="M267.8,381.8H12.7c-7,0-12.7-5.7-12.7-12.7V12.7C0,5.7,5.7,0,12.7,0h255.1c7,0,12.7,5.7,12.7,12.7v356.4
	C280.5,376.1,274.8,381.8,267.8,381.8z"/>
<g>
	<path fill="#429DFF" d="M32.4,155.2c-0.7-1.2-2.7-2.3-5-2.3c-2.9,0-4.4,1.2-4.4,2.8c0,1.8,2.2,2.3,4.7,2.6c4.4,0.5,8.5,1.7,8.5,6.7
		c0,4.7-4.1,6.7-8.8,6.7c-4.3,0-7.6-1.3-9.1-5.2l3.3-1.7c0.9,2.3,3.4,3.3,5.9,3.3c2.5,0,4.8-0.9,4.8-3.1c0-2-2.1-2.8-4.9-3.1
		c-4.3-0.5-8.2-1.7-8.2-6.4c0-4.3,4.3-6.1,8.1-6.1c3.3,0,6.7,0.9,8.2,4.2L32.4,155.2z"/>
	<path fill="#429DFF" d="M41.9,165.1c0.2,1.8,1.8,3.2,4.4,3.2c1.4,0,3.1-0.5,4-1.4l2.3,2.3c-1.6,1.6-4.1,2.4-6.4,2.4
		c-5.1,0-8.1-3.2-8.1-7.9c0-4.5,3.1-7.7,7.9-7.7c4.9,0,8,3.1,7.5,9.1H41.9z M49.9,162c-0.2-1.9-1.7-2.9-3.8-2.9c-2,0-3.6,1-4.1,2.9
		H49.9z"/>
	<path fill="#429DFF" d="M58.4,156.4l0.3,1.7c1.1-1.8,2.7-2.1,4.2-2.1c1.5,0,3,0.6,3.8,1.4l-1.6,3.2c-0.8-0.6-1.4-1-2.6-1
		c-1.9,0-3.7,1-3.7,3.7v7.8H55v-14.8H58.4z"/>
	<path fill="#429DFF" d="M83.1,156.3l-6.3,14.9h-4l-6.3-14.9h4l2,4.9l2.3,6.2l2.2-6.2l2-5H83.1z"/>
	<path fill="#429DFF" d="M87.7,152.2c0,2.8-4.3,2.8-4.3,0S87.7,149.3,87.7,152.2z M83.7,156.3v14.8h3.7v-14.8H83.7z"/>
	<path fill="#429DFF" d="M104.8,150.2v21h-3.4l-0.2-2c-1.1,1.8-3,2.4-4.8,2.4c-4.4,0-7.6-2.9-7.6-7.7c0-5.1,3.2-7.7,7.5-7.7
		c1.6,0,4,0.8,4.9,2.4v-8.2H104.8z M92.4,163.7c0,2.6,1.9,4.3,4.2,4.3c2.3,0,4.3-1.7,4.3-4.3c0-2.6-2-4.3-4.3-4.3
		C94.3,159.4,92.4,161.1,92.4,163.7z"/>
	<path fill="#429DFF" d="M121.5,163.8c0,4.3-2.9,7.7-7.7,7.7s-7.7-3.5-7.7-7.7c0-4.2,2.9-7.7,7.6-7.7S121.5,159.5,121.5,163.8z
		 M109.7,163.8c0,2.2,1.3,4.4,4,4.4s4-2.1,4-4.4c0-2.2-1.6-4.4-4-4.4C111.1,159.4,109.7,161.5,109.7,163.8z"/>
	<path fill="#429DFF" d="M126.2,156.4l0.3,1.7c1.1-1.8,2.7-2.1,4.2-2.1c1.5,0,3,0.6,3.8,1.4l-1.6,3.2c-0.8-0.6-1.4-1-2.6-1
		c-1.9,0-3.7,1-3.7,3.7v7.8h-3.7v-14.8H126.2z"/>
	<path fill="#429DFF" d="M137.7,165.1c0.2,1.8,1.8,3.2,4.4,3.2c1.4,0,3.1-0.5,4-1.4l2.3,2.3c-1.6,1.6-4.1,2.4-6.4,2.4
		c-5.1,0-8.1-3.2-8.1-7.9c0-4.5,3.1-7.7,7.9-7.7c4.9,0,8,3.1,7.5,9.1H137.7z M145.8,162c-0.2-1.9-1.7-2.9-3.8-2.9
		c-2,0-3.6,1-4.1,2.9H145.8z"/>
	<path fill="#429DFF" d="M160.6,160.3c-1-1-2.2-1.3-3.7-1.3c-1.7,0-2.7,0.5-2.7,1.5c0,1,0.9,1.5,2.8,1.6c2.8,0.2,6.3,0.8,6.3,4.7
		c0,2.6-2.1,4.9-6.4,4.9c-2.3,0-4.7-0.4-6.8-2.6l1.8-2.6c1,1.2,3.4,2,5.1,2.1c1.4,0,2.7-0.7,2.7-1.8c0-1-0.8-1.4-2.9-1.6
		c-2.8-0.2-6.1-1.2-6.1-4.6c0-3.4,3.5-4.6,6.2-4.6c2.3,0,4,0.5,5.8,2L160.6,160.3z"/>
</g>
<g>
	<g>
		<path fill="#444444" d="M32.3,207.5l-1.8-5h-6.8l-1.7,5h-3.1l6.7-17.9h3.2l6.7,17.9H32.3z M29.7,200l-1.7-4.9
			c-0.1-0.3-0.3-0.8-0.5-1.5c-0.2-0.7-0.4-1.2-0.4-1.5c-0.2,1-0.5,2.1-1,3.3l-1.6,4.7H29.7z"/>
		<path fill="#444444" d="M40.3,207.5h-2.9v-19h2.9V207.5z"/>
		<path fill="#444444" d="M56.4,200.7c0,2.2-0.6,3.9-1.7,5.2c-1.1,1.2-2.7,1.9-4.7,1.9c-1.3,0-2.4-0.3-3.3-0.9
			c-1-0.6-1.7-1.4-2.2-2.5c-0.5-1.1-0.8-2.3-0.8-3.7c0-2.2,0.6-3.9,1.7-5.1c1.1-1.2,2.7-1.8,4.7-1.8c2,0,3.5,0.6,4.6,1.9
			C55.8,196.9,56.4,198.6,56.4,200.7z M46.5,200.7c0,3.1,1.2,4.7,3.5,4.7c2.3,0,3.4-1.6,3.4-4.7c0-3.1-1.1-4.6-3.4-4.6
			c-1.2,0-2.1,0.4-2.6,1.2C46.8,198.1,46.5,199.2,46.5,200.7z"/>
		<path fill="#444444" d="M58.3,213.5c-0.9,0-1.6-0.1-2.1-0.3v-2.3c0.6,0.1,1.1,0.2,1.7,0.2c1.2,0,1.8-0.7,1.8-2.1V194h2.9v15.3
			c0,1.4-0.4,2.4-1.1,3.2C60.7,213.1,59.7,213.5,58.3,213.5z M59.5,190.4c0-0.5,0.1-0.9,0.4-1.2c0.3-0.3,0.7-0.4,1.2-0.4
			c0.5,0,0.9,0.1,1.2,0.4c0.3,0.3,0.4,0.7,0.4,1.2c0,0.5-0.1,0.9-0.4,1.2c-0.3,0.3-0.7,0.4-1.2,0.4c-0.5,0-0.9-0.1-1.2-0.4
			C59.6,191.3,59.5,190.9,59.5,190.4z"/>
		<path fill="#444444" d="M75.1,207.5l-0.6-1.9h-0.1c-0.7,0.8-1.3,1.4-2,1.7c-0.7,0.3-1.5,0.4-2.5,0.4c-1.3,0-2.4-0.4-3.1-1.1
			c-0.7-0.7-1.1-1.7-1.1-3c0-1.4,0.5-2.4,1.6-3.1c1-0.7,2.6-1.1,4.7-1.2l2.3-0.1v-0.7c0-0.9-0.2-1.5-0.6-1.9c-0.4-0.4-1-0.6-1.9-0.6
			c-0.7,0-1.4,0.1-2,0.3c-0.6,0.2-1.2,0.4-1.8,0.7l-0.9-2.1c0.7-0.4,1.5-0.7,2.4-0.9c0.9-0.2,1.7-0.3,2.5-0.3c1.7,0,3,0.4,3.9,1.1
			c0.9,0.7,1.3,1.9,1.3,3.5v9.1H75.1z M70.8,205.5c1,0,1.9-0.3,2.5-0.9c0.6-0.6,0.9-1.4,0.9-2.4V201l-1.7,0.1
			c-1.4,0-2.3,0.3-2.9,0.7c-0.6,0.4-0.9,1-0.9,1.8c0,0.6,0.2,1.1,0.5,1.4C69.6,205.4,70.1,205.5,70.8,205.5z"/>
		<path fill="#444444" d="M92.5,207.5h-2.9v-8.3c0-1-0.2-1.8-0.6-2.3s-1-0.8-1.8-0.8c-1.1,0-1.9,0.4-2.4,1.1
			c-0.5,0.7-0.8,1.9-0.8,3.6v6.7h-2.9V194h2.2l0.4,1.8h0.1c0.4-0.6,0.9-1.1,1.6-1.5c0.7-0.3,1.5-0.5,2.4-0.5c2.1,0,3.5,0.7,4.1,2.1
			h0.2c0.4-0.7,1-1.2,1.7-1.6c0.7-0.4,1.6-0.6,2.5-0.6c1.6,0,2.8,0.4,3.5,1.2c0.7,0.8,1.1,2.1,1.1,3.7v8.8h-2.9v-8.3
			c0-1-0.2-1.8-0.6-2.3c-0.4-0.5-1-0.8-1.8-0.8c-1.1,0-1.9,0.3-2.4,1c-0.5,0.7-0.8,1.8-0.8,3.2V207.5z"/>
		<path fill="#444444" d="M104.9,190.4c0-0.5,0.1-0.9,0.4-1.2c0.3-0.3,0.7-0.4,1.2-0.4c0.5,0,0.9,0.1,1.2,0.4
			c0.3,0.3,0.4,0.7,0.4,1.2c0,0.5-0.1,0.9-0.4,1.2c-0.3,0.3-0.7,0.4-1.2,0.4c-0.5,0-0.9-0.1-1.2-0.4
			C105,191.3,104.9,190.9,104.9,190.4z M107.9,207.5H105V194h2.9V207.5z"/>
		<path fill="#444444" d="M117.9,207.7c-2.1,0-3.7-0.6-4.9-1.8c-1.2-1.2-1.8-2.9-1.8-5.1c0-2.2,0.5-3.9,1.6-5.2
			c1.1-1.3,2.6-1.9,4.5-1.9c1.8,0,3.2,0.5,4.2,1.6c1,1.1,1.6,2.6,1.6,4.5v1.6h-9c0,1.3,0.4,2.3,1.1,3c0.7,0.7,1.6,1.1,2.8,1.1
			c0.8,0,1.5-0.1,2.2-0.2c0.7-0.2,1.4-0.4,2.2-0.8v2.3c-0.7,0.3-1.4,0.6-2.1,0.7C119.6,207.7,118.8,207.7,117.9,207.7z M117.4,195.9
			c-0.9,0-1.6,0.3-2.2,0.9c-0.5,0.6-0.9,1.4-1,2.5h6.1c0-1.1-0.3-2-0.8-2.5C119,196.2,118.3,195.9,117.4,195.9z"/>
		<path fill="#444444" d="M138.3,207.5h-2.9v-8.3c0-1-0.2-1.8-0.6-2.3c-0.4-0.5-1.1-0.8-2-0.8c-1.2,0-2.1,0.4-2.7,1.1
			s-0.8,1.9-0.8,3.6v6.7h-2.9V194h2.2l0.4,1.8h0.1c0.4-0.6,1-1.1,1.7-1.5c0.7-0.3,1.6-0.5,2.5-0.5c3.2,0,4.9,1.6,4.9,4.9V207.5z"/>
		<path fill="#444444" d="M147.3,205.4c0.7,0,1.4-0.1,2.1-0.3v2.2c-0.3,0.1-0.7,0.3-1.2,0.3c-0.5,0.1-1,0.1-1.6,0.1
			c-2.7,0-4.1-1.4-4.1-4.3v-7.3h-1.8v-1.3l2-1l1-2.9h1.8v3h3.8v2.2h-3.8v7.2c0,0.7,0.2,1.2,0.5,1.5
			C146.3,205.2,146.8,205.4,147.3,205.4z"/>
		<path fill="#444444" d="M164.1,200.7c0,2.2-0.6,3.9-1.7,5.2c-1.1,1.2-2.7,1.9-4.7,1.9c-1.3,0-2.4-0.3-3.3-0.9
			c-1-0.6-1.7-1.4-2.2-2.5c-0.5-1.1-0.8-2.3-0.8-3.7c0-2.2,0.6-3.9,1.7-5.1c1.1-1.2,2.7-1.8,4.7-1.8c2,0,3.5,0.6,4.6,1.9
			C163.5,196.9,164.1,198.6,164.1,200.7z M154.3,200.7c0,3.1,1.2,4.7,3.5,4.7c2.3,0,3.4-1.6,3.4-4.7c0-3.1-1.1-4.6-3.4-4.6
			c-1.2,0-2.1,0.4-2.6,1.2S154.3,199.2,154.3,200.7z"/>
		<path fill="#444444" d="M26.8,234.7c-2.1,0-3.7-0.6-4.9-1.8c-1.2-1.2-1.8-2.9-1.8-5.1c0-2.2,0.5-3.9,1.6-5.2
			c1.1-1.3,2.6-1.9,4.5-1.9c1.8,0,3.2,0.5,4.2,1.6c1,1.1,1.6,2.6,1.6,4.5v1.6h-9c0,1.3,0.4,2.3,1.1,3c0.7,0.7,1.6,1.1,2.8,1.1
			c0.8,0,1.5-0.1,2.2-0.2c0.7-0.2,1.4-0.4,2.2-0.8v2.3c-0.7,0.3-1.4,0.6-2.1,0.7C28.5,234.7,27.7,234.7,26.8,234.7z M26.3,222.9
			c-0.9,0-1.6,0.3-2.2,0.9c-0.5,0.6-0.9,1.4-1,2.5h6.1c0-1.1-0.3-2-0.8-2.5C27.9,223.2,27.2,222.9,26.3,222.9z"/>
		<path fill="#444444" d="M44.4,230.6c0,1.3-0.5,2.3-1.4,3c-1,0.7-2.3,1.1-4.1,1.1c-1.8,0-3.2-0.3-4.3-0.8v-2.5
			c1.6,0.7,3.1,1.1,4.4,1.1c1.8,0,2.6-0.5,2.6-1.6c0-0.3-0.1-0.6-0.3-0.9c-0.2-0.2-0.5-0.5-1-0.7c-0.4-0.2-1.1-0.5-1.9-0.8
			c-1.6-0.6-2.6-1.2-3.2-1.8c-0.5-0.6-0.8-1.4-0.8-2.3c0-1.2,0.5-2.1,1.4-2.7c0.9-0.6,2.2-1,3.8-1c1.6,0,3.1,0.3,4.5,1l-0.9,2.2
			c-1.5-0.6-2.7-0.9-3.7-0.9c-1.5,0-2.3,0.4-2.3,1.3c0,0.4,0.2,0.8,0.6,1.1c0.4,0.3,1.3,0.7,2.6,1.2c1.1,0.4,1.9,0.8,2.4,1.2
			c0.5,0.4,0.9,0.8,1.1,1.2C44.2,229.4,44.4,230,44.4,230.6z"/>
		<path fill="#444444" d="M54.3,234.7c-1.7,0-3-0.6-4-1.8h-0.2c0.1,1.1,0.2,1.8,0.2,2.1v5.5h-2.9V221h2.3c0.1,0.3,0.2,0.9,0.4,1.8
			h0.1c0.9-1.4,2.2-2.1,4-2.1c1.7,0,3,0.6,3.9,1.8c0.9,1.2,1.4,2.9,1.4,5.1c0,2.2-0.5,3.9-1.4,5.2C57.3,234.1,56,234.7,54.3,234.7z
			 M53.6,223.1c-1.1,0-2,0.3-2.5,1c-0.5,0.7-0.8,1.7-0.8,3.2v0.4c0,1.6,0.3,2.8,0.8,3.6c0.5,0.7,1.4,1.1,2.6,1.1
			c1,0,1.8-0.4,2.3-1.2s0.8-2,0.8-3.5c0-1.5-0.3-2.7-0.8-3.4C55.4,223.5,54.7,223.1,53.6,223.1z"/>
		<path fill="#444444" d="M68.9,234.7c-2.1,0-3.7-0.6-4.9-1.8c-1.2-1.2-1.8-2.9-1.8-5.1c0-2.2,0.5-3.9,1.6-5.2
			c1.1-1.3,2.6-1.9,4.5-1.9c1.8,0,3.2,0.5,4.2,1.6c1,1.1,1.6,2.6,1.6,4.5v1.6h-9c0,1.3,0.4,2.3,1.1,3c0.7,0.7,1.6,1.1,2.8,1.1
			c0.8,0,1.5-0.1,2.2-0.2c0.7-0.2,1.4-0.4,2.2-0.8v2.3c-0.7,0.3-1.4,0.6-2.1,0.7C70.7,234.7,69.9,234.7,68.9,234.7z M68.4,222.9
			c-0.9,0-1.6,0.3-2.2,0.9c-0.5,0.6-0.9,1.4-1,2.5h6.1c0-1.1-0.3-2-0.8-2.5C70,223.2,69.3,222.9,68.4,222.9z"/>
		<path fill="#444444" d="M82.9,234.7c-2,0-3.6-0.6-4.7-1.8c-1.1-1.2-1.6-2.9-1.6-5.1c0-2.3,0.6-4,1.7-5.2c1.1-1.2,2.7-1.8,4.8-1.8
			c1.4,0,2.7,0.3,3.8,0.8l-0.9,2.3c-1.2-0.5-2.2-0.7-3-0.7c-2.3,0-3.5,1.5-3.5,4.7c0,1.5,0.3,2.7,0.9,3.4c0.6,0.8,1.4,1.1,2.6,1.1
			c1.3,0,2.5-0.3,3.6-1v2.5c-0.5,0.3-1.1,0.5-1.6,0.6C84.4,234.7,83.7,234.7,82.9,234.7z"/>
		<path fill="#444444" d="M89.7,217.4c0-0.5,0.1-0.9,0.4-1.2c0.3-0.3,0.7-0.4,1.2-0.4c0.5,0,0.9,0.1,1.2,0.4
			c0.3,0.3,0.4,0.7,0.4,1.2c0,0.5-0.1,0.9-0.4,1.2c-0.3,0.3-0.7,0.4-1.2,0.4c-0.5,0-0.9-0.1-1.2-0.4
			C89.8,218.3,89.7,217.9,89.7,217.4z M92.7,234.5h-2.9V221h2.9V234.5z"/>
		<path fill="#444444" d="M105.2,234.5l-0.6-1.9h-0.1c-0.7,0.8-1.3,1.4-2,1.7c-0.7,0.3-1.5,0.4-2.5,0.4c-1.3,0-2.4-0.4-3.1-1.1
			c-0.7-0.7-1.1-1.7-1.1-3c0-1.4,0.5-2.4,1.6-3.1c1-0.7,2.6-1.1,4.7-1.2l2.3-0.1v-0.7c0-0.9-0.2-1.5-0.6-1.9c-0.4-0.4-1-0.6-1.9-0.6
			c-0.7,0-1.4,0.1-2,0.3c-0.6,0.2-1.2,0.4-1.8,0.7l-0.9-2.1c0.7-0.4,1.5-0.7,2.4-0.9c0.9-0.2,1.7-0.3,2.5-0.3c1.7,0,3,0.4,3.9,1.1
			c0.9,0.7,1.3,1.9,1.3,3.5v9.1H105.2z M101,232.5c1,0,1.9-0.3,2.5-0.9c0.6-0.6,0.9-1.4,0.9-2.4V228l-1.7,0.1
			c-1.4,0-2.3,0.3-2.9,0.7c-0.6,0.4-0.9,1-0.9,1.8c0,0.6,0.2,1.1,0.5,1.4C99.7,232.4,100.3,232.5,101,232.5z"/>
		<path fill="#444444" d="M114.2,234.5h-2.9v-19h2.9V234.5z"/>
		<path fill="#444444" d="M118.1,217.4c0-0.5,0.1-0.9,0.4-1.2c0.3-0.3,0.7-0.4,1.2-0.4c0.5,0,0.9,0.1,1.2,0.4
			c0.3,0.3,0.4,0.7,0.4,1.2c0,0.5-0.1,0.9-0.4,1.2c-0.3,0.3-0.7,0.4-1.2,0.4c-0.5,0-0.9-0.1-1.2-0.4
			C118.2,218.3,118.1,217.9,118.1,217.4z M121.1,234.5h-2.9V221h2.9V234.5z"/>
		<path fill="#444444" d="M134.3,234.5H124v-1.8l6.8-9.5h-6.4V221h9.6v2l-6.7,9.3h6.9V234.5z"/>
		<path fill="#444444" d="M145.6,234.5l-0.6-1.9H145c-0.7,0.8-1.3,1.4-2,1.7c-0.7,0.3-1.5,0.4-2.5,0.4c-1.3,0-2.4-0.4-3.1-1.1
			c-0.7-0.7-1.1-1.7-1.1-3c0-1.4,0.5-2.4,1.6-3.1c1-0.7,2.6-1.1,4.7-1.2l2.3-0.1v-0.7c0-0.9-0.2-1.5-0.6-1.9c-0.4-0.4-1-0.6-1.9-0.6
			c-0.7,0-1.4,0.1-2,0.3c-0.6,0.2-1.2,0.4-1.8,0.7l-0.9-2.1c0.7-0.4,1.5-0.7,2.4-0.9c0.9-0.2,1.7-0.3,2.5-0.3c1.7,0,3,0.4,3.9,1.1
			s1.3,1.9,1.3,3.5v9.1H145.6z M141.4,232.5c1,0,1.9-0.3,2.5-0.9c0.6-0.6,0.9-1.4,0.9-2.4V228l-1.7,0.1c-1.4,0-2.3,0.3-2.9,0.7
			c-0.6,0.4-0.9,1-0.9,1.8c0,0.6,0.2,1.1,0.5,1.4C140.1,232.4,140.7,232.5,141.4,232.5z"/>
		<path fill="#444444" d="M156.2,234.7c-1.7,0-3-0.6-3.9-1.8c-0.9-1.2-1.4-2.9-1.4-5.1c0-2.2,0.5-3.9,1.4-5.2c1-1.2,2.3-1.8,4-1.8
			c1.8,0,3.1,0.7,4.1,2h0.1c-0.1-1-0.2-1.7-0.2-2.3v-4.9h2.9v19h-2.2l-0.5-1.8h-0.1C159.4,234.1,158,234.7,156.2,234.7z M157,232.4
			c1.2,0,2-0.3,2.6-1s0.8-1.7,0.8-3.2v-0.4c0-1.7-0.3-2.9-0.8-3.6s-1.4-1.1-2.6-1.1c-1,0-1.8,0.4-2.3,1.2c-0.5,0.8-0.8,2-0.8,3.5
			c0,1.5,0.3,2.6,0.8,3.4C155.2,232,156,232.4,157,232.4z"/>
		<path fill="#444444" d="M179.2,227.7c0,2.2-0.6,3.9-1.7,5.2s-2.7,1.9-4.7,1.9c-1.3,0-2.4-0.3-3.3-0.9s-1.7-1.4-2.2-2.5
			c-0.5-1.1-0.8-2.3-0.8-3.7c0-2.2,0.6-3.9,1.7-5.1c1.1-1.2,2.7-1.8,4.7-1.8c2,0,3.5,0.6,4.6,1.9
			C178.7,223.9,179.2,225.6,179.2,227.7z M169.4,227.7c0,3.1,1.2,4.7,3.5,4.7c2.3,0,3.4-1.6,3.4-4.7c0-3.1-1.1-4.6-3.4-4.6
			c-1.2,0-2.1,0.4-2.6,1.2C169.7,225.1,169.4,226.2,169.4,227.7z"/>
		<path fill="#444444" d="M194.9,234.7c-2.1,0-3.7-0.6-4.9-1.8c-1.2-1.2-1.8-2.9-1.8-5.1c0-2.2,0.5-3.9,1.6-5.2
			c1.1-1.3,2.6-1.9,4.5-1.9c1.8,0,3.2,0.5,4.2,1.6c1,1.1,1.6,2.6,1.6,4.5v1.6h-9c0,1.3,0.4,2.3,1.1,3c0.7,0.7,1.6,1.1,2.8,1.1
			c0.8,0,1.5-0.1,2.2-0.2c0.7-0.2,1.4-0.4,2.2-0.8v2.3c-0.7,0.3-1.4,0.6-2.1,0.7C196.7,234.7,195.9,234.7,194.9,234.7z M194.4,222.9
			c-0.9,0-1.6,0.3-2.2,0.9c-0.5,0.6-0.9,1.4-1,2.5h6.1c0-1.1-0.3-2-0.8-2.5C196,223.2,195.3,222.9,194.4,222.9z"/>
		<path fill="#444444" d="M215.3,234.5h-2.9v-8.3c0-1-0.2-1.8-0.6-2.3c-0.4-0.5-1.1-0.8-2-0.8c-1.2,0-2.1,0.4-2.7,1.1
			s-0.8,1.9-0.8,3.6v6.7h-2.9V221h2.2l0.4,1.8h0.1c0.4-0.6,1-1.1,1.7-1.5c0.7-0.3,1.6-0.5,2.5-0.5c3.2,0,4.9,1.6,4.9,4.9V234.5z"/>
		<path fill="#444444" d="M30,257.6c0,1.3-0.5,2.3-1.4,3c-1,0.7-2.3,1.1-4.1,1.1c-1.8,0-3.2-0.3-4.3-0.8v-2.5
			c1.6,0.7,3.1,1.1,4.4,1.1c1.8,0,2.6-0.5,2.6-1.6c0-0.3-0.1-0.6-0.3-0.9c-0.2-0.2-0.5-0.5-1-0.7c-0.4-0.2-1.1-0.5-1.9-0.8
			c-1.6-0.6-2.6-1.2-3.2-1.8c-0.5-0.6-0.8-1.4-0.8-2.3c0-1.2,0.5-2.1,1.4-2.7c0.9-0.6,2.2-1,3.8-1c1.6,0,3.1,0.3,4.5,1l-0.9,2.2
			c-1.5-0.6-2.7-0.9-3.7-0.9c-1.5,0-2.3,0.4-2.3,1.3c0,0.4,0.2,0.8,0.6,1.1c0.4,0.3,1.3,0.7,2.6,1.2c1.1,0.4,1.9,0.8,2.4,1.2
			c0.5,0.4,0.9,0.8,1.1,1.2C29.8,256.4,30,257,30,257.6z"/>
		<path fill="#444444" d="M39,261.7c-2.1,0-3.7-0.6-4.9-1.8c-1.2-1.2-1.8-2.9-1.8-5.1c0-2.2,0.5-3.9,1.6-5.2
			c1.1-1.3,2.6-1.9,4.5-1.9c1.8,0,3.2,0.5,4.2,1.6c1,1.1,1.6,2.6,1.6,4.5v1.6h-9c0,1.3,0.4,2.3,1.1,3c0.7,0.7,1.6,1.1,2.8,1.1
			c0.8,0,1.5-0.1,2.2-0.2c0.7-0.2,1.4-0.4,2.2-0.8v2.3c-0.7,0.3-1.4,0.6-2.1,0.7C40.7,261.7,39.9,261.7,39,261.7z M38.4,249.9
			c-0.9,0-1.6,0.3-2.2,0.9c-0.5,0.6-0.9,1.4-1,2.5h6.1c0-1.1-0.3-2-0.8-2.5C40.1,250.2,39.3,249.9,38.4,249.9z"/>
		<path fill="#444444" d="M54.3,247.7c0.6,0,1.1,0,1.4,0.1l-0.3,2.7c-0.4-0.1-0.8-0.1-1.3-0.1c-1.1,0-2.1,0.4-2.8,1.1
			c-0.7,0.7-1.1,1.7-1.1,2.9v7.1h-2.9V248h2.2l0.4,2.4h0.1c0.4-0.8,1-1.4,1.8-1.9C52.7,248,53.5,247.7,54.3,247.7z"/>
		<path fill="#444444" d="M61.3,261.5L56.2,248h3l2.7,7.8c0.5,1.3,0.8,2.4,0.9,3.2h0.1c0.1-0.6,0.4-1.7,0.9-3.2l2.7-7.8h3.1
			l-5.2,13.5H61.3z"/>
		<path fill="#444444" d="M71.5,244.4c0-0.5,0.1-0.9,0.4-1.2c0.3-0.3,0.7-0.4,1.2-0.4c0.5,0,0.9,0.1,1.2,0.4
			c0.3,0.3,0.4,0.7,0.4,1.2c0,0.5-0.1,0.9-0.4,1.2c-0.3,0.3-0.7,0.4-1.2,0.4c-0.5,0-0.9-0.1-1.2-0.4
			C71.6,245.3,71.5,244.9,71.5,244.4z M74.5,261.5h-2.9V248h2.9V261.5z"/>
		<path fill="#444444" d="M83.2,261.7c-1.7,0-3-0.6-3.9-1.8c-0.9-1.2-1.4-2.9-1.4-5.1c0-2.2,0.5-3.9,1.4-5.2c1-1.2,2.3-1.8,4-1.8
			c1.8,0,3.1,0.7,4.1,2h0.1c-0.1-1-0.2-1.7-0.2-2.3v-4.9h2.9v19h-2.2l-0.5-1.8h-0.1C86.3,261.1,84.9,261.7,83.2,261.7z M83.9,259.4
			c1.2,0,2-0.3,2.6-1s0.8-1.7,0.8-3.2v-0.4c0-1.7-0.3-2.9-0.8-3.6c-0.6-0.7-1.4-1.1-2.6-1.1c-1,0-1.8,0.4-2.3,1.2
			c-0.5,0.8-0.8,2-0.8,3.5c0,1.5,0.3,2.6,0.8,3.4C82.1,259,82.9,259.4,83.9,259.4z"/>
		<path fill="#444444" d="M106.2,254.7c0,2.2-0.6,3.9-1.7,5.2c-1.1,1.2-2.7,1.9-4.7,1.9c-1.3,0-2.4-0.3-3.3-0.9
			c-1-0.6-1.7-1.4-2.2-2.5c-0.5-1.1-0.8-2.3-0.8-3.7c0-2.2,0.6-3.9,1.7-5.1c1.1-1.2,2.7-1.8,4.7-1.8c2,0,3.5,0.6,4.6,1.9
			C105.6,250.9,106.2,252.6,106.2,254.7z M96.3,254.7c0,3.1,1.2,4.7,3.5,4.7c2.3,0,3.4-1.6,3.4-4.7c0-3.1-1.1-4.6-3.4-4.6
			c-1.2,0-2.1,0.4-2.6,1.2C96.6,252.1,96.3,253.2,96.3,254.7z"/>
		<path fill="#444444" d="M116.3,247.7c0.6,0,1.1,0,1.4,0.1l-0.3,2.7c-0.4-0.1-0.8-0.1-1.3-0.1c-1.1,0-2.1,0.4-2.8,1.1
			c-0.7,0.7-1.1,1.7-1.1,2.9v7.1h-2.9V248h2.2l0.4,2.4h0.1c0.4-0.8,1-1.4,1.8-1.9C114.7,248,115.5,247.7,116.3,247.7z"/>
		<path fill="#444444" d="M126.1,261.7c-2.1,0-3.7-0.6-4.9-1.8c-1.2-1.2-1.8-2.9-1.8-5.1c0-2.2,0.5-3.9,1.6-5.2
			c1.1-1.3,2.6-1.9,4.5-1.9c1.8,0,3.2,0.5,4.2,1.6c1,1.1,1.6,2.6,1.6,4.5v1.6h-9c0,1.3,0.4,2.3,1.1,3c0.7,0.7,1.6,1.1,2.8,1.1
			c0.8,0,1.5-0.1,2.2-0.2c0.7-0.2,1.4-0.4,2.2-0.8v2.3c-0.7,0.3-1.4,0.6-2.1,0.7C127.9,261.7,127,261.7,126.1,261.7z M125.6,249.9
			c-0.9,0-1.6,0.3-2.2,0.9c-0.5,0.6-0.9,1.4-1,2.5h6.1c0-1.1-0.3-2-0.8-2.5C127.2,250.2,126.5,249.9,125.6,249.9z"/>
		<path fill="#444444" d="M143.7,257.6c0,1.3-0.5,2.3-1.4,3c-1,0.7-2.3,1.1-4.1,1.1c-1.8,0-3.2-0.3-4.3-0.8v-2.5
			c1.6,0.7,3.1,1.1,4.4,1.1c1.8,0,2.6-0.5,2.6-1.6c0-0.3-0.1-0.6-0.3-0.9c-0.2-0.2-0.5-0.5-1-0.7c-0.4-0.2-1.1-0.5-1.9-0.8
			c-1.6-0.6-2.6-1.2-3.2-1.8c-0.5-0.6-0.8-1.4-0.8-2.3c0-1.2,0.5-2.1,1.4-2.7c0.9-0.6,2.2-1,3.8-1c1.6,0,3.1,0.3,4.5,1l-0.9,2.2
			c-1.5-0.6-2.7-0.9-3.7-0.9c-1.5,0-2.3,0.4-2.3,1.3c0,0.4,0.2,0.8,0.6,1.1c0.4,0.3,1.3,0.7,2.6,1.2c1.1,0.4,1.9,0.8,2.4,1.2
			s0.9,0.8,1.1,1.2C143.6,256.4,143.7,257,143.7,257.6z"/>
		<path fill="#444444" d="M167.7,261.5h-2.9v-8h-8.2v8h-2.9v-17.8h2.9v7.3h8.2v-7.3h2.9V261.5z"/>
		<path fill="#444444" d="M184,254.7c0,2.2-0.6,3.9-1.7,5.2c-1.1,1.2-2.7,1.9-4.7,1.9c-1.3,0-2.4-0.3-3.3-0.9s-1.7-1.4-2.2-2.5
			c-0.5-1.1-0.8-2.3-0.8-3.7c0-2.2,0.6-3.9,1.7-5.1c1.1-1.2,2.7-1.8,4.7-1.8c2,0,3.5,0.6,4.6,1.9C183.5,250.9,184,252.6,184,254.7z
			 M174.2,254.7c0,3.1,1.2,4.7,3.5,4.7c2.3,0,3.4-1.6,3.4-4.7c0-3.1-1.1-4.6-3.4-4.6c-1.2,0-2.1,0.4-2.6,1.2
			C174.5,252.1,174.2,253.2,174.2,254.7z"/>
		<path fill="#444444" d="M196.4,257.6c0,1.3-0.5,2.3-1.4,3c-1,0.7-2.3,1.1-4.1,1.1c-1.8,0-3.2-0.3-4.3-0.8v-2.5
			c1.6,0.7,3.1,1.1,4.4,1.1c1.8,0,2.6-0.5,2.6-1.6c0-0.3-0.1-0.6-0.3-0.9c-0.2-0.2-0.5-0.5-1-0.7s-1.1-0.5-1.9-0.8
			c-1.6-0.6-2.6-1.2-3.2-1.8c-0.5-0.6-0.8-1.4-0.8-2.3c0-1.2,0.5-2.1,1.4-2.7s2.2-1,3.8-1c1.6,0,3.1,0.3,4.5,1l-0.9,2.2
			c-1.5-0.6-2.7-0.9-3.7-0.9c-1.5,0-2.3,0.4-2.3,1.3c0,0.4,0.2,0.8,0.6,1.1c0.4,0.3,1.3,0.7,2.6,1.2c1.1,0.4,1.9,0.8,2.4,1.2
			c0.5,0.4,0.9,0.8,1.1,1.2C196.3,256.4,196.4,257,196.4,257.6z"/>
		<path fill="#444444" d="M204.5,259.4c0.7,0,1.4-0.1,2.1-0.3v2.2c-0.3,0.1-0.7,0.3-1.2,0.3c-0.5,0.1-1,0.1-1.6,0.1
			c-2.7,0-4.1-1.4-4.1-4.3v-7.3h-1.8v-1.3l2-1l1-2.9h1.8v3h3.8v2.2h-3.8v7.2c0,0.7,0.2,1.2,0.5,1.5
			C203.5,259.2,204,259.4,204.5,259.4z"/>
		<path fill="#444444" d="M209.2,244.4c0-0.5,0.1-0.9,0.4-1.2c0.3-0.3,0.7-0.4,1.2-0.4c0.5,0,0.9,0.1,1.2,0.4s0.4,0.7,0.4,1.2
			c0,0.5-0.1,0.9-0.4,1.2c-0.3,0.3-0.7,0.4-1.2,0.4c-0.5,0-0.9-0.1-1.2-0.4C209.3,245.3,209.2,244.9,209.2,244.4z M212.2,261.5h-2.9
			V248h2.9V261.5z"/>
		<path fill="#444444" d="M228.2,261.5h-2.9v-8.3c0-1-0.2-1.8-0.6-2.3s-1.1-0.8-2-0.8c-1.2,0-2.1,0.4-2.7,1.1s-0.8,1.9-0.8,3.6v6.7
			h-2.9V248h2.2l0.4,1.8h0.1c0.4-0.6,1-1.1,1.7-1.5c0.7-0.3,1.6-0.5,2.5-0.5c3.2,0,4.9,1.6,4.9,4.9V261.5z"/>
		<path fill="#444444" d="M243.6,248v1.6l-2.3,0.4c0.2,0.3,0.4,0.6,0.5,1s0.2,0.9,0.2,1.3c0,1.4-0.5,2.5-1.4,3.3
			c-1,0.8-2.3,1.2-4,1.2c-0.4,0-0.8,0-1.2-0.1c-0.6,0.4-0.9,0.8-0.9,1.3c0,0.3,0.1,0.5,0.4,0.7c0.3,0.2,0.8,0.2,1.6,0.2h2.4
			c1.5,0,2.6,0.3,3.4,1c0.8,0.6,1.2,1.6,1.2,2.7c0,1.5-0.6,2.7-1.9,3.5c-1.3,0.8-3.1,1.2-5.5,1.2c-1.8,0-3.2-0.3-4.2-1
			c-1-0.7-1.5-1.6-1.5-2.8c0-0.8,0.3-1.5,0.8-2.1c0.5-0.6,1.3-1,2.2-1.2c-0.4-0.2-0.7-0.4-0.9-0.8c-0.2-0.4-0.4-0.7-0.4-1.1
			c0-0.5,0.1-0.9,0.4-1.3c0.3-0.3,0.7-0.7,1.3-1c-0.7-0.3-1.3-0.8-1.7-1.5c-0.4-0.7-0.7-1.5-0.7-2.4c0-1.5,0.5-2.6,1.4-3.4
			s2.2-1.2,3.9-1.2c0.4,0,0.8,0,1.2,0.1s0.7,0.1,0.9,0.2H243.6z M233,263.6c0,0.6,0.3,1.1,0.8,1.4s1.3,0.5,2.3,0.5
			c1.6,0,2.7-0.2,3.5-0.7c0.8-0.4,1.1-1,1.1-1.8c0-0.6-0.2-1-0.6-1.3s-1.2-0.4-2.3-0.4h-2.2c-0.8,0-1.5,0.2-2,0.6
			C233.2,262.4,233,262.9,233,263.6z M234.2,252.3c0,0.8,0.2,1.5,0.7,2s1.1,0.7,1.9,0.7c1.7,0,2.5-0.9,2.5-2.7c0-0.9-0.2-1.6-0.6-2
			c-0.4-0.5-1-0.7-1.9-0.7c-0.8,0-1.5,0.2-1.9,0.7C234.4,250.8,234.2,251.4,234.2,252.3z"/>
		<path fill="#444444" d="M250.5,248h3.1l2.7,7.7c0.4,1.1,0.7,2.1,0.8,3.1h0.1c0.1-0.4,0.2-1,0.4-1.6c0.2-0.6,1.2-3.7,3.1-9.1h3.1
			l-5.8,15.3c-1,2.8-2.8,4.2-5.2,4.2c-0.6,0-1.3-0.1-1.9-0.2V265c0.4,0.1,0.9,0.1,1.5,0.1c1.4,0,2.4-0.8,2.9-2.4l0.5-1.3L250.5,248z
			"/>
		<path fill="#444444" d="M31.4,270.6h3l-6.3,17.8h-3.1l-6.2-17.8h3l3.7,11.1c0.2,0.5,0.4,1.2,0.6,2s0.4,1.5,0.4,1.9
			c0.1-0.6,0.3-1.3,0.5-2.1c0.2-0.8,0.4-1.4,0.5-1.8L31.4,270.6z"/>
		<path fill="#444444" d="M48.6,276c0,1.9-0.6,3.3-1.8,4.3c-1.2,1-3,1.5-5.2,1.5h-1.9v6.7h-2.9v-17.8h5.1c2.2,0,3.9,0.5,5,1.4
			C48,272.9,48.6,274.3,48.6,276z M39.7,279.3h1.6c1.5,0,2.6-0.3,3.3-0.8c0.7-0.5,1-1.3,1-2.4c0-1-0.3-1.8-0.9-2.3
			c-0.6-0.5-1.6-0.8-2.9-0.8h-2V279.3z"/>
		<path fill="#444444" d="M62.4,283.6c0,1.6-0.6,2.8-1.7,3.7s-2.7,1.4-4.7,1.4c-2,0-3.7-0.3-5-0.9V285c0.8,0.4,1.7,0.7,2.6,0.9
			c0.9,0.2,1.8,0.3,2.6,0.3c1.2,0,2-0.2,2.6-0.7c0.5-0.4,0.8-1,0.8-1.8c0-0.7-0.3-1.2-0.8-1.7c-0.5-0.5-1.5-1-3.1-1.6
			c-1.6-0.7-2.8-1.4-3.4-2.3c-0.7-0.8-1-1.9-1-3.1c0-1.5,0.5-2.7,1.6-3.5c1.1-0.9,2.5-1.3,4.3-1.3c1.7,0,3.4,0.4,5.1,1.1l-0.9,2.4
			c-1.6-0.7-3-1-4.2-1c-0.9,0-1.7,0.2-2.1,0.6s-0.7,1-0.7,1.6c0,0.5,0.1,0.9,0.3,1.2c0.2,0.3,0.5,0.6,1,0.9c0.4,0.3,1.3,0.7,2.4,1.2
			c1.3,0.5,2.3,1.1,2.9,1.5s1.1,1,1.3,1.6C62.3,282.1,62.4,282.8,62.4,283.6z"/>
		<path fill="#444444" d="M78.9,288.7c-1.7,0-3-0.6-4-1.8h-0.2c0.1,1.1,0.2,1.8,0.2,2.1v5.5h-2.9V275h2.3c0.1,0.3,0.2,0.9,0.4,1.8
			h0.1c0.9-1.4,2.2-2.1,4-2.1c1.7,0,3,0.6,3.9,1.8c0.9,1.2,1.4,2.9,1.4,5.1c0,2.2-0.5,3.9-1.4,5.2C81.9,288.1,80.6,288.7,78.9,288.7
			z M78.2,277.1c-1.1,0-2,0.3-2.5,1c-0.5,0.7-0.8,1.7-0.8,3.2v0.4c0,1.6,0.3,2.8,0.8,3.6c0.5,0.7,1.4,1.1,2.6,1.1
			c1,0,1.8-0.4,2.3-1.2s0.8-2,0.8-3.5c0-1.5-0.3-2.7-0.8-3.4C80,277.5,79.3,277.1,78.2,277.1z"/>
		<path fill="#444444" d="M96.1,288.5l-0.6-1.9h-0.1c-0.7,0.8-1.3,1.4-2,1.7c-0.7,0.3-1.5,0.4-2.5,0.4c-1.3,0-2.4-0.4-3.1-1.1
			c-0.7-0.7-1.1-1.7-1.1-3c0-1.4,0.5-2.4,1.6-3.1c1-0.7,2.6-1.1,4.7-1.2l2.3-0.1v-0.7c0-0.9-0.2-1.5-0.6-1.9c-0.4-0.4-1-0.6-1.9-0.6
			c-0.7,0-1.4,0.1-2,0.3c-0.6,0.2-1.2,0.4-1.8,0.7l-0.9-2.1c0.7-0.4,1.5-0.7,2.4-0.9c0.9-0.2,1.7-0.3,2.5-0.3c1.7,0,3,0.4,3.9,1.1
			c0.9,0.7,1.3,1.9,1.3,3.5v9.1H96.1z M91.8,286.5c1,0,1.9-0.3,2.5-0.9c0.6-0.6,0.9-1.4,0.9-2.4V282l-1.7,0.1
			c-1.4,0-2.3,0.3-2.9,0.7c-0.6,0.4-0.9,1-0.9,1.8c0,0.6,0.2,1.1,0.5,1.4C90.6,286.4,91.1,286.5,91.8,286.5z"/>
		<path fill="#444444" d="M109,274.7c0.6,0,1.1,0,1.4,0.1l-0.3,2.7c-0.4-0.1-0.8-0.1-1.3-0.1c-1.1,0-2.1,0.4-2.8,1.1
			c-0.7,0.7-1.1,1.7-1.1,2.9v7.1h-2.9V275h2.2l0.4,2.4h0.1c0.4-0.8,1-1.4,1.8-1.9C107.4,275,108.2,274.7,109,274.7z"/>
		<path fill="#444444" d="M121.4,288.5l-0.6-1.9h-0.1c-0.7,0.8-1.3,1.4-2,1.7c-0.7,0.3-1.5,0.4-2.5,0.4c-1.3,0-2.4-0.4-3.1-1.1
			c-0.7-0.7-1.1-1.7-1.1-3c0-1.4,0.5-2.4,1.6-3.1c1-0.7,2.6-1.1,4.7-1.2l2.3-0.1v-0.7c0-0.9-0.2-1.5-0.6-1.9c-0.4-0.4-1-0.6-1.9-0.6
			c-0.7,0-1.4,0.1-2,0.3c-0.6,0.2-1.2,0.4-1.8,0.7l-0.9-2.1c0.7-0.4,1.5-0.7,2.4-0.9c0.9-0.2,1.7-0.3,2.5-0.3c1.7,0,3,0.4,3.9,1.1
			c0.9,0.7,1.3,1.9,1.3,3.5v9.1H121.4z M117.1,286.5c1,0,1.9-0.3,2.5-0.9c0.6-0.6,0.9-1.4,0.9-2.4V282l-1.7,0.1
			c-1.4,0-2.3,0.3-2.9,0.7c-0.6,0.4-0.9,1-0.9,1.8c0,0.6,0.2,1.1,0.5,1.4C115.8,286.4,116.4,286.5,117.1,286.5z"/>
		<path fill="#444444" d="M143,284.6c0,1.3-0.5,2.3-1.4,3c-1,0.7-2.3,1.1-4.1,1.1c-1.8,0-3.2-0.3-4.3-0.8v-2.5
			c1.6,0.7,3.1,1.1,4.4,1.1c1.8,0,2.6-0.5,2.6-1.6c0-0.3-0.1-0.6-0.3-0.9c-0.2-0.2-0.5-0.5-1-0.7c-0.4-0.2-1.1-0.5-1.9-0.8
			c-1.6-0.6-2.6-1.2-3.2-1.8c-0.5-0.6-0.8-1.4-0.8-2.3c0-1.2,0.5-2.1,1.4-2.7c0.9-0.6,2.2-1,3.8-1c1.6,0,3.1,0.3,4.5,1l-0.9,2.2
			c-1.5-0.6-2.7-0.9-3.7-0.9c-1.5,0-2.3,0.4-2.3,1.3c0,0.4,0.2,0.8,0.6,1.1c0.4,0.3,1.3,0.7,2.6,1.2c1.1,0.4,1.9,0.8,2.4,1.2
			c0.5,0.4,0.9,0.8,1.1,1.2C142.9,283.4,143,284,143,284.6z"/>
		<path fill="#444444" d="M145.9,271.4c0-0.5,0.1-0.9,0.4-1.2c0.3-0.3,0.7-0.4,1.2-0.4c0.5,0,0.9,0.1,1.2,0.4
			c0.3,0.3,0.4,0.7,0.4,1.2c0,0.5-0.1,0.9-0.4,1.2c-0.3,0.3-0.7,0.4-1.2,0.4c-0.5,0-0.9-0.1-1.2-0.4
			C146.1,272.3,145.9,271.9,145.9,271.4z M149,288.5h-2.9V275h2.9V288.5z"/>
		<path fill="#444444" d="M162.1,284.6c0,1.3-0.5,2.3-1.4,3c-1,0.7-2.3,1.1-4.1,1.1c-1.8,0-3.2-0.3-4.3-0.8v-2.5
			c1.6,0.7,3.1,1.1,4.4,1.1c1.8,0,2.6-0.5,2.6-1.6c0-0.3-0.1-0.6-0.3-0.9c-0.2-0.2-0.5-0.5-1-0.7s-1.1-0.5-1.9-0.8
			c-1.6-0.6-2.6-1.2-3.2-1.8c-0.5-0.6-0.8-1.4-0.8-2.3c0-1.2,0.5-2.1,1.4-2.7s2.2-1,3.8-1c1.6,0,3.1,0.3,4.5,1l-0.9,2.2
			c-1.5-0.6-2.7-0.9-3.7-0.9c-1.5,0-2.3,0.4-2.3,1.3c0,0.4,0.2,0.8,0.6,1.1c0.4,0.3,1.3,0.7,2.6,1.2c1.1,0.4,1.9,0.8,2.4,1.2
			c0.5,0.4,0.9,0.8,1.1,1.2C162,283.4,162.1,284,162.1,284.6z"/>
		<path fill="#444444" d="M170.3,286.4c0.7,0,1.4-0.1,2.1-0.3v2.2c-0.3,0.1-0.7,0.3-1.2,0.3c-0.5,0.1-1,0.1-1.6,0.1
			c-2.7,0-4.1-1.4-4.1-4.3v-7.3h-1.8v-1.3l2-1l1-2.9h1.8v3h3.8v2.2h-3.8v7.2c0,0.7,0.2,1.2,0.5,1.5
			C169.2,286.2,169.7,286.4,170.3,286.4z"/>
		<path fill="#444444" d="M181,288.7c-2.1,0-3.7-0.6-4.9-1.8c-1.2-1.2-1.8-2.9-1.8-5.1c0-2.2,0.5-3.9,1.6-5.2
			c1.1-1.3,2.6-1.9,4.5-1.9c1.8,0,3.2,0.5,4.2,1.6c1,1.1,1.5,2.6,1.5,4.5v1.6h-9c0,1.3,0.4,2.3,1.1,3c0.7,0.7,1.6,1.1,2.8,1.1
			c0.8,0,1.5-0.1,2.2-0.2c0.7-0.2,1.4-0.4,2.2-0.8v2.3c-0.7,0.3-1.4,0.6-2.1,0.7C182.7,288.7,181.9,288.7,181,288.7z M180.4,276.9
			c-0.9,0-1.6,0.3-2.2,0.9c-0.5,0.6-0.9,1.4-1,2.5h6.1c0-1.1-0.3-2-0.8-2.5C182.1,277.2,181.3,276.9,180.4,276.9z"/>
		<path fill="#444444" d="M200.8,288.5H198v-8.3c0-1-0.2-1.8-0.6-2.3s-1-0.8-1.8-0.8c-1.1,0-1.9,0.4-2.4,1.1
			c-0.5,0.7-0.8,1.9-0.8,3.6v6.7h-2.9V275h2.2l0.4,1.8h0.1c0.4-0.6,0.9-1.1,1.6-1.5c0.7-0.3,1.5-0.5,2.3-0.5c2.1,0,3.5,0.7,4.1,2.1
			h0.2c0.4-0.7,1-1.2,1.7-1.6s1.6-0.6,2.5-0.6c1.6,0,2.8,0.4,3.5,1.2s1.1,2.1,1.1,3.7v8.8h-2.9v-8.3c0-1-0.2-1.8-0.6-2.3
			s-1-0.8-1.8-0.8c-1.1,0-1.9,0.3-2.4,1c-0.5,0.7-0.8,1.8-0.8,3.2V288.5z"/>
		<path fill="#444444" d="M221.8,288.5l-0.6-1.9h-0.1c-0.7,0.8-1.3,1.4-2,1.7c-0.7,0.3-1.5,0.4-2.5,0.4c-1.3,0-2.4-0.4-3.1-1.1
			s-1.1-1.7-1.1-3c0-1.4,0.5-2.4,1.6-3.1s2.6-1.1,4.7-1.2l2.3-0.1v-0.7c0-0.9-0.2-1.5-0.6-1.9c-0.4-0.4-1-0.6-1.9-0.6
			c-0.7,0-1.4,0.1-2,0.3c-0.6,0.2-1.2,0.4-1.8,0.7l-0.9-2.1c0.7-0.4,1.5-0.7,2.4-0.9c0.9-0.2,1.7-0.3,2.5-0.3c1.7,0,3,0.4,3.9,1.1
			s1.3,1.9,1.3,3.5v9.1H221.8z M217.5,286.5c1,0,1.9-0.3,2.5-0.9c0.6-0.6,0.9-1.4,0.9-2.4V282l-1.7,0.1c-1.4,0-2.3,0.3-2.9,0.7
			c-0.6,0.4-0.9,1-0.9,1.8c0,0.6,0.2,1.1,0.5,1.4C216.3,286.4,216.8,286.5,217.5,286.5z"/>
		<path fill="#444444" d="M236.9,284.6c0,1.3-0.5,2.3-1.4,3c-1,0.7-2.3,1.1-4.1,1.1c-1.8,0-3.2-0.3-4.3-0.8v-2.5
			c1.6,0.7,3.1,1.1,4.4,1.1c1.8,0,2.6-0.5,2.6-1.6c0-0.3-0.1-0.6-0.3-0.9c-0.2-0.2-0.5-0.5-1-0.7s-1.1-0.5-1.9-0.8
			c-1.6-0.6-2.6-1.2-3.2-1.8c-0.5-0.6-0.8-1.4-0.8-2.3c0-1.2,0.5-2.1,1.4-2.7s2.2-1,3.8-1c1.6,0,3.1,0.3,4.5,1l-0.9,2.2
			c-1.5-0.6-2.7-0.9-3.7-0.9c-1.5,0-2.3,0.4-2.3,1.3c0,0.4,0.2,0.8,0.6,1.1c0.4,0.3,1.3,0.7,2.6,1.2c1.1,0.4,1.9,0.8,2.4,1.2
			c0.5,0.4,0.9,0.8,1.1,1.2C236.8,283.4,236.9,284,236.9,284.6z"/>
		<path fill="#444444" d="M245.4,283v-2.4h6.3v2.4H245.4z"/>
		<path fill="#444444" d="M36.1,315.5h-3.6l-8.8-14.2h-0.1l0.1,0.8c0.1,1.5,0.2,2.9,0.2,4.2v9.3h-2.6v-17.8h3.5l8.8,14.1h0.1
			c0-0.2,0-0.9-0.1-2c0-1.2-0.1-2.1-0.1-2.8v-9.4h2.7V315.5z"/>
		<path fill="#444444" d="M50,315.5l-0.4-1.8h-0.1c-0.4,0.6-1,1.1-1.7,1.5c-0.7,0.4-1.6,0.5-2.5,0.5c-1.6,0-2.9-0.4-3.7-1.2
			s-1.2-2-1.2-3.7V302h2.9v8.3c0,1,0.2,1.8,0.6,2.3c0.4,0.5,1.1,0.8,2,0.8c1.2,0,2.1-0.4,2.7-1.1c0.6-0.7,0.8-1.9,0.8-3.6V302h2.9
			v13.5H50z"/>
		<path fill="#444444" d="M63.2,301.7c1.7,0,3,0.6,3.9,1.8c0.9,1.2,1.4,2.9,1.4,5.1c0,2.2-0.5,3.9-1.4,5.2c-1,1.2-2.3,1.8-4,1.8
			c-1.7,0-3-0.6-4-1.8H59l-0.5,1.6h-2.1v-19h2.9v4.5c0,0.3,0,0.8,0,1.5c0,0.7-0.1,1.1-0.1,1.3h0.1C60.1,302.4,61.5,301.7,63.2,301.7
			z M62.5,304.1c-1.2,0-2,0.3-2.5,1c-0.5,0.7-0.8,1.8-0.8,3.4v0.2c0,1.6,0.3,2.8,0.8,3.6c0.5,0.7,1.4,1.1,2.6,1.1
			c1,0,1.8-0.4,2.3-1.2c0.5-0.8,0.8-2,0.8-3.5C65.6,305.6,64.6,304.1,62.5,304.1z"/>
		<path fill="#444444" d="M77.8,315.7c-2.1,0-3.7-0.6-4.9-1.8c-1.2-1.2-1.8-2.9-1.8-5.1c0-2.2,0.5-3.9,1.6-5.2
			c1.1-1.3,2.6-1.9,4.5-1.9c1.8,0,3.2,0.5,4.2,1.6c1,1.1,1.6,2.6,1.6,4.5v1.6h-9c0,1.3,0.4,2.3,1.1,3c0.7,0.7,1.6,1.1,2.8,1.1
			c0.8,0,1.5-0.1,2.2-0.2c0.7-0.2,1.4-0.4,2.2-0.8v2.3c-0.7,0.3-1.4,0.6-2.1,0.7C79.6,315.7,78.7,315.7,77.8,315.7z M77.3,303.9
			c-0.9,0-1.6,0.3-2.2,0.9c-0.5,0.6-0.9,1.4-1,2.5h6.1c0-1.1-0.3-2-0.8-2.5C78.9,304.2,78.2,303.9,77.3,303.9z"/>
		<path fill="#444444" d="M97.4,315.7c-1.7,0-3-0.6-3.9-1.8c-0.9-1.2-1.4-2.9-1.4-5.1c0-2.2,0.5-3.9,1.4-5.2c1-1.2,2.3-1.8,4-1.8
			c1.8,0,3.1,0.7,4.1,2h0.1c-0.1-1-0.2-1.7-0.2-2.3v-4.9h2.9v19H102l-0.5-1.8h-0.1C100.5,315.1,99.1,315.7,97.4,315.7z M98.1,313.4
			c1.2,0,2-0.3,2.6-1s0.8-1.7,0.8-3.2v-0.4c0-1.7-0.3-2.9-0.8-3.6c-0.6-0.7-1.4-1.1-2.6-1.1c-1,0-1.8,0.4-2.3,1.2
			c-0.5,0.8-0.8,2-0.8,3.5c0,1.5,0.3,2.6,0.8,3.4C96.3,313,97.1,313.4,98.1,313.4z"/>
		<path fill="#444444" d="M114.3,315.7c-2.1,0-3.7-0.6-4.9-1.8c-1.2-1.2-1.8-2.9-1.8-5.1c0-2.2,0.5-3.9,1.6-5.2
			c1.1-1.3,2.6-1.9,4.5-1.9c1.8,0,3.2,0.5,4.2,1.6c1,1.1,1.6,2.6,1.6,4.5v1.6h-9c0,1.3,0.4,2.3,1.1,3c0.7,0.7,1.6,1.1,2.8,1.1
			c0.8,0,1.5-0.1,2.2-0.2c0.7-0.2,1.4-0.4,2.2-0.8v2.3c-0.7,0.3-1.4,0.6-2.1,0.7C116,315.7,115.2,315.7,114.3,315.7z M113.8,303.9
			c-0.9,0-1.6,0.3-2.2,0.9c-0.5,0.6-0.9,1.4-1,2.5h6.1c0-1.1-0.3-2-0.8-2.5C115.4,304.2,114.7,303.9,113.8,303.9z"/>
		<path fill="#444444" d="M133.8,315.7c-1.7,0-3-0.6-3.9-1.8c-0.9-1.2-1.4-2.9-1.4-5.1c0-2.2,0.5-3.9,1.4-5.2c1-1.2,2.3-1.8,4-1.8
			c1.8,0,3.1,0.7,4.1,2h0.1c-0.1-1-0.2-1.7-0.2-2.3v-4.9h2.9v19h-2.2l-0.5-1.8h-0.1C137,315.1,135.6,315.7,133.8,315.7z
			 M134.6,313.4c1.2,0,2-0.3,2.6-1s0.8-1.7,0.8-3.2v-0.4c0-1.7-0.3-2.9-0.8-3.6c-0.6-0.7-1.4-1.1-2.6-1.1c-1,0-1.8,0.4-2.3,1.2
			c-0.5,0.8-0.8,2-0.8,3.5c0,1.5,0.3,2.6,0.8,3.4C132.8,313,133.6,313.4,134.6,313.4z"/>
		<path fill="#444444" d="M153.3,315.5l-0.6-1.9h-0.1c-0.7,0.8-1.3,1.4-2,1.7c-0.7,0.3-1.5,0.4-2.5,0.4c-1.3,0-2.4-0.4-3.1-1.1
			c-0.7-0.7-1.1-1.7-1.1-3c0-1.4,0.5-2.4,1.5-3.1s2.6-1.1,4.7-1.2l2.3-0.1v-0.7c0-0.9-0.2-1.5-0.6-1.9c-0.4-0.4-1-0.6-1.9-0.6
			c-0.7,0-1.4,0.1-2,0.3c-0.6,0.2-1.2,0.4-1.8,0.7l-0.9-2.1c0.7-0.4,1.5-0.7,2.4-0.9s1.7-0.3,2.5-0.3c1.7,0,3,0.4,3.9,1.1
			s1.3,1.9,1.3,3.5v9.1H153.3z M149,313.5c1,0,1.9-0.3,2.5-0.9s0.9-1.4,0.9-2.4V309l-1.7,0.1c-1.4,0-2.3,0.3-2.9,0.7
			c-0.6,0.4-0.9,1-0.9,1.8c0,0.6,0.2,1.1,0.5,1.4C147.8,313.4,148.3,313.5,149,313.5z"/>
		<path fill="#444444" d="M164.4,313.4c0.7,0,1.4-0.1,2.1-0.3v2.2c-0.3,0.1-0.7,0.3-1.2,0.3c-0.5,0.1-1,0.1-1.6,0.1
			c-2.7,0-4.1-1.4-4.1-4.3v-7.3h-1.8v-1.3l2-1l1-2.9h1.8v3h3.8v2.2h-3.8v7.2c0,0.7,0.2,1.2,0.5,1.5
			C163.4,313.2,163.8,313.4,164.4,313.4z"/>
		<path fill="#444444" d="M181.2,308.7c0,2.2-0.6,3.9-1.7,5.2c-1.1,1.2-2.7,1.9-4.7,1.9c-1.3,0-2.4-0.3-3.3-0.9
			c-1-0.6-1.7-1.4-2.2-2.5c-0.5-1.1-0.8-2.3-0.8-3.7c0-2.2,0.6-3.9,1.7-5.1c1.1-1.2,2.7-1.8,4.7-1.8c2,0,3.5,0.6,4.6,1.9
			C180.6,304.9,181.2,306.6,181.2,308.7z M171.3,308.7c0,3.1,1.2,4.7,3.5,4.7c2.3,0,3.4-1.6,3.4-4.7c0-3.1-1.1-4.6-3.4-4.6
			c-1.2,0-2.1,0.4-2.6,1.2S171.3,307.2,171.3,308.7z"/>
		<path fill="#444444" d="M193.5,311.6c0,1.3-0.5,2.3-1.4,3c-1,0.7-2.3,1.1-4.1,1.1c-1.8,0-3.2-0.3-4.3-0.8v-2.5
			c1.6,0.7,3.1,1.1,4.4,1.1c1.8,0,2.6-0.5,2.6-1.6c0-0.3-0.1-0.6-0.3-0.9c-0.2-0.2-0.5-0.5-1-0.7s-1.1-0.5-1.9-0.8
			c-1.6-0.6-2.6-1.2-3.2-1.8c-0.5-0.6-0.8-1.4-0.8-2.3c0-1.2,0.5-2.1,1.4-2.7s2.2-1,3.8-1c1.6,0,3.1,0.3,4.5,1l-0.9,2.2
			c-1.5-0.6-2.7-0.9-3.7-0.9c-1.5,0-2.3,0.4-2.3,1.3c0,0.4,0.2,0.8,0.6,1.1c0.4,0.3,1.3,0.7,2.6,1.2c1.1,0.4,1.9,0.8,2.4,1.2
			c0.5,0.4,0.9,0.8,1.1,1.2C193.4,310.4,193.5,311,193.5,311.6z"/>
	</g>
</g>
<path fill="#429DFF" d="M92.7,79H66.8c-0.3,0-0.5-0.2-0.5-0.5v-4.3c0-0.3,0.2-0.5,0.5-0.5l25.8,0c0.3,0,0.5,0.2,0.5,0.5v4.3
	C93.2,78.7,93,79,92.7,79z"/>
<circle fill="#429DFF" cx="100.3" cy="76.3" r="2.6"/>
<circle fill="#429DFF" cx="110" cy="76.3" r="2.6"/>
<path fill="#429DFF" d="M92.7,101.1H66.8c-0.3,0-0.5-0.2-0.5-0.5v-4.3c0-0.3,0.2-0.5,0.5-0.5h25.8c0.3,0,0.5,0.2,0.5,0.5v4.3
	C93.2,100.8,93,101.1,92.7,101.1z"/>
<circle fill="#429DFF" cx="100.3" cy="98.4" r="2.6"/>
<circle fill="#429DFF" cx="110" cy="98.4" r="2.6"/>
<path fill="#429DFF" d="M125.3,98.7c0-4.5-2.2-8.5-5.5-11.1c3.4-2.5,5.5-6.5,5.5-11.1c0-7.6-6.2-13.8-13.8-13.8H67.3
	c-7.6,0-13.8,6.2-13.8,13.8c0,4.5,2.2,8.5,5.5,11.1c-3.4,2.5-5.5,6.5-5.5,11.1c0,4.5,2.2,8.5,5.5,11.1c-3.4,2.5-5.5,6.5-5.5,11.1
	c0,7.6,6.2,13.8,13.8,13.8h44.2c7.6,0,13.8-6.2,13.8-13.8c0-4.5-2.2-8.5-5.5-11.1C123.1,107.3,125.3,103.3,125.3,98.7z M67.3,68.3
	h44.2c4.6,0,8.3,3.7,8.3,8.3c0,4.6-3.7,8.3-8.3,8.3H67.3c-4.6,0-8.3-3.7-8.3-8.3C59,72.1,62.7,68.3,67.3,68.3z M111.5,129.2H67.3
	c-4.6,0-8.3-3.7-8.3-8.3s3.7-8.3,8.3-8.3h44.2c4.6,0,8.3,3.7,8.3,8.3S116,129.2,111.5,129.2z M111.5,107.1H67.3
	c-4.6,0-8.3-3.7-8.3-8.3s3.7-8.3,8.3-8.3h44.2c4.6,0,8.3,3.7,8.3,8.3S116,107.1,111.5,107.1z"/>
<path fill="#429DFF" d="M92.7,123.2H66.8c-0.3,0-0.5-0.2-0.5-0.5v-4.3c0-0.3,0.2-0.5,0.5-0.5h25.8c0.3,0,0.5,0.2,0.5,0.5v4.3
	C93.2,123,93,123.2,92.7,123.2z"/>
<circle fill="#429DFF" cx="100.3" cy="120.5" r="2.6"/>
<circle fill="#429DFF" cx="110" cy="120.5" r="2.6"/>
<path fill="#429DFF" d="M154.5,59.8c-3.5-5.1-8.3-9.1-13.9-11.6c-3.4-9.1-9.4-16.8-17.4-22.5c-8.2-5.8-17.9-8.9-28.1-8.9
	c-11.7,0-23.1,4.2-31.9,11.9c-8,7-13.6,16.5-15.7,26.9c-0.2,0-0.3,0-0.5,0c-15.8,0-28.6,12.9-28.6,28.6c0,6.8,2.4,13.4,6.9,18.6
	c4.4,5.1,10.4,8.5,17,9.7c0.2,0,0.3,0,0.5,0c1.4,0,2.7-1,2.9-2.4c0.3-1.6-0.8-3.1-2.4-3.4c-5.3-0.9-10.1-3.6-13.5-7.7
	c-3.5-4.1-5.5-9.4-5.5-14.8c0-12.6,10.2-22.8,22.8-22.8c0.9,0,1.7,0,2.6,0.1c0.1,0,0.2,0,0.3,0c1.4,0,2.7-1.1,2.9-2.5
	c1.5-10,6.5-19.3,14.2-26c7.8-6.8,17.7-10.5,28-10.5c8.9,0,17.4,2.7,24.7,7.8c7.1,5,12.4,12,15.4,20c0,0.1,0,0.1,0,0.1
	c0.1,1.1,0.8,2,1.8,2.4c5.1,2,9.5,5.5,12.6,10.1c3.2,4.7,4.9,10.1,4.9,15.8c0,6.6-2.4,13.1-6.7,18.1c-4.3,5-10.2,8.3-16.6,9.4
	c-1.6,0.3-2.7,1.8-2.4,3.4c0.2,1.4,1.4,2.5,2.9,2.5c0.2,0,0.3,0,0.5,0c7.8-1.3,15-5.3,20.1-11.3c5.2-6.1,8.1-13.9,8.1-21.9
	C160.4,72.1,158.4,65.5,154.5,59.8z"/>
</svg>
