<?xml version="1.0" encoding="utf-8"?>
<!-- Generator: Adobe Illustrator 18.1.1, SVG Export Plug-In . SVG Version: 6.00 Build 0)  -->
<svg version="1.1" id="Capa_1" xmlns="http://www.w3.org/2000/svg" xmlns:xlink="http://www.w3.org/1999/xlink" x="0px" y="0px"
	 viewBox="0 0 280.5 381.8" enable-background="new 0 0 280.5 381.8" xml:space="preserve">
<path fill="#FAFAFA" d="M267.8,381.8H12.7c-7,0-12.7-5.7-12.7-12.7V12.7C0,5.7,5.7,0,12.7,0h255.1c7,0,12.7,5.7,12.7,12.7v356.4
	C280.5,376.1,274.8,381.8,267.8,381.8z"/>
<g>
	<path fill="#429DFF" d="M37.2,168.5c-2.2,2.1-4.9,3.1-8,3.1c-7.8,0-11.1-5.4-11.1-10.8c0-5.5,3.5-11.1,11.1-11.1
		c2.9,0,5.5,1.1,7.7,3.2l-2.6,2.5c-1.4-1.3-3.2-2-5.1-2c-5.1,0-7.3,3.8-7.2,7.3c0,3.5,2,7.1,7.2,7.1c1.8,0,3.9-0.8,5.3-2.1
		L37.2,168.5z"/>
	<path fill="#429DFF" d="M52.3,163.8c0,4.3-2.9,7.7-7.7,7.7s-7.7-3.5-7.7-7.7c0-4.2,2.9-7.7,7.6-7.7S52.3,159.5,52.3,163.8z
		 M40.6,163.8c0,2.2,1.3,4.4,4,4.4s4-2.1,4-4.4c0-2.2-1.6-4.4-4-4.4C42,159.4,40.6,161.5,40.6,163.8z"/>
	<path fill="#429DFF" d="M64.5,171.1v-7.7c0-2.2-1.2-4-3.6-4c-2.2,0-3.8,1.9-3.8,4.1v7.6h-3.6v-14.8h3.3l0.2,2
		c1.5-1.5,3-2.2,4.9-2.2c3.5,0,6.3,2.6,6.3,7.3v7.8H64.5z"/>
	<path fill="#429DFF" d="M79.8,160.3c-1-1-2.2-1.3-3.7-1.3c-1.7,0-2.7,0.5-2.7,1.5c0,1,0.9,1.5,2.8,1.6c2.8,0.2,6.3,0.8,6.3,4.7
		c0,2.6-2.1,4.9-6.4,4.9c-2.3,0-4.7-0.4-6.8-2.6l1.8-2.6c1,1.2,3.5,2,5.1,2.1c1.4,0,2.7-0.7,2.7-1.8c0-1-0.8-1.4-2.9-1.6
		c-2.8-0.2-6.1-1.2-6.1-4.6c0-3.4,3.5-4.6,6.2-4.6c2.3,0,4,0.5,5.8,2L79.8,160.3z"/>
	<path fill="#429DFF" d="M87.4,156.4v7.7c0,2.2,1.2,4,3.6,4c2.2,0,3.8-1.9,3.8-4.1v-7.6h3.6v14.8h-3.3l-0.2-2
		c-1.5,1.5-2.9,2.2-5,2.2c-3.5,0-6.1-2.7-6.1-7.3v-7.8H87.4z"/>
	<path fill="#429DFF" d="M104.1,150.2v21h-3.6v-21H104.1z"/>
	<path fill="#429DFF" d="M111.3,152.2v4.2h4.1v3.1h-4.1v6.4c0,1.4,0.8,2.1,1.9,2.1c0.6,0,1.2-0.2,1.8-0.4l1,3.1
		c-1,0.4-1.9,0.6-3,0.6c-3.2,0.1-5.3-1.7-5.3-5.4v-6.4h-2.8v-3.1h2.8v-3.8L111.3,152.2z"/>
	<path fill="#429DFF" d="M131.6,163.8c0,4.3-2.9,7.7-7.7,7.7s-7.7-3.5-7.7-7.7c0-4.2,2.9-7.7,7.7-7.7S131.6,159.5,131.6,163.8z
		 M119.8,163.8c0,2.2,1.3,4.4,4,4.4s4-2.1,4-4.4c0-2.2-1.6-4.4-4-4.4C121.2,159.4,119.8,161.5,119.8,163.8z"/>
	<path fill="#429DFF" d="M136.3,156.4l0.3,1.7c1.1-1.8,2.7-2.1,4.2-2.1c1.5,0,3,0.6,3.8,1.4l-1.7,3.2c-0.8-0.6-1.4-1-2.6-1
		c-1.9,0-3.7,1-3.7,3.7v7.8h-3.7v-14.8H136.3z"/>
	<path fill="#429DFF" d="M144.7,171.1v-14.3h3.8v14.3H144.7z M150,150.2h-3.9l-1.3,4.3v0.2h3l2.2-4.3V150.2z"/>
	<path fill="#429DFF" d="M162.4,156.4h3.5v14.8h-3.5l-0.2-2.2c-0.8,1.7-3.1,2.6-4.8,2.6c-4.4,0-7.6-2.7-7.6-7.9
		c0-5.1,3.4-7.8,7.7-7.7c2,0,3.9,0.9,4.7,2.4L162.4,156.4z M153.5,163.7c0,2.8,2,4.5,4.4,4.5c5.8,0,5.8-9,0-9
		C155.4,159.3,153.5,160.9,153.5,163.7z"/>
</g>
<g>
	<path fill="#444444" d="M30.8,194c0,1.6-0.5,2.8-1.5,3.6s-2.5,1.3-4.4,1.3h-1.6v5.6h-2.5v-15h4.3c1.9,0,3.3,0.4,4.2,1.1
		C30.3,191.4,30.8,192.5,30.8,194z M23.3,196.8h1.3c1.3,0,2.2-0.2,2.8-0.7s0.9-1.1,0.9-2.1c0-0.9-0.3-1.5-0.8-1.9s-1.3-0.6-2.5-0.6
		h-1.7V196.8z"/>
	<path fill="#444444" d="M39.1,192.9c0.5,0,0.9,0,1.2,0.1l-0.2,2.2c-0.3-0.1-0.7-0.1-1.1-0.1c-1,0-1.7,0.3-2.3,0.9
		c-0.6,0.6-0.9,1.4-0.9,2.5v5.9h-2.4v-11.3h1.9l0.3,2h0.1c0.4-0.7,0.9-1.2,1.5-1.6C37.8,193.1,38.4,192.9,39.1,192.9z"/>
	<path fill="#444444" d="M52.4,198.7c0,1.9-0.5,3.3-1.4,4.3s-2.3,1.6-4,1.6c-1.1,0-2-0.2-2.8-0.7s-1.4-1.2-1.9-2.1s-0.7-1.9-0.7-3.1
		c0-1.8,0.5-3.3,1.4-4.3s2.3-1.5,4-1.5c1.6,0,2.9,0.5,3.9,1.6C51.9,195.5,52.4,197,52.4,198.7z M44.1,198.7c0,2.6,1,3.9,2.9,3.9
		c1.9,0,2.9-1.3,2.9-3.9c0-2.6-1-3.9-2.9-3.9c-1,0-1.7,0.3-2.2,1C44.4,196.5,44.1,197.5,44.1,198.7z"/>
	<path fill="#444444" d="M53.3,193.1H56l2.3,6.4c0.3,0.9,0.6,1.8,0.7,2.6H59c0.1-0.4,0.2-0.8,0.3-1.4c0.2-0.5,1-3.1,2.6-7.6h2.6
		l-4.9,12.8c-0.9,2.4-2.4,3.5-4.4,3.5c-0.5,0-1.1-0.1-1.6-0.2v-1.9c0.4,0.1,0.8,0.1,1.2,0.1c1.2,0,2-0.7,2.5-2l0.4-1.1L53.3,193.1z"
		/>
	<path fill="#444444" d="M71.2,204.6c-1.8,0-3.1-0.5-4.1-1.5c-1-1-1.5-2.4-1.5-4.3c0-1.9,0.5-3.3,1.4-4.4s2.2-1.6,3.8-1.6
		c1.5,0,2.7,0.5,3.5,1.4s1.3,2.2,1.3,3.8v1.3H68c0,1.1,0.3,1.9,0.9,2.5c0.6,0.6,1.3,0.9,2.4,0.9c0.7,0,1.3-0.1,1.9-0.2
		c0.6-0.1,1.2-0.3,1.9-0.6v2c-0.6,0.3-1.2,0.5-1.8,0.6S71.9,204.6,71.2,204.6z M70.7,194.7c-0.8,0-1.4,0.2-1.8,0.7
		c-0.5,0.5-0.7,1.2-0.8,2.1h5.1c0-0.9-0.2-1.6-0.7-2.1C72.1,195,71.5,194.7,70.7,194.7z"/>
	<path fill="#444444" d="M82.8,204.6c-1.7,0-3-0.5-3.9-1.5c-0.9-1-1.3-2.4-1.3-4.3c0-1.9,0.5-3.4,1.4-4.4c0.9-1,2.3-1.5,4-1.5
		c1.2,0,2.3,0.2,3.2,0.7l-0.7,1.9c-1-0.4-1.9-0.6-2.5-0.6c-2,0-2.9,1.3-2.9,3.9c0,1.3,0.2,2.2,0.7,2.9c0.5,0.6,1.2,1,2.1,1
		c1.1,0,2.1-0.3,3-0.8v2.1c-0.4,0.3-0.9,0.4-1.4,0.5C84.1,204.6,83.5,204.6,82.8,204.6z"/>
	<path fill="#444444" d="M92.7,202.7c0.6,0,1.2-0.1,1.8-0.3v1.8c-0.3,0.1-0.6,0.2-1,0.3c-0.4,0.1-0.9,0.1-1.3,0.1
		c-2.3,0-3.4-1.2-3.4-3.6v-6.1h-1.5v-1.1l1.7-0.9l0.8-2.4h1.5v2.5h3.2v1.8h-3.2v6.1c0,0.6,0.1,1,0.4,1.3
		C91.9,202.6,92.2,202.7,92.7,202.7z"/>
	<path fill="#444444" d="M103.7,204.4l-0.5-1.6h-0.1c-0.5,0.7-1.1,1.2-1.7,1.4c-0.6,0.2-1.3,0.4-2.1,0.4c-1.1,0-2-0.3-2.6-0.9
		c-0.6-0.6-0.9-1.5-0.9-2.6c0-1.2,0.4-2.1,1.3-2.6s2.2-0.9,4-1l2-0.1v-0.6c0-0.7-0.2-1.3-0.5-1.6c-0.3-0.4-0.9-0.5-1.6-0.5
		c-0.6,0-1.1,0.1-1.7,0.3s-1,0.4-1.5,0.6l-0.8-1.7c0.6-0.3,1.3-0.6,2-0.7c0.7-0.2,1.4-0.3,2.1-0.3c1.4,0,2.5,0.3,3.3,0.9
		c0.7,0.6,1.1,1.6,1.1,3v7.6H103.7z M100.2,202.8c0.9,0,1.6-0.2,2.1-0.7c0.5-0.5,0.8-1.2,0.8-2.1v-1l-1.5,0.1c-1.1,0-2,0.2-2.5,0.6
		c-0.5,0.3-0.8,0.9-0.8,1.6c0,0.5,0.2,0.9,0.5,1.2C99.1,202.7,99.6,202.8,100.2,202.8z"/>
	<path fill="#444444" d="M118.3,204.4h-2.4v-7c0-0.9-0.2-1.5-0.5-1.9c-0.3-0.4-0.8-0.6-1.5-0.6c-0.9,0-1.6,0.3-2,0.9
		c-0.4,0.6-0.7,1.6-0.7,3v5.7h-2.4v-11.3h1.9l0.3,1.5h0.1c0.3-0.5,0.8-1,1.4-1.3c0.6-0.3,1.3-0.4,2-0.4c1.7,0,2.9,0.6,3.5,1.8h0.2
		c0.3-0.6,0.8-1,1.4-1.3s1.3-0.5,2.1-0.5c1.4,0,2.3,0.3,3,1c0.6,0.7,0.9,1.7,0.9,3.1v7.4H123v-7c0-0.9-0.2-1.5-0.5-1.9
		c-0.3-0.4-0.8-0.6-1.5-0.6c-0.9,0-1.6,0.3-2.1,0.9c-0.4,0.6-0.7,1.5-0.7,2.7V204.4z"/>
	<path fill="#444444" d="M138.8,198.7c0,1.9-0.5,3.3-1.4,4.3s-2.3,1.6-4,1.6c-1.1,0-2-0.2-2.8-0.7s-1.4-1.2-1.9-2.1
		s-0.7-1.9-0.7-3.1c0-1.8,0.5-3.3,1.4-4.3s2.3-1.5,4-1.5c1.6,0,2.9,0.5,3.9,1.6C138.3,195.5,138.8,197,138.8,198.7z M130.5,198.7
		c0,2.6,1,3.9,2.9,3.9c1.9,0,2.9-1.3,2.9-3.9c0-2.6-1-3.9-2.9-3.9c-1,0-1.7,0.3-2.2,1C130.7,196.5,130.5,197.5,130.5,198.7z"/>
	<path fill="#444444" d="M149,201.2c0,1.1-0.4,2-1.2,2.5c-0.8,0.6-2,0.9-3.5,0.9c-1.5,0-2.7-0.2-3.6-0.7v-2.1
		c1.3,0.6,2.6,0.9,3.7,0.9c1.5,0,2.2-0.4,2.2-1.3c0-0.3-0.1-0.5-0.2-0.7s-0.4-0.4-0.8-0.6s-0.9-0.4-1.6-0.7c-1.3-0.5-2.2-1-2.7-1.5
		c-0.5-0.5-0.7-1.2-0.7-2c0-1,0.4-1.7,1.2-2.3c0.8-0.5,1.8-0.8,3.2-0.8c1.3,0,2.6,0.3,3.8,0.8l-0.8,1.8c-1.2-0.5-2.3-0.8-3.1-0.8
		c-1.3,0-1.9,0.4-1.9,1.1c0,0.4,0.2,0.7,0.5,0.9c0.3,0.2,1.1,0.6,2.2,1c0.9,0.4,1.6,0.7,2,1s0.7,0.6,0.9,1
		C148.9,200.2,149,200.7,149,201.2z"/>
	<path fill="#444444" d="M155.2,193.1h2.6l2.3,6.4c0.3,0.9,0.6,1.8,0.7,2.6h0.1c0.1-0.4,0.2-0.8,0.3-1.4c0.2-0.5,1-3.1,2.6-7.6h2.6
		l-4.9,12.8c-0.9,2.4-2.4,3.5-4.4,3.5c-0.5,0-1.1-0.1-1.6-0.2v-1.9c0.4,0.1,0.8,0.1,1.2,0.1c1.2,0,2-0.7,2.5-2l0.4-1.1L155.2,193.1z
		"/>
	<path fill="#444444" d="M27.7,228.4l-0.5-1.6h-0.1c-0.5,0.7-1.1,1.2-1.7,1.4c-0.6,0.2-1.3,0.4-2.1,0.4c-1.1,0-2-0.3-2.6-0.9
		c-0.6-0.6-0.9-1.5-0.9-2.6c0-1.2,0.4-2.1,1.3-2.6s2.2-0.9,4-1l2-0.1v-0.6c0-0.7-0.2-1.3-0.5-1.6c-0.3-0.4-0.9-0.5-1.6-0.5
		c-0.6,0-1.1,0.1-1.7,0.3s-1,0.4-1.5,0.6l-0.8-1.7c0.6-0.3,1.3-0.6,2-0.7c0.7-0.2,1.4-0.3,2.1-0.3c1.4,0,2.5,0.3,3.3,0.9
		c0.7,0.6,1.1,1.6,1.1,3v7.6H27.7z M24.1,226.8c0.9,0,1.6-0.2,2.1-0.7c0.5-0.5,0.8-1.2,0.8-2.1v-1l-1.5,0.1c-1.1,0-2,0.2-2.5,0.6
		c-0.5,0.3-0.8,0.9-0.8,1.6c0,0.5,0.2,0.9,0.5,1.2C23,226.7,23.5,226.8,24.1,226.8z"/>
	<path fill="#444444" d="M40.3,225.2c0,1.1-0.4,2-1.2,2.5c-0.8,0.6-2,0.9-3.5,0.9c-1.5,0-2.7-0.2-3.6-0.7v-2.1
		c1.3,0.6,2.6,0.9,3.7,0.9c1.5,0,2.2-0.4,2.2-1.3c0-0.3-0.1-0.5-0.2-0.7s-0.4-0.4-0.8-0.6s-0.9-0.4-1.6-0.7c-1.3-0.5-2.2-1-2.7-1.5
		c-0.5-0.5-0.7-1.2-0.7-2c0-1,0.4-1.7,1.2-2.3c0.8-0.5,1.8-0.8,3.2-0.8c1.3,0,2.6,0.3,3.8,0.8l-0.8,1.8c-1.2-0.5-2.3-0.8-3.1-0.8
		c-1.3,0-1.9,0.4-1.9,1.1c0,0.4,0.2,0.7,0.5,0.9c0.3,0.2,1.1,0.6,2.2,1c0.9,0.4,1.6,0.7,2,1s0.7,0.6,0.9,1
		C40.2,224.2,40.3,224.7,40.3,225.2z"/>
	<path fill="#444444" d="M47.7,228.6c-1.8,0-3.1-0.5-4.1-1.5c-1-1-1.5-2.4-1.5-4.3c0-1.9,0.5-3.3,1.4-4.4s2.2-1.6,3.8-1.6
		c1.5,0,2.7,0.5,3.5,1.4s1.3,2.2,1.3,3.8v1.3h-7.6c0,1.1,0.3,1.9,0.9,2.5c0.6,0.6,1.4,0.9,2.4,0.9c0.7,0,1.3-0.1,1.9-0.2
		c0.6-0.1,1.2-0.3,1.9-0.6v2c-0.6,0.3-1.2,0.5-1.8,0.6S48.5,228.6,47.7,228.6z M47.3,218.7c-0.8,0-1.4,0.2-1.8,0.7
		c-0.5,0.5-0.7,1.2-0.8,2.1h5.1c0-0.9-0.2-1.6-0.7-2.1C48.6,219,48,218.7,47.3,218.7z"/>
	<path fill="#444444" d="M62.4,225.2c0,1.1-0.4,2-1.2,2.5c-0.8,0.6-2,0.9-3.5,0.9c-1.5,0-2.7-0.2-3.6-0.7v-2.1
		c1.3,0.6,2.6,0.9,3.7,0.9c1.5,0,2.2-0.4,2.2-1.3c0-0.3-0.1-0.5-0.2-0.7s-0.4-0.4-0.8-0.6s-0.9-0.4-1.6-0.7c-1.3-0.5-2.2-1-2.7-1.5
		c-0.5-0.5-0.7-1.2-0.7-2c0-1,0.4-1.7,1.2-2.3c0.8-0.5,1.8-0.8,3.2-0.8c1.3,0,2.6,0.3,3.8,0.8l-0.8,1.8c-1.2-0.5-2.3-0.8-3.1-0.8
		c-1.3,0-1.9,0.4-1.9,1.1c0,0.4,0.2,0.7,0.5,0.9c0.3,0.2,1.1,0.6,2.2,1c0.9,0.4,1.6,0.7,2,1s0.7,0.6,0.9,1
		C62.3,224.2,62.4,224.7,62.4,225.2z"/>
	<path fill="#444444" d="M74.9,222.7c0,1.9-0.5,3.3-1.4,4.3s-2.3,1.6-4,1.6c-1.1,0-2-0.2-2.8-0.7s-1.4-1.2-1.9-2.1s-0.7-1.9-0.7-3.1
		c0-1.8,0.5-3.3,1.4-4.3s2.3-1.5,4-1.5c1.6,0,2.9,0.5,3.9,1.6C74.5,219.5,74.9,221,74.9,222.7z M66.7,222.7c0,2.6,1,3.9,2.9,3.9
		c1.9,0,2.9-1.3,2.9-3.9c0-2.6-1-3.9-2.9-3.9c-1,0-1.7,0.3-2.2,1C66.9,220.5,66.7,221.5,66.7,222.7z"/>
	<path fill="#444444" d="M83.4,216.9c0.5,0,0.9,0,1.2,0.1l-0.2,2.2c-0.3-0.1-0.7-0.1-1.1-0.1c-1,0-1.7,0.3-2.3,0.9
		c-0.6,0.6-0.9,1.4-0.9,2.5v5.9h-2.4v-11.3h1.9l0.3,2h0.1c0.4-0.7,0.9-1.2,1.5-1.6C82,217.1,82.7,216.9,83.4,216.9z"/>
	<path fill="#444444" d="M93.6,228.4l-0.5-1.6h-0.1c-0.5,0.7-1.1,1.2-1.7,1.4c-0.6,0.2-1.3,0.4-2.1,0.4c-1.1,0-2-0.3-2.6-0.9
		c-0.6-0.6-0.9-1.5-0.9-2.6c0-1.2,0.4-2.1,1.3-2.6s2.2-0.9,4-1l2-0.1v-0.6c0-0.7-0.2-1.3-0.5-1.6c-0.3-0.4-0.9-0.5-1.6-0.5
		c-0.6,0-1.1,0.1-1.7,0.3s-1,0.4-1.5,0.6l-0.8-1.7c0.6-0.3,1.3-0.6,2-0.7c0.7-0.2,1.4-0.3,2.1-0.3c1.4,0,2.5,0.3,3.3,0.9
		c0.7,0.6,1.1,1.6,1.1,3v7.6H93.6z M90.1,226.8c0.9,0,1.6-0.2,2.1-0.7c0.5-0.5,0.8-1.2,0.8-2.1v-1l-1.5,0.1c-1.1,0-2,0.2-2.5,0.6
		c-0.5,0.3-0.8,0.9-0.8,1.6c0,0.5,0.2,0.9,0.5,1.2C89,226.7,89.5,226.8,90.1,226.8z"/>
	<path fill="#444444" d="M108.2,228.4h-2.4v-7c0-0.9-0.2-1.5-0.5-1.9c-0.3-0.4-0.8-0.6-1.5-0.6c-0.9,0-1.6,0.3-2,0.9
		c-0.4,0.6-0.7,1.6-0.7,3v5.7h-2.4v-11.3h1.9l0.3,1.5h0.1c0.3-0.5,0.8-1,1.4-1.3c0.6-0.3,1.3-0.4,2-0.4c1.7,0,2.9,0.6,3.5,1.8h0.2
		c0.3-0.6,0.8-1,1.4-1.3s1.3-0.5,2.1-0.5c1.4,0,2.3,0.3,3,1c0.6,0.7,0.9,1.7,0.9,3.1v7.4h-2.4v-7c0-0.9-0.2-1.5-0.5-1.9
		c-0.3-0.4-0.8-0.6-1.5-0.6c-0.9,0-1.6,0.3-2.1,0.9c-0.4,0.6-0.7,1.5-0.7,2.7V228.4z"/>
	<path fill="#444444" d="M128.7,222.7c0,1.9-0.5,3.3-1.4,4.3s-2.3,1.6-4,1.6c-1.1,0-2-0.2-2.8-0.7s-1.4-1.2-1.9-2.1
		s-0.7-1.9-0.7-3.1c0-1.8,0.5-3.3,1.4-4.3s2.3-1.5,4-1.5c1.6,0,2.9,0.5,3.9,1.6C128.2,219.5,128.7,221,128.7,222.7z M120.4,222.7
		c0,2.6,1,3.9,2.9,3.9c1.9,0,2.9-1.3,2.9-3.9c0-2.6-1-3.9-2.9-3.9c-1,0-1.7,0.3-2.2,1C120.6,220.5,120.4,221.5,120.4,222.7z"/>
	<path fill="#444444" d="M138.9,225.2c0,1.1-0.4,2-1.2,2.5c-0.8,0.6-2,0.9-3.5,0.9c-1.5,0-2.7-0.2-3.6-0.7v-2.1
		c1.3,0.6,2.6,0.9,3.7,0.9c1.5,0,2.2-0.4,2.2-1.3c0-0.3-0.1-0.5-0.2-0.7s-0.4-0.4-0.8-0.6s-0.9-0.4-1.6-0.7c-1.3-0.5-2.2-1-2.7-1.5
		c-0.5-0.5-0.7-1.2-0.7-2c0-1,0.4-1.7,1.2-2.3c0.8-0.5,1.8-0.8,3.2-0.8c1.3,0,2.6,0.3,3.8,0.8l-0.8,1.8c-1.2-0.5-2.3-0.8-3.1-0.8
		c-1.3,0-1.9,0.4-1.9,1.1c0,0.4,0.2,0.7,0.5,0.9c0.3,0.2,1.1,0.6,2.2,1c0.9,0.4,1.6,0.7,2,1s0.7,0.6,0.9,1
		C138.8,224.2,138.9,224.7,138.9,225.2z"/>
	<path fill="#444444" d="M151.7,228.6c-1.8,0-3.1-0.5-4.1-1.5c-1-1-1.5-2.4-1.5-4.3c0-1.9,0.5-3.3,1.4-4.4s2.2-1.6,3.8-1.6
		c1.5,0,2.7,0.5,3.5,1.4s1.3,2.2,1.3,3.8v1.3h-7.6c0,1.1,0.3,1.9,0.9,2.5c0.6,0.6,1.4,0.9,2.4,0.9c0.7,0,1.3-0.1,1.9-0.2
		c0.6-0.1,1.2-0.3,1.9-0.6v2c-0.6,0.3-1.2,0.5-1.8,0.6S152.5,228.6,151.7,228.6z M151.3,218.7c-0.8,0-1.4,0.2-1.8,0.7
		c-0.5,0.5-0.7,1.2-0.8,2.1h5.1c0-0.9-0.2-1.6-0.7-2.1C152.7,219,152.1,218.7,151.3,218.7z"/>
	<path fill="#444444" d="M168.8,228.4h-2.4v-7c0-0.9-0.2-1.5-0.5-2c-0.4-0.4-0.9-0.6-1.7-0.6c-1,0-1.8,0.3-2.2,0.9s-0.7,1.6-0.7,3
		v5.7h-2.4v-11.3h1.9l0.3,1.5h0.1c0.3-0.5,0.8-1,1.5-1.3s1.3-0.4,2.1-0.4c2.7,0,4.1,1.4,4.1,4.2V228.4z"/>
	<path fill="#444444" d="M179.8,228.4h-2.4v-16h2.4V228.4z"/>
	<path fill="#444444" d="M190.2,228.4l-0.5-1.6h-0.1c-0.5,0.7-1.1,1.2-1.7,1.4c-0.6,0.2-1.3,0.4-2.1,0.4c-1.1,0-2-0.3-2.6-0.9
		c-0.6-0.6-0.9-1.5-0.9-2.6c0-1.2,0.4-2.1,1.3-2.6s2.2-0.9,4-1l2-0.1v-0.6c0-0.7-0.2-1.3-0.5-1.6c-0.3-0.4-0.9-0.5-1.6-0.5
		c-0.6,0-1.1,0.1-1.7,0.3s-1,0.4-1.5,0.6l-0.8-1.7c0.6-0.3,1.3-0.6,2-0.7c0.7-0.2,1.4-0.3,2.1-0.3c1.4,0,2.5,0.3,3.3,0.9
		c0.7,0.6,1.1,1.6,1.1,3v7.6H190.2z M186.6,226.8c0.9,0,1.6-0.2,2.1-0.7c0.5-0.5,0.8-1.2,0.8-2.1v-1l-1.5,0.1c-1.1,0-2,0.2-2.5,0.6
		c-0.5,0.3-0.8,0.9-0.8,1.6c0,0.5,0.2,0.9,0.5,1.2C185.6,226.7,186,226.8,186.6,226.8z"/>
	<path fill="#444444" d="M25.1,252.6c-1.7,0-3-0.5-3.9-1.5c-0.9-1-1.3-2.4-1.3-4.3c0-1.9,0.5-3.4,1.4-4.4c0.9-1,2.3-1.5,4-1.5
		c1.2,0,2.3,0.2,3.2,0.7l-0.7,1.9c-1-0.4-1.9-0.6-2.5-0.6c-2,0-2.9,1.3-2.9,3.9c0,1.3,0.2,2.2,0.7,2.9c0.5,0.6,1.2,1,2.1,1
		c1.1,0,2.1-0.3,3-0.8v2.1c-0.4,0.3-0.9,0.4-1.4,0.5C26.4,252.6,25.8,252.6,25.1,252.6z"/>
	<path fill="#444444" d="M40.9,246.7c0,1.9-0.5,3.3-1.4,4.3s-2.3,1.6-4,1.6c-1.1,0-2-0.2-2.8-0.7c-0.8-0.5-1.4-1.2-1.9-2.1
		s-0.7-1.9-0.7-3.1c0-1.8,0.5-3.3,1.4-4.3c0.9-1,2.3-1.5,4-1.5c1.6,0,2.9,0.5,3.9,1.6C40.4,243.5,40.9,245,40.9,246.7z M32.7,246.7
		c0,2.6,1,3.9,2.9,3.9c1.9,0,2.9-1.3,2.9-3.9c0-2.6-1-3.9-2.9-3.9c-1,0-1.7,0.3-2.2,1C32.9,244.5,32.7,245.5,32.7,246.7z"/>
	<path fill="#444444" d="M53.6,252.4h-2.4v-7c0-0.9-0.2-1.5-0.5-2c-0.4-0.4-0.9-0.6-1.7-0.6c-1,0-1.8,0.3-2.2,0.9s-0.7,1.6-0.7,3
		v5.7h-2.4v-11.3h1.9l0.3,1.5h0.1c0.3-0.5,0.8-1,1.5-1.3s1.3-0.4,2.1-0.4c2.7,0,4.1,1.4,4.1,4.2V252.4z"/>
	<path fill="#444444" d="M64.4,249.2c0,1.1-0.4,2-1.2,2.5c-0.8,0.6-2,0.9-3.5,0.9c-1.5,0-2.7-0.2-3.6-0.7v-2.1
		c1.3,0.6,2.6,0.9,3.7,0.9c1.5,0,2.2-0.4,2.2-1.3c0-0.3-0.1-0.5-0.2-0.7s-0.4-0.4-0.8-0.6s-0.9-0.4-1.6-0.7c-1.3-0.5-2.2-1-2.7-1.5
		c-0.5-0.5-0.7-1.2-0.7-2c0-1,0.4-1.7,1.2-2.3c0.8-0.5,1.8-0.8,3.2-0.8c1.3,0,2.6,0.3,3.8,0.8l-0.8,1.8c-1.2-0.5-2.3-0.8-3.1-0.8
		c-1.3,0-1.9,0.4-1.9,1.1c0,0.4,0.2,0.7,0.5,0.9c0.3,0.2,1.1,0.6,2.2,1c0.9,0.4,1.6,0.7,2,1s0.7,0.6,0.9,1
		C64.3,248.2,64.4,248.7,64.4,249.2z"/>
	<path fill="#444444" d="M71.2,250.7c0.6,0,1.2-0.1,1.8-0.3v1.8c-0.3,0.1-0.6,0.2-1,0.3c-0.4,0.1-0.9,0.1-1.3,0.1
		c-2.3,0-3.4-1.2-3.4-3.6v-6.1h-1.5v-1.1l1.7-0.9l0.8-2.4h1.5v2.5h3.2v1.8h-3.2v6.1c0,0.6,0.1,1,0.4,1.3
		C70.3,250.6,70.7,250.7,71.2,250.7z"/>
	<path fill="#444444" d="M80.8,240.9c0.5,0,0.9,0,1.2,0.1l-0.2,2.2c-0.3-0.1-0.7-0.1-1.1-0.1c-1,0-1.7,0.3-2.3,0.9
		c-0.6,0.6-0.9,1.4-0.9,2.5v5.9h-2.4v-11.3H77l0.3,2h0.1c0.4-0.7,0.9-1.2,1.5-1.6C79.5,241.1,80.1,240.9,80.8,240.9z"/>
	<path fill="#444444" d="M92,252.4l-0.3-1.5h-0.1c-0.3,0.5-0.8,0.9-1.4,1.2c-0.6,0.3-1.3,0.5-2.1,0.5c-1.4,0-2.4-0.3-3.1-1
		s-1-1.7-1-3.1v-7.4h2.4v7c0,0.9,0.2,1.5,0.5,2c0.4,0.4,0.9,0.7,1.7,0.7c1,0,1.8-0.3,2.2-0.9c0.5-0.6,0.7-1.6,0.7-3v-5.6h2.4v11.3
		H92z"/>
	<path fill="#444444" d="M101.8,252.6c-1.7,0-3-0.5-3.9-1.5c-0.9-1-1.3-2.4-1.3-4.3c0-1.9,0.5-3.4,1.4-4.4c0.9-1,2.3-1.5,4-1.5
		c1.2,0,2.3,0.2,3.2,0.7l-0.7,1.9c-1-0.4-1.9-0.6-2.5-0.6c-2,0-2.9,1.3-2.9,3.9c0,1.3,0.2,2.2,0.7,2.9c0.5,0.6,1.2,1,2.1,1
		c1.1,0,2.1-0.3,3-0.8v2.1c-0.4,0.3-0.9,0.4-1.4,0.5C103.1,252.6,102.5,252.6,101.8,252.6z"/>
	<path fill="#444444" d="M112.1,252.6c-1.7,0-3-0.5-3.9-1.5c-0.9-1-1.3-2.4-1.3-4.3c0-1.9,0.5-3.4,1.4-4.4c0.9-1,2.3-1.5,4-1.5
		c1.2,0,2.3,0.2,3.2,0.7l-0.7,1.9c-1-0.4-1.9-0.6-2.5-0.6c-2,0-2.9,1.3-2.9,3.9c0,1.3,0.2,2.2,0.7,2.9c0.5,0.6,1.2,1,2.1,1
		c1.1,0,2.1-0.3,3-0.8v2.1c-0.4,0.3-0.9,0.4-1.4,0.5C113.4,252.6,112.8,252.6,112.1,252.6z"/>
	<path fill="#444444" d="M117.7,238.1c0-0.4,0.1-0.8,0.4-1c0.2-0.2,0.6-0.3,1-0.3c0.4,0,0.8,0.1,1,0.3c0.2,0.2,0.4,0.6,0.4,1
		c0,0.4-0.1,0.7-0.4,1c-0.2,0.2-0.6,0.4-1,0.4c-0.4,0-0.8-0.1-1-0.4C117.8,238.8,117.7,238.5,117.7,238.1z M120.2,252.4h-2.4v-11.3
		h2.4V252.4z"/>
	<path fill="#444444" d="M133.6,246.7c0,1.9-0.5,3.3-1.4,4.3s-2.3,1.6-4,1.6c-1.1,0-2-0.2-2.8-0.7s-1.4-1.2-1.9-2.1
		s-0.7-1.9-0.7-3.1c0-1.8,0.5-3.3,1.4-4.3s2.3-1.5,4-1.5c1.6,0,2.9,0.5,3.9,1.6C133.2,243.5,133.6,245,133.6,246.7z M125.4,246.7
		c0,2.6,1,3.9,2.9,3.9c1.9,0,2.9-1.3,2.9-3.9c0-2.6-1-3.9-2.9-3.9c-1,0-1.7,0.3-2.2,1C125.6,244.5,125.4,245.5,125.4,246.7z
		 M126.7,239.7v-0.3c0.4-0.5,0.8-1,1.2-1.6c0.4-0.6,0.7-1.1,1-1.5h2.8v0.2c-0.4,0.4-0.9,1-1.6,1.6c-0.7,0.7-1.3,1.2-1.8,1.5H126.7z"
		/>
	<path fill="#444444" d="M146.3,252.4h-2.4v-7c0-0.9-0.2-1.5-0.5-2c-0.4-0.4-0.9-0.6-1.7-0.6c-1,0-1.8,0.3-2.2,0.9s-0.7,1.6-0.7,3
		v5.7h-2.4v-11.3h1.9l0.3,1.5h0.1c0.3-0.5,0.8-1,1.5-1.3s1.3-0.4,2.1-0.4c2.7,0,4.1,1.4,4.1,4.2V252.4z"/>
	<path fill="#444444" d="M158.7,252.6c-1.4,0-2.5-0.5-3.3-1.5s-1.2-2.5-1.2-4.3c0-1.9,0.4-3.3,1.2-4.3c0.8-1,1.9-1.6,3.3-1.6
		c1.5,0,2.6,0.5,3.4,1.7h0.1c-0.1-0.8-0.2-1.5-0.2-1.9v-4.1h2.4v16h-1.9l-0.4-1.5h-0.1C161.3,252.1,160.2,252.6,158.7,252.6z
		 M159.4,250.7c1,0,1.7-0.3,2.2-0.8c0.5-0.6,0.7-1.5,0.7-2.7v-0.3c0-1.4-0.2-2.4-0.7-3s-1.2-0.9-2.2-0.9c-0.8,0-1.5,0.3-2,1
		c-0.5,0.7-0.7,1.7-0.7,2.9c0,1.3,0.2,2.2,0.7,2.9C157.8,250.4,158.5,250.7,159.4,250.7z"/>
	<path fill="#444444" d="M172.8,252.6c-1.8,0-3.1-0.5-4.1-1.5c-1-1-1.5-2.4-1.5-4.3c0-1.9,0.5-3.3,1.4-4.4s2.2-1.6,3.8-1.6
		c1.5,0,2.7,0.5,3.5,1.4s1.3,2.2,1.3,3.8v1.3h-7.6c0,1.1,0.3,1.9,0.9,2.5c0.6,0.6,1.4,0.9,2.4,0.9c0.7,0,1.3-0.1,1.9-0.2
		c0.6-0.1,1.2-0.3,1.9-0.6v2c-0.6,0.3-1.2,0.5-1.8,0.6S173.6,252.6,172.8,252.6z M172.4,242.7c-0.8,0-1.4,0.2-1.8,0.7
		c-0.5,0.5-0.7,1.2-0.8,2.1h5.1c0-0.9-0.2-1.6-0.7-2.1C173.7,243,173.1,242.7,172.4,242.7z"/>
	<path fill="#444444" d="M25.5,276.6c-1.8,0-3.1-0.5-4.1-1.5c-1-1-1.5-2.4-1.5-4.3c0-1.9,0.5-3.3,1.4-4.4s2.2-1.6,3.8-1.6
		c1.5,0,2.7,0.5,3.5,1.4s1.3,2.2,1.3,3.8v1.3h-7.6c0,1.1,0.3,1.9,0.9,2.5c0.6,0.6,1.3,0.9,2.4,0.9c0.7,0,1.3-0.1,1.9-0.2
		c0.6-0.1,1.2-0.3,1.9-0.6v2c-0.6,0.3-1.2,0.5-1.8,0.6S26.3,276.6,25.5,276.6z M25.1,266.7c-0.8,0-1.4,0.2-1.8,0.7
		c-0.5,0.5-0.7,1.2-0.8,2.1h5.1c0-0.9-0.2-1.6-0.7-2.1C26.4,267,25.8,266.7,25.1,266.7z"/>
	<path fill="#444444" d="M42.1,276.4h-2.4v-7c0-0.9-0.2-1.5-0.5-1.9c-0.3-0.4-0.8-0.6-1.5-0.6c-0.9,0-1.6,0.3-2,0.9
		c-0.4,0.6-0.7,1.6-0.7,3v5.7h-2.4v-11.3h1.9l0.3,1.5h0.1c0.3-0.5,0.8-1,1.4-1.3c0.6-0.3,1.3-0.4,2-0.4c1.7,0,2.9,0.6,3.5,1.8h0.2
		c0.3-0.6,0.8-1,1.4-1.3s1.3-0.5,2.1-0.5c1.4,0,2.3,0.3,3,1c0.6,0.7,0.9,1.7,0.9,3.1v7.4h-2.4v-7c0-0.9-0.2-1.5-0.5-1.9
		c-0.3-0.4-0.8-0.6-1.5-0.6c-0.9,0-1.6,0.3-2.1,0.9c-0.4,0.6-0.7,1.5-0.7,2.7V276.4z"/>
	<path fill="#444444" d="M58.3,276.6c-1.4,0-2.5-0.5-3.3-1.5h-0.1c0.1,1,0.1,1.5,0.1,1.7v4.6h-2.4v-16.4h1.9
		c0.1,0.2,0.2,0.7,0.3,1.5h0.1c0.8-1.1,1.9-1.7,3.4-1.7c1.4,0,2.5,0.5,3.3,1.5c0.8,1,1.2,2.5,1.2,4.3s-0.4,3.3-1.2,4.3
		C60.8,276.1,59.7,276.6,58.3,276.6z M57.7,266.9c-1,0-1.7,0.3-2.1,0.8c-0.4,0.6-0.7,1.5-0.7,2.7v0.4c0,1.4,0.2,2.4,0.7,3
		c0.4,0.6,1.2,0.9,2.1,0.9c0.8,0,1.5-0.3,1.9-1s0.7-1.7,0.7-2.9c0-1.3-0.2-2.2-0.7-2.9C59.2,267.2,58.6,266.9,57.7,266.9z"/>
	<path fill="#444444" d="M71.3,264.9c0.5,0,0.9,0,1.2,0.1l-0.2,2.2c-0.3-0.1-0.7-0.1-1.1-0.1c-1,0-1.7,0.3-2.3,0.9
		c-0.6,0.6-0.9,1.4-0.9,2.5v5.9h-2.4v-11.3h1.9l0.3,2h0.1c0.4-0.7,0.9-1.2,1.5-1.6C69.9,265.1,70.6,264.9,71.3,264.9z"/>
	<path fill="#444444" d="M79.4,276.6c-1.8,0-3.1-0.5-4.1-1.5c-1-1-1.5-2.4-1.5-4.3c0-1.9,0.5-3.3,1.4-4.4s2.2-1.6,3.8-1.6
		c1.5,0,2.7,0.5,3.5,1.4s1.3,2.2,1.3,3.8v1.3h-7.6c0,1.1,0.3,1.9,0.9,2.5c0.6,0.6,1.4,0.9,2.4,0.9c0.7,0,1.3-0.1,1.9-0.2
		c0.6-0.1,1.2-0.3,1.9-0.6v2c-0.6,0.3-1.2,0.5-1.8,0.6S80.2,276.6,79.4,276.6z M79,266.7c-0.8,0-1.4,0.2-1.8,0.7
		c-0.5,0.5-0.7,1.2-0.8,2.1h5.1c0-0.9-0.2-1.6-0.7-2.1C80.3,267,79.7,266.7,79,266.7z"/>
	<path fill="#444444" d="M94.1,273.2c0,1.1-0.4,2-1.2,2.5c-0.8,0.6-2,0.9-3.5,0.9c-1.5,0-2.7-0.2-3.6-0.7v-2.1
		c1.3,0.6,2.6,0.9,3.7,0.9c1.5,0,2.2-0.4,2.2-1.3c0-0.3-0.1-0.5-0.2-0.7s-0.4-0.4-0.8-0.6s-0.9-0.4-1.6-0.7c-1.3-0.5-2.2-1-2.7-1.5
		c-0.5-0.5-0.7-1.2-0.7-2c0-1,0.4-1.7,1.2-2.3c0.8-0.5,1.8-0.8,3.2-0.8c1.3,0,2.6,0.3,3.8,0.8l-0.8,1.8c-1.2-0.5-2.3-0.8-3.1-0.8
		c-1.3,0-1.9,0.4-1.9,1.1c0,0.4,0.2,0.7,0.5,0.9c0.3,0.2,1.1,0.6,2.2,1c0.9,0.4,1.6,0.7,2,1s0.7,0.6,0.9,1
		C94,272.2,94.1,272.7,94.1,273.2z"/>
	<path fill="#444444" d="M103.7,276.4l-0.5-1.6h-0.1c-0.5,0.7-1.1,1.2-1.7,1.4c-0.6,0.2-1.3,0.4-2.1,0.4c-1.1,0-2-0.3-2.6-0.9
		c-0.6-0.6-0.9-1.5-0.9-2.6c0-1.2,0.4-2.1,1.3-2.6s2.2-0.9,4-1l2-0.1v-0.6c0-0.7-0.2-1.3-0.5-1.6c-0.3-0.4-0.9-0.5-1.6-0.5
		c-0.6,0-1.1,0.1-1.7,0.3s-1,0.4-1.5,0.6l-0.8-1.7c0.6-0.3,1.3-0.6,2-0.7c0.7-0.2,1.4-0.3,2.1-0.3c1.4,0,2.5,0.3,3.3,0.9
		c0.7,0.6,1.1,1.6,1.1,3v7.6H103.7z M100.1,274.8c0.9,0,1.6-0.2,2.1-0.7c0.5-0.5,0.8-1.2,0.8-2.1v-1l-1.5,0.1c-1.1,0-2,0.2-2.5,0.6
		c-0.5,0.3-0.8,0.9-0.8,1.6c0,0.5,0.2,0.9,0.5,1.2C99,274.7,99.5,274.8,100.1,274.8z"/>
	<path fill="#444444" d="M116.3,273.2c0,1.1-0.4,2-1.2,2.5c-0.8,0.6-2,0.9-3.5,0.9c-1.5,0-2.7-0.2-3.6-0.7v-2.1
		c1.3,0.6,2.6,0.9,3.7,0.9c1.5,0,2.2-0.4,2.2-1.3c0-0.3-0.1-0.5-0.2-0.7s-0.4-0.4-0.8-0.6s-0.9-0.4-1.6-0.7c-1.3-0.5-2.2-1-2.7-1.5
		c-0.5-0.5-0.7-1.2-0.7-2c0-1,0.4-1.7,1.2-2.3c0.8-0.5,1.8-0.8,3.2-0.8c1.3,0,2.6,0.3,3.8,0.8l-0.8,1.8c-1.2-0.5-2.3-0.8-3.1-0.8
		c-1.3,0-1.9,0.4-1.9,1.1c0,0.4,0.2,0.7,0.5,0.9c0.3,0.2,1.1,0.6,2.2,1c0.9,0.4,1.6,0.7,2,1s0.7,0.6,0.9,1
		C116.2,272.2,116.3,272.7,116.3,273.2z"/>
	<path fill="#444444" d="M122.4,265.1h2.6l2.3,6.4c0.3,0.9,0.6,1.8,0.7,2.6h0.1c0.1-0.4,0.2-0.8,0.3-1.4c0.2-0.5,1-3.1,2.6-7.6h2.6
		l-4.8,12.8c-0.9,2.4-2.4,3.5-4.4,3.5c-0.5,0-1.1-0.1-1.6-0.2v-1.9c0.4,0.1,0.8,0.1,1.2,0.1c1.2,0,2-0.7,2.5-2l0.4-1.1L122.4,265.1z
		"/>
	<path fill="#444444" d="M146.4,276.6c-1.4,0-2.5-0.5-3.3-1.5h-0.1c0.1,1,0.1,1.5,0.1,1.7v4.6h-2.4v-16.4h1.9
		c0.1,0.2,0.2,0.7,0.3,1.5h0.1c0.8-1.1,1.9-1.7,3.4-1.7c1.4,0,2.5,0.5,3.3,1.5c0.8,1,1.2,2.5,1.2,4.3s-0.4,3.3-1.2,4.3
		C148.9,276.1,147.8,276.6,146.4,276.6z M145.8,266.9c-1,0-1.7,0.3-2.1,0.8c-0.4,0.6-0.7,1.5-0.7,2.7v0.4c0,1.4,0.2,2.4,0.7,3
		c0.4,0.6,1.2,0.9,2.1,0.9c0.8,0,1.5-0.3,1.9-1s0.7-1.7,0.7-2.9c0-1.3-0.2-2.2-0.7-2.9C147.3,267.2,146.7,266.9,145.8,266.9z"/>
	<path fill="#444444" d="M159.4,264.9c0.5,0,0.9,0,1.2,0.1l-0.2,2.2c-0.3-0.1-0.7-0.1-1.1-0.1c-1,0-1.7,0.3-2.3,0.9
		c-0.6,0.6-0.9,1.4-0.9,2.5v5.9h-2.4v-11.3h1.9l0.3,2h0.1c0.4-0.7,0.9-1.2,1.5-1.6C158,265.1,158.7,264.9,159.4,264.9z"/>
	<path fill="#444444" d="M172.6,270.7c0,1.9-0.5,3.3-1.4,4.3s-2.3,1.6-4,1.6c-1.1,0-2-0.2-2.8-0.7s-1.4-1.2-1.9-2.1
		s-0.7-1.9-0.7-3.1c0-1.8,0.5-3.3,1.4-4.3s2.3-1.5,4-1.5c1.6,0,2.9,0.5,3.9,1.6C172.1,267.5,172.6,269,172.6,270.7z M164.4,270.7
		c0,2.6,1,3.9,2.9,3.9c1.9,0,2.9-1.3,2.9-3.9c0-2.6-1-3.9-2.9-3.9c-1,0-1.7,0.3-2.2,1C164.6,268.5,164.4,269.5,164.4,270.7z"/>
	<path fill="#444444" d="M173.6,265.1h2.6l2.3,6.4c0.3,0.9,0.6,1.8,0.7,2.6h0.1c0.1-0.4,0.2-0.8,0.3-1.4c0.2-0.5,1-3.1,2.6-7.6h2.6
		l-4.8,12.8c-0.9,2.4-2.4,3.5-4.4,3.5c-0.5,0-1.1-0.1-1.6-0.2v-1.9c0.4,0.1,0.8,0.1,1.2,0.1c1.2,0,2-0.7,2.5-2l0.4-1.1L173.6,265.1z
		"/>
	<path fill="#444444" d="M191.4,276.6c-1.8,0-3.1-0.5-4.1-1.5c-1-1-1.5-2.4-1.5-4.3c0-1.9,0.5-3.3,1.4-4.4s2.2-1.6,3.8-1.6
		c1.5,0,2.7,0.5,3.5,1.4s1.3,2.2,1.3,3.8v1.3h-7.6c0,1.1,0.3,1.9,0.9,2.5c0.6,0.6,1.4,0.9,2.4,0.9c0.7,0,1.3-0.1,1.9-0.2
		c0.6-0.1,1.2-0.3,1.9-0.6v2c-0.6,0.3-1.2,0.5-1.8,0.6S192.2,276.6,191.4,276.6z M190.9,266.7c-0.8,0-1.4,0.2-1.8,0.7
		c-0.5,0.5-0.7,1.2-0.8,2.1h5.1c0-0.9-0.2-1.6-0.7-2.1C192.3,267,191.7,266.7,190.9,266.7z"/>
	<path fill="#444444" d="M203,276.6c-1.7,0-3-0.5-3.9-1.5c-0.9-1-1.3-2.4-1.3-4.3c0-1.9,0.5-3.4,1.4-4.4c0.9-1,2.3-1.5,4-1.5
		c1.2,0,2.3,0.2,3.2,0.7l-0.7,1.9c-1-0.4-1.9-0.6-2.5-0.6c-2,0-2.9,1.3-2.9,3.9c0,1.3,0.2,2.2,0.7,2.9c0.5,0.6,1.2,1,2.1,1
		c1.1,0,2.1-0.3,3-0.8v2.1c-0.4,0.3-0.9,0.4-1.4,0.5C204.3,276.6,203.7,276.6,203,276.6z"/>
	<path fill="#444444" d="M212.9,274.7c0.6,0,1.2-0.1,1.8-0.3v1.8c-0.3,0.1-0.6,0.2-1,0.3c-0.4,0.1-0.9,0.1-1.3,0.1
		c-2.3,0-3.4-1.2-3.4-3.6v-6.1h-1.5v-1.1l1.7-0.9l0.8-2.4h1.5v2.5h3.2v1.8h-3.2v6.1c0,0.6,0.1,1,0.4,1.3
		C212.1,274.6,212.5,274.7,212.9,274.7z"/>
	<path fill="#444444" d="M226.9,270.7c0,1.9-0.5,3.3-1.4,4.3s-2.3,1.6-4,1.6c-1.1,0-2-0.2-2.8-0.7s-1.4-1.2-1.9-2.1
		s-0.7-1.9-0.7-3.1c0-1.8,0.5-3.3,1.4-4.3s2.3-1.5,4-1.5c1.6,0,2.9,0.5,3.9,1.6C226.4,267.5,226.9,269,226.9,270.7z M218.7,270.7
		c0,2.6,1,3.9,2.9,3.9c1.9,0,2.9-1.3,2.9-3.9c0-2.6-1-3.9-2.9-3.9c-1,0-1.7,0.3-2.2,1C218.9,268.5,218.7,269.5,218.7,270.7z"/>
	<path fill="#444444" d="M237.2,273.2c0,1.1-0.4,2-1.2,2.5c-0.8,0.6-2,0.9-3.5,0.9c-1.5,0-2.7-0.2-3.6-0.7v-2.1
		c1.3,0.6,2.6,0.9,3.7,0.9c1.5,0,2.2-0.4,2.2-1.3c0-0.3-0.1-0.5-0.2-0.7s-0.4-0.4-0.8-0.6s-0.9-0.4-1.6-0.7c-1.3-0.5-2.2-1-2.7-1.5
		c-0.5-0.5-0.7-1.2-0.7-2c0-1,0.4-1.7,1.2-2.3c0.8-0.5,1.8-0.8,3.2-0.8c1.3,0,2.6,0.3,3.8,0.8l-0.8,1.8c-1.2-0.5-2.3-0.8-3.1-0.8
		c-1.3,0-1.9,0.4-1.9,1.1c0,0.4,0.2,0.7,0.5,0.9c0.3,0.2,1.1,0.6,2.2,1c0.9,0.4,1.6,0.7,2,1s0.7,0.6,0.9,1
		C237.1,272.2,237.2,272.7,237.2,273.2z"/>
	<path fill="#444444" d="M250,276.6c-1.8,0-3.1-0.5-4.1-1.5c-1-1-1.5-2.4-1.5-4.3c0-1.9,0.5-3.3,1.4-4.4s2.2-1.6,3.8-1.6
		c1.5,0,2.7,0.5,3.5,1.4s1.3,2.2,1.3,3.8v1.3h-7.6c0,1.1,0.3,1.9,0.9,2.5c0.6,0.6,1.3,0.9,2.4,0.9c0.7,0,1.3-0.1,1.9-0.2
		c0.6-0.1,1.2-0.3,1.9-0.6v2c-0.6,0.3-1.2,0.5-1.8,0.6S250.8,276.6,250,276.6z M249.6,266.7c-0.8,0-1.4,0.2-1.8,0.7
		c-0.5,0.5-0.7,1.2-0.8,2.1h5.1c0-0.9-0.2-1.6-0.7-2.1C250.9,267,250.3,266.7,249.6,266.7z"/>
	<path fill="#444444" d="M267,276.4h-2.4v-7c0-0.9-0.2-1.5-0.5-2c-0.4-0.4-0.9-0.6-1.7-0.6c-1,0-1.8,0.3-2.2,0.9s-0.7,1.6-0.7,3v5.7
		h-2.4v-11.3h1.9l0.3,1.5h0.1c0.3-0.5,0.8-1,1.5-1.3s1.3-0.4,2.1-0.4c2.7,0,4.1,1.4,4.1,4.2V276.4z"/>
	<path fill="#444444" d="M25.5,300.6c-1.8,0-3.1-0.5-4.1-1.5c-1-1-1.5-2.4-1.5-4.3c0-1.9,0.5-3.3,1.4-4.4s2.2-1.6,3.8-1.6
		c1.5,0,2.7,0.5,3.5,1.4s1.3,2.2,1.3,3.8v1.3h-7.6c0,1.1,0.3,1.9,0.9,2.5c0.6,0.6,1.3,0.9,2.4,0.9c0.7,0,1.3-0.1,1.9-0.2
		c0.6-0.1,1.2-0.3,1.9-0.6v2c-0.6,0.3-1.2,0.5-1.8,0.6S26.3,300.6,25.5,300.6z M25.1,290.7c-0.8,0-1.4,0.2-1.8,0.7
		c-0.5,0.5-0.7,1.2-0.8,2.1h5.1c0-0.9-0.2-1.6-0.7-2.1C26.4,291,25.8,290.7,25.1,290.7z"/>
	<path fill="#444444" d="M35,300.4h-2.4v-16H35V300.4z"/>
	<path fill="#444444" d="M50.8,300.4l-0.5-1.6h-0.1c-0.5,0.7-1.1,1.2-1.7,1.4c-0.6,0.2-1.3,0.4-2.1,0.4c-1.1,0-2-0.3-2.6-0.9
		c-0.6-0.6-0.9-1.5-0.9-2.6c0-1.2,0.4-2.1,1.3-2.6s2.2-0.9,4-1l2-0.1v-0.6c0-0.7-0.2-1.3-0.5-1.6c-0.3-0.4-0.9-0.5-1.6-0.5
		c-0.6,0-1.1,0.1-1.7,0.3s-1,0.4-1.5,0.6l-0.8-1.7c0.6-0.3,1.3-0.6,2-0.7c0.7-0.2,1.4-0.3,2.1-0.3c1.4,0,2.5,0.3,3.3,0.9
		c0.7,0.6,1.1,1.6,1.1,3v7.6H50.8z M47.2,298.8c0.9,0,1.6-0.2,2.1-0.7c0.5-0.5,0.8-1.2,0.8-2.1v-1l-1.5,0.1c-1.1,0-2,0.2-2.5,0.6
		c-0.5,0.3-0.8,0.9-0.8,1.6c0,0.5,0.2,0.9,0.5,1.2C46.1,298.7,46.6,298.8,47.2,298.8z M46.4,287.7v-0.3c0.4-0.5,0.8-1,1.2-1.6
		c0.4-0.6,0.7-1.1,1-1.5h2.8v0.2c-0.4,0.4-0.9,1-1.6,1.6c-0.7,0.7-1.3,1.2-1.8,1.5H46.4z"/>
	<path fill="#444444" d="M65.3,300.4h-2.4v-7c0-0.9-0.2-1.5-0.5-1.9c-0.3-0.4-0.8-0.6-1.5-0.6c-0.9,0-1.6,0.3-2,0.9
		c-0.4,0.6-0.7,1.6-0.7,3v5.7h-2.4v-11.3h1.9l0.3,1.5h0.1c0.3-0.5,0.8-1,1.4-1.3c0.6-0.3,1.3-0.4,2-0.4c1.7,0,2.9,0.6,3.5,1.8h0.2
		c0.3-0.6,0.8-1,1.4-1.3s1.3-0.5,2.1-0.5c1.4,0,2.3,0.3,3,1c0.6,0.7,0.9,1.7,0.9,3.1v7.4H70v-7c0-0.9-0.2-1.5-0.5-1.9
		c-0.3-0.4-0.8-0.6-1.5-0.6c-0.9,0-1.6,0.3-2.1,0.9c-0.4,0.6-0.7,1.5-0.7,2.7V300.4z"/>
	<path fill="#444444" d="M81.5,288.9c1.4,0,2.5,0.5,3.3,1.5c0.8,1,1.2,2.5,1.2,4.3c0,1.9-0.4,3.3-1.2,4.3c-0.8,1-1.9,1.6-3.3,1.6
		c-1.4,0-2.5-0.5-3.3-1.5H78l-0.4,1.3h-1.8v-16h2.4v3.8c0,0.3,0,0.7,0,1.3s0,0.9-0.1,1.1h0.1C78.9,289.5,80,288.9,81.5,288.9z
		 M80.9,290.9c-1,0-1.7,0.3-2.1,0.9c-0.4,0.6-0.6,1.5-0.7,2.9v0.2c0,1.4,0.2,2.4,0.7,3c0.4,0.6,1.2,0.9,2.1,0.9c0.9,0,1.5-0.3,1.9-1
		c0.4-0.7,0.7-1.7,0.7-2.9C83.5,292.1,82.6,290.9,80.9,290.9z"/>
	<path fill="#444444" d="M88.5,286.1c0-0.4,0.1-0.8,0.4-1c0.2-0.2,0.6-0.3,1-0.3c0.4,0,0.8,0.1,1,0.3c0.2,0.2,0.4,0.6,0.4,1
		c0,0.4-0.1,0.7-0.4,1c-0.2,0.2-0.6,0.4-1,0.4c-0.4,0-0.8-0.1-1-0.4C88.7,286.8,88.5,286.5,88.5,286.1z M91.1,300.4h-2.4v-11.3h2.4
		V300.4z"/>
	<path fill="#444444" d="M98.7,298.7c0.6,0,1.2-0.1,1.8-0.3v1.8c-0.3,0.1-0.6,0.2-1,0.3c-0.4,0.1-0.9,0.1-1.3,0.1
		c-2.3,0-3.4-1.2-3.4-3.6v-6.1h-1.5v-1.1l1.7-0.9l0.8-2.4h1.5v2.5h3.2v1.8h-3.2v6.1c0,0.6,0.1,1,0.4,1.3
		C97.8,298.6,98.2,298.7,98.7,298.7z"/>
	<path fill="#444444" d="M112.7,294.7c0,1.9-0.5,3.3-1.4,4.3s-2.3,1.6-4,1.6c-1.1,0-2-0.2-2.8-0.7s-1.4-1.2-1.9-2.1
		s-0.7-1.9-0.7-3.1c0-1.8,0.5-3.3,1.4-4.3s2.3-1.5,4-1.5c1.6,0,2.9,0.5,3.9,1.6C112.2,291.5,112.7,293,112.7,294.7z M104.4,294.7
		c0,2.6,1,3.9,2.9,3.9c1.9,0,2.9-1.3,2.9-3.9c0-2.6-1-3.9-2.9-3.9c-1,0-1.7,0.3-2.2,1C104.6,292.5,104.4,293.5,104.4,294.7z"/>
	<path fill="#444444" d="M124.5,300.6c-1.4,0-2.5-0.5-3.3-1.5s-1.2-2.5-1.2-4.3c0-1.9,0.4-3.3,1.2-4.3c0.8-1,1.9-1.6,3.3-1.6
		c1.5,0,2.6,0.5,3.4,1.7h0.1c-0.1-0.8-0.2-1.5-0.2-1.9v-4.1h2.4v16h-1.9L128,299h-0.1C127.1,300.1,126,300.6,124.5,300.6z
		 M125.1,298.7c1,0,1.7-0.3,2.2-0.8c0.5-0.6,0.7-1.5,0.7-2.7v-0.3c0-1.4-0.2-2.4-0.7-3s-1.2-0.9-2.2-0.9c-0.8,0-1.5,0.3-2,1
		c-0.5,0.7-0.7,1.7-0.7,2.9c0,1.3,0.2,2.2,0.7,2.9C123.6,298.4,124.2,298.7,125.1,298.7z"/>
	<path fill="#444444" d="M133.5,286.1c0-0.4,0.1-0.8,0.4-1c0.2-0.2,0.6-0.3,1-0.3c0.4,0,0.8,0.1,1,0.3c0.2,0.2,0.4,0.6,0.4,1
		c0,0.4-0.1,0.7-0.4,1c-0.2,0.2-0.6,0.4-1,0.4c-0.4,0-0.8-0.1-1-0.4C133.6,286.8,133.5,286.5,133.5,286.1z M136.1,300.4h-2.4v-11.3
		h2.4V300.4z"/>
	<path fill="#444444" d="M149,289.1v1.3l-1.9,0.4c0.2,0.2,0.3,0.5,0.4,0.9s0.2,0.7,0.2,1.1c0,1.2-0.4,2.1-1.2,2.8s-1.9,1-3.3,1
		c-0.4,0-0.7,0-1-0.1c-0.5,0.3-0.8,0.7-0.8,1.1c0,0.3,0.1,0.5,0.4,0.6c0.2,0.1,0.7,0.2,1.3,0.2h2c1.3,0,2.2,0.3,2.9,0.8s1,1.3,1,2.3
		c0,1.3-0.5,2.3-1.6,3s-2.6,1-4.6,1c-1.5,0-2.7-0.3-3.5-0.8s-1.2-1.3-1.2-2.3c0-0.7,0.2-1.3,0.7-1.8c0.4-0.5,1.1-0.8,1.9-1
		c-0.3-0.1-0.6-0.4-0.8-0.7c-0.2-0.3-0.3-0.6-0.3-1c0-0.4,0.1-0.8,0.4-1.1s0.6-0.6,1.1-0.9c-0.6-0.3-1.1-0.7-1.4-1.2
		c-0.4-0.6-0.5-1.2-0.5-2c0-1.2,0.4-2.2,1.2-2.9c0.8-0.7,1.9-1,3.3-1c0.3,0,0.7,0,1,0.1c0.4,0,0.6,0.1,0.8,0.1H149z M140.1,302.2
		c0,0.5,0.2,0.9,0.7,1.2c0.5,0.3,1.1,0.4,2,0.4c1.3,0,2.3-0.2,2.9-0.6s1-0.9,1-1.5c0-0.5-0.2-0.8-0.5-1.1c-0.4-0.2-1-0.3-2-0.3h-1.8
		c-0.7,0-1.2,0.2-1.6,0.5C140.3,301.2,140.1,301.6,140.1,302.2z M141.1,292.8c0,0.7,0.2,1.3,0.5,1.6c0.4,0.4,0.9,0.6,1.6,0.6
		c1.4,0,2.1-0.7,2.1-2.2c0-0.7-0.2-1.3-0.5-1.7c-0.3-0.4-0.9-0.6-1.6-0.6c-0.7,0-1.2,0.2-1.6,0.6C141.3,291.4,141.1,292,141.1,292.8
		z"/>
	<path fill="#444444" d="M150.8,286.1c0-0.4,0.1-0.8,0.4-1c0.2-0.2,0.6-0.3,1-0.3c0.4,0,0.8,0.1,1,0.3c0.2,0.2,0.4,0.6,0.4,1
		c0,0.4-0.1,0.7-0.4,1c-0.2,0.2-0.6,0.4-1,0.4c-0.4,0-0.8-0.1-1-0.4C150.9,286.8,150.8,286.5,150.8,286.1z M153.4,300.4H151v-11.3
		h2.4V300.4z"/>
	<path fill="#444444" d="M160.9,298.7c0.6,0,1.2-0.1,1.8-0.3v1.8c-0.3,0.1-0.6,0.2-1,0.3c-0.4,0.1-0.9,0.1-1.3,0.1
		c-2.3,0-3.4-1.2-3.4-3.6v-6.1h-1.5v-1.1l1.7-0.9l0.8-2.4h1.5v2.5h3.2v1.8h-3.2v6.1c0,0.6,0.1,1,0.4,1.3
		C160.1,298.6,160.5,298.7,160.9,298.7z"/>
	<path fill="#444444" d="M172,300.4l-0.5-1.6h-0.1c-0.5,0.7-1.1,1.2-1.7,1.4c-0.6,0.2-1.3,0.4-2.1,0.4c-1.1,0-2-0.3-2.6-0.9
		c-0.6-0.6-0.9-1.5-0.9-2.6c0-1.2,0.4-2.1,1.3-2.6s2.2-0.9,4-1l2-0.1v-0.6c0-0.7-0.2-1.3-0.5-1.6c-0.3-0.4-0.9-0.5-1.6-0.5
		c-0.6,0-1.1,0.1-1.7,0.3s-1,0.4-1.5,0.6l-0.8-1.7c0.6-0.3,1.3-0.6,2-0.7c0.7-0.2,1.4-0.3,2.1-0.3c1.4,0,2.5,0.3,3.3,0.9
		c0.7,0.6,1.1,1.6,1.1,3v7.6H172z M168.4,298.8c0.9,0,1.6-0.2,2.1-0.7c0.5-0.5,0.8-1.2,0.8-2.1v-1l-1.5,0.1c-1.1,0-2,0.2-2.5,0.6
		c-0.5,0.3-0.8,0.9-0.8,1.6c0,0.5,0.2,0.9,0.5,1.2C167.3,298.7,167.8,298.8,168.4,298.8z"/>
	<path fill="#444444" d="M179.4,300.4h-2.4v-16h2.4V300.4z"/>
	<path fill="#444444" d="M193.8,300.6c-1.4,0-2.5-0.5-3.3-1.5h-0.1c0.1,1,0.1,1.5,0.1,1.7v4.6H188v-16.4h1.9
		c0.1,0.2,0.2,0.7,0.3,1.5h0.1c0.8-1.1,1.9-1.7,3.4-1.7c1.4,0,2.5,0.5,3.3,1.5c0.8,1,1.2,2.5,1.2,4.3s-0.4,3.3-1.2,4.3
		C196.3,300.1,195.2,300.6,193.8,300.6z M193.2,290.9c-1,0-1.7,0.3-2.1,0.8c-0.4,0.6-0.7,1.5-0.7,2.7v0.4c0,1.4,0.2,2.4,0.7,3
		c0.4,0.6,1.2,0.9,2.1,0.9c0.8,0,1.5-0.3,1.9-1s0.7-1.7,0.7-2.9c0-1.3-0.2-2.2-0.7-2.9C194.7,291.2,194.1,290.9,193.2,290.9z"/>
	<path fill="#444444" d="M208.1,300.4l-0.5-1.6h-0.1c-0.5,0.7-1.1,1.2-1.7,1.4c-0.6,0.2-1.3,0.4-2.1,0.4c-1.1,0-2-0.3-2.6-0.9
		c-0.6-0.6-0.9-1.5-0.9-2.6c0-1.2,0.4-2.1,1.3-2.6s2.2-0.9,4-1l2-0.1v-0.6c0-0.7-0.2-1.3-0.5-1.6c-0.3-0.4-0.9-0.5-1.6-0.5
		c-0.6,0-1.1,0.1-1.7,0.3s-1,0.4-1.5,0.6l-0.8-1.7c0.6-0.3,1.3-0.6,2-0.7c0.7-0.2,1.4-0.3,2.1-0.3c1.4,0,2.5,0.3,3.3,0.9
		c0.7,0.6,1.1,1.6,1.1,3v7.6H208.1z M204.5,298.8c0.9,0,1.6-0.2,2.1-0.7c0.5-0.5,0.8-1.2,0.8-2.1v-1l-1.5,0.1c-1.1,0-2,0.2-2.5,0.6
		c-0.5,0.3-0.8,0.9-0.8,1.6c0,0.5,0.2,0.9,0.5,1.2C203.5,298.7,203.9,298.8,204.5,298.8z"/>
	<path fill="#444444" d="M218.9,288.9c0.5,0,0.9,0,1.2,0.1l-0.2,2.2c-0.3-0.1-0.7-0.1-1.1-0.1c-1,0-1.7,0.3-2.3,0.9
		c-0.6,0.6-0.9,1.4-0.9,2.5v5.9h-2.4v-11.3h1.9l0.3,2h0.1c0.4-0.7,0.9-1.2,1.5-1.6C217.5,289.1,218.2,288.9,218.9,288.9z"/>
	<path fill="#444444" d="M229.1,300.4l-0.5-1.6h-0.1c-0.5,0.7-1.1,1.2-1.7,1.4c-0.6,0.2-1.3,0.4-2.1,0.4c-1.1,0-2-0.3-2.6-0.9
		c-0.6-0.6-0.9-1.5-0.9-2.6c0-1.2,0.4-2.1,1.3-2.6s2.2-0.9,4-1l2-0.1v-0.6c0-0.7-0.2-1.3-0.5-1.6c-0.3-0.4-0.9-0.5-1.6-0.5
		c-0.6,0-1.1,0.1-1.7,0.3s-1,0.4-1.5,0.6l-0.8-1.7c0.6-0.3,1.3-0.6,2-0.7c0.7-0.2,1.4-0.3,2.1-0.3c1.4,0,2.5,0.3,3.3,0.9
		c0.7,0.6,1.1,1.6,1.1,3v7.6H229.1z M225.6,298.8c0.9,0,1.6-0.2,2.1-0.7c0.5-0.5,0.8-1.2,0.8-2.1v-1l-1.5,0.1c-1.1,0-2,0.2-2.5,0.6
		c-0.5,0.3-0.8,0.9-0.8,1.6c0,0.5,0.2,0.9,0.5,1.2C224.5,298.7,225,298.8,225.6,298.8z"/>
	<path fill="#444444" d="M241.9,300.4h-2.4v-16h2.4V300.4z"/>
	<path fill="#444444" d="M252.3,300.4l-0.5-1.6h-0.1c-0.5,0.7-1.1,1.2-1.7,1.4c-0.6,0.2-1.3,0.4-2.1,0.4c-1.1,0-2-0.3-2.6-0.9
		c-0.6-0.6-0.9-1.5-0.9-2.6c0-1.2,0.4-2.1,1.3-2.6s2.2-0.9,4-1l2-0.1v-0.6c0-0.7-0.2-1.3-0.5-1.6c-0.3-0.4-0.9-0.5-1.6-0.5
		c-0.6,0-1.1,0.1-1.7,0.3s-1,0.4-1.5,0.6l-0.8-1.7c0.6-0.3,1.3-0.6,2-0.7c0.7-0.2,1.4-0.3,2.1-0.3c1.4,0,2.5,0.3,3.3,0.9
		c0.7,0.6,1.1,1.6,1.1,3v7.6H252.3z M248.7,298.8c0.9,0,1.6-0.2,2.1-0.7c0.5-0.5,0.8-1.2,0.8-2.1v-1l-1.5,0.1c-1.1,0-2,0.2-2.5,0.6
		c-0.5,0.3-0.8,0.9-0.8,1.6c0,0.5,0.2,0.9,0.5,1.2C247.7,298.7,248.1,298.8,248.7,298.8z"/>
	<path fill="#444444" d="M25.5,324.6c-1.8,0-3.1-0.5-4.1-1.5c-1-1-1.5-2.4-1.5-4.3c0-1.9,0.5-3.3,1.4-4.4s2.2-1.6,3.8-1.6
		c1.5,0,2.7,0.5,3.5,1.4s1.3,2.2,1.3,3.8v1.3h-7.6c0,1.1,0.3,1.9,0.9,2.5c0.6,0.6,1.3,0.9,2.4,0.9c0.7,0,1.3-0.1,1.9-0.2
		c0.6-0.1,1.2-0.3,1.9-0.6v2c-0.6,0.3-1.2,0.5-1.8,0.6S26.3,324.6,25.5,324.6z M25.1,314.7c-0.8,0-1.4,0.2-1.8,0.7
		c-0.5,0.5-0.7,1.2-0.8,2.1h5.1c0-0.9-0.2-1.6-0.7-2.1C26.4,315,25.8,314.7,25.1,314.7z"/>
	<path fill="#444444" d="M35.1,318.6l-3.8-5.5H34l2.6,4l2.6-4h2.7l-3.8,5.5l4,5.8h-2.7l-2.8-4.2l-2.8,4.2h-2.7L35.1,318.6z"/>
	<path fill="#444444" d="M49.8,324.6c-1.4,0-2.5-0.5-3.3-1.5h-0.1c0.1,1,0.1,1.5,0.1,1.7v4.6H44v-16.4H46c0.1,0.2,0.2,0.7,0.3,1.5
		h0.1c0.8-1.1,1.9-1.7,3.4-1.7c1.4,0,2.5,0.5,3.3,1.5c0.8,1,1.2,2.5,1.2,4.3s-0.4,3.3-1.2,4.3C52.3,324.1,51.2,324.6,49.8,324.6z
		 M49.2,314.9c-1,0-1.7,0.3-2.1,0.8c-0.4,0.6-0.7,1.5-0.7,2.7v0.4c0,1.4,0.2,2.4,0.7,3c0.4,0.6,1.2,0.9,2.1,0.9c0.8,0,1.5-0.3,1.9-1
		s0.7-1.7,0.7-2.9c0-1.3-0.2-2.2-0.7-2.9C50.7,315.2,50.1,314.9,49.2,314.9z"/>
	<path fill="#444444" d="M64.1,324.4l-0.5-1.6h-0.1c-0.5,0.7-1.1,1.2-1.7,1.4c-0.6,0.2-1.3,0.4-2.1,0.4c-1.1,0-2-0.3-2.6-0.9
		c-0.6-0.6-0.9-1.5-0.9-2.6c0-1.2,0.4-2.1,1.3-2.6s2.2-0.9,4-1l2-0.1v-0.6c0-0.7-0.2-1.3-0.5-1.6c-0.3-0.4-0.9-0.5-1.6-0.5
		c-0.6,0-1.1,0.1-1.7,0.3s-1,0.4-1.5,0.6l-0.8-1.7c0.6-0.3,1.3-0.6,2-0.7c0.7-0.2,1.4-0.3,2.1-0.3c1.4,0,2.5,0.3,3.3,0.9
		c0.7,0.6,1.1,1.6,1.1,3v7.6H64.1z M60.5,322.8c0.9,0,1.6-0.2,2.1-0.7c0.5-0.5,0.8-1.2,0.8-2.1v-1l-1.5,0.1c-1.1,0-2,0.2-2.5,0.6
		c-0.5,0.3-0.8,0.9-0.8,1.6c0,0.5,0.2,0.9,0.5,1.2C59.5,322.7,59.9,322.8,60.5,322.8z"/>
	<path fill="#444444" d="M79.1,324.4h-2.4v-7c0-0.9-0.2-1.5-0.5-2c-0.4-0.4-0.9-0.6-1.7-0.6c-1,0-1.8,0.3-2.2,0.9s-0.7,1.6-0.7,3
		v5.7h-2.4v-11.3H71l0.3,1.5h0.1c0.3-0.5,0.8-1,1.5-1.3s1.3-0.4,2.1-0.4c2.7,0,4.1,1.4,4.1,4.2V324.4z"/>
	<path fill="#444444" d="M89.9,321.2c0,1.1-0.4,2-1.2,2.5c-0.8,0.6-2,0.9-3.5,0.9c-1.5,0-2.7-0.2-3.6-0.7v-2.1
		c1.3,0.6,2.6,0.9,3.7,0.9c1.5,0,2.2-0.4,2.2-1.3c0-0.3-0.1-0.5-0.2-0.7s-0.4-0.4-0.8-0.6s-0.9-0.4-1.6-0.7c-1.3-0.5-2.2-1-2.7-1.5
		c-0.5-0.5-0.7-1.2-0.7-2c0-1,0.4-1.7,1.2-2.3c0.8-0.5,1.8-0.8,3.2-0.8c1.3,0,2.6,0.3,3.8,0.8l-0.8,1.8c-1.2-0.5-2.3-0.8-3.1-0.8
		c-1.3,0-1.9,0.4-1.9,1.1c0,0.4,0.2,0.7,0.5,0.9c0.3,0.2,1.1,0.6,2.2,1c0.9,0.4,1.6,0.7,2,1s0.7,0.6,0.9,1
		C89.8,320.2,89.9,320.7,89.9,321.2z"/>
	<path fill="#444444" d="M92.3,310.1c0-0.4,0.1-0.8,0.4-1c0.2-0.2,0.6-0.3,1-0.3c0.4,0,0.8,0.1,1,0.3c0.2,0.2,0.4,0.6,0.4,1
		c0,0.4-0.1,0.7-0.4,1c-0.2,0.2-0.6,0.4-1,0.4c-0.4,0-0.8-0.1-1-0.4C92.4,310.8,92.3,310.5,92.3,310.1z M94.8,324.4h-2.4v-11.3h2.4
		V324.4z"/>
	<path fill="#444444" d="M108.2,318.7c0,1.9-0.5,3.3-1.4,4.3s-2.3,1.6-4,1.6c-1.1,0-2-0.2-2.8-0.7s-1.4-1.2-1.9-2.1
		s-0.7-1.9-0.7-3.1c0-1.8,0.5-3.3,1.4-4.3s2.3-1.5,4-1.5c1.6,0,2.9,0.5,3.9,1.6C107.8,315.5,108.2,317,108.2,318.7z M100,318.7
		c0,2.6,1,3.9,2.9,3.9c1.9,0,2.9-1.3,2.9-3.9c0-2.6-1-3.9-2.9-3.9c-1,0-1.7,0.3-2.2,1C100.2,316.5,100,317.5,100,318.7z
		 M101.3,311.7v-0.3c0.4-0.5,0.8-1,1.2-1.6c0.4-0.6,0.7-1.1,1-1.5h2.8v0.2c-0.4,0.4-0.9,1-1.6,1.6c-0.7,0.7-1.3,1.2-1.8,1.5H101.3z"
		/>
	<path fill="#444444" d="M120.9,324.4h-2.4v-7c0-0.9-0.2-1.5-0.5-2c-0.4-0.4-0.9-0.6-1.7-0.6c-1,0-1.8,0.3-2.2,0.9s-0.7,1.6-0.7,3
		v5.7h-2.4v-11.3h1.9l0.3,1.5h0.1c0.3-0.5,0.8-1,1.5-1.3s1.3-0.4,2.1-0.4c2.7,0,4.1,1.4,4.1,4.2V324.4z"/>
	<path fill="#444444" d="M126.6,322.2c-0.3,1.3-0.9,2.9-1.8,4.9H123c0.5-1.8,0.8-3.6,1.1-5.1h2.4L126.6,322.2z"/>
	<path fill="#444444" d="M139.5,324.6c-1.7,0-3-0.5-3.9-1.5c-0.9-1-1.3-2.4-1.3-4.3c0-1.9,0.5-3.4,1.4-4.4c0.9-1,2.3-1.5,4-1.5
		c1.2,0,2.3,0.2,3.2,0.7l-0.7,1.9c-1-0.4-1.9-0.6-2.5-0.6c-2,0-2.9,1.3-2.9,3.9c0,1.3,0.2,2.2,0.7,2.9c0.5,0.6,1.2,1,2.1,1
		c1.1,0,2.1-0.3,3-0.8v2.1c-0.4,0.3-0.9,0.4-1.4,0.5C140.8,324.6,140.2,324.6,139.5,324.6z"/>
	<path fill="#444444" d="M151,312.9c0.5,0,0.9,0,1.2,0.1l-0.2,2.2c-0.3-0.1-0.7-0.1-1.1-0.1c-1,0-1.7,0.3-2.3,0.9
		c-0.6,0.6-0.9,1.4-0.9,2.5v5.9h-2.4v-11.3h1.9l0.3,2h0.1c0.4-0.7,0.9-1.2,1.5-1.6C149.7,313.1,150.3,312.9,151,312.9z"/>
	<path fill="#444444" d="M159.2,324.6c-1.8,0-3.1-0.5-4.1-1.5c-1-1-1.5-2.4-1.5-4.3c0-1.9,0.5-3.3,1.4-4.4s2.2-1.6,3.8-1.6
		c1.5,0,2.7,0.5,3.5,1.4s1.3,2.2,1.3,3.8v1.3H156c0,1.1,0.3,1.9,0.9,2.5c0.6,0.6,1.4,0.9,2.4,0.9c0.7,0,1.3-0.1,1.9-0.2
		c0.6-0.1,1.2-0.3,1.9-0.6v2c-0.6,0.3-1.2,0.5-1.8,0.6S159.9,324.6,159.2,324.6z M158.7,314.7c-0.8,0-1.4,0.2-1.8,0.7
		c-0.5,0.5-0.7,1.2-0.8,2.1h5.1c0-0.9-0.2-1.6-0.7-2.1C160.1,315,159.5,314.7,158.7,314.7z"/>
	<path fill="#444444" d="M170.8,324.6c-1.7,0-3-0.5-3.9-1.5c-0.9-1-1.3-2.4-1.3-4.3c0-1.9,0.5-3.4,1.4-4.4c0.9-1,2.3-1.5,4-1.5
		c1.2,0,2.3,0.2,3.2,0.7l-0.7,1.9c-1-0.4-1.9-0.6-2.5-0.6c-2,0-2.9,1.3-2.9,3.9c0,1.3,0.2,2.2,0.7,2.9c0.5,0.6,1.2,1,2.1,1
		c1.1,0,2.1-0.3,3-0.8v2.1c-0.4,0.3-0.9,0.4-1.4,0.5C172.1,324.6,171.5,324.6,170.8,324.6z"/>
	<path fill="#444444" d="M176.4,310.1c0-0.4,0.1-0.8,0.4-1c0.2-0.2,0.6-0.3,1-0.3c0.4,0,0.8,0.1,1,0.3c0.2,0.2,0.4,0.6,0.4,1
		c0,0.4-0.1,0.7-0.4,1c-0.2,0.2-0.6,0.4-1,0.4c-0.4,0-0.8-0.1-1-0.4C176.5,310.8,176.4,310.5,176.4,310.1z M178.9,324.4h-2.4v-11.3
		h2.4V324.4z"/>
	<path fill="#444444" d="M191.8,324.4h-2.4v-7c0-0.9-0.2-1.5-0.5-1.9c-0.3-0.4-0.8-0.6-1.5-0.6c-0.9,0-1.6,0.3-2,0.9
		c-0.4,0.6-0.7,1.6-0.7,3v5.7h-2.4v-11.3h1.9l0.3,1.5h0.1c0.3-0.5,0.8-1,1.4-1.3c0.6-0.3,1.3-0.4,2-0.4c1.7,0,2.9,0.6,3.5,1.8h0.2
		c0.3-0.6,0.8-1,1.4-1.3s1.3-0.5,2.1-0.5c1.4,0,2.3,0.3,3,1c0.6,0.7,0.9,1.7,0.9,3.1v7.4h-2.4v-7c0-0.9-0.2-1.5-0.5-1.9
		c-0.3-0.4-0.8-0.6-1.5-0.6c-0.9,0-1.6,0.3-2.1,0.9c-0.4,0.6-0.7,1.5-0.7,2.7V324.4z"/>
	<path fill="#444444" d="M202.1,310.1c0-0.4,0.1-0.8,0.4-1c0.2-0.2,0.6-0.3,1-0.3c0.4,0,0.8,0.1,1,0.3c0.2,0.2,0.4,0.6,0.4,1
		c0,0.4-0.1,0.7-0.4,1c-0.2,0.2-0.6,0.4-1,0.4c-0.4,0-0.8-0.1-1-0.4C202.2,310.8,202.1,310.5,202.1,310.1z M204.6,324.4h-2.4v-11.3
		h2.4V324.4z"/>
	<path fill="#444444" d="M212.9,324.6c-1.8,0-3.1-0.5-4.1-1.5c-1-1-1.5-2.4-1.5-4.3c0-1.9,0.5-3.3,1.4-4.4s2.2-1.6,3.8-1.6
		c1.5,0,2.7,0.5,3.5,1.4s1.3,2.2,1.3,3.8v1.3h-7.6c0,1.1,0.3,1.9,0.9,2.5c0.6,0.6,1.3,0.9,2.4,0.9c0.7,0,1.3-0.1,1.9-0.2
		c0.6-0.1,1.2-0.3,1.9-0.6v2c-0.6,0.3-1.2,0.5-1.8,0.6S213.7,324.6,212.9,324.6z M212.5,314.7c-0.8,0-1.4,0.2-1.8,0.7
		c-0.5,0.5-0.7,1.2-0.8,2.1h5.1c0-0.9-0.2-1.6-0.7-2.1C213.9,315,213.3,314.7,212.5,314.7z"/>
	<path fill="#444444" d="M229.9,324.4h-2.4v-7c0-0.9-0.2-1.5-0.5-2c-0.4-0.4-0.9-0.6-1.7-0.6c-1,0-1.8,0.3-2.2,0.9s-0.7,1.6-0.7,3
		v5.7H220v-11.3h1.9l0.3,1.5h0.1c0.3-0.5,0.8-1,1.5-1.3s1.3-0.4,2.1-0.4c2.7,0,4.1,1.4,4.1,4.2V324.4z"/>
	<path fill="#444444" d="M237.4,322.7c0.6,0,1.2-0.1,1.8-0.3v1.8c-0.3,0.1-0.6,0.2-1,0.3c-0.4,0.1-0.9,0.1-1.3,0.1
		c-2.3,0-3.4-1.2-3.4-3.6v-6.1h-1.5v-1.1l1.7-0.9l0.8-2.4h1.5v2.5h3.2v1.8h-3.2v6.1c0,0.6,0.1,1,0.4,1.3
		C236.6,322.6,236.9,322.7,237.4,322.7z"/>
	<path fill="#444444" d="M251.4,318.7c0,1.9-0.5,3.3-1.4,4.3s-2.3,1.6-4,1.6c-1.1,0-2-0.2-2.8-0.7s-1.4-1.2-1.9-2.1
		s-0.7-1.9-0.7-3.1c0-1.8,0.5-3.3,1.4-4.3s2.3-1.5,4-1.5c1.6,0,2.9,0.5,3.9,1.6C250.9,315.5,251.4,317,251.4,318.7z M243.2,318.7
		c0,2.6,1,3.9,2.9,3.9c1.9,0,2.9-1.3,2.9-3.9c0-2.6-1-3.9-2.9-3.9c-1,0-1.7,0.3-2.2,1C243.4,316.5,243.2,317.5,243.2,318.7z"/>
	<path fill="#444444" d="M256.6,322.2c-0.3,1.3-0.9,2.9-1.8,4.9H253c0.5-1.8,0.8-3.6,1.1-5.1h2.4L256.6,322.2z"/>
	<path fill="#444444" d="M23.2,348.4l-4.3-11.3h2.5l2.3,6.6c0.4,1.1,0.6,2,0.7,2.7h0.1c0.1-0.5,0.3-1.4,0.7-2.7l2.3-6.6h2.6
		l-4.3,11.3H23.2z"/>
	<path fill="#444444" d="M36.7,348.6c-1.8,0-3.1-0.5-4.1-1.5c-1-1-1.5-2.4-1.5-4.3c0-1.9,0.5-3.3,1.4-4.4c0.9-1.1,2.2-1.6,3.8-1.6
		c1.5,0,2.7,0.5,3.5,1.4s1.3,2.2,1.3,3.8v1.3h-7.6c0,1.1,0.3,1.9,0.9,2.5c0.6,0.6,1.4,0.9,2.4,0.9c0.7,0,1.3-0.1,1.9-0.2
		c0.6-0.1,1.2-0.3,1.9-0.6v2c-0.6,0.3-1.2,0.5-1.8,0.6S37.4,348.6,36.7,348.6z M36.2,338.7c-0.8,0-1.4,0.2-1.8,0.7
		c-0.5,0.5-0.7,1.2-0.8,2.1h5.1c0-0.9-0.2-1.6-0.7-2.1C37.6,339,37,338.7,36.2,338.7z"/>
	<path fill="#444444" d="M53.7,348.4h-2.4v-7c0-0.9-0.2-1.5-0.5-2c-0.4-0.4-0.9-0.6-1.7-0.6c-1,0-1.8,0.3-2.2,0.9s-0.7,1.6-0.7,3
		v5.7h-2.4v-11.3h1.9l0.3,1.5H46c0.3-0.5,0.8-1,1.5-1.3s1.3-0.4,2.1-0.4c2.7,0,4.1,1.4,4.1,4.2V348.4z"/>
	<path fill="#444444" d="M61.1,346.7c0.6,0,1.2-0.1,1.8-0.3v1.8c-0.3,0.1-0.6,0.2-1,0.3c-0.4,0.1-0.9,0.1-1.3,0.1
		c-2.3,0-3.4-1.2-3.4-3.6v-6.1h-1.5v-1.1l1.7-0.9l0.8-2.4h1.5v2.5h3.2v1.8h-3.2v6.1c0,0.6,0.1,1,0.4,1.3
		C60.3,346.6,60.7,346.7,61.1,346.7z"/>
	<path fill="#444444" d="M72.2,348.4l-0.5-1.6h-0.1c-0.5,0.7-1.1,1.2-1.7,1.4c-0.6,0.2-1.3,0.4-2.1,0.4c-1.1,0-2-0.3-2.6-0.9
		c-0.6-0.6-0.9-1.5-0.9-2.6c0-1.2,0.4-2.1,1.3-2.6s2.2-0.9,4-1l2-0.1v-0.6c0-0.7-0.2-1.3-0.5-1.6c-0.3-0.4-0.9-0.5-1.6-0.5
		c-0.6,0-1.1,0.1-1.7,0.3s-1,0.4-1.5,0.6l-0.8-1.7c0.6-0.3,1.3-0.6,2-0.7c0.7-0.2,1.4-0.3,2.1-0.3c1.4,0,2.5,0.3,3.3,0.9
		c0.7,0.6,1.1,1.6,1.1,3v7.6H72.2z M68.6,346.8c0.9,0,1.6-0.2,2.1-0.7c0.5-0.5,0.8-1.2,0.8-2.1v-1l-1.5,0.1c-1.1,0-2,0.2-2.5,0.6
		c-0.5,0.3-0.8,0.9-0.8,1.6c0,0.5,0.2,0.9,0.5,1.2C67.5,346.7,68,346.8,68.6,346.8z"/>
	<path fill="#444444" d="M84.8,345.2c0,1.1-0.4,2-1.2,2.5c-0.8,0.6-2,0.9-3.5,0.9c-1.5,0-2.7-0.2-3.6-0.7v-2.1
		c1.3,0.6,2.6,0.9,3.7,0.9c1.5,0,2.2-0.4,2.2-1.3c0-0.3-0.1-0.5-0.2-0.7s-0.4-0.4-0.8-0.6s-0.9-0.4-1.6-0.7c-1.3-0.5-2.2-1-2.7-1.5
		c-0.5-0.5-0.7-1.2-0.7-2c0-1,0.4-1.7,1.2-2.3c0.8-0.5,1.8-0.8,3.2-0.8c1.3,0,2.6,0.3,3.8,0.8l-0.8,1.8c-1.2-0.5-2.3-0.8-3.1-0.8
		c-1.3,0-1.9,0.4-1.9,1.1c0,0.4,0.2,0.7,0.5,0.9c0.3,0.2,1.1,0.6,2.2,1c0.9,0.4,1.6,0.7,2,1s0.7,0.6,0.9,1
		C84.7,344.2,84.8,344.7,84.8,345.2z"/>
	<path fill="#444444" d="M90.9,337.1h2.6l2.3,6.4c0.3,0.9,0.6,1.8,0.7,2.6h0.1c0.1-0.4,0.2-0.8,0.3-1.4c0.2-0.5,1-3.1,2.6-7.6h2.6
		l-4.9,12.8c-0.9,2.4-2.4,3.5-4.4,3.5c-0.5,0-1.1-0.1-1.6-0.2v-1.9c0.4,0.1,0.8,0.1,1.2,0.1c1.2,0,2-0.7,2.5-2l0.4-1.1L90.9,337.1z"
		/>
	<path fill="#444444" d="M118.7,348.4h-2.4v-7c0-0.9-0.2-1.5-0.5-1.9c-0.3-0.4-0.8-0.6-1.5-0.6c-0.9,0-1.6,0.3-2,0.9
		c-0.4,0.6-0.7,1.6-0.7,3v5.7h-2.4v-11.3h1.9l0.3,1.5h0.1c0.3-0.5,0.8-1,1.4-1.3c0.6-0.3,1.3-0.4,2-0.4c1.7,0,2.9,0.6,3.5,1.8h0.2
		c0.3-0.6,0.8-1,1.4-1.3s1.3-0.5,2.1-0.5c1.4,0,2.3,0.3,3,1c0.6,0.7,0.9,1.7,0.9,3.1v7.4h-2.4v-7c0-0.9-0.2-1.5-0.5-1.9
		c-0.3-0.4-0.8-0.6-1.5-0.6c-0.9,0-1.6,0.3-2.1,0.9c-0.4,0.6-0.7,1.5-0.7,2.7V348.4z"/>
	<path fill="#444444" d="M137.1,348.4l-0.3-1.5h-0.1c-0.3,0.5-0.8,0.9-1.4,1.2c-0.6,0.3-1.3,0.5-2.1,0.5c-1.4,0-2.4-0.3-3.1-1
		s-1-1.7-1-3.1v-7.4h2.4v7c0,0.9,0.2,1.5,0.5,2c0.4,0.4,0.9,0.7,1.7,0.7c1,0,1.8-0.3,2.2-0.9c0.5-0.6,0.7-1.6,0.7-3v-5.6h2.4v11.3
		H137.1z"/>
	<path fill="#444444" d="M146.9,348.6c-1.7,0-3-0.5-3.9-1.5c-0.9-1-1.3-2.4-1.3-4.3c0-1.9,0.5-3.4,1.4-4.4c0.9-1,2.3-1.5,4-1.5
		c1.2,0,2.3,0.2,3.2,0.7l-0.7,1.9c-1-0.4-1.9-0.6-2.5-0.6c-2,0-2.9,1.3-2.9,3.9c0,1.3,0.2,2.2,0.7,2.9c0.5,0.6,1.2,1,2.1,1
		c1.1,0,2.1-0.3,3-0.8v2.1c-0.4,0.3-0.9,0.4-1.4,0.5C148.2,348.6,147.6,348.6,146.9,348.6z"/>
	<path fill="#444444" d="M162.6,348.4h-2.4v-7c0-0.9-0.2-1.5-0.5-2c-0.4-0.4-0.9-0.6-1.7-0.6c-1,0-1.8,0.3-2.2,0.9
		c-0.5,0.6-0.7,1.6-0.7,3v5.6h-2.4v-16h2.4v4c0,0.6,0,1.3-0.1,2.1h0.2c0.3-0.5,0.8-1,1.4-1.3c0.6-0.3,1.3-0.5,2-0.5
		c2.7,0,4.1,1.4,4.1,4.2V348.4z"/>
	<path fill="#444444" d="M175.9,342.7c0,1.9-0.5,3.3-1.4,4.3s-2.3,1.6-4,1.6c-1.1,0-2-0.2-2.8-0.7s-1.4-1.2-1.9-2.1
		s-0.7-1.9-0.7-3.1c0-1.8,0.5-3.3,1.4-4.3s2.3-1.5,4-1.5c1.6,0,2.9,0.5,3.9,1.6C175.4,339.5,175.9,341,175.9,342.7z M167.6,342.7
		c0,2.6,1,3.9,2.9,3.9c1.9,0,2.9-1.3,2.9-3.9c0-2.6-1-3.9-2.9-3.9c-1,0-1.7,0.3-2.2,1C167.9,340.5,167.6,341.5,167.6,342.7z"/>
	<path fill="#444444" d="M193.5,348.4H191v-7c0-0.9-0.2-1.5-0.5-1.9c-0.3-0.4-0.8-0.6-1.5-0.6c-0.9,0-1.6,0.3-2,0.9
		c-0.4,0.6-0.7,1.6-0.7,3v5.7h-2.4v-11.3h1.9l0.3,1.5h0.1c0.3-0.5,0.8-1,1.4-1.3c0.6-0.3,1.3-0.4,2-0.4c1.7,0,2.9,0.6,3.5,1.8h0.2
		c0.3-0.6,0.8-1,1.4-1.3s1.3-0.5,2.1-0.5c1.4,0,2.3,0.3,3,1c0.6,0.7,0.9,1.7,0.9,3.1v7.4h-2.4v-7c0-0.9-0.2-1.5-0.5-1.9
		c-0.3-0.4-0.8-0.6-1.5-0.6c-0.9,0-1.6,0.3-2.1,0.9c-0.4,0.6-0.7,1.5-0.7,2.7V348.4z"/>
	<path fill="#444444" d="M211,348.4l-0.5-1.6h-0.1c-0.5,0.7-1.1,1.2-1.7,1.4c-0.6,0.2-1.3,0.4-2.1,0.4c-1.1,0-2-0.3-2.6-0.9
		c-0.6-0.6-0.9-1.5-0.9-2.6c0-1.2,0.4-2.1,1.3-2.6s2.2-0.9,4-1l2-0.1v-0.6c0-0.7-0.2-1.3-0.5-1.6c-0.3-0.4-0.9-0.5-1.6-0.5
		c-0.6,0-1.1,0.1-1.7,0.3s-1,0.4-1.5,0.6l-0.8-1.7c0.6-0.3,1.3-0.6,2-0.7c0.7-0.2,1.4-0.3,2.1-0.3c1.4,0,2.5,0.3,3.3,0.9
		c0.7,0.6,1.1,1.6,1.1,3v7.6H211z M207.4,346.8c0.9,0,1.6-0.2,2.1-0.7c0.5-0.5,0.8-1.2,0.8-2.1v-1l-1.5,0.1c-1.1,0-2,0.2-2.5,0.6
		c-0.5,0.3-0.8,0.9-0.8,1.6c0,0.5,0.2,0.9,0.5,1.2C206.3,346.7,206.8,346.8,207.4,346.8z"/>
	<path fill="#444444" d="M223.6,345.2c0,1.1-0.4,2-1.2,2.5c-0.8,0.6-2,0.9-3.5,0.9c-1.5,0-2.7-0.2-3.6-0.7v-2.1
		c1.3,0.6,2.6,0.9,3.7,0.9c1.5,0,2.2-0.4,2.2-1.3c0-0.3-0.1-0.5-0.2-0.7s-0.4-0.4-0.8-0.6s-0.9-0.4-1.6-0.7c-1.3-0.5-2.2-1-2.7-1.5
		c-0.5-0.5-0.7-1.2-0.7-2c0-1,0.4-1.7,1.2-2.3c0.8-0.5,1.8-0.8,3.2-0.8c1.3,0,2.6,0.3,3.8,0.8l-0.8,1.8c-1.2-0.5-2.3-0.8-3.1-0.8
		c-1.3,0-1.9,0.4-1.9,1.1c0,0.4,0.2,0.7,0.5,0.9c0.3,0.2,1.1,0.6,2.2,1c0.9,0.4,1.6,0.7,2,1s0.7,0.6,0.9,1
		C223.5,344.2,223.6,344.7,223.6,345.2z"/>
	<path fill="#444444" d="M225.7,347.2c0-0.5,0.1-0.9,0.4-1.1s0.6-0.4,1.1-0.4c0.5,0,0.9,0.1,1.1,0.4c0.3,0.3,0.4,0.7,0.4,1.1
		c0,0.5-0.1,0.9-0.4,1.2c-0.3,0.3-0.6,0.4-1.1,0.4s-0.9-0.1-1.1-0.4S225.7,347.6,225.7,347.2z"/>
	<path fill="#444444" d="M231.4,347.2c0-0.5,0.1-0.9,0.4-1.1s0.6-0.4,1.1-0.4c0.5,0,0.9,0.1,1.1,0.4c0.3,0.3,0.4,0.7,0.4,1.1
		c0,0.5-0.1,0.9-0.4,1.2c-0.3,0.3-0.6,0.4-1.1,0.4s-0.9-0.1-1.1-0.4S231.4,347.6,231.4,347.2z"/>
	<path fill="#444444" d="M237.1,347.2c0-0.5,0.1-0.9,0.4-1.1s0.6-0.4,1.1-0.4c0.5,0,0.9,0.1,1.1,0.4c0.3,0.3,0.4,0.7,0.4,1.1
		c0,0.5-0.1,0.9-0.4,1.2c-0.3,0.3-0.6,0.4-1.1,0.4s-0.9-0.1-1.1-0.4S237.1,347.6,237.1,347.2z"/>
</g>
<path fill="#429DFF" d="M73.1,16.9c-30.1,0-54.5,24.4-54.5,54.5c0,14.7,5.8,28.1,15.3,37.9c0,0-4.9,20.8-0.6,23.5s22.4-9.7,22.4-9.7
	c5.4,1.8,11.3,2.8,17.3,2.8c30.1,0,54.5-24.4,54.5-54.5S103.2,16.9,73.1,16.9z M73.1,115.9c-6.3,0-12.4-1.3-17.8-3.7l-12.8,7.5
	l1.9-14.2c-9.8-8.2-16-20.5-16-34.2c0-24.7,20-44.6,44.6-44.6c24.7,0,44.6,20,44.6,44.6S97.7,115.9,73.1,115.9z"/>
<path fill="#429DFF" d="M78.6,130.6c3.1,1.2,6.4,2,9.9,2.6c14.5,2.4,28.6-1.1,39.9-8.8c0,0,19.7,8.3,23.1,4.5
	c3.4-3.8-5.9-23.7-5.9-23.7c2.7-5.1,4.7-10.6,5.7-16.6c4.6-27.1-11.8-53-37.3-61c5.8,5.9,10,12.1,12.8,18.7
	c11.6,10,17.7,25.6,14.8,41.7c-1.1,6.2-3.5,11.9-6.8,16.9l5.1,13.9l-13.7-4.4c-7.4,6.2-16.7,9.9-26.6,10.3
	C93.1,128.1,86.1,130.1,78.6,130.6z"/>
</svg>
