<?xml version="1.0" encoding="utf-8"?>
<!-- Generator: Adobe Illustrator 18.1.1, SVG Export Plug-In . SVG Version: 6.00 Build 0)  -->
<svg version="1.1" id="Capa_1" xmlns="http://www.w3.org/2000/svg" xmlns:xlink="http://www.w3.org/1999/xlink" x="0px" y="0px"
	 viewBox="0 0 280.5 381.8" enable-background="new 0 0 280.5 381.8" xml:space="preserve">
<path fill="#FAFAFA" d="M267.8,381.8H12.7c-7,0-12.7-5.7-12.7-12.7V12.7C0,5.7,5.7,0,12.7,0h255.1c7,0,12.7,5.7,12.7,12.7v356.4
	C280.5,376.1,274.8,381.8,267.8,381.8z"/>
<g>
	<path fill="#429DFF" d="M37.9,167.2h-11l-1.8,4h-4.3l9.4-21h4.3l9.4,21h-4.3L37.9,167.2z M32.4,154.6l-3.9,8.9h7.8L32.4,154.6z"/>
	<path fill="#429DFF" d="M44,177.3v-21h3.4l0.2,2c1.1-1.7,3.1-2.4,4.8-2.4c4.6,0,7.6,3.4,7.6,7.7c0,4.3-2.7,7.7-7.5,7.7
		c-1.6,0-3.9-0.5-4.9-2.1v7.9H44z M56.4,163.8c0-2.3-1.6-4.2-4.2-4.2c-2.6,0-4.2,1.9-4.2,4.2c0,2.3,1.7,4.2,4.2,4.2
		S56.4,166.1,56.4,163.8z"/>
	<path fill="#429DFF" d="M65.5,152.2c0,2.8-4.3,2.8-4.3,0S65.5,149.3,65.5,152.2z M61.6,156.3v14.8h3.7v-14.8H61.6z"/>
	<path fill="#429DFF" d="M95.1,171.1h-3.4l-2.6-6.6l-2.2-6.6l-2.2,6.7l-2.5,6.5h-3.4l-7.7-21h4.4l4.9,15.1l5.1-15.1h2.6l5.2,15.1
		l4.8-15.1h4.4L95.1,171.1z"/>
	<path fill="#429DFF" d="M106.7,150.1v8.2c1.3-1.7,2.9-2.2,4.6-2.2c4.2,0,6.1,2.8,6.1,7.2v7.8h-3.7v-7.8c0-2.7-1.4-3.8-3.4-3.8
		c-2.2,0-3.7,1.8-3.7,4v7.6H103v-21H106.7z"/>
	<path fill="#429DFF" d="M131,156.4h3.5v14.8H131l-0.2-2.2c-0.8,1.7-3.1,2.6-4.8,2.6c-4.4,0-7.6-2.7-7.6-7.9c0-5.1,3.4-7.8,7.7-7.7
		c2,0,3.9,0.9,4.7,2.4L131,156.4z M122.1,163.7c0,2.8,2,4.5,4.4,4.5c5.8,0,5.8-9,0-9C124,159.3,122.1,160.9,122.1,163.7z"/>
	<path fill="#429DFF" d="M140.9,152.2v4.2h4.1v3.1h-4.1v6.4c0,1.4,0.8,2.1,1.9,2.1c0.6,0,1.2-0.2,1.8-0.4l1,3.1
		c-1,0.4-1.9,0.6-3,0.6c-3.2,0.1-5.3-1.7-5.3-5.4v-6.4h-2.8v-3.1h2.8v-3.8L140.9,152.2z"/>
	<path fill="#429DFF" d="M156.2,160.3c-1-1-2.2-1.3-3.7-1.3c-1.7,0-2.7,0.5-2.7,1.5c0,1,0.9,1.5,2.8,1.6c2.8,0.2,6.3,0.8,6.3,4.7
		c0,2.6-2.1,4.9-6.4,4.9c-2.3,0-4.7-0.4-6.8-2.6l1.8-2.6c1,1.2,3.5,2,5.1,2.1c1.4,0,2.7-0.7,2.7-1.8c0-1-0.8-1.4-2.9-1.6
		c-2.8-0.2-6.1-1.2-6.1-4.6c0-3.4,3.5-4.6,6.2-4.6c2.3,0,4,0.5,5.8,2L156.2,160.3z"/>
	<path fill="#429DFF" d="M171.8,156.4h3.5v14.8h-3.5l-0.2-2.2c-0.8,1.7-3.1,2.6-4.8,2.6c-4.4,0-7.6-2.7-7.6-7.9
		c0-5.1,3.4-7.8,7.7-7.7c2,0,3.9,0.9,4.7,2.4L171.8,156.4z M162.9,163.7c0,2.8,2,4.5,4.4,4.5c5.8,0,5.8-9,0-9
		C164.8,159.3,162.9,160.9,162.9,163.7z"/>
	<path fill="#429DFF" d="M177.2,177.3v-21h3.4l0.2,2c1.1-1.7,3.1-2.4,4.8-2.4c4.6,0,7.6,3.4,7.6,7.7c0,4.3-2.7,7.7-7.5,7.7
		c-1.6,0-3.9-0.5-4.9-2.1v7.9H177.2z M189.6,163.8c0-2.3-1.6-4.2-4.2-4.2s-4.2,1.9-4.2,4.2c0,2.3,1.7,4.2,4.2,4.2
		C187.9,168,189.6,166.1,189.6,163.8z"/>
	<path fill="#429DFF" d="M194.7,177.3v-21h3.4l0.2,2c1.1-1.7,3.1-2.4,4.8-2.4c4.6,0,7.6,3.4,7.6,7.7c0,4.3-2.7,7.7-7.5,7.7
		c-1.6,0-3.9-0.5-4.9-2.1v7.9H194.7z M207.1,163.8c0-2.3-1.6-4.2-4.2-4.2s-4.2,1.9-4.2,4.2c0,2.3,1.7,4.2,4.2,4.2
		C205.4,168,207.1,166.1,207.1,163.8z"/>
</g>
<g>
	<path fill="#444444" d="M35.7,198.4c0,2.9-0.8,5.2-2.5,6.8c-1.6,1.6-4,2.3-7.1,2.3h-5v-17.8h5.5c2.8,0,5,0.8,6.6,2.3
		C34.9,193.5,35.7,195.6,35.7,198.4z M32.6,198.5c0-4.3-2-6.4-6-6.4h-2.5v13h2.1C30.5,205,32.6,202.8,32.6,198.5z"/>
	<path fill="#444444" d="M45.1,207.7c-2.1,0-3.7-0.6-4.9-1.8c-1.2-1.2-1.8-2.9-1.8-5.1c0-2.2,0.5-3.9,1.6-5.2
		c1.1-1.3,2.6-1.9,4.5-1.9c1.8,0,3.2,0.5,4.2,1.6c1,1.1,1.6,2.6,1.6,4.5v1.6h-9c0,1.3,0.4,2.3,1.1,3c0.7,0.7,1.6,1.1,2.8,1.1
		c0.8,0,1.5-0.1,2.2-0.2c0.7-0.2,1.4-0.4,2.2-0.8v2.3c-0.7,0.3-1.4,0.6-2.1,0.7C46.9,207.7,46.1,207.7,45.1,207.7z M44.6,195.9
		c-0.9,0-1.6,0.3-2.2,0.9c-0.5,0.6-0.9,1.4-1,2.5h6.1c0-1.1-0.3-2-0.8-2.5C46.2,196.2,45.5,195.9,44.6,195.9z"/>
	<path fill="#444444" d="M62.7,203.6c0,1.3-0.5,2.3-1.4,3c-1,0.7-2.3,1.1-4.1,1.1c-1.8,0-3.2-0.3-4.3-0.8v-2.5
		c1.6,0.7,3.1,1.1,4.4,1.1c1.8,0,2.6-0.5,2.6-1.6c0-0.3-0.1-0.6-0.3-0.9c-0.2-0.2-0.5-0.5-1-0.7c-0.4-0.2-1.1-0.5-1.9-0.8
		c-1.6-0.6-2.6-1.2-3.2-1.8c-0.5-0.6-0.8-1.4-0.8-2.3c0-1.2,0.5-2.1,1.4-2.7c0.9-0.6,2.2-1,3.8-1c1.6,0,3.1,0.3,4.5,1l-0.9,2.2
		c-1.5-0.6-2.7-0.9-3.7-0.9c-1.5,0-2.3,0.4-2.3,1.3c0,0.4,0.2,0.8,0.6,1.1c0.4,0.3,1.3,0.7,2.6,1.2c1.1,0.4,1.9,0.8,2.4,1.2
		c0.5,0.4,0.9,0.8,1.1,1.2C62.6,202.4,62.7,203,62.7,203.6z"/>
	<path fill="#444444" d="M74.3,207.5l-0.6-1.9h-0.1c-0.7,0.8-1.3,1.4-2,1.7c-0.7,0.3-1.5,0.4-2.5,0.4c-1.3,0-2.4-0.4-3.1-1.1
		c-0.7-0.7-1.1-1.7-1.1-3c0-1.4,0.5-2.4,1.6-3.1c1-0.7,2.6-1.1,4.7-1.2l2.3-0.1v-0.7c0-0.9-0.2-1.5-0.6-1.9c-0.4-0.4-1-0.6-1.9-0.6
		c-0.7,0-1.4,0.1-2,0.3c-0.6,0.2-1.2,0.4-1.8,0.7l-0.9-2.1c0.7-0.4,1.5-0.7,2.4-0.9c0.9-0.2,1.7-0.3,2.5-0.3c1.7,0,3,0.4,3.9,1.1
		c0.9,0.7,1.3,1.9,1.3,3.5v9.1H74.3z M70,205.5c1,0,1.9-0.3,2.5-0.9c0.6-0.6,0.9-1.4,0.9-2.4V201l-1.7,0.1c-1.4,0-2.3,0.3-2.9,0.7
		c-0.6,0.4-0.9,1-0.9,1.8c0,0.6,0.2,1.1,0.5,1.4C68.7,205.4,69.3,205.5,70,205.5z"/>
	<path fill="#444444" d="M87.2,193.7c0.6,0,1.1,0,1.4,0.1l-0.3,2.7c-0.4-0.1-0.8-0.1-1.3-0.1c-1.1,0-2.1,0.4-2.8,1.1
		c-0.7,0.7-1.1,1.7-1.1,2.9v7.1h-2.9V194h2.2l0.4,2.4h0.1c0.4-0.8,1-1.4,1.8-1.9C85.6,194,86.3,193.7,87.2,193.7z"/>
	<path fill="#444444" d="M97.9,193.7c0.6,0,1.1,0,1.4,0.1l-0.3,2.7c-0.4-0.1-0.8-0.1-1.3-0.1c-1.1,0-2.1,0.4-2.8,1.1
		c-0.7,0.7-1.1,1.7-1.1,2.9v7.1h-2.9V194h2.2l0.4,2.4h0.1c0.4-0.8,1-1.4,1.8-1.9C96.3,194,97.1,193.7,97.9,193.7z"/>
	<path fill="#444444" d="M113.9,200.7c0,2.2-0.6,3.9-1.7,5.2c-1.1,1.2-2.7,1.9-4.7,1.9c-1.3,0-2.4-0.3-3.3-0.9
		c-1-0.6-1.7-1.4-2.2-2.5c-0.5-1.1-0.8-2.3-0.8-3.7c0-2.2,0.6-3.9,1.7-5.1c1.1-1.2,2.7-1.8,4.7-1.8c2,0,3.5,0.6,4.6,1.9
		C113.3,196.9,113.9,198.6,113.9,200.7z M104,200.7c0,3.1,1.2,4.7,3.5,4.7c2.3,0,3.4-1.6,3.4-4.7c0-3.1-1.1-4.6-3.4-4.6
		c-1.2,0-2.1,0.4-2.6,1.2C104.3,198.1,104,199.2,104,200.7z"/>
	<path fill="#444444" d="M120,207.5h-2.9v-19h2.9V207.5z"/>
	<path fill="#444444" d="M127,207.5h-2.9v-19h2.9V207.5z"/>
	<path fill="#444444" d="M143.1,200.7c0,2.2-0.6,3.9-1.7,5.2s-2.7,1.9-4.7,1.9c-1.3,0-2.4-0.3-3.3-0.9c-1-0.6-1.7-1.4-2.2-2.5
		c-0.5-1.1-0.8-2.3-0.8-3.7c0-2.2,0.6-3.9,1.7-5.1c1.1-1.2,2.7-1.8,4.7-1.8c2,0,3.5,0.6,4.6,1.9
		C142.5,196.9,143.1,198.6,143.1,200.7z M133.2,200.7c0,3.1,1.2,4.7,3.5,4.7c2.3,0,3.4-1.6,3.4-4.7c0-3.1-1.1-4.6-3.4-4.6
		c-1.2,0-2.1,0.4-2.6,1.2C133.5,198.1,133.2,199.2,133.2,200.7z"/>
	<path fill="#444444" d="M157.4,207.7c-1.7,0-3-0.6-3.9-1.8c-0.9-1.2-1.4-2.9-1.4-5.1c0-2.2,0.5-3.9,1.4-5.2c1-1.2,2.3-1.8,4-1.8
		c1.8,0,3.1,0.7,4.1,2h0.1c-0.1-1-0.2-1.7-0.2-2.3v-4.9h2.9v19h-2.2l-0.5-1.8h-0.1C160.5,207.1,159.2,207.7,157.4,207.7z
		 M158.2,205.4c1.2,0,2-0.3,2.6-1s0.8-1.7,0.8-3.2v-0.4c0-1.7-0.3-2.9-0.8-3.6s-1.4-1.1-2.6-1.1c-1,0-1.8,0.4-2.3,1.2
		c-0.5,0.8-0.8,2-0.8,3.5c0,1.5,0.3,2.6,0.8,3.4C156.3,205,157.1,205.4,158.2,205.4z"/>
	<path fill="#444444" d="M174.3,207.7c-2.1,0-3.7-0.6-4.9-1.8c-1.2-1.2-1.8-2.9-1.8-5.1c0-2.2,0.5-3.9,1.6-5.2
		c1.1-1.3,2.6-1.9,4.5-1.9c1.8,0,3.2,0.5,4.2,1.6c1,1.1,1.5,2.6,1.5,4.5v1.6h-9c0,1.3,0.4,2.3,1.1,3c0.7,0.7,1.6,1.1,2.8,1.1
		c0.8,0,1.5-0.1,2.2-0.2c0.7-0.2,1.4-0.4,2.2-0.8v2.3c-0.7,0.3-1.4,0.6-2.1,0.7C176.1,207.7,175.2,207.7,174.3,207.7z M173.8,195.9
		c-0.9,0-1.6,0.3-2.2,0.9c-0.5,0.6-0.9,1.4-1,2.5h6.1c0-1.1-0.3-2-0.8-2.5C175.4,196.2,174.7,195.9,173.8,195.9z"/>
	<path fill="#444444" d="M199.9,202.6c0,1.6-0.6,2.8-1.7,3.7s-2.7,1.4-4.7,1.4c-2,0-3.7-0.3-5-0.9V204c0.8,0.4,1.7,0.7,2.6,0.9
		c0.9,0.2,1.8,0.3,2.6,0.3c1.2,0,2-0.2,2.6-0.7c0.5-0.4,0.8-1,0.8-1.8c0-0.7-0.3-1.2-0.8-1.7s-1.5-1-3.1-1.6
		c-1.6-0.7-2.8-1.4-3.4-2.3s-1-1.9-1-3.1c0-1.5,0.5-2.7,1.6-3.5c1.1-0.9,2.5-1.3,4.3-1.3c1.7,0,3.4,0.4,5.1,1.1l-0.9,2.4
		c-1.6-0.7-3-1-4.2-1c-0.9,0-1.7,0.2-2.1,0.6s-0.7,1-0.7,1.6c0,0.5,0.1,0.9,0.3,1.2c0.2,0.3,0.5,0.6,1,0.9s1.3,0.7,2.4,1.2
		c1.3,0.5,2.3,1.1,2.9,1.5s1.1,1,1.3,1.6C199.8,201.1,199.9,201.8,199.9,202.6z"/>
	<path fill="#444444" d="M202.9,190.4c0-0.5,0.1-0.9,0.4-1.2c0.3-0.3,0.7-0.4,1.2-0.4c0.5,0,0.9,0.1,1.2,0.4
		c0.3,0.3,0.4,0.7,0.4,1.2c0,0.5-0.1,0.9-0.4,1.2c-0.3,0.3-0.7,0.4-1.2,0.4c-0.5,0-0.9-0.1-1.2-0.4
		C203,191.3,202.9,190.9,202.9,190.4z M205.9,207.5h-2.9V194h2.9V207.5z"/>
	<path fill="#444444" d="M215.1,205.4c0.7,0,1.4-0.1,2.1-0.3v2.2c-0.3,0.1-0.7,0.3-1.2,0.3c-0.5,0.1-1,0.1-1.6,0.1
		c-2.7,0-4.1-1.4-4.1-4.3v-7.3h-1.8v-1.3l2-1l1-2.9h1.8v3h3.8v2.2h-3.8v7.2c0,0.7,0.2,1.2,0.5,1.5
		C214.1,205.2,214.5,205.4,215.1,205.4z"/>
	<path fill="#444444" d="M219.7,190.4c0-0.5,0.1-0.9,0.4-1.2c0.3-0.3,0.7-0.4,1.2-0.4c0.5,0,0.9,0.1,1.2,0.4
		c0.3,0.3,0.4,0.7,0.4,1.2c0,0.5-0.1,0.9-0.4,1.2c-0.3,0.3-0.7,0.4-1.2,0.4c-0.5,0-0.9-0.1-1.2-0.4
		C219.8,191.3,219.7,190.9,219.7,190.4z M222.7,207.5h-2.9V194h2.9V207.5z"/>
	<path fill="#444444" d="M238.8,200.7c0,2.2-0.6,3.9-1.7,5.2s-2.7,1.9-4.7,1.9c-1.3,0-2.4-0.3-3.3-0.9c-1-0.6-1.7-1.4-2.2-2.5
		c-0.5-1.1-0.8-2.3-0.8-3.7c0-2.2,0.6-3.9,1.7-5.1c1.1-1.2,2.7-1.8,4.7-1.8c2,0,3.5,0.6,4.6,1.9
		C238.2,196.9,238.8,198.6,238.8,200.7z M229,200.7c0,3.1,1.2,4.7,3.5,4.7c2.3,0,3.4-1.6,3.4-4.7c0-3.1-1.1-4.6-3.4-4.6
		c-1.2,0-2.1,0.4-2.6,1.2C229.3,198.1,229,199.2,229,200.7z"/>
	<path fill="#444444" d="M251.2,203.6c0,1.3-0.5,2.3-1.4,3c-1,0.7-2.3,1.1-4.1,1.1c-1.8,0-3.2-0.3-4.3-0.8v-2.5
		c1.6,0.7,3.1,1.1,4.4,1.1c1.8,0,2.6-0.5,2.6-1.6c0-0.3-0.1-0.6-0.3-0.9c-0.2-0.2-0.5-0.5-1-0.7s-1.1-0.5-1.9-0.8
		c-1.6-0.6-2.6-1.2-3.2-1.8c-0.5-0.6-0.8-1.4-0.8-2.3c0-1.2,0.5-2.1,1.4-2.7s2.2-1,3.8-1c1.6,0,3.1,0.3,4.5,1l-0.9,2.2
		c-1.5-0.6-2.7-0.9-3.7-0.9c-1.5,0-2.3,0.4-2.3,1.3c0,0.4,0.2,0.8,0.6,1.1s1.3,0.7,2.6,1.2c1.1,0.4,1.9,0.8,2.4,1.2s0.9,0.8,1.1,1.2
		C251.1,202.4,251.2,203,251.2,203.6z"/>
	<path fill="#444444" d="M37.7,234.5h-3.2l-3-10.6c-0.1-0.5-0.3-1.1-0.5-2c-0.2-0.9-0.3-1.5-0.4-1.8c-0.1,0.5-0.2,1.2-0.4,2
		c-0.2,0.8-0.3,1.4-0.5,1.9l-3,10.6h-3.2l-2.3-8.9l-2.3-8.9h3l2.6,10.4c0.4,1.7,0.7,3.1,0.9,4.4c0.1-0.7,0.2-1.5,0.4-2.3
		c0.2-0.9,0.3-1.5,0.5-2.1l2.9-10.4h2.9l3,10.5c0.3,1,0.6,2.4,0.9,4.3c0.1-1.2,0.4-2.6,0.9-4.4l2.5-10.4h3L37.7,234.5z"/>
	<path fill="#444444" d="M50.4,234.7c-2.1,0-3.7-0.6-4.9-1.8c-1.2-1.2-1.8-2.9-1.8-5.1c0-2.2,0.5-3.9,1.6-5.2
		c1.1-1.3,2.6-1.9,4.5-1.9c1.8,0,3.2,0.5,4.2,1.6c1,1.1,1.6,2.6,1.6,4.5v1.6h-9c0,1.3,0.4,2.3,1.1,3c0.7,0.7,1.6,1.1,2.8,1.1
		c0.8,0,1.5-0.1,2.2-0.2c0.7-0.2,1.4-0.4,2.2-0.8v2.3c-0.7,0.3-1.4,0.6-2.1,0.7C52.2,234.7,51.4,234.7,50.4,234.7z M49.9,222.9
		c-0.9,0-1.6,0.3-2.2,0.9c-0.5,0.6-0.9,1.4-1,2.5h6.1c0-1.1-0.3-2-0.8-2.5C51.5,223.2,50.8,222.9,49.9,222.9z"/>
	<path fill="#444444" d="M65.8,220.7c1.7,0,3,0.6,3.9,1.8c0.9,1.2,1.4,2.9,1.4,5.1c0,2.2-0.5,3.9-1.4,5.2c-1,1.2-2.3,1.8-4,1.8
		c-1.7,0-3-0.6-4-1.8h-0.2l-0.5,1.6h-2.1v-19h2.9v4.5c0,0.3,0,0.8,0,1.5c0,0.7-0.1,1.1-0.1,1.3h0.1
		C62.7,221.4,64.1,220.7,65.8,220.7z M65.1,223.1c-1.2,0-2,0.3-2.5,1c-0.5,0.7-0.8,1.8-0.8,3.4v0.2c0,1.6,0.3,2.8,0.8,3.6
		c0.5,0.7,1.4,1.1,2.6,1.1c1,0,1.8-0.4,2.3-1.2c0.5-0.8,0.8-2,0.8-3.5C68.2,224.6,67.2,223.1,65.1,223.1z"/>
	<path fill="#444444" d="M83.6,230.6c0,1.3-0.5,2.3-1.4,3c-1,0.7-2.3,1.1-4.1,1.1c-1.8,0-3.2-0.3-4.3-0.8v-2.5
		c1.6,0.7,3.1,1.1,4.4,1.1c1.8,0,2.6-0.5,2.6-1.6c0-0.3-0.1-0.6-0.3-0.9c-0.2-0.2-0.5-0.5-1-0.7c-0.4-0.2-1.1-0.5-1.9-0.8
		c-1.6-0.6-2.6-1.2-3.2-1.8c-0.5-0.6-0.8-1.4-0.8-2.3c0-1.2,0.5-2.1,1.4-2.7c0.9-0.6,2.2-1,3.8-1c1.6,0,3.1,0.3,4.5,1l-0.9,2.2
		c-1.5-0.6-2.7-0.9-3.7-0.9c-1.5,0-2.3,0.4-2.3,1.3c0,0.4,0.2,0.8,0.6,1.1c0.4,0.3,1.3,0.7,2.6,1.2c1.1,0.4,1.9,0.8,2.4,1.2
		c0.5,0.4,0.9,0.8,1.1,1.2C83.5,229.4,83.6,230,83.6,230.6z"/>
	<path fill="#444444" d="M93.5,234.5v-17.8h2.9v17.8H93.5z"/>
	<path fill="#444444" d="M112.7,234.5h-2.9v-8.3c0-1-0.2-1.8-0.6-2.3c-0.4-0.5-1.1-0.8-2-0.8c-1.2,0-2.1,0.4-2.7,1.1
		s-0.8,1.9-0.8,3.6v6.7h-2.9V221h2.2l0.4,1.8h0.1c0.4-0.6,1-1.1,1.7-1.5c0.7-0.3,1.6-0.5,2.5-0.5c3.2,0,4.9,1.6,4.9,4.9V234.5z"/>
	<path fill="#444444" d="M121.7,232.4c0.7,0,1.4-0.1,2.1-0.3v2.2c-0.3,0.1-0.7,0.3-1.2,0.3c-0.5,0.1-1,0.1-1.6,0.1
		c-2.7,0-4.1-1.4-4.1-4.3v-7.3h-1.8v-1.3l2-1l1-2.9h1.8v3h3.8v2.2h-3.8v7.2c0,0.7,0.2,1.2,0.5,1.5
		C120.7,232.2,121.2,232.4,121.7,232.4z"/>
	<path fill="#444444" d="M132.4,234.7c-2.1,0-3.7-0.6-4.9-1.8c-1.2-1.2-1.8-2.9-1.8-5.1c0-2.2,0.5-3.9,1.6-5.2
		c1.1-1.3,2.6-1.9,4.5-1.9c1.8,0,3.2,0.5,4.2,1.6c1,1.1,1.6,2.6,1.6,4.5v1.6h-9c0,1.3,0.4,2.3,1.1,3c0.7,0.7,1.6,1.1,2.8,1.1
		c0.8,0,1.5-0.1,2.2-0.2c0.7-0.2,1.4-0.4,2.2-0.8v2.3c-0.7,0.3-1.4,0.6-2.1,0.7C134.1,234.7,133.3,234.7,132.4,234.7z M131.9,222.9
		c-0.9,0-1.6,0.3-2.2,0.9c-0.5,0.6-0.9,1.4-1,2.5h6.1c0-1.1-0.3-2-0.8-2.5C133.5,223.2,132.8,222.9,131.9,222.9z"/>
	<path fill="#444444" d="M147.8,220.7c0.6,0,1.1,0,1.4,0.1l-0.3,2.7c-0.4-0.1-0.8-0.1-1.3-0.1c-1.1,0-2.1,0.4-2.8,1.1
		c-0.7,0.7-1.1,1.7-1.1,2.9v7.1h-2.9V221h2.2l0.4,2.4h0.1c0.4-0.8,1-1.4,1.8-1.9C146.2,221,146.9,220.7,147.8,220.7z"/>
	<path fill="#444444" d="M160.1,234.5l-0.6-1.9h-0.1c-0.7,0.8-1.3,1.4-2,1.7c-0.7,0.3-1.5,0.4-2.5,0.4c-1.3,0-2.4-0.4-3.1-1.1
		c-0.7-0.7-1.1-1.7-1.1-3c0-1.4,0.5-2.4,1.6-3.1c1-0.7,2.6-1.1,4.7-1.2l2.3-0.1v-0.7c0-0.9-0.2-1.5-0.6-1.9c-0.4-0.4-1-0.6-1.9-0.6
		c-0.7,0-1.4,0.1-2,0.3c-0.6,0.2-1.2,0.4-1.8,0.7l-0.9-2.1c0.7-0.4,1.5-0.7,2.4-0.9s1.7-0.3,2.5-0.3c1.7,0,3,0.4,3.9,1.1
		c0.9,0.7,1.3,1.9,1.3,3.5v9.1H160.1z M155.9,232.5c1,0,1.9-0.3,2.5-0.9s0.9-1.4,0.9-2.4V228l-1.7,0.1c-1.4,0-2.3,0.3-2.9,0.7
		c-0.6,0.4-0.9,1-0.9,1.8c0,0.6,0.2,1.1,0.5,1.4C154.6,232.4,155.2,232.5,155.9,232.5z"/>
	<path fill="#444444" d="M171.6,234.7c-2,0-3.6-0.6-4.7-1.8c-1.1-1.2-1.6-2.9-1.6-5.1c0-2.3,0.6-4,1.7-5.2c1.1-1.2,2.7-1.8,4.8-1.8
		c1.4,0,2.7,0.3,3.8,0.8l-0.9,2.3c-1.2-0.5-2.2-0.7-3-0.7c-2.3,0-3.5,1.5-3.5,4.7c0,1.5,0.3,2.7,0.9,3.4s1.4,1.1,2.6,1.1
		c1.3,0,2.5-0.3,3.6-1v2.5c-0.5,0.3-1.1,0.5-1.6,0.6S172.5,234.7,171.6,234.7z"/>
	<path fill="#444444" d="M183.6,232.4c0.7,0,1.4-0.1,2.1-0.3v2.2c-0.3,0.1-0.7,0.3-1.2,0.3c-0.5,0.1-1,0.1-1.6,0.1
		c-2.7,0-4.1-1.4-4.1-4.3v-7.3H177v-1.3l2-1l1-2.9h1.8v3h3.8v2.2h-3.8v7.2c0,0.7,0.2,1.2,0.5,1.5C182.6,232.2,183,232.4,183.6,232.4
		z"/>
	<path fill="#444444" d="M188.2,217.4c0-0.5,0.1-0.9,0.4-1.2c0.3-0.3,0.7-0.4,1.2-0.4c0.5,0,0.9,0.1,1.2,0.4
		c0.3,0.3,0.4,0.7,0.4,1.2c0,0.5-0.1,0.9-0.4,1.2c-0.3,0.3-0.7,0.4-1.2,0.4c-0.5,0-0.9-0.1-1.2-0.4
		C188.4,218.3,188.2,217.9,188.2,217.4z M191.3,234.5h-2.9V221h2.9V234.5z"/>
	<path fill="#444444" d="M198.4,234.5l-5.1-13.5h3l2.7,7.8c0.5,1.3,0.8,2.4,0.9,3.2h0.1c0.1-0.6,0.4-1.7,0.9-3.2l2.7-7.8h3.1
		l-5.2,13.5H198.4z"/>
	<path fill="#444444" d="M220.7,227.7c0,2.2-0.6,3.9-1.7,5.2s-2.7,1.9-4.7,1.9c-1.3,0-2.4-0.3-3.3-0.9c-1-0.6-1.7-1.4-2.2-2.5
		c-0.5-1.1-0.8-2.3-0.8-3.7c0-2.2,0.6-3.9,1.7-5.1c1.1-1.2,2.7-1.8,4.7-1.8c2,0,3.5,0.6,4.6,1.9
		C220.2,223.9,220.7,225.6,220.7,227.7z M210.9,227.7c0,3.1,1.2,4.7,3.5,4.7c2.3,0,3.4-1.6,3.4-4.7c0-3.1-1.1-4.6-3.4-4.6
		c-1.2,0-2.1,0.4-2.6,1.2C211.2,225.1,210.9,226.2,210.9,227.7z"/>
	<path fill="#444444" d="M233.1,230.6c0,1.3-0.5,2.3-1.4,3c-1,0.7-2.3,1.1-4.1,1.1c-1.8,0-3.2-0.3-4.3-0.8v-2.5
		c1.6,0.7,3.1,1.1,4.4,1.1c1.8,0,2.6-0.5,2.6-1.6c0-0.3-0.1-0.6-0.3-0.9c-0.2-0.2-0.5-0.5-1-0.7s-1.1-0.5-1.9-0.8
		c-1.6-0.6-2.6-1.2-3.2-1.8c-0.5-0.6-0.8-1.4-0.8-2.3c0-1.2,0.5-2.1,1.4-2.7s2.2-1,3.8-1c1.6,0,3.1,0.3,4.5,1l-0.9,2.2
		c-1.5-0.6-2.7-0.9-3.7-0.9c-1.5,0-2.3,0.4-2.3,1.3c0,0.4,0.2,0.8,0.6,1.1s1.3,0.7,2.6,1.2c1.1,0.4,1.9,0.8,2.4,1.2s0.9,0.8,1.1,1.2
		C233,229.4,233.1,230,233.1,230.6z"/>
	<path fill="#444444" d="M25.4,261.7c-1.7,0-3-0.6-3.9-1.8c-0.9-1.2-1.4-2.9-1.4-5.1s0.5-3.9,1.4-5.2c1-1.2,2.3-1.9,4-1.9
		c0.8,0,1.6,0.2,2.3,0.5c0.7,0.3,1.3,0.8,1.8,1.5h0.1L30,248h2.4v19.5h-2.9v-5.7c0-0.4,0-0.7,0-1.1c0-0.4,0.1-0.7,0.1-0.9h-0.2
		C28.6,261.1,27.3,261.7,25.4,261.7z M26.2,259.4c1.2,0,2.1-0.3,2.6-1c0.5-0.7,0.8-1.7,0.8-3.2v-0.5c0-1.7-0.3-2.9-0.8-3.6
		c-0.5-0.7-1.4-1.1-2.6-1.1c-1,0-1.8,0.4-2.3,1.2s-0.8,2-0.8,3.5C23,257.9,24.1,259.4,26.2,259.4z"/>
	<path fill="#444444" d="M46,261.5l-0.4-1.8h-0.1c-0.4,0.6-1,1.1-1.7,1.5c-0.7,0.4-1.6,0.5-2.5,0.5c-1.6,0-2.9-0.4-3.7-1.2
		s-1.2-2-1.2-3.7V248h2.9v8.3c0,1,0.2,1.8,0.6,2.3c0.4,0.5,1.1,0.8,2,0.8c1.2,0,2.1-0.4,2.7-1.1c0.6-0.7,0.8-1.9,0.8-3.6V248h2.9
		v13.5H46z"/>
	<path fill="#444444" d="M58.2,261.7c-2.1,0-3.7-0.6-4.9-1.8c-1.2-1.2-1.8-2.9-1.8-5.1c0-2.2,0.5-3.9,1.6-5.2
		c1.1-1.3,2.6-1.9,4.5-1.9c1.8,0,3.2,0.5,4.2,1.6c1,1.1,1.6,2.6,1.6,4.5v1.6h-9c0,1.3,0.4,2.3,1.1,3c0.7,0.7,1.6,1.1,2.8,1.1
		c0.8,0,1.5-0.1,2.2-0.2c0.7-0.2,1.4-0.4,2.2-0.8v2.3c-0.7,0.3-1.4,0.6-2.1,0.7C60,261.7,59.2,261.7,58.2,261.7z M57.7,249.9
		c-0.9,0-1.6,0.3-2.2,0.9c-0.5,0.6-0.9,1.4-1,2.5h6.1c0-1.1-0.3-2-0.8-2.5C59.3,250.2,58.6,249.9,57.7,249.9z"/>
	<path fill="#444444" d="M84.6,248v1.6l-2.3,0.4c0.2,0.3,0.4,0.6,0.5,1c0.1,0.4,0.2,0.9,0.2,1.3c0,1.4-0.5,2.5-1.4,3.3
		c-1,0.8-2.3,1.2-4,1.2c-0.4,0-0.8,0-1.2-0.1c-0.6,0.4-0.9,0.8-0.9,1.3c0,0.3,0.1,0.5,0.4,0.7c0.3,0.2,0.8,0.2,1.6,0.2h2.4
		c1.5,0,2.6,0.3,3.4,1c0.8,0.6,1.2,1.6,1.2,2.7c0,1.5-0.6,2.7-1.9,3.5c-1.3,0.8-3.1,1.2-5.5,1.2c-1.8,0-3.2-0.3-4.2-1
		c-1-0.7-1.5-1.6-1.5-2.8c0-0.8,0.3-1.5,0.8-2.1c0.5-0.6,1.3-1,2.2-1.2c-0.4-0.2-0.7-0.4-0.9-0.8c-0.2-0.4-0.4-0.7-0.4-1.1
		c0-0.5,0.1-0.9,0.4-1.3c0.3-0.3,0.7-0.7,1.3-1c-0.7-0.3-1.3-0.8-1.7-1.5c-0.4-0.7-0.7-1.5-0.7-2.4c0-1.5,0.5-2.6,1.4-3.4
		c0.9-0.8,2.2-1.2,3.9-1.2c0.4,0,0.8,0,1.2,0.1c0.4,0.1,0.7,0.1,0.9,0.2H84.6z M74,263.6c0,0.6,0.3,1.1,0.8,1.4
		c0.6,0.3,1.3,0.5,2.3,0.5c1.6,0,2.7-0.2,3.5-0.7c0.8-0.4,1.1-1,1.1-1.8c0-0.6-0.2-1-0.6-1.3c-0.4-0.2-1.2-0.4-2.3-0.4h-2.2
		c-0.8,0-1.5,0.2-2,0.6C74.3,262.4,74,262.9,74,263.6z M75.3,252.3c0,0.8,0.2,1.5,0.7,2c0.4,0.5,1.1,0.7,1.9,0.7
		c1.7,0,2.5-0.9,2.5-2.7c0-0.9-0.2-1.6-0.6-2c-0.4-0.5-1-0.7-1.9-0.7c-0.8,0-1.5,0.2-1.9,0.7C75.5,250.8,75.3,251.4,75.3,252.3z"/>
	<path fill="#444444" d="M93,261.7c-2.1,0-3.7-0.6-4.9-1.8c-1.2-1.2-1.8-2.9-1.8-5.1c0-2.2,0.5-3.9,1.6-5.2c1.1-1.3,2.6-1.9,4.5-1.9
		c1.8,0,3.2,0.5,4.2,1.6c1,1.1,1.6,2.6,1.6,4.5v1.6h-9c0,1.3,0.4,2.3,1.1,3c0.7,0.7,1.6,1.1,2.8,1.1c0.8,0,1.5-0.1,2.2-0.2
		c0.7-0.2,1.4-0.4,2.2-0.8v2.3c-0.7,0.3-1.4,0.6-2.1,0.7C94.8,261.7,94,261.7,93,261.7z M92.5,249.9c-0.9,0-1.6,0.3-2.2,0.9
		c-0.5,0.6-0.9,1.4-1,2.5h6.1c0-1.1-0.3-2-0.8-2.5C94.1,250.2,93.4,249.9,92.5,249.9z"/>
	<path fill="#444444" d="M113.4,261.5h-2.9v-8.3c0-1-0.2-1.8-0.6-2.3c-0.4-0.5-1.1-0.8-2-0.8c-1.2,0-2.1,0.4-2.7,1.1
		s-0.8,1.9-0.8,3.6v6.7h-2.9V248h2.2l0.4,1.8h0.1c0.4-0.6,1-1.1,1.7-1.5c0.7-0.3,1.6-0.5,2.5-0.5c3.2,0,4.9,1.6,4.9,4.9V261.5z"/>
	<path fill="#444444" d="M123.3,261.7c-2.1,0-3.7-0.6-4.9-1.8c-1.2-1.2-1.8-2.9-1.8-5.1c0-2.2,0.5-3.9,1.6-5.2
		c1.1-1.3,2.6-1.9,4.5-1.9c1.8,0,3.2,0.5,4.2,1.6c1,1.1,1.6,2.6,1.6,4.5v1.6h-9c0,1.3,0.4,2.3,1.1,3c0.7,0.7,1.6,1.1,2.8,1.1
		c0.8,0,1.5-0.1,2.2-0.2c0.7-0.2,1.4-0.4,2.2-0.8v2.3c-0.7,0.3-1.4,0.6-2.1,0.7C125.1,261.7,124.2,261.7,123.3,261.7z M122.8,249.9
		c-0.9,0-1.6,0.3-2.2,0.9c-0.5,0.6-0.9,1.4-1,2.5h6.1c0-1.1-0.3-2-0.8-2.5C124.4,250.2,123.7,249.9,122.8,249.9z"/>
	<path fill="#444444" d="M138.7,247.7c0.6,0,1.1,0,1.4,0.1l-0.3,2.7c-0.4-0.1-0.8-0.1-1.3-0.1c-1.1,0-2.1,0.4-2.8,1.1
		c-0.7,0.7-1.1,1.7-1.1,2.9v7.1h-2.9V248h2.2l0.4,2.4h0.1c0.4-0.8,1-1.4,1.8-1.9C137.1,248,137.8,247.7,138.7,247.7z"/>
	<path fill="#444444" d="M151,261.5l-0.6-1.9h-0.1c-0.7,0.8-1.3,1.4-2,1.7c-0.7,0.3-1.5,0.4-2.5,0.4c-1.3,0-2.4-0.4-3.1-1.1
		c-0.7-0.7-1.1-1.7-1.1-3c0-1.4,0.5-2.4,1.5-3.1s2.6-1.1,4.7-1.2l2.3-0.1v-0.7c0-0.9-0.2-1.5-0.6-1.9c-0.4-0.4-1-0.6-1.9-0.6
		c-0.7,0-1.4,0.1-2,0.3c-0.6,0.2-1.2,0.4-1.8,0.7l-0.9-2.1c0.7-0.4,1.5-0.7,2.4-0.9c0.9-0.2,1.7-0.3,2.5-0.3c1.7,0,3,0.4,3.9,1.1
		s1.3,1.9,1.3,3.5v9.1H151z M146.8,259.5c1,0,1.9-0.3,2.5-0.9c0.6-0.6,0.9-1.4,0.9-2.4V255l-1.7,0.1c-1.4,0-2.3,0.3-2.9,0.7
		c-0.6,0.4-0.9,1-0.9,1.8c0,0.6,0.2,1.1,0.5,1.4C145.5,259.4,146.1,259.5,146.8,259.5z"/>
	<path fill="#444444" d="M169,261.5h-2.9v-8.3c0-1-0.2-1.8-0.6-2.3c-0.4-0.5-1.1-0.8-2-0.8c-1.2,0-2.1,0.4-2.7,1.1s-0.8,1.9-0.8,3.6
		v6.7h-2.9V248h2.2l0.4,1.8h0.1c0.4-0.6,1-1.1,1.7-1.5c0.7-0.3,1.6-0.5,2.5-0.5c3.2,0,4.9,1.6,4.9,4.9V261.5z"/>
	<path fill="#444444" d="M27.7,288.7c-1.7,0-3-0.6-4-1.8h-0.2c0.1,1.1,0.2,1.8,0.2,2.1v5.5h-2.9V275h2.3c0.1,0.3,0.2,0.9,0.4,1.8
		h0.1c0.9-1.4,2.2-2.1,4-2.1c1.7,0,3,0.6,3.9,1.8c0.9,1.2,1.4,2.9,1.4,5.1c0,2.2-0.5,3.9-1.4,5.2C30.8,288.1,29.4,288.7,27.7,288.7z
		 M27.1,277.1c-1.1,0-2,0.3-2.5,1c-0.5,0.7-0.8,1.7-0.8,3.2v0.4c0,1.6,0.3,2.8,0.8,3.6c0.5,0.7,1.4,1.1,2.6,1.1c1,0,1.8-0.4,2.3-1.2
		s0.8-2,0.8-3.5c0-1.5-0.3-2.7-0.8-3.4C28.9,277.5,28.1,277.1,27.1,277.1z"/>
	<path fill="#444444" d="M43.3,274.7c0.6,0,1.1,0,1.4,0.1l-0.3,2.7c-0.4-0.1-0.8-0.1-1.3-0.1c-1.1,0-2.1,0.4-2.8,1.1
		c-0.7,0.7-1.1,1.7-1.1,2.9v7.1h-2.9V275h2.2l0.4,2.4h0.1c0.4-0.8,1-1.4,1.8-1.9C41.7,275,42.5,274.7,43.3,274.7z"/>
	<path fill="#444444" d="M59.2,281.7c0,2.2-0.6,3.9-1.7,5.2c-1.1,1.2-2.7,1.9-4.7,1.9c-1.3,0-2.4-0.3-3.3-0.9
		c-1-0.6-1.7-1.4-2.2-2.5c-0.5-1.1-0.8-2.3-0.8-3.7c0-2.2,0.6-3.9,1.7-5.1c1.1-1.2,2.7-1.8,4.7-1.8c2,0,3.5,0.6,4.6,1.9
		C58.7,277.9,59.2,279.6,59.2,281.7z M49.4,281.7c0,3.1,1.2,4.7,3.5,4.7c2.3,0,3.4-1.6,3.4-4.7c0-3.1-1.1-4.6-3.4-4.6
		c-1.2,0-2.1,0.4-2.6,1.2C49.7,279.1,49.4,280.2,49.4,281.7z"/>
	<path fill="#444444" d="M68,288.7c-2,0-3.6-0.6-4.7-1.8c-1.1-1.2-1.6-2.9-1.6-5.1c0-2.3,0.6-4,1.7-5.2c1.1-1.2,2.7-1.8,4.8-1.8
		c1.4,0,2.7,0.3,3.8,0.8l-0.9,2.3c-1.2-0.5-2.2-0.7-3-0.7c-2.3,0-3.5,1.5-3.5,4.7c0,1.5,0.3,2.7,0.9,3.4c0.6,0.8,1.4,1.1,2.6,1.1
		c1.3,0,2.5-0.3,3.6-1v2.5c-0.5,0.3-1.1,0.5-1.6,0.6C69.5,288.7,68.8,288.7,68,288.7z"/>
	<path fill="#444444" d="M80.8,288.7c-2.1,0-3.7-0.6-4.9-1.8c-1.2-1.2-1.8-2.9-1.8-5.1c0-2.2,0.5-3.9,1.6-5.2
		c1.1-1.3,2.6-1.9,4.5-1.9c1.8,0,3.2,0.5,4.2,1.6c1,1.1,1.6,2.6,1.6,4.5v1.6h-9c0,1.3,0.4,2.3,1.1,3c0.7,0.7,1.6,1.1,2.8,1.1
		c0.8,0,1.5-0.1,2.2-0.2c0.7-0.2,1.4-0.4,2.2-0.8v2.3c-0.7,0.3-1.4,0.6-2.1,0.7C82.5,288.7,81.7,288.7,80.8,288.7z M80.3,276.9
		c-0.9,0-1.6,0.3-2.2,0.9c-0.5,0.6-0.9,1.4-1,2.5h6.1c0-1.1-0.3-2-0.8-2.5C81.9,277.2,81.2,276.9,80.3,276.9z"/>
	<path fill="#444444" d="M98.4,284.6c0,1.3-0.5,2.3-1.4,3c-1,0.7-2.3,1.1-4.1,1.1c-1.8,0-3.2-0.3-4.3-0.8v-2.5
		c1.6,0.7,3.1,1.1,4.4,1.1c1.8,0,2.6-0.5,2.6-1.6c0-0.3-0.1-0.6-0.3-0.9c-0.2-0.2-0.5-0.5-1-0.7c-0.4-0.2-1.1-0.5-1.9-0.8
		c-1.6-0.6-2.6-1.2-3.2-1.8c-0.5-0.6-0.8-1.4-0.8-2.3c0-1.2,0.5-2.1,1.4-2.7c0.9-0.6,2.2-1,3.8-1c1.6,0,3.1,0.3,4.5,1l-0.9,2.2
		c-1.5-0.6-2.7-0.9-3.7-0.9c-1.5,0-2.3,0.4-2.3,1.3c0,0.4,0.2,0.8,0.6,1.1c0.4,0.3,1.3,0.7,2.6,1.2c1.1,0.4,1.9,0.8,2.4,1.2
		c0.5,0.4,0.9,0.8,1.1,1.2C98.3,283.4,98.4,284,98.4,284.6z"/>
	<path fill="#444444" d="M113.5,281.7c0,2.2-0.6,3.9-1.7,5.2c-1.1,1.2-2.7,1.9-4.7,1.9c-1.3,0-2.4-0.3-3.3-0.9
		c-1-0.6-1.7-1.4-2.2-2.5c-0.5-1.1-0.8-2.3-0.8-3.7c0-2.2,0.6-3.9,1.7-5.1c1.1-1.2,2.7-1.8,4.7-1.8c2,0,3.5,0.6,4.6,1.9
		C112.9,277.9,113.5,279.6,113.5,281.7z M103.6,281.7c0,3.1,1.2,4.7,3.5,4.7c2.3,0,3.4-1.6,3.4-4.7c0-3.1-1.1-4.6-3.4-4.6
		c-1.2,0-2.1,0.4-2.6,1.2C103.9,279.1,103.6,280.2,103.6,281.7z"/>
	<path fill="#444444" d="M125.8,284.6c0,1.3-0.5,2.3-1.4,3c-1,0.7-2.3,1.1-4.1,1.1c-1.8,0-3.2-0.3-4.3-0.8v-2.5
		c1.6,0.7,3.1,1.1,4.4,1.1c1.8,0,2.6-0.5,2.6-1.6c0-0.3-0.1-0.6-0.3-0.9c-0.2-0.2-0.5-0.5-1-0.7c-0.4-0.2-1.1-0.5-1.9-0.8
		c-1.6-0.6-2.6-1.2-3.2-1.8c-0.5-0.6-0.8-1.4-0.8-2.3c0-1.2,0.5-2.1,1.4-2.7c0.9-0.6,2.2-1,3.8-1c1.6,0,3.1,0.3,4.5,1l-0.9,2.2
		c-1.5-0.6-2.7-0.9-3.7-0.9c-1.5,0-2.3,0.4-2.3,1.3c0,0.4,0.2,0.8,0.6,1.1c0.4,0.3,1.3,0.7,2.6,1.2c1.1,0.4,1.9,0.8,2.4,1.2
		c0.5,0.4,0.9,0.8,1.1,1.2C125.7,283.4,125.8,284,125.8,284.6z"/>
	<path fill="#444444" d="M133.4,275h3.1l2.7,7.7c0.4,1.1,0.7,2.1,0.8,3.1h0.1c0.1-0.4,0.2-1,0.4-1.6c0.2-0.6,1.2-3.7,3.1-9.1h3.1
		l-5.8,15.3c-1,2.8-2.8,4.2-5.2,4.2c-0.6,0-1.3-0.1-1.9-0.2V292c0.4,0.1,0.9,0.1,1.5,0.1c1.4,0,2.4-0.8,2.9-2.4l0.5-1.3L133.4,275z"
		/>
	<path fill="#444444" d="M30,311.6c0,1.3-0.5,2.3-1.4,3c-1,0.7-2.3,1.1-4.1,1.1c-1.8,0-3.2-0.3-4.3-0.8v-2.5
		c1.6,0.7,3.1,1.1,4.4,1.1c1.8,0,2.6-0.5,2.6-1.6c0-0.3-0.1-0.6-0.3-0.9c-0.2-0.2-0.5-0.5-1-0.7c-0.4-0.2-1.1-0.5-1.9-0.8
		c-1.6-0.6-2.6-1.2-3.2-1.8c-0.5-0.6-0.8-1.4-0.8-2.3c0-1.2,0.5-2.1,1.4-2.7c0.9-0.6,2.2-1,3.8-1c1.6,0,3.1,0.3,4.5,1l-0.9,2.2
		c-1.5-0.6-2.7-0.9-3.7-0.9c-1.5,0-2.3,0.4-2.3,1.3c0,0.4,0.2,0.8,0.6,1.1c0.4,0.3,1.3,0.7,2.6,1.2c1.1,0.4,1.9,0.8,2.4,1.2
		c0.5,0.4,0.9,0.8,1.1,1.2C29.8,310.4,30,311,30,311.6z"/>
	<path fill="#444444" d="M45,308.7c0,2.2-0.6,3.9-1.7,5.2c-1.1,1.2-2.7,1.9-4.7,1.9c-1.3,0-2.4-0.3-3.3-0.9c-1-0.6-1.7-1.4-2.2-2.5
		c-0.5-1.1-0.8-2.3-0.8-3.7c0-2.2,0.6-3.9,1.7-5.1c1.1-1.2,2.7-1.8,4.7-1.8c2,0,3.5,0.6,4.6,1.9C44.5,304.9,45,306.6,45,308.7z
		 M35.2,308.7c0,3.1,1.2,4.7,3.5,4.7c2.3,0,3.4-1.6,3.4-4.7c0-3.1-1.1-4.6-3.4-4.6c-1.2,0-2.1,0.4-2.6,1.2
		C35.5,306.1,35.2,307.2,35.2,308.7z"/>
	<path fill="#444444" d="M51.2,315.5h-2.9v-19h2.9V315.5z"/>
	<path fill="#444444" d="M55.1,298.4c0-0.5,0.1-0.9,0.4-1.2c0.3-0.3,0.7-0.4,1.2-0.4c0.5,0,0.9,0.1,1.2,0.4c0.3,0.3,0.4,0.7,0.4,1.2
		c0,0.5-0.1,0.9-0.4,1.2c-0.3,0.3-0.7,0.4-1.2,0.4c-0.5,0-0.9-0.1-1.2-0.4C55.3,299.3,55.1,298.9,55.1,298.4z M58.2,315.5h-2.9V302
		h2.9V315.5z"/>
	<path fill="#444444" d="M67.7,315.7c-2,0-3.6-0.6-4.7-1.8c-1.1-1.2-1.6-2.9-1.6-5.1c0-2.3,0.6-4,1.7-5.2c1.1-1.2,2.7-1.8,4.8-1.8
		c1.4,0,2.7,0.3,3.8,0.8l-0.9,2.3c-1.2-0.5-2.2-0.7-3-0.7c-2.3,0-3.5,1.5-3.5,4.7c0,1.5,0.3,2.7,0.9,3.4c0.6,0.8,1.4,1.1,2.6,1.1
		c1.3,0,2.5-0.3,3.6-1v2.5c-0.5,0.3-1.1,0.5-1.6,0.6C69.3,315.7,68.6,315.7,67.7,315.7z"/>
	<path fill="#444444" d="M74.5,298.4c0-0.5,0.1-0.9,0.4-1.2c0.3-0.3,0.7-0.4,1.2-0.4c0.5,0,0.9,0.1,1.2,0.4c0.3,0.3,0.4,0.7,0.4,1.2
		c0,0.5-0.1,0.9-0.4,1.2c-0.3,0.3-0.7,0.4-1.2,0.4c-0.5,0-0.9-0.1-1.2-0.4C74.6,299.3,74.5,298.9,74.5,298.4z M77.5,315.5h-2.9V302
		h2.9V315.5z"/>
	<path fill="#444444" d="M86.7,313.4c0.7,0,1.4-0.1,2.1-0.3v2.2c-0.3,0.1-0.7,0.3-1.2,0.3c-0.5,0.1-1,0.1-1.6,0.1
		c-2.7,0-4.1-1.4-4.1-4.3v-7.3h-1.8v-1.3l2-1l1-2.9h1.8v3h3.8v2.2h-3.8v7.2c0,0.7,0.2,1.2,0.5,1.5C85.6,313.2,86.1,313.4,86.7,313.4
		z"/>
	<path fill="#444444" d="M101,315.5l-0.4-1.8h-0.1c-0.4,0.6-1,1.1-1.7,1.5c-0.7,0.4-1.6,0.5-2.5,0.5c-1.6,0-2.9-0.4-3.7-1.2
		s-1.2-2-1.2-3.7V302h2.9v8.3c0,1,0.2,1.8,0.6,2.3c0.4,0.5,1.1,0.8,2,0.8c1.2,0,2.1-0.4,2.7-1.1c0.6-0.7,0.8-1.9,0.8-3.6V302h2.9
		v13.5H101z"/>
	<path fill="#444444" d="M111.9,315.7c-1.7,0-3-0.6-3.9-1.8c-0.9-1.2-1.4-2.9-1.4-5.1c0-2.2,0.5-3.9,1.4-5.2c1-1.2,2.3-1.8,4-1.8
		c1.8,0,3.1,0.7,4.1,2h0.1c-0.1-1-0.2-1.7-0.2-2.3v-4.9h2.9v19h-2.2l-0.5-1.8h-0.1C115,315.1,113.7,315.7,111.9,315.7z M112.6,313.4
		c1.2,0,2-0.3,2.6-1s0.8-1.7,0.8-3.2v-0.4c0-1.7-0.3-2.9-0.8-3.6c-0.6-0.7-1.4-1.1-2.6-1.1c-1,0-1.8,0.4-2.3,1.2
		c-0.5,0.8-0.8,2-0.8,3.5c0,1.5,0.3,2.6,0.8,3.4C110.8,313,111.6,313.4,112.6,313.4z"/>
	<path fill="#444444" d="M128.8,315.7c-2.1,0-3.7-0.6-4.9-1.8c-1.2-1.2-1.8-2.9-1.8-5.1c0-2.2,0.5-3.9,1.6-5.2
		c1.1-1.3,2.6-1.9,4.5-1.9c1.8,0,3.2,0.5,4.2,1.6c1,1.1,1.6,2.6,1.6,4.5v1.6h-9c0,1.3,0.4,2.3,1.1,3c0.7,0.7,1.6,1.1,2.8,1.1
		c0.8,0,1.5-0.1,2.2-0.2c0.7-0.2,1.4-0.4,2.2-0.8v2.3c-0.7,0.3-1.4,0.6-2.1,0.7C130.5,315.7,129.7,315.7,128.8,315.7z M128.3,303.9
		c-0.9,0-1.6,0.3-2.2,0.9c-0.5,0.6-0.9,1.4-1,2.5h6.1c0-1.1-0.3-2-0.8-2.5C129.9,304.2,129.2,303.9,128.3,303.9z"/>
	<path fill="#444444" d="M146.4,311.6c0,1.3-0.5,2.3-1.4,3c-1,0.7-2.3,1.1-4.1,1.1c-1.8,0-3.2-0.3-4.3-0.8v-2.5
		c1.6,0.7,3.1,1.1,4.4,1.1c1.8,0,2.6-0.5,2.6-1.6c0-0.3-0.1-0.6-0.3-0.9c-0.2-0.2-0.5-0.5-1-0.7s-1.1-0.5-1.9-0.8
		c-1.6-0.6-2.6-1.2-3.2-1.8c-0.5-0.6-0.8-1.4-0.8-2.3c0-1.2,0.5-2.1,1.4-2.7c0.9-0.6,2.2-1,3.8-1c1.6,0,3.1,0.3,4.5,1l-0.9,2.2
		c-1.5-0.6-2.7-0.9-3.7-0.9c-1.5,0-2.3,0.4-2.3,1.3c0,0.4,0.2,0.8,0.6,1.1c0.4,0.3,1.3,0.7,2.6,1.2c1.1,0.4,1.9,0.8,2.4,1.2
		s0.9,0.8,1.1,1.2C146.3,310.4,146.4,311,146.4,311.6z"/>
	<path fill="#444444" d="M164.4,315.5l-0.6-1.9h-0.1c-0.7,0.8-1.3,1.4-2,1.7c-0.7,0.3-1.5,0.4-2.5,0.4c-1.3,0-2.4-0.4-3.1-1.1
		c-0.7-0.7-1.1-1.7-1.1-3c0-1.4,0.5-2.4,1.6-3.1c1-0.7,2.6-1.1,4.7-1.2l2.3-0.1v-0.7c0-0.9-0.2-1.5-0.6-1.9c-0.4-0.4-1-0.6-1.9-0.6
		c-0.7,0-1.4,0.1-2,0.3c-0.6,0.2-1.2,0.4-1.8,0.7l-0.9-2.1c0.7-0.4,1.5-0.7,2.4-0.9s1.7-0.3,2.5-0.3c1.7,0,3,0.4,3.9,1.1
		c0.9,0.7,1.3,1.9,1.3,3.5v9.1H164.4z M160.1,313.5c1,0,1.9-0.3,2.5-0.9s0.9-1.4,0.9-2.4V309l-1.7,0.1c-1.4,0-2.3,0.3-2.9,0.7
		c-0.6,0.4-0.9,1-0.9,1.8c0,0.6,0.2,1.1,0.5,1.4C158.9,313.4,159.4,313.5,160.1,313.5z"/>
	<path fill="#444444" d="M37.7,342.5h-3.2l-3-10.6c-0.1-0.5-0.3-1.1-0.5-2c-0.2-0.9-0.3-1.5-0.4-1.8c-0.1,0.5-0.2,1.2-0.4,2
		c-0.2,0.8-0.3,1.4-0.5,1.9l-3,10.6h-3.2l-2.3-8.9l-2.3-8.9h3l2.6,10.4c0.4,1.7,0.7,3.1,0.9,4.4c0.1-0.7,0.2-1.5,0.4-2.3
		c0.2-0.9,0.3-1.5,0.5-2.1l2.9-10.4h2.9l3,10.5c0.3,1,0.6,2.4,0.9,4.3c0.1-1.2,0.4-2.6,0.9-4.4l2.5-10.4h3L37.7,342.5z"/>
	<path fill="#444444" d="M56.4,342.5h-2.9v-8.3c0-1-0.2-1.8-0.6-2.3c-0.4-0.5-1.1-0.8-2-0.8c-1.2,0-2.1,0.4-2.7,1.1
		c-0.6,0.7-0.8,1.9-0.8,3.6v6.7h-2.9v-19h2.9v4.8c0,0.8,0,1.6-0.1,2.5h0.2c0.4-0.7,0.9-1.2,1.6-1.5c0.7-0.4,1.5-0.5,2.4-0.5
		c3.3,0,4.9,1.6,4.9,4.9V342.5z"/>
	<path fill="#444444" d="M68.9,342.5l-0.6-1.9h-0.1c-0.7,0.8-1.3,1.4-2,1.7c-0.7,0.3-1.5,0.4-2.5,0.4c-1.3,0-2.4-0.4-3.1-1.1
		c-0.7-0.7-1.1-1.7-1.1-3c0-1.4,0.5-2.4,1.6-3.1c1-0.7,2.6-1.1,4.7-1.2l2.3-0.1v-0.7c0-0.9-0.2-1.5-0.6-1.9c-0.4-0.4-1-0.6-1.9-0.6
		c-0.7,0-1.4,0.1-2,0.3c-0.6,0.2-1.2,0.4-1.8,0.7l-0.9-2.1c0.7-0.4,1.5-0.7,2.4-0.9c0.9-0.2,1.7-0.3,2.5-0.3c1.7,0,3,0.4,3.9,1.1
		c0.9,0.7,1.3,1.9,1.3,3.5v9.1H68.9z M64.6,340.5c1,0,1.9-0.3,2.5-0.9c0.6-0.6,0.9-1.4,0.9-2.4V336l-1.7,0.1c-1.4,0-2.3,0.3-2.9,0.7
		c-0.6,0.4-0.9,1-0.9,1.8c0,0.6,0.2,1.1,0.5,1.4C63.3,340.4,63.9,340.5,64.6,340.5z"/>
	<path fill="#444444" d="M79.9,340.4c0.7,0,1.4-0.1,2.1-0.3v2.2c-0.3,0.1-0.7,0.3-1.2,0.3c-0.5,0.1-1,0.1-1.6,0.1
		c-2.7,0-4.1-1.4-4.1-4.3v-7.3h-1.8v-1.3l2-1l1-2.9h1.8v3h3.8v2.2h-3.8v7.2c0,0.7,0.2,1.2,0.5,1.5C78.9,340.2,79.4,340.4,79.9,340.4
		z"/>
	<path fill="#444444" d="M93.8,338.6c0,1.3-0.5,2.3-1.4,3c-1,0.7-2.3,1.1-4.1,1.1c-1.8,0-3.2-0.3-4.3-0.8v-2.5
		c1.6,0.7,3.1,1.1,4.4,1.1c1.8,0,2.6-0.5,2.6-1.6c0-0.3-0.1-0.6-0.3-0.9c-0.2-0.2-0.5-0.5-1-0.7c-0.4-0.2-1.1-0.5-1.9-0.8
		c-1.6-0.6-2.6-1.2-3.2-1.8c-0.5-0.6-0.8-1.4-0.8-2.3c0-1.2,0.5-2.1,1.4-2.7c0.9-0.6,2.2-1,3.8-1c1.6,0,3.1,0.3,4.5,1l-0.9,2.2
		c-1.5-0.6-2.7-0.9-3.7-0.9c-1.5,0-2.3,0.4-2.3,1.3c0,0.4,0.2,0.8,0.6,1.1c0.4,0.3,1.3,0.7,2.6,1.2c1.1,0.4,1.9,0.8,2.4,1.2
		c0.5,0.4,0.9,0.8,1.1,1.2C93.7,337.4,93.8,338,93.8,338.6z"/>
	<path fill="#444444" d="M108.3,342.5l-1.8-5h-6.8l-1.7,5h-3.1l6.7-17.9h3.2l6.7,17.9H108.3z M105.7,335l-1.7-4.9
		c-0.1-0.3-0.3-0.8-0.5-1.5c-0.2-0.7-0.4-1.2-0.4-1.5c-0.2,1-0.5,2.1-1,3.3l-1.6,4.7H105.7z"/>
	<path fill="#444444" d="M120.3,342.7c-1.7,0-3-0.6-4-1.8h-0.2c0.1,1.1,0.2,1.8,0.2,2.1v5.5h-2.9V329h2.3c0.1,0.3,0.2,0.9,0.4,1.8
		h0.1c0.9-1.4,2.2-2.1,4-2.1c1.7,0,3,0.6,3.9,1.8c0.9,1.2,1.4,2.9,1.4,5.1c0,2.2-0.5,3.9-1.4,5.2C123.3,342.1,122,342.7,120.3,342.7
		z M119.6,331.1c-1.1,0-2,0.3-2.5,1c-0.5,0.7-0.8,1.7-0.8,3.2v0.4c0,1.6,0.3,2.8,0.8,3.6c0.5,0.7,1.4,1.1,2.6,1.1
		c1,0,1.8-0.4,2.3-1.2s0.8-2,0.8-3.5c0-1.5-0.3-2.7-0.8-3.4C121.4,331.5,120.6,331.1,119.6,331.1z"/>
	<path fill="#444444" d="M135.9,342.7c-1.7,0-3-0.6-4-1.8h-0.2c0.1,1.1,0.2,1.8,0.2,2.1v5.5H129V329h2.3c0.1,0.3,0.2,0.9,0.4,1.8
		h0.1c0.9-1.4,2.2-2.1,4-2.1c1.7,0,3,0.6,3.9,1.8c0.9,1.2,1.4,2.9,1.4,5.1c0,2.2-0.5,3.9-1.4,5.2
		C138.9,342.1,137.5,342.7,135.9,342.7z M135.2,331.1c-1.1,0-2,0.3-2.5,1c-0.5,0.7-0.8,1.7-0.8,3.2v0.4c0,1.6,0.3,2.8,0.8,3.6
		c0.5,0.7,1.4,1.1,2.6,1.1c1,0,1.8-0.4,2.3-1.2s0.8-2,0.8-3.5c0-1.5-0.3-2.7-0.8-3.4C137,331.5,136.2,331.1,135.2,331.1z"/>
</g>
<g>
	<g>
		<path fill="#429DFF" d="M78.7,16.7C46.9,16.7,21,42.6,21,74.4c0,10.9,3,21.1,8.3,29.8L18.8,135l31.8-10.2
			c8.3,4.7,17.9,7.3,28.1,7.3c31.9,0,57.7-25.8,57.7-57.7S110.6,16.7,78.7,16.7z M78.8,122.7c-9.9,0-19.2-3-26.8-8.1l-18.7,6.2
			l6.2-18.4c-5.7-7.9-9-17.7-9-28.2c0-26.7,21.7-48.4,48.4-48.4s48.4,21.7,48.4,48.4S105.5,122.7,78.8,122.7z"/>
		<path fill="#429DFF" d="M59.4,48.4c0,0-2.5,0.1-4.6,2.5c-2.1,2.4-4.4,6.6-3.9,11.5s3.5,13.2,10.8,20.8c7.3,7.5,11.2,11.4,20,14.8
			c8.9,3.4,13.6,5.2,19.5,1.7c6.1-3.4,6.5-6.5,6.9-10.5c0-2.2-0.2-1.7-2.1-2.7c-1.9-1-10-4.8-10-4.8s-2.5-1.6-3.8,0.4
			c-1.3,2.1-4.6,5.7-4.6,5.7s-0.8,1.1-3,0.2c-2.2-0.9-11.8-4.8-18.6-16.1c-1.1-1.9-0.2-3.2-0.2-3.2l3.6-4.3c0,0,1.2-0.9,0.1-3.6
			c-1.3-3.1-4.5-10.9-4.5-10.9s-0.4-1.5-2.5-1.5C59.4,48.4,59.4,48.4,59.4,48.4z"/>
	</g>
</g>
</svg>
