<?xml version="1.0" encoding="utf-8"?>
<!-- Generator: Adobe Illustrator 18.1.1, SVG Export Plug-In . SVG Version: 6.00 Build 0)  -->
<svg version="1.1" id="Capa_1" xmlns="http://www.w3.org/2000/svg" xmlns:xlink="http://www.w3.org/1999/xlink" x="0px" y="0px"
	 viewBox="0 0 581.6 792" enable-background="new 0 0 581.6 792" xml:space="preserve">
<path fill="#FAFAFA" d="M568.9,791.7H12.7C5.7,791.7,0,786,0,779V12.7C0,5.7,5.7,0,12.7,0h556.2c7,0,12.7,5.7,12.7,12.7V779
	C581.6,786,575.9,791.7,568.9,791.7z"/>
<text transform="matrix(1 0 0 1 48.7041 366.8916)" fill="#429DFF" font-family="'NexaBold'" font-size="62.2012" letter-spacing="-2">Drop Shipping </text>
<rect x="45.1" y="402.8" fill="none" width="493.6" height="332.5"/>
<text transform="matrix(1 0 0 1 45.1458 442.2313)"><tspan x="0" y="0" fill="#444444" font-family="'OpenSans-Semibold'" font-size="51.8343">Vende en internet </tspan><tspan x="0" y="56" fill="#444444" font-family="'OpenSans-Semibold'" font-size="51.8343">sin necesidad de </tspan><tspan x="0" y="112" fill="#444444" font-family="'OpenSans-Semibold'" font-size="51.8343">inventarios o </tspan><tspan x="0" y="167.9" fill="#444444" font-family="'OpenSans-Semibold'" font-size="51.8343">inversión de capital </tspan><tspan x="0" y="223.9" fill="#444444" font-family="'OpenSans-Semibold'" font-size="51.8343">por triangulación </tspan><tspan x="0" y="279.9" fill="#444444" font-family="'OpenSans-Semibold'" font-size="51.8343">e-commerce. </tspan></text>
<path fill="#429DFF" d="M209.9,78c-14.9-16.5-35.3-27.4-57.6-30.7c-4.8-0.7-9.7-1.1-14.6-1.1C84.9,46.2,42,87.6,42,138.4l0,0.7
	c0,4.5,3.7,8.2,8.3,8.2h15.5l39.5,41.4H94.6c-5.5,0-10,4.5-10,10v83.6c0,5.5,4.5,10,10,10h89c5.5,0,10-4.5,10-10v-83.6
	c0-5.5-4.5-10-10-10h-9.4l39.5-41.4H225c4.5,0,8.2-3.7,8.3-8.2l0-0.7C233.3,116.2,225,94.7,209.9,78z M218.5,132.7h-29.3
	c-0.6-25.6-4.5-46.4-11.5-61.8C185.7,75.3,193,81,199,87.8C210.3,100.3,217.2,116.2,218.5,132.7z M125.7,61.7
	c8.1-1.2,16.4-1.1,24.4,0.1c1.2,0.2,2.4,0.4,3.6,0.6c1.1,0.8,19.3,13.9,20.7,70.3h-69.2c0.5-17.5,2.8-40.6,11-57.2
	c4.9-10.1,9.8-13.1,9.8-13.1L125.7,61.7z M103.6,68c-7.9,15.7-12.3,37.4-12.9,64.6H56.9C59.1,104.7,77.2,79.8,103.6,68z
	 M126.4,248.8h23.9c5.4,0,9.9-4.4,9.9-9.9v-35.3h18.6v74H99.4v-74h17.1v35.3C116.5,244.3,120.9,248.8,126.4,248.8z M131.4,233.8
	v-30.1h13.8v30.1H131.4z M133.1,147.3v41.4h-7.3l-39.5-41.4H133.1z M153.7,188.7h-5.7v-41.4h45.2L153.7,188.7z"/>
</svg>
