<?xml version="1.0" encoding="utf-8"?>
<!-- Generator: Adobe Illustrator 18.1.1, SVG Export Plug-In . SVG Version: 6.00 Build 0)  -->
<svg version="1.1" id="Capa_1" xmlns="http://www.w3.org/2000/svg" xmlns:xlink="http://www.w3.org/1999/xlink" x="0px" y="0px"
	 viewBox="0 0 280.5 381.8" enable-background="new 0 0 280.5 381.8" xml:space="preserve">
<path fill="#FAFAFA" d="M267.8,381.8H12.7c-7,0-12.7-5.7-12.7-12.7L0,12.7C0,5.7,5.7,0,12.7,0h255.1c7,0,12.7,5.7,12.7,12.7v356.4
	C280.5,376.1,274.8,381.8,267.8,381.8z"/>
<text transform="matrix(1 0 0 1 18.7176 171.1418)" fill="#429DFF" font-family="'NexaBold'" font-size="30" letter-spacing="-1">Sistemas</text>
<g>
	<rect x="18.8" y="188.5" fill="none" width="255.2" height="160.4"/>
	<text transform="matrix(1 0 0 1 18.847 207.478)"><tspan x="0" y="0" fill="#444444" font-family="'OpenSans-Semibold'" font-size="25">Desarrollamos </tspan><tspan x="0" y="27" fill="#444444" font-family="'OpenSans-Semibold'" font-size="25">sistemas a medida, </tspan><tspan x="0" y="54" fill="#444444" font-family="'OpenSans-Semibold'" font-size="25">con el fin de </tspan><tspan x="0" y="81" fill="#444444" font-family="'OpenSans-Semibold'" font-size="25">automatizar y </tspan><tspan x="0" y="108" fill="#444444" font-family="'OpenSans-Semibold'" font-size="25">optimizar procesos.  </tspan></text>
</g>
<path fill="#429DFF" d="M115.5,93.3c-2.1,0-4.1,0.9-5.5,2.3l-12.2-7V62.5l12.1-6.9c1.4,1.5,3.4,2.4,5.6,2.4c4.3,0,7.7-3.5,7.7-7.7
	s-3.5-7.7-7.7-7.7c-4.3,0-7.7,3.5-7.7,7.7c0,0.6,0.1,1.2,0.2,1.8L96,58.9L73,45.7V32c3.3-0.9,5.7-3.9,5.7-7.5c0-4.3-3.5-7.7-7.7-7.7
	c-4.3,0-7.7,3.5-7.7,7.7c0,3.6,2.4,6.6,5.7,7.5v13.6L45.8,58.8l-11.7-6.7c0.2-0.6,0.3-1.3,0.3-2c0-4.3-3.5-7.7-7.7-7.7
	c-4.3,0-7.7,3.5-7.7,7.7s3.5,7.7,7.7,7.7c2.1,0,4.1-0.9,5.5-2.3l12,6.9v26.1L32,95.5c-1.4-1.4-3.3-2.2-5.4-2.2
	c-4.3,0-7.7,3.5-7.7,7.7c0,4.3,3.5,7.7,7.7,7.7c4.3,0,7.7-3.5,7.7-7.7c0-0.7-0.1-1.4-0.3-2.1l11.8-6.8l23.1,13.2v14.1
	c-3.3,0.9-5.7,3.9-5.7,7.5c0,4.3,3.5,7.7,7.7,7.7c4.3,0,7.7-3.5,7.7-7.7c0-3.6-2.4-6.6-5.7-7.5v-14l23.1-13.3l12,6.9
	c-0.2,0.6-0.3,1.3-0.3,2c0,4.3,3.5,7.7,7.7,7.7c4.3,0,7.7-3.5,7.7-7.7C123.3,96.8,119.8,93.3,115.5,93.3z M115.5,46.1
	c2.3,0,4.1,1.8,4.1,4.1c0,2.3-1.8,4.1-4.1,4.1c-2.3,0-4.1-1.8-4.1-4.1C111.4,47.9,113.3,46.1,115.5,46.1z M26.6,54.3
	c-2.3,0-4.1-1.8-4.1-4.1c0-2.3,1.8-4.1,4.1-4.1c2.3,0,4.1,1.8,4.1,4.1C30.7,52.4,28.9,54.3,26.6,54.3z M70.9,101.9L47.6,88.6v-4.9
	l23.3,13.4l0,0l23.4-13.4v4.8L70.9,101.9z M70.9,87.7L70.9,87.7l23.4-13.4V79L70.9,92.5L47.6,79.1v-4.8L70.9,87.7z M94.3,69.7
	L70.9,83.1L47.6,69.7v-5.2l23.3,13.4l0,0l23.4-13.4V69.7z M66.8,24.5c0-2.3,1.8-4.1,4.1-4.1c2.3,0,4.1,1.8,4.1,4.1
	c0,2.3-1.8,4.1-4.1,4.1C68.7,28.6,66.8,26.7,66.8,24.5z M70.8,49.1l21.1,12.1l-21,12L49.8,61.2L70.8,49.1z M26.6,105.2
	c-2.3,0-4.1-1.8-4.1-4.1c0-2.3,1.8-4.1,4.1-4.1c2.3,0,4.1,1.8,4.1,4.1C30.7,103.3,28.9,105.2,26.6,105.2z M75,127
	c0,2.3-1.8,4.1-4.1,4.1c-2.3,0-4.1-1.8-4.1-4.1c0-2.3,1.8-4.1,4.1-4.1C73.2,122.9,75,124.7,75,127z M115.5,105.2
	c-2.3,0-4.1-1.8-4.1-4.1c0-2.3,1.8-4.1,4.1-4.1c2.3,0,4.1,1.8,4.1,4.1C119.6,103.3,117.8,105.2,115.5,105.2z"/>
</svg>
