<?xml version="1.0" encoding="utf-8"?>
<!-- Generator: Adobe Illustrator 18.1.1, SVG Export Plug-In . SVG Version: 6.00 Build 0)  -->
<svg version="1.1" id="Capa_1" xmlns="http://www.w3.org/2000/svg" xmlns:xlink="http://www.w3.org/1999/xlink" x="0px" y="0px"
	 viewBox="0 0 280.5 381.8" enable-background="new 0 0 280.5 381.8" xml:space="preserve">
<path fill="#FAFAFA" d="M267.8,381.8H12.7c-7,0-12.7-5.7-12.7-12.7V12.7C0,5.7,5.7,0,12.7,0h255.1c7,0,12.7,5.7,12.7,12.7v356.4
	C280.5,376.1,274.8,381.8,267.8,381.8z"/>
<g>
	<path fill="#429DFF" d="M23.9,162v-3.2h3c2.1,0,4.4-0.6,4.4-2.5c0-1.2-1-2.8-4.3-2.8c-1.9,0-4.4,0.7-4.4,2.6h-4
		c0-4.5,4.5-6.2,8.4-6.2c4,0,8.2,1.9,8.2,6.4c0,1.7-1.1,3.6-2.9,4.1c2,0.7,3.4,2.6,3.4,4.4c0,5.1-4.8,6.7-8.9,6.7
		c-4,0-8.5-1.7-8.6-6.4h4c0,2.2,2.9,2.9,4.6,2.9c2,0,4.7-0.8,4.7-3.1c0-1.3-0.7-2.8-4.5-2.8H23.9z"/>
	<path fill="#429DFF" d="M56.4,160.5c0.1,5.3-3.1,10.7-10.5,10.7c-2.6,0-5.7,0-8.2,0v-21c2.6,0,5.7,0,8.2,0
		C53.1,150.1,56.3,155.3,56.4,160.5z M41.6,167.3h4.3c4.8,0,6.7-3.5,6.6-6.9c-0.1-3.3-2-6.5-6.6-6.5h-4.3V167.3z"/>
</g>
<g>
	<g>
		<path fill="#444444" d="M34.4,197.6c0,2.7-0.8,4.8-2.3,6.2c-1.5,1.4-3.7,2.2-6.5,2.2H21v-16.4h5.1c2.6,0,4.6,0.7,6.1,2.1
			C33.6,193.1,34.4,195,34.4,197.6z M31.5,197.7c0-3.9-1.8-5.9-5.5-5.9h-2.3v11.9h1.9C29.6,203.7,31.5,201.7,31.5,197.7z"/>
		<path fill="#444444" d="M37.5,190.2c0-0.5,0.1-0.8,0.4-1.1c0.3-0.3,0.6-0.4,1.1-0.4c0.5,0,0.8,0.1,1.1,0.4
			c0.3,0.3,0.4,0.6,0.4,1.1c0,0.4-0.1,0.8-0.4,1.1c-0.3,0.3-0.6,0.4-1.1,0.4c-0.5,0-0.8-0.1-1.1-0.4C37.6,191,37.5,190.7,37.5,190.2
			z M40.3,206h-2.6v-12.4h2.6V206z"/>
		<path fill="#444444" d="M52.4,202.4c0,1.2-0.4,2.1-1.3,2.8c-0.9,0.6-2.1,1-3.8,1c-1.7,0-3-0.3-4-0.8v-2.3c1.5,0.7,2.8,1,4.1,1
			c1.6,0,2.4-0.5,2.4-1.5c0-0.3-0.1-0.6-0.3-0.8c-0.2-0.2-0.5-0.4-0.9-0.7s-1-0.5-1.7-0.8c-1.4-0.6-2.4-1.1-2.9-1.7
			c-0.5-0.6-0.8-1.3-0.8-2.2c0-1.1,0.4-1.9,1.3-2.5c0.9-0.6,2-0.9,3.5-0.9c1.5,0,2.8,0.3,4.1,0.9l-0.9,2c-1.3-0.6-2.5-0.8-3.4-0.8
			c-1.4,0-2.1,0.4-2.1,1.2c0,0.4,0.2,0.7,0.5,1c0.4,0.3,1.2,0.6,2.4,1.1c1,0.4,1.8,0.8,2.2,1.1c0.5,0.3,0.8,0.7,1,1.1
			C52.3,201.3,52.4,201.8,52.4,202.4z"/>
		<path fill="#444444" d="M60.6,206.2c-1.9,0-3.4-0.6-4.5-1.7c-1.1-1.1-1.6-2.7-1.6-4.7c0-2,0.5-3.6,1.5-4.8c1-1.2,2.4-1.7,4.2-1.7
			c1.6,0,2.9,0.5,3.9,1.5c1,1,1.4,2.4,1.4,4.1v1.4h-8.3c0,1.2,0.4,2.1,1,2.8c0.6,0.6,1.5,1,2.6,1c0.7,0,1.4-0.1,2-0.2
			c0.6-0.1,1.3-0.4,2-0.7v2.1c-0.6,0.3-1.3,0.5-2,0.7C62.2,206.1,61.5,206.2,60.6,206.2z M60.2,195.3c-0.8,0-1.5,0.3-2,0.8
			c-0.5,0.5-0.8,1.3-0.9,2.3h5.6c0-1-0.3-1.8-0.7-2.3C61.7,195.6,61,195.3,60.2,195.3z"/>
		<path fill="#444444" d="M79.4,206h-2.7v-7.6c0-1-0.2-1.7-0.6-2.1c-0.4-0.5-1-0.7-1.8-0.7c-1.1,0-1.9,0.3-2.4,1
			c-0.5,0.7-0.8,1.8-0.8,3.3v6.2h-2.6v-12.4h2.1l0.4,1.6H71c0.4-0.6,0.9-1,1.6-1.4c0.7-0.3,1.5-0.5,2.3-0.5c3,0,4.5,1.5,4.5,4.5V206
			z M75.7,192c-0.3,0-0.6-0.1-0.9-0.2c-0.3-0.1-0.6-0.3-0.9-0.4s-0.6-0.3-0.9-0.4c-0.3-0.1-0.5-0.2-0.8-0.2c-0.6,0-1,0.4-1.2,1.3
			h-1.4c0.1-1,0.4-1.8,0.9-2.4c0.5-0.5,1.1-0.8,1.9-0.8c0.3,0,0.6,0.1,0.9,0.2c0.3,0.1,0.6,0.3,0.9,0.4c0.3,0.2,0.6,0.3,0.8,0.4
			c0.3,0.1,0.5,0.2,0.8,0.2c0.6,0,1-0.4,1.2-1.3h1.4c-0.1,1-0.4,1.8-0.9,2.4C77.1,191.7,76.5,192,75.7,192z"/>
		<path fill="#444444" d="M94.1,199.7c0,2-0.5,3.6-1.6,4.8c-1,1.1-2.5,1.7-4.3,1.7c-1.2,0-2.2-0.3-3.1-0.8c-0.9-0.5-1.6-1.3-2.1-2.3
			c-0.5-1-0.7-2.1-0.7-3.4c0-2,0.5-3.6,1.5-4.7c1-1.1,2.5-1.7,4.4-1.7c1.8,0,3.2,0.6,4.3,1.7C93.6,196.2,94.1,197.8,94.1,199.7z
			 M85.1,199.7c0,2.9,1.1,4.3,3.2,4.3c2.1,0,3.1-1.4,3.1-4.3c0-2.8-1.1-4.3-3.2-4.3c-1.1,0-1.9,0.4-2.4,1.1
			C85.3,197.3,85.1,198.4,85.1,199.7z"/>
		<path fill="#444444" d="M99.9,203.5c-0.4,1.4-1,3.2-2,5.4h-1.9c0.5-2,0.9-3.9,1.2-5.6h2.6L99.9,203.5z"/>
		<path fill="#444444" d="M119.7,206h-2.7v-7.7c0-1-0.2-1.7-0.5-2.1s-0.9-0.7-1.7-0.7c-1,0-1.8,0.3-2.2,1c-0.5,0.7-0.7,1.8-0.7,3.3
			v6.2h-2.6v-12.4h2.1l0.4,1.6h0.1c0.3-0.6,0.8-1,1.5-1.4c0.7-0.3,1.4-0.5,2.2-0.5c1.9,0,3.2,0.7,3.8,2h0.2c0.4-0.6,0.9-1.1,1.5-1.4
			c0.7-0.3,1.4-0.5,2.3-0.5c1.5,0,2.6,0.4,3.2,1.1c0.7,0.7,1,1.9,1,3.4v8.1h-2.6v-7.7c0-1-0.2-1.7-0.5-2.1c-0.4-0.5-0.9-0.7-1.7-0.7
			c-1,0-1.8,0.3-2.3,1c-0.5,0.6-0.7,1.6-0.7,2.9V206z"/>
		<path fill="#444444" d="M142.2,199.7c0,2-0.5,3.6-1.6,4.8c-1,1.1-2.5,1.7-4.3,1.7c-1.2,0-2.2-0.3-3.1-0.8
			c-0.9-0.5-1.6-1.3-2.1-2.3c-0.5-1-0.7-2.1-0.7-3.4c0-2,0.5-3.6,1.5-4.7c1-1.1,2.5-1.7,4.4-1.7c1.8,0,3.2,0.6,4.3,1.7
			C141.7,196.2,142.2,197.8,142.2,199.7z M133.2,199.7c0,2.9,1.1,4.3,3.2,4.3c2.1,0,3.1-1.4,3.1-4.3c0-2.8-1.1-4.3-3.2-4.3
			c-1.1,0-1.9,0.4-2.4,1.1C133.5,197.3,133.2,198.4,133.2,199.7z"/>
		<path fill="#444444" d="M149.5,206.2c-1.5,0-2.8-0.6-3.6-1.7c-0.9-1.1-1.3-2.7-1.3-4.7c0-2,0.4-3.6,1.3-4.8
			c0.9-1.1,2.1-1.7,3.7-1.7c1.6,0,2.9,0.6,3.7,1.8h0.1c-0.1-0.9-0.2-1.6-0.2-2.1v-4.5h2.7V206h-2.1l-0.5-1.6h-0.1
			C152.3,205.6,151.1,206.2,149.5,206.2z M150.2,204c1.1,0,1.9-0.3,2.4-0.9s0.7-1.6,0.8-3v-0.4c0-1.6-0.3-2.7-0.8-3.3
			c-0.5-0.7-1.3-1-2.4-1c-0.9,0-1.6,0.4-2.1,1.1c-0.5,0.8-0.8,1.8-0.8,3.2c0,1.4,0.2,2.4,0.7,3.1C148.5,203.7,149.2,204,150.2,204z"
			/>
		<path fill="#444444" d="M165,206.2c-1.9,0-3.4-0.6-4.5-1.7c-1.1-1.1-1.6-2.7-1.6-4.7c0-2,0.5-3.6,1.5-4.8c1-1.2,2.4-1.7,4.2-1.7
			c1.6,0,2.9,0.5,3.9,1.5c1,1,1.4,2.4,1.4,4.1v1.4h-8.3c0,1.2,0.4,2.1,1,2.8c0.6,0.6,1.5,1,2.6,1c0.7,0,1.4-0.1,2-0.2
			c0.6-0.1,1.3-0.4,2-0.7v2.1c-0.6,0.3-1.3,0.5-2,0.7C166.6,206.1,165.9,206.2,165,206.2z M164.6,195.3c-0.8,0-1.5,0.3-2,0.8
			c-0.5,0.5-0.8,1.3-0.9,2.3h5.6c0-1-0.3-1.8-0.7-2.3C166,195.6,165.4,195.3,164.6,195.3z"/>
		<path fill="#444444" d="M175.5,206h-2.6v-17.5h2.6V206z"/>
		<path fill="#444444" d="M187,206l-0.5-1.7h-0.1c-0.6,0.8-1.2,1.3-1.8,1.5c-0.6,0.3-1.4,0.4-2.3,0.4c-1.2,0-2.2-0.3-2.9-1
			c-0.7-0.7-1-1.6-1-2.8c0-1.3,0.5-2.2,1.4-2.9c1-0.7,2.4-1,4.3-1.1l2.1-0.1v-0.7c0-0.8-0.2-1.4-0.6-1.8c-0.4-0.4-0.9-0.6-1.7-0.6
			c-0.6,0-1.2,0.1-1.8,0.3c-0.6,0.2-1.1,0.4-1.7,0.7l-0.9-1.9c0.7-0.4,1.4-0.6,2.2-0.8c0.8-0.2,1.6-0.3,2.3-0.3c1.6,0,2.8,0.3,3.6,1
			c0.8,0.7,1.2,1.8,1.2,3.2v8.4H187z M183.1,204.2c1,0,1.7-0.3,2.3-0.8c0.6-0.5,0.9-1.3,0.9-2.3V200l-1.6,0.1
			c-1.2,0-2.1,0.3-2.7,0.6c-0.6,0.4-0.8,0.9-0.8,1.7c0,0.6,0.2,1,0.5,1.3C182,204,182.5,204.2,183.1,204.2z"/>
		<path fill="#444444" d="M196.8,206.2c-1.5,0-2.8-0.6-3.6-1.7c-0.9-1.1-1.3-2.7-1.3-4.7c0-2,0.4-3.6,1.3-4.8
			c0.9-1.1,2.1-1.7,3.7-1.7c1.6,0,2.9,0.6,3.7,1.8h0.1c-0.1-0.9-0.2-1.6-0.2-2.1v-4.5h2.7V206h-2.1l-0.5-1.6h-0.1
			C199.7,205.6,198.4,206.2,196.8,206.2z M197.5,204c1.1,0,1.9-0.3,2.4-0.9s0.7-1.6,0.8-3v-0.4c0-1.6-0.3-2.7-0.8-3.3
			c-0.5-0.7-1.3-1-2.4-1c-0.9,0-1.6,0.4-2.1,1.1c-0.5,0.8-0.8,1.8-0.8,3.2c0,1.4,0.2,2.4,0.7,3.1C195.8,203.7,196.5,204,197.5,204z"
			/>
		<path fill="#444444" d="M218,199.7c0,2-0.5,3.6-1.6,4.8c-1,1.1-2.5,1.7-4.3,1.7c-1.2,0-2.2-0.3-3.1-0.8c-0.9-0.5-1.6-1.3-2.1-2.3
			c-0.5-1-0.7-2.1-0.7-3.4c0-2,0.5-3.6,1.5-4.7c1-1.1,2.5-1.7,4.4-1.7c1.8,0,3.2,0.6,4.3,1.7C217.4,196.2,218,197.8,218,199.7z
			 M208.9,199.7c0,2.9,1.1,4.3,3.2,4.3c2.1,0,3.1-1.4,3.1-4.3c0-2.8-1.1-4.3-3.2-4.3c-1.1,0-1.9,0.4-2.4,1.1
			C209.2,197.3,208.9,198.4,208.9,199.7z"/>
		<path fill="#444444" d="M225.1,193.5h2.9l2.5,7c0.4,1,0.6,1.9,0.8,2.8h0.1c0.1-0.4,0.2-0.9,0.4-1.5c0.2-0.6,1.1-3.4,2.9-8.4h2.9
			l-5.3,14.1c-1,2.6-2.6,3.9-4.8,3.9c-0.6,0-1.2-0.1-1.7-0.2v-2.1c0.4,0.1,0.8,0.1,1.4,0.1c1.3,0,2.2-0.7,2.7-2.2l0.5-1.2
			L225.1,193.5z"/>
		<path fill="#444444" d="M28.5,233l-0.5-1.7h-0.1c-0.6,0.8-1.2,1.3-1.8,1.5c-0.6,0.3-1.4,0.4-2.3,0.4c-1.2,0-2.2-0.3-2.9-1
			c-0.7-0.7-1-1.6-1-2.8c0-1.3,0.5-2.2,1.4-2.9s2.4-1,4.3-1.1l2.1-0.1v-0.7c0-0.8-0.2-1.4-0.6-1.8c-0.4-0.4-0.9-0.6-1.7-0.6
			c-0.6,0-1.2,0.1-1.8,0.3c-0.6,0.2-1.1,0.4-1.7,0.7l-0.9-1.9c0.7-0.4,1.4-0.6,2.2-0.8s1.6-0.3,2.3-0.3c1.6,0,2.8,0.3,3.6,1
			c0.8,0.7,1.2,1.8,1.2,3.2v8.4H28.5z M24.6,231.2c1,0,1.7-0.3,2.3-0.8c0.6-0.5,0.9-1.3,0.9-2.3V227l-1.6,0.1
			c-1.2,0-2.1,0.3-2.7,0.6c-0.6,0.4-0.8,0.9-0.8,1.7c0,0.6,0.2,1,0.5,1.3C23.4,231,23.9,231.2,24.6,231.2z"/>
		<path fill="#444444" d="M45,233h-2.7v-7.6c0-1-0.2-1.7-0.6-2.1c-0.4-0.5-1-0.7-1.8-0.7c-1.1,0-1.9,0.3-2.4,1
			c-0.5,0.7-0.8,1.8-0.8,3.3v6.2h-2.6v-12.4h2.1l0.4,1.6h0.1c0.4-0.6,0.9-1,1.6-1.4c0.7-0.3,1.5-0.5,2.3-0.5c3,0,4.5,1.5,4.5,4.5
			V233z"/>
		<path fill="#444444" d="M48.5,217.2c0-0.5,0.1-0.8,0.4-1.1c0.3-0.3,0.6-0.4,1.1-0.4c0.5,0,0.8,0.1,1.1,0.4
			c0.3,0.3,0.4,0.6,0.4,1.1c0,0.4-0.1,0.8-0.4,1.1c-0.3,0.3-0.6,0.4-1.1,0.4c-0.5,0-0.8-0.1-1.1-0.4C48.6,218,48.5,217.7,48.5,217.2
			z M51.3,233h-2.6v-12.4h2.6V233z"/>
		<path fill="#444444" d="M65.6,233h-2.7v-7.7c0-1-0.2-1.7-0.5-2.1s-0.9-0.7-1.7-0.7c-1,0-1.8,0.3-2.2,1c-0.5,0.7-0.7,1.8-0.7,3.3
			v6.2h-2.6v-12.4h2.1l0.4,1.6h0.1c0.3-0.6,0.8-1,1.5-1.4c0.7-0.3,1.4-0.5,2.2-0.5c1.9,0,3.2,0.7,3.8,2h0.2c0.4-0.6,0.9-1.1,1.5-1.4
			c0.7-0.3,1.4-0.5,2.3-0.5c1.5,0,2.6,0.4,3.2,1.1c0.7,0.7,1,1.9,1,3.4v8.1h-2.6v-7.7c0-1-0.2-1.7-0.5-2.1c-0.4-0.5-0.9-0.7-1.7-0.7
			c-1,0-1.8,0.3-2.3,1c-0.5,0.6-0.7,1.6-0.7,2.9V233z"/>
		<path fill="#444444" d="M84.8,233l-0.5-1.7h-0.1c-0.6,0.8-1.2,1.3-1.8,1.5c-0.6,0.3-1.4,0.4-2.3,0.4c-1.2,0-2.2-0.3-2.9-1
			c-0.7-0.7-1-1.6-1-2.8c0-1.3,0.5-2.2,1.4-2.9s2.4-1,4.3-1.1l2.1-0.1v-0.7c0-0.8-0.2-1.4-0.6-1.8c-0.4-0.4-0.9-0.6-1.7-0.6
			c-0.6,0-1.2,0.1-1.8,0.3c-0.6,0.2-1.1,0.4-1.7,0.7l-0.9-1.9c0.7-0.4,1.4-0.6,2.2-0.8s1.6-0.3,2.3-0.3c1.6,0,2.8,0.3,3.6,1
			c0.8,0.7,1.2,1.8,1.2,3.2v8.4H84.8z M80.9,231.2c1,0,1.7-0.3,2.3-0.8c0.6-0.5,0.9-1.3,0.9-2.3V227l-1.6,0.1
			c-1.2,0-2.1,0.3-2.7,0.6c-0.6,0.4-0.8,0.9-0.8,1.7c0,0.6,0.2,1,0.5,1.3C79.8,231,80.3,231.2,80.9,231.2z"/>
		<path fill="#444444" d="M95.4,233.2c-1.9,0-3.3-0.5-4.3-1.6c-1-1.1-1.5-2.7-1.5-4.7c0-2.1,0.5-3.7,1.5-4.8c1-1.1,2.5-1.7,4.4-1.7
			c1.3,0,2.5,0.2,3.5,0.7l-0.8,2.1c-1.1-0.4-2-0.7-2.8-0.7c-2.1,0-3.2,1.4-3.2,4.3c0,1.4,0.3,2.4,0.8,3.1c0.5,0.7,1.3,1,2.4,1
			c1.2,0,2.3-0.3,3.3-0.9v2.3c-0.5,0.3-1,0.5-1.5,0.6C96.8,233.1,96.2,233.2,95.4,233.2z"/>
		<path fill="#444444" d="M101.6,217.2c0-0.5,0.1-0.8,0.4-1.1c0.3-0.3,0.6-0.4,1.1-0.4c0.5,0,0.8,0.1,1.1,0.4
			c0.3,0.3,0.4,0.6,0.4,1.1c0,0.4-0.1,0.8-0.4,1.1c-0.3,0.3-0.6,0.4-1.1,0.4c-0.5,0-0.8-0.1-1.1-0.4
			C101.8,218,101.6,217.7,101.6,217.2z M104.4,233h-2.6v-12.4h2.6V233z"/>
		<path fill="#444444" d="M119.2,226.7c0,2-0.5,3.6-1.6,4.8c-1,1.1-2.5,1.7-4.3,1.7c-1.2,0-2.2-0.3-3.1-0.8
			c-0.9-0.5-1.6-1.3-2.1-2.3c-0.5-1-0.7-2.1-0.7-3.4c0-2,0.5-3.6,1.5-4.7c1-1.1,2.5-1.7,4.4-1.7c1.8,0,3.2,0.6,4.3,1.7
			C118.7,223.2,119.2,224.8,119.2,226.7z M110.2,226.7c0,2.9,1.1,4.3,3.2,4.3c2.1,0,3.1-1.4,3.1-4.3c0-2.8-1.1-4.3-3.2-4.3
			c-1.1,0-1.9,0.4-2.4,1.1C110.4,224.3,110.2,225.4,110.2,226.7z M111.6,219v-0.3c0.4-0.5,0.9-1.1,1.3-1.8c0.5-0.6,0.8-1.2,1.1-1.7
			h3.1v0.2c-0.4,0.5-1,1-1.7,1.8c-0.8,0.7-1.4,1.3-2,1.7H111.6z"/>
		<path fill="#444444" d="M133.2,233h-2.7v-7.6c0-1-0.2-1.7-0.6-2.1c-0.4-0.5-1-0.7-1.8-0.7c-1.1,0-1.9,0.3-2.4,1
			c-0.5,0.7-0.8,1.8-0.8,3.3v6.2h-2.6v-12.4h2.1l0.4,1.6h0.1c0.4-0.6,0.9-1,1.6-1.4c0.7-0.3,1.5-0.5,2.3-0.5c3,0,4.5,1.5,4.5,4.5
			V233z"/>
		<path fill="#444444" d="M147,233.2c-1.5,0-2.8-0.6-3.6-1.7c-0.9-1.1-1.3-2.7-1.3-4.7c0-2,0.4-3.6,1.3-4.8c0.9-1.1,2.1-1.7,3.7-1.7
			c1.6,0,2.9,0.6,3.7,1.8h0.1c-0.1-0.9-0.2-1.6-0.2-2.1v-4.5h2.7V233h-2.1l-0.5-1.6h-0.1C149.9,232.6,148.7,233.2,147,233.2z
			 M147.7,231c1.1,0,1.9-0.3,2.4-0.9s0.7-1.6,0.8-3v-0.4c0-1.6-0.3-2.7-0.8-3.3c-0.5-0.7-1.3-1-2.4-1c-0.9,0-1.6,0.4-2.1,1.1
			c-0.5,0.8-0.8,1.8-0.8,3.2c0,1.4,0.2,2.4,0.7,3.1C146,230.7,146.8,231,147.7,231z"/>
		<path fill="#444444" d="M162.6,233.2c-1.9,0-3.4-0.6-4.5-1.7c-1.1-1.1-1.6-2.7-1.6-4.7c0-2,0.5-3.6,1.5-4.8c1-1.2,2.4-1.7,4.2-1.7
			c1.6,0,2.9,0.5,3.9,1.5c1,1,1.4,2.4,1.4,4.1v1.4h-8.3c0,1.2,0.4,2.1,1,2.8c0.6,0.6,1.5,1,2.6,1c0.7,0,1.4-0.1,2-0.2
			c0.6-0.1,1.3-0.4,2-0.7v2.1c-0.6,0.3-1.3,0.5-2,0.7C164.2,233.1,163.4,233.2,162.6,233.2z M162.1,222.3c-0.8,0-1.5,0.3-2,0.8
			c-0.5,0.5-0.8,1.3-0.9,2.3h5.6c0-1-0.3-1.8-0.7-2.3C163.6,222.6,163,222.3,162.1,222.3z"/>
		<path fill="#444444" d="M182.7,220.3c0.5,0,1,0,1.3,0.1l-0.3,2.5c-0.4-0.1-0.8-0.1-1.2-0.1c-1.1,0-1.9,0.3-2.6,1
			c-0.7,0.7-1,1.6-1,2.7v6.5h-2.6v-12.4h2.1l0.3,2.2h0.1c0.4-0.7,0.9-1.3,1.6-1.8C181.2,220.5,181.9,220.3,182.7,220.3z"/>
		<path fill="#444444" d="M191.7,233.2c-1.9,0-3.4-0.6-4.5-1.7c-1.1-1.1-1.6-2.7-1.6-4.7c0-2,0.5-3.6,1.5-4.8c1-1.2,2.4-1.7,4.2-1.7
			c1.6,0,2.9,0.5,3.9,1.5c1,1,1.4,2.4,1.4,4.1v1.4h-8.3c0,1.2,0.4,2.1,1,2.8c0.6,0.6,1.5,1,2.6,1c0.7,0,1.4-0.1,2-0.2
			c0.6-0.1,1.3-0.4,2-0.7v2.1c-0.6,0.3-1.3,0.5-2,0.7C193.3,233.1,192.6,233.2,191.7,233.2z M191.3,222.3c-0.8,0-1.5,0.3-2,0.8
			c-0.5,0.5-0.8,1.3-0.9,2.3h5.6c0-1-0.3-1.8-0.7-2.3C192.8,222.6,192.1,222.3,191.3,222.3z"/>
		<path fill="#444444" d="M210.5,233h-2.7v-7.6c0-1-0.2-1.7-0.6-2.1s-1-0.7-1.8-0.7c-1.1,0-1.9,0.3-2.4,1c-0.5,0.7-0.8,1.8-0.8,3.3
			v6.2h-2.6v-12.4h2.1l0.4,1.6h0.1c0.4-0.6,0.9-1,1.6-1.4c0.7-0.3,1.5-0.5,2.3-0.5c3,0,4.5,1.5,4.5,4.5V233z"/>
		<path fill="#444444" d="M218.4,233.2c-1.5,0-2.8-0.6-3.6-1.7c-0.9-1.1-1.3-2.7-1.3-4.7c0-2,0.4-3.6,1.3-4.8
			c0.9-1.1,2.1-1.7,3.7-1.7c1.6,0,2.9,0.6,3.7,1.8h0.1c-0.1-0.9-0.2-1.6-0.2-2.1v-4.5h2.7V233h-2.1l-0.5-1.6h-0.1
			C221.2,232.6,220,233.2,218.4,233.2z M219.1,231c1.1,0,1.9-0.3,2.4-0.9s0.7-1.6,0.8-3v-0.4c0-1.6-0.3-2.7-0.8-3.3
			c-0.5-0.7-1.3-1-2.4-1c-0.9,0-1.6,0.4-2.1,1.1c-0.5,0.8-0.8,1.8-0.8,3.2c0,1.4,0.2,2.4,0.7,3.1C217.4,230.7,218.1,231,219.1,231z"
			/>
		<path fill="#444444" d="M233.9,233.2c-1.9,0-3.4-0.6-4.5-1.7c-1.1-1.1-1.6-2.7-1.6-4.7c0-2,0.5-3.6,1.5-4.8c1-1.2,2.4-1.7,4.2-1.7
			c1.6,0,2.9,0.5,3.9,1.5c1,1,1.4,2.4,1.4,4.1v1.4h-8.3c0,1.2,0.4,2.1,1,2.8c0.6,0.6,1.5,1,2.6,1c0.7,0,1.4-0.1,2-0.2
			c0.6-0.1,1.3-0.4,2-0.7v2.1c-0.6,0.3-1.3,0.5-2,0.7C235.5,233.1,234.8,233.2,233.9,233.2z M233.4,222.3c-0.8,0-1.5,0.3-2,0.8
			c-0.5,0.5-0.8,1.3-0.9,2.3h5.6c0-1-0.3-1.8-0.7-2.3C234.9,222.6,234.3,222.3,233.4,222.3z"/>
		<path fill="#444444" d="M248,220.3c0.5,0,1,0,1.3,0.1l-0.3,2.5c-0.4-0.1-0.8-0.1-1.2-0.1c-1.1,0-1.9,0.3-2.6,1
			c-0.7,0.7-1,1.6-1,2.7v6.5h-2.6v-12.4h2.1l0.3,2.2h0.1c0.4-0.7,0.9-1.3,1.6-1.8C246.6,220.5,247.3,220.3,248,220.3z"/>
		<path fill="#444444" d="M260,229.4c0,1.2-0.4,2.1-1.3,2.8c-0.9,0.6-2.1,1-3.8,1c-1.7,0-3-0.3-4-0.8v-2.3c1.5,0.7,2.8,1,4.1,1
			c1.6,0,2.4-0.5,2.4-1.5c0-0.3-0.1-0.6-0.3-0.8c-0.2-0.2-0.5-0.4-0.9-0.7c-0.4-0.2-1-0.5-1.7-0.8c-1.4-0.6-2.4-1.1-2.9-1.7
			c-0.5-0.6-0.8-1.3-0.8-2.2c0-1.1,0.4-1.9,1.3-2.5s2-0.9,3.5-0.9c1.5,0,2.8,0.3,4.1,0.9l-0.9,2c-1.3-0.6-2.5-0.8-3.4-0.8
			c-1.4,0-2.1,0.4-2.1,1.2c0,0.4,0.2,0.7,0.5,1s1.2,0.6,2.4,1.1c1,0.4,1.8,0.8,2.2,1.1c0.5,0.3,0.8,0.7,1,1.1
			C259.9,228.3,260,228.8,260,229.4z"/>
		<path fill="#444444" d="M262.5,231.6c0-0.5,0.1-1,0.4-1.3c0.3-0.3,0.7-0.4,1.2-0.4c0.5,0,1,0.2,1.2,0.5c0.3,0.3,0.4,0.7,0.4,1.2
			c0,0.5-0.1,1-0.4,1.3c-0.3,0.3-0.7,0.5-1.2,0.5s-1-0.2-1.2-0.5C262.6,232.5,262.5,232.1,262.5,231.6z"/>
	</g>
</g>
<path fill="#429DFF" d="M132.8,16.8H55c-0.5,0-1,0.1-1.5,0.4c-0.1,0-0.1,0.1-0.3,0.2L53,17.5L18.7,51.8c-0.1,0.1-0.1,0.2-0.2,0.2
	l-0.7,1.4c0,0.1,0,0.2,0,0.3c0,0.1,0,0.2,0,0.3v77.7c0,0.9,0.3,1.6,0.9,2.3c0.2,0.2,0.4,0.4,0.7,0.5l0.4,0.2l0.3-0.7l-0.1,0.7
	l0.6,0.1c0.1,0,0.2,0,0.3,0h77.8l0,0c0.1,0,0.2,0,0.3,0l-0.1-0.7l0,0l0.2,0.7l1.5-0.7c0.1-0.1,0.2-0.1,0.2-0.2l34-34l0.4-0.6
	c0-0.1,0.1-0.1,0.1-0.2c0.2-0.4,0.3-0.9,0.3-1.4V20C135.9,18.2,134.5,16.8,132.8,16.8z M95.6,100.9v27.7h-67l27.7-27.7H95.6z
	 M28.6,50.8l23.2-23.2v23.2H28.6z M51.8,57.1v39.3l-27.7,27.7v-67H51.8z M95.6,57.1v37.4H58.1V57.1H95.6z M125.1,23.1L97.4,50.8
	H58.1V23.1H125.1z M129.6,27.6v67h-27.7V55.3L129.6,27.6z M125.1,100.9l-23.2,23.2v-23.2H125.1z M18.9,52.8L18.9,52.8L18.9,52.8
	L18.9,52.8z M18.8,53L18.8,53L18.8,53L18.8,53z M18.7,53.2L18.7,53.2L18.7,53.2L18.7,53.2z M18.6,53.4L18.6,53.4L18.6,53.4
	L18.6,53.4z M20.3,134.1L20.3,134.1L20.3,134.1L20.3,134.1z M20.5,134.1L20.5,134.1L20.5,134.1L20.5,134.1z M20.7,134.2L20.7,134.2
	L20.7,134.2L20.7,134.2z M99.1,134.2L99.1,134.2L99.1,134.2L99.1,134.2z M99.4,134.1L99.4,134.1L99.4,134.1L99.4,134.1z M99.6,134
	L99.6,134L99.6,134L99.6,134z M99.8,133.9L99.8,133.9L99.8,133.9L99.8,133.9z M100,133.8L100,133.8L100,133.8L100,133.8z
	 M100.2,133.7L100.2,133.7L100.2,133.7L100.2,133.7z M134.9,98.9L134.9,98.9L134.9,98.9L134.9,98.9z"/>
</svg>
