<?xml version="1.0" encoding="utf-8"?>
<!-- Generator: Adobe Illustrator 18.1.1, SVG Export Plug-In . SVG Version: 6.00 Build 0)  -->
<svg version="1.1" id="Capa_1" xmlns="http://www.w3.org/2000/svg" xmlns:xlink="http://www.w3.org/1999/xlink" x="0px" y="0px"
	 viewBox="0 0 85.5 56.8" enable-background="new 0 0 85.5 56.8" xml:space="preserve">
<g>
	<g>
		<rect x="0" y="0" fill="#EC2224" width="85.5" height="56.8"/>
		<rect x="21.3" y="0" fill="#FFFFFF" width="42.8" height="56.8"/>
	</g>
	<path fill="#EC2224" d="M42.8,10.1l-2.9,5.4c-0.3,0.6-0.9,0.5-1.5,0.2l-2.1-1.1l1.5,8.4c0.3,1.5-0.7,1.5-1.2,0.9l-3.7-4.1l-0.6,2.1
		c-0.1,0.3-0.4,0.5-0.9,0.5l-4.6-1l1.2,4.5c0.2,1,0.5,1.4-0.2,1.6l-1.6,0.8l8,6.6c0.3,0.2,0.5,0.7,0.4,1.1l-0.7,2.3
		c2.8-0.3,5.3-0.8,8-1.1c0.2,0,0.6,0.4,0.6,0.7L42,46.2h1.3l-0.2-8.4c0-0.3,0.4-0.7,0.6-0.7c2.8,0.3,5.3,0.8,8,1.1L51,35.9
		c-0.1-0.4,0.1-0.9,0.4-1.1l8-6.5l-1.6-0.8c-0.7-0.2-0.5-0.7-0.2-1.6l1.2-4.5l-4.6,1c-0.5,0.1-0.8-0.2-0.9-0.5l-0.6-2.1L48.9,24
		c-0.5,0.7-1.6,0.7-1.2-0.9l1.5-8.4l-2.1,1c-0.6,0.3-1.2,0.4-1.5-0.2L42.8,10.1z"/>
</g>
</svg>
