<?xml version="1.0" encoding="utf-8"?>
<!-- Generator: Adobe Illustrator 18.1.1, SVG Export Plug-In . SVG Version: 6.00 Build 0)  -->
<svg version="1.1" id="Capa_1" xmlns="http://www.w3.org/2000/svg" xmlns:xlink="http://www.w3.org/1999/xlink" x="0px" y="0px"
	 viewBox="0 0 315.1 96.7" enable-background="new 0 0 315.1 96.7" xml:space="preserve">
<path fill="#429DFF" d="M310.7,96.7H4.4c-2.5,0-4.4-2-4.4-4.4V4.4C0,2,2,0,4.4,0h306.2c2.5,0,4.4,2,4.4,4.4v87.8
	C315.1,94.7,313.1,96.7,310.7,96.7z"/>
<g>
	<path fill="#FFFFFF" d="M104.3,63.4H77.7c0-11.8,0-23.7,0-35.6h26.6v6.5h-20v8.2h19.3v6.3H84.3v8h20V63.4z"/>
	<path fill="#FFFFFF" d="M127.5,63.4V50.3c0-3.8-2.1-6.7-6-6.7c-3.8,0-6.4,3.2-6.4,7v12.8h-6.2V38.3h5.5l0.4,3.4
		c2.5-2.5,5.1-3.8,8.2-3.8c5.9,0,10.6,4.4,10.6,12.3v13.2H127.5z"/>
	<path fill="#FFFFFF" d="M163.4,38.3l-10.7,25.2H146l-10.7-25.2h6.8l3.5,8.3l3.9,10.6l3.8-10.5l3.5-8.4H163.4z"/>
	<path fill="#FFFFFF" d="M173.2,31.3c0,4.8-7.3,4.8-7.3,0S173.2,26.5,173.2,31.3z M166.4,38.3v25.2h6.2V38.3H166.4z"/>
	<path fill="#FFFFFF" d="M198.1,38.4h5.9v25.1h-5.8l-0.3-3.7c-1.4,2.9-5.3,4.4-8.1,4.4c-7.4,0.1-12.9-4.5-12.9-13.3
		c0-8.6,5.7-13.2,13.1-13.1c3.4,0,6.6,1.6,8,4.1L198.1,38.4z M183,50.9c0,4.8,3.3,7.6,7.4,7.6c9.8,0,9.8-15.2,0-15.2
		C186.3,43.3,183,46.1,183,50.9z"/>
	<path fill="#FFFFFF" d="M215,38.4l0.5,2.9c1.9-3.1,4.5-3.6,7.1-3.6c2.6,0,5.1,1,6.5,2.4l-2.8,5.4c-1.3-1.1-2.4-1.6-4.5-1.6
		c-3.3,0-6.3,1.7-6.3,6.4v13.2h-6.2V38.4H215z"/>
</g>
</svg>
