<?xml version="1.0" encoding="utf-8"?>
<!-- Generator: Adobe Illustrator 18.1.1, SVG Export Plug-In . SVG Version: 6.00 Build 0)  -->
<svg version="1.1" id="Capa_1" xmlns="http://www.w3.org/2000/svg" xmlns:xlink="http://www.w3.org/1999/xlink" x="0px" y="0px"
	 viewBox="0 0 314 89.9" enable-background="new 0 0 314 89.9" xml:space="preserve">
<rect x="0" y="0" fill="none" width="314" height="89.8"/>
<path fill="#FFFFFF" d="M310.1,2.8c-0.8-0.7-1.8-1-2.8-0.8l-32.2,5c-1.9,0.3-3.1,2-2.8,3.9c0.3,1.9,2,3.1,3.9,2.8l23.2-3.6
	c-37.9,46.4-114.6,69.2-171,70.8c-77,2.2-120.1-49-120.5-49.6c-1.2-1.5-3.3-1.7-4.8-0.5c-1.5,1.2-1.7,3.3-0.5,4.8
	c0.5,0.6,11.5,13.8,32.6,27C53.8,74.3,84,87.8,123.6,87.8c1.6,0,3.2,0,4.9-0.1c37.7-1.1,75.3-9.6,108.6-24.8
	c28.3-12.9,51.9-29.8,67.1-48.1l-0.5,21.5c0,1.9,1.5,3.4,3.3,3.5c0,0,0,0,0.1,0c1.8,0,3.4-1.5,3.4-3.3l0.7-31.1
	C311.3,4.4,310.9,3.5,310.1,2.8z"/>
</svg>
