<?xml version="1.0" encoding="utf-8"?>
<!-- Generator: Adobe Illustrator 18.1.1, SVG Export Plug-In . SVG Version: 6.00 Build 0)  -->
<svg version="1.1" id="Capa_1" xmlns="http://www.w3.org/2000/svg" xmlns:xlink="http://www.w3.org/1999/xlink" x="0px" y="0px"
	 viewBox="0 0 313.2 313.2" enable-background="new 0 0 313.2 313.2" xml:space="preserve">
<rect x="0" y="0" fill="none" width="313.2" height="313.2"/>
<g>
	<g>
		<path fill="#FFFFFF" d="M219.2,141.7c-3.2,0-5.8-2.6-5.8-5.8c0-19.8-16.1-35.9-35.9-35.9c-3.2,0-5.8-2.6-5.8-5.8s2.6-5.8,5.8-5.8
			c26.2,0,47.4,21.3,47.4,47.4C225,139.1,222.4,141.7,219.2,141.7z"/>
	</g>
	<g>
		<path fill="#FFFFFF" d="M260.8,141.7c-3.2,0-5.8-2.6-5.8-5.8c0-42.7-34.8-77.5-77.5-77.5c-3.2,0-5.8-2.6-5.8-5.8
			c0-3.2,2.6-5.8,5.8-5.8c49.1,0,89.1,40,89.1,89.1C266.6,139.1,264,141.7,260.8,141.7z"/>
	</g>
	<g>
		<path fill="#FFFFFF" d="M302.5,141.7c-3.2,0-5.8-2.6-5.8-5.8c0-65.7-53.5-119.2-119.2-119.2c-3.2,0-5.8-2.6-5.8-5.8
			s2.6-5.8,5.8-5.8c72.1,0,130.8,58.7,130.8,130.7C308.3,139.1,305.7,141.7,302.5,141.7z"/>
	</g>
	<g>
		<g>
			<g>
				<path fill="#FFFFFF" d="M292.1,308.3c-158.2,0-287-128.7-287-286.9c0-8.9,7.3-16.2,16.2-16.2h62.5c8.9,0,16.2,7.3,16.2,16.2
					c0,29.4,6.4,57.3,19,83.1c1.9,3.8,2.2,8.4,0.8,12.4c-1.4,4.1-4.4,7.4-8.3,9.3l-28.3,13.7c22,37.3,53.1,68.4,90.4,90.4l13.7-28.3
					c1.9-3.9,5.2-6.8,9.3-8.3c4-1.4,8.6-1.1,12.5,0.8c25.7,12.6,53.7,18.9,83,18.9c8.9,0,16.2,7.3,16.2,16.2v62.5
					C308.3,301.1,301,308.3,292.1,308.3z M21.3,16.8c-2.5,0-4.6,2.1-4.6,4.6c0,151.8,123.5,275.4,275.4,275.4c2.5,0,4.6-2.1,4.6-4.6
					v-62.5c0-2.6-2.1-4.6-4.6-4.6c-31.1,0-60.8-6.8-88.1-20.1c-1.1-0.6-2.4-0.6-3.5-0.2c-1.2,0.4-2.2,1.3-2.7,2.4l-19,39.4l-5.4-3
					C129.9,219.2,94.2,183.5,70,140.2l-3-5.4l39.4-19.1c1.1-0.5,2-1.5,2.4-2.7c0.4-1.1,0.3-2.4-0.2-3.5
					c-13.4-27.4-20.1-57-20.1-88.2c0-2.5-2.1-4.6-4.6-4.6H21.3z"/>
			</g>
		</g>
	</g>
</g>
</svg>
