<?xml version="1.0" encoding="utf-8"?>
<!-- Generator: Adobe Illustrator 18.1.1, SVG Export Plug-In . SVG Version: 6.00 Build 0)  -->
<svg version="1.1" id="Capa_1" xmlns="http://www.w3.org/2000/svg" xmlns:xlink="http://www.w3.org/1999/xlink" x="0px" y="0px"
	 viewBox="0 0 224.2 60.1" enable-background="new 0 0 224.2 60.1" xml:space="preserve">
<g>
	<path fill="#2BFDB1" d="M218.1,60.1H6.1C2.8,60.1,0,57.4,0,54V6.1C0,2.8,2.8,0,6.1,0h211.9c3.4,0,6.1,2.8,6.1,6.1V54
		C224.2,57.4,221.4,60.1,218.1,60.1z M6.1,3C4.4,3,3,4.4,3,6.1V54c0,1.7,1.4,3.1,3.1,3.1h211.9c1.7,0,3.1-1.4,3.1-3.1V6.1
		c0-1.7-1.4-3.1-3.1-3.1H6.1z"/>
</g>
<g>
	<path fill="#FFFFFF" d="M40.4,23.6V35h7.1v2.4h-9.7V23.6H40.4z"/>
	<path fill="#FFFFFF" d="M51.9,23.6V35H59v2.4h-9.7V23.6H51.9z"/>
	<path fill="#FFFFFF" d="M70.7,34.8h-7.2l-1.2,2.6h-2.8l6.2-13.8h2.8l6.2,13.8h-2.8L70.7,34.8z M67.1,26.5l-2.6,5.9h5.1L67.1,26.5z"
		/>
	<path fill="#FFFFFF" d="M87.7,27.4l-4.5,6h-0.5l-4.4-6v10.1h-2.6V23.6h3l4.3,5.9l4.3-5.9h3v13.8h-2.6V27.4z"/>
	<path fill="#FFFFFF" d="M102.6,34.8h-7.2l-1.2,2.6h-2.8l6.2-13.8h2.8l6.2,13.8h-2.8L102.6,34.8z M99,26.5l-2.6,5.9h5.1L99,26.5z"/>
	<path fill="#FFFFFF" d="M116.9,23.6h2.6v13.9h-1.6v0l-7.3-9.3v9.3H108V23.6h2.1l6.8,8.6V23.6z"/>
	<path fill="#FFFFFF" d="M135.7,30.6c0,3.6-2.2,7.2-7.1,7.2c-4.9,0-7.1-3.5-7.1-7.1c0-3.6,2.3-7.3,7.1-7.3
		C133.3,23.3,135.7,27,135.7,30.6z M124,30.7c0.1,2.3,1.3,4.7,4.5,4.7s4.5-2.5,4.5-4.7c0-2.3-1.3-4.9-4.5-4.9S124,28.3,124,30.7z"/>
	<path fill="#FFFFFF" d="M146.5,27c-0.5-0.8-1.8-1.5-3.3-1.5c-1.9,0-2.9,0.8-2.9,1.8c0,1.2,1.4,1.5,3.1,1.7c2.9,0.4,5.6,1.1,5.6,4.4
		c0,3.1-2.7,4.4-5.8,4.4c-2.8,0-5-0.9-6-3.4l2.2-1.1c0.6,1.5,2.2,2.2,3.9,2.2c1.6,0,3.2-0.6,3.2-2.1c0-1.3-1.4-1.8-3.2-2
		c-2.8-0.3-5.4-1.1-5.4-4.2c0-2.8,2.8-4,5.4-4c2.2,0,4.4,0.6,5.4,2.7L146.5,27z"/>
	<path fill="#FFFFFF" d="M160.9,29.3l3.7-5.7h3.1v0.1l-5.5,8v5.7h-2.6v-5.7l-5.3-8v-0.1h3.1L160.9,29.3z"/>
	<path fill="#FFFFFF" d="M178.6,34.8h-7.2l-1.2,2.6h-2.8l6.2-13.8h2.8l6.2,13.8h-2.8L178.6,34.8z M175,26.5l-2.6,5.9h5.1L175,26.5z"
		/>
	<path fill="#FFFFFF" d="M187,36c0,2.1-3.2,2.1-3.2,0C183.8,33.9,187,33.9,187,36z M186.7,23.6v10.2h-2.6V23.6H186.7z"/>
</g>
</svg>
