<?xml version="1.0" encoding="utf-8"?>
<!-- Generator: Adobe Illustrator 18.1.1, SVG Export Plug-In . SVG Version: 6.00 Build 0)  -->
<svg version="1.1" id="Capa_1" xmlns="http://www.w3.org/2000/svg" xmlns:xlink="http://www.w3.org/1999/xlink" x="0px" y="0px"
	 viewBox="0 0 313.2 313.2" enable-background="new 0 0 313.2 313.2" xml:space="preserve">
<rect x="0" y="0" fill="none" width="313.2" height="313.2"/>
<g>
	<path fill="#FFFFFF" d="M157,2.5C93.5,2.5,41.9,54.2,41.9,117.7c0,95.2,107.4,186.6,112,190.4c0.9,0.8,2,1.1,3.1,1.1
		c1.1,0,2.2-0.4,3-1.1c4.6-3.8,112-93.6,112-190.5C272,54.2,220.4,2.5,157,2.5z M157,298.1c-17.7-15.8-105.5-98.4-105.5-180.4
		C51.5,59.5,98.8,12.1,157,12.1s105.5,47.4,105.5,105.7C262.4,201.2,174.7,282.6,157,298.1z"/>
	<path fill="#FFFFFF" d="M157,60c-31.7,0-57.5,25.8-57.5,57.5s25.8,57.5,57.5,57.5s57.5-25.8,57.5-57.5S188.7,60,157,60z M157,165.5
		c-26.4,0-47.9-21.5-47.9-47.9s21.5-47.9,47.9-47.9s47.9,21.5,47.9,47.9S183.4,165.5,157,165.5z"/>
</g>
</svg>
