<?xml version="1.0" encoding="utf-8"?>
<!-- Generator: Adobe Illustrator 18.1.1, SVG Export Plug-In . SVG Version: 6.00 Build 0)  -->
<svg version="1.1" id="Capa_1" xmlns="http://www.w3.org/2000/svg" xmlns:xlink="http://www.w3.org/1999/xlink" x="0px" y="0px"
	 viewBox="0 0 313.2 313.2" enable-background="new 0 0 313.2 313.2" xml:space="preserve">
<rect x="0" y="0" fill="none" width="313.2" height="313.2"/>
<g>
	<path fill="#FFFFFF" d="M165.4,30.6c-4.7-4.3-12.4-4.3-17.1,0L5.1,117c-1.2,0.7-2,2-2,3.5v153.1c0,7,5.7,12.7,12.7,12.7h281.7
		c7,0,12.7-5.7,12.7-12.7V120.4c0-1.4-0.7-2.7-2-3.5L165.4,30.6z M152.8,37.3c0.3-0.2,0.5-0.4,0.8-0.6c0.9-0.9,2-1.3,3.2-1.3
		s2.4,0.5,3.2,1.3c0.2,0.2,0.5,0.4,0.8,0.6l139.4,84.1l-100.9,60.2c-1.9,1.1-2.5,3.6-1.4,5.5c0.8,1.3,2.1,2,3.5,2
		c0.7,0,1.4-0.2,2.1-0.6l99.1-59v143.6l-137-91.1c-4.4-3.5-12.9-3.5-17-0.2L11.2,273.1V129.5l99,59c0.6,0.4,1.4,0.6,2.1,0.6
		c1.4,0,2.7-0.7,3.5-2c1.1-1.9,0.5-4.4-1.4-5.5L13.4,121.4L152.8,37.3z M295,278.1H18.5l134.7-89.7c1.4-1.1,5.8-1.1,7.4,0.2
		L295,278.1z"/>
	<path fill="#FFFFFF" d="M55.7,132.5h202.2c2.2,0,4-1.8,4-4c0-2.2-1.8-4-4-4H55.7c-2.2,0-4,1.8-4,4
		C51.6,130.6,53.4,132.5,55.7,132.5z"/>
</g>
</svg>
