<?xml version="1.0" encoding="utf-8"?>
<!-- Generator: Adobe Illustrator 18.1.1, SVG Export Plug-In . SVG Version: 6.00 Build 0)  -->
<svg version="1.1" id="Capa_1" xmlns="http://www.w3.org/2000/svg" xmlns:xlink="http://www.w3.org/1999/xlink" x="0px" y="0px"
	 viewBox="0 0 280.5 360.5" enable-background="new 0 0 280.5 360.5" xml:space="preserve">
<path fill="#FAFAFA" d="M267.8,360.5H12.7c-7,0-12.7-5.7-12.7-12.7V12.7C0,5.7,5.7,0,12.7,0h255.1c7,0,12.7,5.7,12.7,12.7v335.1
	C280.5,354.8,274.8,360.5,267.8,360.5z"/>
<g>
	<path fill="#429DFF" d="M36.3,155.9l-6.8,9.1h-0.8l-6.7-9.1v15.3h-4v-21h4.6l6.6,9l6.6-9h4.5v21h-4V155.9z"/>
	<path fill="#429DFF" d="M54.5,156.4H58v14.8h-3.5l-0.2-2.2c-0.8,1.7-3.1,2.6-4.8,2.6c-4.4,0-7.6-2.7-7.6-7.9c0-5.1,3.4-7.8,7.7-7.7
		c2,0,3.9,0.9,4.7,2.4L54.5,156.4z M45.7,163.7c0,2.8,2,4.5,4.4,4.5c5.8,0,5.8-9,0-9C47.6,159.3,45.7,160.9,45.7,163.7z"/>
	<path fill="#429DFF" d="M63.3,156.4l0.3,1.7c1.1-1.8,2.7-2.1,4.2-2.1c1.5,0,3,0.6,3.8,1.4l-1.6,3.2c-0.8-0.6-1.4-1-2.6-1
		c-1.9,0-3.7,1-3.7,3.7v7.8h-3.7v-14.8H63.3z"/>
	<path fill="#429DFF" d="M75.3,150.2v12.1l5-5.9h4.4v0.2l-6,6.8l6.9,7.6v0.3h-4.4l-5.8-6.7v6.7h-3.7v-21H75.3z"/>
	<path fill="#429DFF" d="M89.1,165.1c0.2,1.8,1.8,3.2,4.4,3.2c1.4,0,3.1-0.5,4-1.4l2.3,2.3c-1.6,1.6-4.1,2.4-6.4,2.4
		c-5.1,0-8.1-3.2-8.1-7.9c0-4.5,3.1-7.7,7.9-7.7c4.9,0,8,3.1,7.5,9.1H89.1z M97.2,162c-0.2-1.9-1.7-2.9-3.8-2.9c-2,0-3.6,1-4.1,2.9
		H97.2z"/>
	<path fill="#429DFF" d="M106.8,152.2v4.2h4.1v3.1h-4.1v6.4c0,1.4,0.8,2.1,1.9,2.1c0.6,0,1.2-0.2,1.8-0.4l1,3.1
		c-1,0.4-1.9,0.6-3,0.6c-3.2,0.1-5.3-1.7-5.3-5.4v-6.4h-2.8v-3.1h2.8v-3.8L106.8,152.2z"/>
	<path fill="#429DFF" d="M116.4,152.2c0,2.8-4.3,2.8-4.3,0S116.4,149.3,116.4,152.2z M112.4,156.3v14.8h3.7v-14.8H112.4z"/>
	<path fill="#429DFF" d="M129.1,171.1v-7.7c0-2.2-1.2-4-3.6-4c-2.2,0-3.8,1.9-3.8,4.1v7.6h-3.6v-14.8h3.3l0.2,2
		c1.5-1.5,3-2.2,4.9-2.2c3.5,0,6.3,2.6,6.3,7.3v7.8H129.1z"/>
	<path fill="#429DFF" d="M146.3,154.9l2.7,2l-1.6,2.1c1.1,1.3,1.6,2.8,1.6,4.4c0,1.8-0.7,4.4-3.1,5.5c2.5,1.2,3.1,3,3.1,4.9
		c0,4.1-3.1,6.6-7.4,6.6s-7.5-2.6-7.5-6.6h3.6c0,1.9,1.8,3.2,3.9,3.2c2.1,0,3.8-1.1,3.8-3.2c0-2-1.9-3-3.8-3c-4.6,0-7.5-2.8-7.5-7.4
		s3.4-7.5,7.5-7.5c1.2,0,2.4,0.2,3.4,0.8L146.3,154.9z M137.6,163.4c0,2.6,1.7,4.1,3.9,4.1c2.1,0,3.8-1.6,3.8-4.1s-1.7-4.2-3.8-4.2
		C139.3,159.2,137.6,160.8,137.6,163.4z"/>
	<path fill="#429DFF" d="M173.7,160.5c0.1,5.3-3.2,10.7-10.5,10.7c-2.6,0-5.7,0-8.2,0v-21c2.6,0,5.7,0,8.2,0
		C170.4,150.1,173.6,155.3,173.7,160.5z M158.8,167.3h4.3c4.8,0,6.7-3.5,6.6-6.9c-0.1-3.3-2-6.5-6.6-6.5h-4.3V167.3z"/>
	<path fill="#429DFF" d="M178.8,152.2c0,2.8-4.3,2.8-4.3,0S178.8,149.3,178.8,152.2z M174.8,156.3v14.8h3.7v-14.8H174.8z"/>
	<path fill="#429DFF" d="M192.2,154.9l2.7,2l-1.6,2.1c1.1,1.3,1.6,2.8,1.6,4.4c0,1.8-0.7,4.4-3.1,5.5c2.5,1.2,3.1,3,3.1,4.9
		c0,4.1-3.1,6.6-7.4,6.6s-7.5-2.6-7.5-6.6h3.6c0,1.9,1.8,3.2,3.9,3.2c2.1,0,3.8-1.1,3.8-3.2c0-2-1.9-3-3.8-3c-4.6,0-7.5-2.8-7.5-7.4
		s3.4-7.5,7.5-7.5c1.2,0,2.4,0.2,3.4,0.8L192.2,154.9z M183.4,163.4c0,2.6,1.7,4.1,3.9,4.1c2.1,0,3.8-1.6,3.8-4.1s-1.7-4.2-3.8-4.2
		C185.2,159.2,183.4,160.8,183.4,163.4z"/>
	<path fill="#429DFF" d="M199.9,152.2c0,2.8-4.3,2.8-4.3,0S199.9,149.3,199.9,152.2z M195.9,156.3v14.8h3.7v-14.8H195.9z"/>
	<path fill="#429DFF" d="M206.8,152.2v4.2h4.1v3.1h-4.1v6.4c0,1.4,0.8,2.1,1.9,2.1c0.6,0,1.2-0.2,1.8-0.4l1,3.1
		c-1,0.4-1.9,0.6-3,0.6c-3.2,0.1-5.3-1.7-5.3-5.4v-6.4h-2.8v-3.1h2.8v-3.8L206.8,152.2z"/>
	<path fill="#429DFF" d="M224.2,156.4h3.5v14.8h-3.5l-0.2-2.2c-0.8,1.7-3.1,2.6-4.8,2.6c-4.4,0-7.6-2.7-7.6-7.9
		c0-5.1,3.4-7.8,7.7-7.7c2,0,3.9,0.9,4.7,2.4L224.2,156.4z M215.3,163.7c0,2.8,2,4.5,4.4,4.5c5.8,0,5.8-9,0-9
		C217.3,159.3,215.3,160.9,215.3,163.7z"/>
	<path fill="#429DFF" d="M233.2,150.2v21h-3.6v-21H233.2z"/>
</g>
<g>
	<g>
		<path fill="#444444" d="M35.7,198.4c0,2.9-0.8,5.2-2.5,6.8c-1.6,1.6-4,2.3-7.1,2.3h-5v-17.8h5.5c2.8,0,5,0.8,6.6,2.3
			C34.9,193.5,35.7,195.6,35.7,198.4z M32.6,198.5c0-4.3-2-6.4-6-6.4h-2.5v13h2.1C30.5,205,32.6,202.8,32.6,198.5z"/>
		<path fill="#444444" d="M45.1,207.7c-2.1,0-3.7-0.6-4.9-1.8c-1.2-1.2-1.8-2.9-1.8-5.1c0-2.2,0.5-3.9,1.6-5.2
			c1.1-1.3,2.6-1.9,4.5-1.9c1.8,0,3.2,0.5,4.2,1.6c1,1.1,1.6,2.6,1.6,4.5v1.6h-9c0,1.3,0.4,2.3,1.1,3c0.7,0.7,1.6,1.1,2.8,1.1
			c0.8,0,1.5-0.1,2.2-0.2c0.7-0.2,1.4-0.4,2.2-0.8v2.3c-0.7,0.3-1.4,0.6-2.1,0.7C46.9,207.7,46.1,207.7,45.1,207.7z M44.6,195.9
			c-0.9,0-1.6,0.3-2.2,0.9c-0.5,0.6-0.9,1.4-1,2.5h6.1c0-1.1-0.3-2-0.8-2.5C46.2,196.2,45.5,195.9,44.6,195.9z"/>
		<path fill="#444444" d="M62.7,203.6c0,1.3-0.5,2.3-1.4,3c-1,0.7-2.3,1.1-4.1,1.1c-1.8,0-3.2-0.3-4.3-0.8v-2.5
			c1.6,0.7,3.1,1.1,4.4,1.1c1.8,0,2.6-0.5,2.6-1.6c0-0.3-0.1-0.6-0.3-0.9c-0.2-0.2-0.5-0.5-1-0.7c-0.4-0.2-1.1-0.5-1.9-0.8
			c-1.6-0.6-2.6-1.2-3.2-1.8c-0.5-0.6-0.8-1.4-0.8-2.3c0-1.2,0.5-2.1,1.4-2.7c0.9-0.6,2.2-1,3.8-1c1.6,0,3.1,0.3,4.5,1l-0.9,2.2
			c-1.5-0.6-2.7-0.9-3.7-0.9c-1.5,0-2.3,0.4-2.3,1.3c0,0.4,0.2,0.8,0.6,1.1c0.4,0.3,1.3,0.7,2.6,1.2c1.1,0.4,1.9,0.8,2.4,1.2
			c0.5,0.4,0.9,0.8,1.1,1.2C62.6,202.4,62.7,203,62.7,203.6z"/>
		<path fill="#444444" d="M74.3,207.5l-0.6-1.9h-0.1c-0.7,0.8-1.3,1.4-2,1.7c-0.7,0.3-1.5,0.4-2.5,0.4c-1.3,0-2.4-0.4-3.1-1.1
			c-0.7-0.7-1.1-1.7-1.1-3c0-1.4,0.5-2.4,1.6-3.1c1-0.7,2.6-1.1,4.7-1.2l2.3-0.1v-0.7c0-0.9-0.2-1.5-0.6-1.9c-0.4-0.4-1-0.6-1.9-0.6
			c-0.7,0-1.4,0.1-2,0.3c-0.6,0.2-1.2,0.4-1.8,0.7l-0.9-2.1c0.7-0.4,1.5-0.7,2.4-0.9c0.9-0.2,1.7-0.3,2.5-0.3c1.7,0,3,0.4,3.9,1.1
			c0.9,0.7,1.3,1.9,1.3,3.5v9.1H74.3z M70,205.5c1,0,1.9-0.3,2.5-0.9c0.6-0.6,0.9-1.4,0.9-2.4V201l-1.7,0.1c-1.4,0-2.3,0.3-2.9,0.7
			c-0.6,0.4-0.9,1-0.9,1.8c0,0.6,0.2,1.1,0.5,1.4C68.7,205.4,69.3,205.5,70,205.5z"/>
		<path fill="#444444" d="M87.2,193.7c0.6,0,1.1,0,1.4,0.1l-0.3,2.7c-0.4-0.1-0.8-0.1-1.3-0.1c-1.1,0-2.1,0.4-2.8,1.1
			c-0.7,0.7-1.1,1.7-1.1,2.9v7.1h-2.9V194h2.2l0.4,2.4h0.1c0.4-0.8,1-1.4,1.8-1.9C85.6,194,86.3,193.7,87.2,193.7z"/>
		<path fill="#444444" d="M97.9,193.7c0.6,0,1.1,0,1.4,0.1l-0.3,2.7c-0.4-0.1-0.8-0.1-1.3-0.1c-1.1,0-2.1,0.4-2.8,1.1
			c-0.7,0.7-1.1,1.7-1.1,2.9v7.1h-2.9V194h2.2l0.4,2.4h0.1c0.4-0.8,1-1.4,1.8-1.9C96.3,194,97.1,193.7,97.9,193.7z"/>
		<path fill="#444444" d="M113.9,200.7c0,2.2-0.6,3.9-1.7,5.2c-1.1,1.2-2.7,1.9-4.7,1.9c-1.3,0-2.4-0.3-3.3-0.9
			c-1-0.6-1.7-1.4-2.2-2.5c-0.5-1.1-0.8-2.3-0.8-3.7c0-2.2,0.6-3.9,1.7-5.1c1.1-1.2,2.7-1.8,4.7-1.8c2,0,3.5,0.6,4.6,1.9
			C113.3,196.9,113.9,198.6,113.9,200.7z M104,200.7c0,3.1,1.2,4.7,3.5,4.7c2.3,0,3.4-1.6,3.4-4.7c0-3.1-1.1-4.6-3.4-4.6
			c-1.2,0-2.1,0.4-2.6,1.2C104.3,198.1,104,199.2,104,200.7z"/>
		<path fill="#444444" d="M120,207.5h-2.9v-19h2.9V207.5z"/>
		<path fill="#444444" d="M127,207.5h-2.9v-19h2.9V207.5z"/>
		<path fill="#444444" d="M139.5,207.5l-0.6-1.9h-0.1c-0.7,0.8-1.3,1.4-2,1.7c-0.7,0.3-1.5,0.4-2.5,0.4c-1.3,0-2.4-0.4-3.1-1.1
			c-0.7-0.7-1.1-1.7-1.1-3c0-1.4,0.5-2.4,1.5-3.1s2.6-1.1,4.7-1.2l2.3-0.1v-0.7c0-0.9-0.2-1.5-0.6-1.9c-0.4-0.4-1-0.6-1.9-0.6
			c-0.7,0-1.4,0.1-2,0.3c-0.6,0.2-1.2,0.4-1.8,0.7l-0.9-2.1c0.7-0.4,1.5-0.7,2.4-0.9c0.9-0.2,1.7-0.3,2.5-0.3c1.7,0,3,0.4,3.9,1.1
			s1.3,1.9,1.3,3.5v9.1H139.5z M135.3,205.5c1,0,1.9-0.3,2.5-0.9c0.6-0.6,0.9-1.4,0.9-2.4V201l-1.7,0.1c-1.4,0-2.3,0.3-2.9,0.7
			c-0.6,0.4-0.9,1-0.9,1.8c0,0.6,0.2,1.1,0.5,1.4C134,205.4,134.5,205.5,135.3,205.5z"/>
		<path fill="#444444" d="M157,207.5h-2.9v-8.3c0-1-0.2-1.8-0.6-2.3s-1-0.8-1.8-0.8c-1.1,0-1.9,0.4-2.4,1.1
			c-0.5,0.7-0.8,1.9-0.8,3.6v6.7h-2.9V194h2.2l0.4,1.8h0.1c0.4-0.6,0.9-1.1,1.6-1.5c0.7-0.3,1.5-0.5,2.3-0.5c2.1,0,3.5,0.7,4.1,2.1
			h0.2c0.4-0.7,1-1.2,1.7-1.6s1.6-0.6,2.5-0.6c1.6,0,2.8,0.4,3.5,1.2c0.7,0.8,1.1,2.1,1.1,3.7v8.8h-2.9v-8.3c0-1-0.2-1.8-0.6-2.3
			s-1-0.8-1.8-0.8c-1.1,0-1.9,0.3-2.4,1c-0.5,0.7-0.8,1.8-0.8,3.2V207.5z"/>
		<path fill="#444444" d="M181.5,200.7c0,2.2-0.6,3.9-1.7,5.2c-1.1,1.2-2.7,1.9-4.7,1.9c-1.3,0-2.4-0.3-3.3-0.9s-1.7-1.4-2.2-2.5
			c-0.5-1.1-0.8-2.3-0.8-3.7c0-2.2,0.6-3.9,1.7-5.1c1.1-1.2,2.7-1.8,4.7-1.8c2,0,3.5,0.6,4.6,1.9
			C180.9,196.9,181.5,198.6,181.5,200.7z M171.6,200.7c0,3.1,1.2,4.7,3.5,4.7c2.3,0,3.4-1.6,3.4-4.7c0-3.1-1.1-4.6-3.4-4.6
			c-1.2,0-2.1,0.4-2.6,1.2S171.6,199.2,171.6,200.7z"/>
		<path fill="#444444" d="M193.8,203.6c0,1.3-0.5,2.3-1.4,3c-1,0.7-2.3,1.1-4.1,1.1c-1.8,0-3.2-0.3-4.3-0.8v-2.5
			c1.6,0.7,3.1,1.1,4.4,1.1c1.8,0,2.6-0.5,2.6-1.6c0-0.3-0.1-0.6-0.3-0.9c-0.2-0.2-0.5-0.5-1-0.7c-0.4-0.2-1.1-0.5-1.9-0.8
			c-1.6-0.6-2.6-1.2-3.2-1.8c-0.5-0.6-0.8-1.4-0.8-2.3c0-1.2,0.5-2.1,1.4-2.7c0.9-0.6,2.2-1,3.8-1c1.6,0,3.1,0.3,4.5,1l-0.9,2.2
			c-1.5-0.6-2.7-0.9-3.7-0.9c-1.5,0-2.3,0.4-2.3,1.3c0,0.4,0.2,0.8,0.6,1.1c0.4,0.3,1.3,0.7,2.6,1.2c1.1,0.4,1.9,0.8,2.4,1.2
			c0.5,0.4,0.9,0.8,1.1,1.2C193.7,202.4,193.8,203,193.8,203.6z"/>
		<path fill="#444444" d="M30,230.6c0,1.3-0.5,2.3-1.4,3c-1,0.7-2.3,1.1-4.1,1.1c-1.8,0-3.2-0.3-4.3-0.8v-2.5
			c1.6,0.7,3.1,1.1,4.4,1.1c1.8,0,2.6-0.5,2.6-1.6c0-0.3-0.1-0.6-0.3-0.9c-0.2-0.2-0.5-0.5-1-0.7c-0.4-0.2-1.1-0.5-1.9-0.8
			c-1.6-0.6-2.6-1.2-3.2-1.8c-0.5-0.6-0.8-1.4-0.8-2.3c0-1.2,0.5-2.1,1.4-2.7c0.9-0.6,2.2-1,3.8-1c1.6,0,3.1,0.3,4.5,1l-0.9,2.2
			c-1.5-0.6-2.7-0.9-3.7-0.9c-1.5,0-2.3,0.4-2.3,1.3c0,0.4,0.2,0.8,0.6,1.1c0.4,0.3,1.3,0.7,2.6,1.2c1.1,0.4,1.9,0.8,2.4,1.2
			c0.5,0.4,0.9,0.8,1.1,1.2C29.8,229.4,30,230,30,230.6z"/>
		<path fill="#444444" d="M32.9,217.4c0-0.5,0.1-0.9,0.4-1.2c0.3-0.3,0.7-0.4,1.2-0.4c0.5,0,0.9,0.1,1.2,0.4
			c0.3,0.3,0.4,0.7,0.4,1.2c0,0.5-0.1,0.9-0.4,1.2c-0.3,0.3-0.7,0.4-1.2,0.4c-0.5,0-0.9-0.1-1.2-0.4C33,218.3,32.9,217.9,32.9,217.4
			z M35.9,234.5h-2.9V221h2.9V234.5z"/>
		<path fill="#444444" d="M49.1,230.6c0,1.3-0.5,2.3-1.4,3c-1,0.7-2.3,1.1-4.1,1.1c-1.8,0-3.2-0.3-4.3-0.8v-2.5
			c1.6,0.7,3.1,1.1,4.4,1.1c1.8,0,2.6-0.5,2.6-1.6c0-0.3-0.1-0.6-0.3-0.9c-0.2-0.2-0.5-0.5-1-0.7c-0.4-0.2-1.1-0.5-1.9-0.8
			c-1.6-0.6-2.6-1.2-3.2-1.8c-0.5-0.6-0.8-1.4-0.8-2.3c0-1.2,0.5-2.1,1.4-2.7c0.9-0.6,2.2-1,3.8-1c1.6,0,3.1,0.3,4.5,1l-0.9,2.2
			c-1.5-0.6-2.7-0.9-3.7-0.9c-1.5,0-2.3,0.4-2.3,1.3c0,0.4,0.2,0.8,0.6,1.1c0.4,0.3,1.3,0.7,2.6,1.2c1.1,0.4,1.9,0.8,2.4,1.2
			c0.5,0.4,0.9,0.8,1.1,1.2C49,229.4,49.1,230,49.1,230.6z"/>
		<path fill="#444444" d="M57.2,232.4c0.7,0,1.4-0.1,2.1-0.3v2.2c-0.3,0.1-0.7,0.3-1.2,0.3c-0.5,0.1-1,0.1-1.6,0.1
			c-2.7,0-4.1-1.4-4.1-4.3v-7.3h-1.8v-1.3l2-1l1-2.9h1.8v3h3.8v2.2h-3.8v7.2c0,0.7,0.2,1.2,0.5,1.5
			C56.2,232.2,56.7,232.4,57.2,232.4z"/>
		<path fill="#444444" d="M67.9,234.7c-2.1,0-3.7-0.6-4.9-1.8c-1.2-1.2-1.8-2.9-1.8-5.1c0-2.2,0.5-3.9,1.6-5.2
			c1.1-1.3,2.6-1.9,4.5-1.9c1.8,0,3.2,0.5,4.2,1.6c1,1.1,1.6,2.6,1.6,4.5v1.6h-9c0,1.3,0.4,2.3,1.1,3c0.7,0.7,1.6,1.1,2.8,1.1
			c0.8,0,1.5-0.1,2.2-0.2c0.7-0.2,1.4-0.4,2.2-0.8v2.3c-0.7,0.3-1.4,0.6-2.1,0.7C69.7,234.7,68.9,234.7,67.9,234.7z M67.4,222.9
			c-0.9,0-1.6,0.3-2.2,0.9c-0.5,0.6-0.9,1.4-1,2.5h6.1c0-1.1-0.3-2-0.8-2.5C69,223.2,68.3,222.9,67.4,222.9z"/>
		<path fill="#444444" d="M87.8,234.5h-2.9v-8.3c0-1-0.2-1.8-0.6-2.3s-1-0.8-1.8-0.8c-1.1,0-1.9,0.4-2.4,1.1
			c-0.5,0.7-0.8,1.9-0.8,3.6v6.7h-2.9V221h2.2l0.4,1.8h0.1c0.4-0.6,0.9-1.1,1.6-1.5c0.7-0.3,1.5-0.5,2.4-0.5c2.1,0,3.5,0.7,4.1,2.1
			h0.2c0.4-0.7,1-1.2,1.7-1.6c0.7-0.4,1.6-0.6,2.5-0.6c1.6,0,2.8,0.4,3.5,1.2c0.7,0.8,1.1,2.1,1.1,3.7v8.8h-2.9v-8.3
			c0-1-0.2-1.8-0.6-2.3c-0.4-0.5-1-0.8-1.8-0.8c-1.1,0-1.9,0.3-2.4,1c-0.5,0.7-0.8,1.8-0.8,3.2V234.5z"/>
		<path fill="#444444" d="M108.8,234.5l-0.6-1.9h-0.1c-0.7,0.8-1.3,1.4-2,1.7c-0.7,0.3-1.5,0.4-2.5,0.4c-1.3,0-2.4-0.4-3.1-1.1
			c-0.7-0.7-1.1-1.7-1.1-3c0-1.4,0.5-2.4,1.6-3.1c1-0.7,2.6-1.1,4.7-1.2l2.3-0.1v-0.7c0-0.9-0.2-1.5-0.6-1.9c-0.4-0.4-1-0.6-1.9-0.6
			c-0.7,0-1.4,0.1-2,0.3c-0.6,0.2-1.2,0.4-1.8,0.7l-0.9-2.1c0.7-0.4,1.5-0.7,2.4-0.9c0.9-0.2,1.7-0.3,2.5-0.3c1.7,0,3,0.4,3.9,1.1
			c0.9,0.7,1.3,1.9,1.3,3.5v9.1H108.8z M104.5,232.5c1,0,1.9-0.3,2.5-0.9c0.6-0.6,0.9-1.4,0.9-2.4V228l-1.7,0.1
			c-1.4,0-2.3,0.3-2.9,0.7c-0.6,0.4-0.9,1-0.9,1.8c0,0.6,0.2,1.1,0.5,1.4C103.3,232.4,103.8,232.5,104.5,232.5z"/>
		<path fill="#444444" d="M123.9,230.6c0,1.3-0.5,2.3-1.4,3c-1,0.7-2.3,1.1-4.1,1.1c-1.8,0-3.2-0.3-4.3-0.8v-2.5
			c1.6,0.7,3.1,1.1,4.4,1.1c1.8,0,2.6-0.5,2.6-1.6c0-0.3-0.1-0.6-0.3-0.9c-0.2-0.2-0.5-0.5-1-0.7c-0.4-0.2-1.1-0.5-1.9-0.8
			c-1.6-0.6-2.6-1.2-3.2-1.8c-0.5-0.6-0.8-1.4-0.8-2.3c0-1.2,0.5-2.1,1.4-2.7c0.9-0.6,2.2-1,3.8-1c1.6,0,3.1,0.3,4.5,1l-0.9,2.2
			c-1.5-0.6-2.7-0.9-3.7-0.9c-1.5,0-2.3,0.4-2.3,1.3c0,0.4,0.2,0.8,0.6,1.1c0.4,0.3,1.3,0.7,2.6,1.2c1.1,0.4,1.9,0.8,2.4,1.2
			c0.5,0.4,0.9,0.8,1.1,1.2C123.8,229.4,123.9,230,123.9,230.6z"/>
		<path fill="#444444" d="M142,234.5l-0.6-1.9h-0.1c-0.7,0.8-1.3,1.4-2,1.7c-0.7,0.3-1.5,0.4-2.5,0.4c-1.3,0-2.4-0.4-3.1-1.1
			c-0.7-0.7-1.1-1.7-1.1-3c0-1.4,0.5-2.4,1.5-3.1s2.6-1.1,4.7-1.2l2.3-0.1v-0.7c0-0.9-0.2-1.5-0.6-1.9c-0.4-0.4-1-0.6-1.9-0.6
			c-0.7,0-1.4,0.1-2,0.3c-0.6,0.2-1.2,0.4-1.8,0.7l-0.9-2.1c0.7-0.4,1.5-0.7,2.4-0.9c0.9-0.2,1.7-0.3,2.5-0.3c1.7,0,3,0.4,3.9,1.1
			s1.3,1.9,1.3,3.5v9.1H142z M137.7,232.5c1,0,1.9-0.3,2.5-0.9c0.6-0.6,0.9-1.4,0.9-2.4V228l-1.7,0.1c-1.4,0-2.3,0.3-2.9,0.7
			c-0.6,0.4-0.9,1-0.9,1.8c0,0.6,0.2,1.1,0.5,1.4C136.4,232.4,137,232.5,137.7,232.5z"/>
		<path fill="#444444" d="M165.9,234.5H163v-8.3c0-1-0.2-1.8-0.6-2.3s-1-0.8-1.8-0.8c-1.1,0-1.9,0.4-2.4,1.1
			c-0.5,0.7-0.8,1.9-0.8,3.6v6.7h-2.9V221h2.2l0.4,1.8h0.1c0.4-0.6,0.9-1.1,1.6-1.5c0.7-0.3,1.5-0.5,2.3-0.5c2.1,0,3.5,0.7,4.1,2.1
			h0.2c0.4-0.7,1-1.2,1.7-1.6s1.6-0.6,2.5-0.6c1.6,0,2.8,0.4,3.5,1.2c0.7,0.8,1.1,2.1,1.1,3.7v8.8h-2.9v-8.3c0-1-0.2-1.8-0.6-2.3
			s-1-0.8-1.8-0.8c-1.1,0-1.9,0.3-2.4,1c-0.5,0.7-0.8,1.8-0.8,3.2V234.5z"/>
		<path fill="#444444" d="M184.3,234.7c-2.1,0-3.7-0.6-4.9-1.8c-1.2-1.2-1.8-2.9-1.8-5.1c0-2.2,0.5-3.9,1.6-5.2
			c1.1-1.3,2.6-1.9,4.5-1.9c1.8,0,3.2,0.5,4.2,1.6c1,1.1,1.5,2.6,1.5,4.5v1.6h-9c0,1.3,0.4,2.3,1.1,3c0.7,0.7,1.6,1.1,2.8,1.1
			c0.8,0,1.5-0.1,2.2-0.2c0.7-0.2,1.4-0.4,2.2-0.8v2.3c-0.7,0.3-1.4,0.6-2.1,0.7C186,234.7,185.2,234.7,184.3,234.7z M183.8,222.9
			c-0.9,0-1.6,0.3-2.2,0.9c-0.5,0.6-0.9,1.4-1,2.5h6.1c0-1.1-0.3-2-0.8-2.5C185.4,223.2,184.7,222.9,183.8,222.9z"/>
		<path fill="#444444" d="M197.4,234.7c-1.7,0-3-0.6-3.9-1.8c-0.9-1.2-1.4-2.9-1.4-5.1c0-2.2,0.5-3.9,1.4-5.2c1-1.2,2.3-1.8,4-1.8
			c1.8,0,3.1,0.7,4.1,2h0.1c-0.1-1-0.2-1.7-0.2-2.3v-4.9h2.9v19H202l-0.5-1.8h-0.1C200.5,234.1,199.1,234.7,197.4,234.7z
			 M198.1,232.4c1.2,0,2-0.3,2.6-1s0.8-1.7,0.8-3.2v-0.4c0-1.7-0.3-2.9-0.8-3.6s-1.4-1.1-2.6-1.1c-1,0-1.8,0.4-2.3,1.2
			c-0.5,0.8-0.8,2-0.8,3.5c0,1.5,0.3,2.6,0.8,3.4C196.3,232,197.1,232.4,198.1,232.4z"/>
		<path fill="#444444" d="M208.2,217.4c0-0.5,0.1-0.9,0.4-1.2c0.3-0.3,0.7-0.4,1.2-0.4c0.5,0,0.9,0.1,1.2,0.4
			c0.3,0.3,0.4,0.7,0.4,1.2c0,0.5-0.1,0.9-0.4,1.2c-0.3,0.3-0.7,0.4-1.2,0.4c-0.5,0-0.9-0.1-1.2-0.4
			C208.4,218.3,208.2,217.9,208.2,217.4z M211.3,234.5h-2.9V221h2.9V234.5z"/>
		<path fill="#444444" d="M219.9,234.7c-1.7,0-3-0.6-3.9-1.8s-1.4-2.9-1.4-5.1c0-2.2,0.5-3.9,1.4-5.2c1-1.2,2.3-1.8,4-1.8
			c1.8,0,3.1,0.7,4.1,2h0.1c-0.1-1-0.2-1.7-0.2-2.3v-4.9h2.9v19h-2.2l-0.5-1.8h-0.1C223,234.1,221.7,234.7,219.9,234.7z
			 M220.7,232.4c1.2,0,2-0.3,2.6-1s0.8-1.7,0.8-3.2v-0.4c0-1.7-0.3-2.9-0.8-3.6c-0.6-0.7-1.4-1.1-2.6-1.1c-1,0-1.8,0.4-2.3,1.2
			c-0.5,0.8-0.8,2-0.8,3.5c0,1.5,0.3,2.6,0.8,3.4C218.8,232,219.6,232.4,220.7,232.4z"/>
		<path fill="#444444" d="M239.4,234.5l-0.6-1.9h-0.1c-0.7,0.8-1.3,1.4-2,1.7c-0.7,0.3-1.5,0.4-2.5,0.4c-1.3,0-2.4-0.4-3.1-1.1
			c-0.7-0.7-1.1-1.7-1.1-3c0-1.4,0.5-2.4,1.6-3.1c1-0.7,2.6-1.1,4.7-1.2l2.3-0.1v-0.7c0-0.9-0.2-1.5-0.6-1.9c-0.4-0.4-1-0.6-1.9-0.6
			c-0.7,0-1.4,0.1-2,0.3c-0.6,0.2-1.2,0.4-1.8,0.7l-0.9-2.1c0.7-0.4,1.5-0.7,2.4-0.9s1.7-0.3,2.5-0.3c1.7,0,3,0.4,3.9,1.1
			c0.9,0.7,1.3,1.9,1.3,3.5v9.1H239.4z M235.1,232.5c1,0,1.9-0.3,2.5-0.9s0.9-1.4,0.9-2.4V228l-1.7,0.1c-1.4,0-2.3,0.3-2.9,0.7
			c-0.6,0.4-0.9,1-0.9,1.8c0,0.6,0.2,1.1,0.5,1.4C233.9,232.4,234.4,232.5,235.1,232.5z"/>
		<path fill="#444444" d="M248.4,231.9c-0.4,1.5-1.1,3.5-2.1,5.8h-2.1c0.6-2.2,1-4.2,1.3-6.1h2.8L248.4,231.9z"/>
		<path fill="#444444" d="M26.3,261.7c-2,0-3.6-0.6-4.7-1.8c-1.1-1.2-1.6-2.9-1.6-5.1c0-2.3,0.6-4,1.7-5.2c1.1-1.2,2.7-1.8,4.8-1.8
			c1.4,0,2.7,0.3,3.8,0.8l-0.9,2.3c-1.2-0.5-2.2-0.7-3-0.7c-2.3,0-3.5,1.5-3.5,4.7c0,1.5,0.3,2.7,0.9,3.4c0.6,0.8,1.4,1.1,2.6,1.1
			c1.3,0,2.5-0.3,3.6-1v2.5c-0.5,0.3-1.1,0.5-1.6,0.6C27.9,261.7,27.2,261.7,26.3,261.7z"/>
		<path fill="#444444" d="M45.3,254.7c0,2.2-0.6,3.9-1.7,5.2c-1.1,1.2-2.7,1.9-4.7,1.9c-1.3,0-2.4-0.3-3.3-0.9
			c-1-0.6-1.7-1.4-2.2-2.5c-0.5-1.1-0.8-2.3-0.8-3.7c0-2.2,0.6-3.9,1.7-5.1c1.1-1.2,2.7-1.8,4.7-1.8c2,0,3.5,0.6,4.6,1.9
			C44.7,250.9,45.3,252.6,45.3,254.7z M35.4,254.7c0,3.1,1.2,4.7,3.5,4.7c2.3,0,3.4-1.6,3.4-4.7c0-3.1-1.1-4.6-3.4-4.6
			c-1.2,0-2.1,0.4-2.6,1.2C35.7,252.1,35.4,253.2,35.4,254.7z"/>
		<path fill="#444444" d="M60.4,261.5h-2.9v-8.3c0-1-0.2-1.8-0.6-2.3c-0.4-0.5-1.1-0.8-2-0.8c-1.2,0-2.1,0.4-2.7,1.1
			s-0.8,1.9-0.8,3.6v6.7h-2.9V248h2.2l0.4,1.8h0.1c0.4-0.6,1-1.1,1.7-1.5c0.7-0.3,1.6-0.5,2.5-0.5c3.2,0,4.9,1.6,4.9,4.9V261.5z"/>
		<path fill="#444444" d="M76.8,261.7c-2.1,0-3.7-0.6-4.9-1.8c-1.2-1.2-1.8-2.9-1.8-5.1c0-2.2,0.5-3.9,1.6-5.2
			c1.1-1.3,2.6-1.9,4.5-1.9c1.8,0,3.2,0.5,4.2,1.6c1,1.1,1.6,2.6,1.6,4.5v1.6h-9c0,1.3,0.4,2.3,1.1,3c0.7,0.7,1.6,1.1,2.8,1.1
			c0.8,0,1.5-0.1,2.2-0.2c0.7-0.2,1.4-0.4,2.2-0.8v2.3c-0.7,0.3-1.4,0.6-2.1,0.7C78.5,261.7,77.7,261.7,76.8,261.7z M76.3,249.9
			c-0.9,0-1.6,0.3-2.2,0.9c-0.5,0.6-0.9,1.4-1,2.5h6.1c0-1.1-0.3-2-0.8-2.5C77.9,250.2,77.2,249.9,76.3,249.9z"/>
		<path fill="#444444" d="M88.2,261.5h-2.9v-19h2.9V261.5z"/>
		<path fill="#444444" d="M105.6,250.2h-3.3v11.3h-2.9v-11.3h-2.2v-1.3l2.2-0.9V247c0-1.6,0.4-2.8,1.1-3.5c0.7-0.8,1.9-1.2,3.4-1.2
			c1,0,2,0.2,3,0.5l-0.8,2.2c-0.7-0.2-1.4-0.3-2-0.3c-0.7,0-1.1,0.2-1.4,0.6c-0.3,0.4-0.4,1-0.4,1.8v0.9h3.3V250.2z M107.7,244.4
			c0-0.5,0.1-0.9,0.4-1.2c0.3-0.3,0.7-0.4,1.2-0.4c0.5,0,0.9,0.1,1.2,0.4c0.3,0.3,0.4,0.7,0.4,1.2c0,0.5-0.1,0.9-0.4,1.2
			c-0.3,0.3-0.7,0.4-1.2,0.4c-0.5,0-0.9-0.1-1.2-0.4C107.8,245.3,107.7,244.9,107.7,244.4z M110.7,261.5h-2.9V248h2.9V261.5z"/>
		<path fill="#444444" d="M126.7,261.5h-2.9v-8.3c0-1-0.2-1.8-0.6-2.3c-0.4-0.5-1.1-0.8-2-0.8c-1.2,0-2.1,0.4-2.7,1.1
			s-0.8,1.9-0.8,3.6v6.7h-2.9V248h2.2l0.4,1.8h0.1c0.4-0.6,1-1.1,1.7-1.5c0.7-0.3,1.6-0.5,2.5-0.5c3.2,0,4.9,1.6,4.9,4.9V261.5z"/>
		<path fill="#444444" d="M141.7,261.7c-1.7,0-3-0.6-3.9-1.8c-0.9-1.2-1.4-2.9-1.4-5.1c0-2.2,0.5-3.9,1.4-5.2c1-1.2,2.3-1.8,4-1.8
			c1.8,0,3.1,0.7,4.1,2h0.1c-0.1-1-0.2-1.7-0.2-2.3v-4.9h2.9v19h-2.2l-0.5-1.8h-0.1C144.9,261.1,143.5,261.7,141.7,261.7z
			 M142.5,259.4c1.2,0,2-0.3,2.6-1s0.8-1.7,0.8-3.2v-0.4c0-1.7-0.3-2.9-0.8-3.6s-1.4-1.1-2.6-1.1c-1,0-1.8,0.4-2.3,1.2
			c-0.5,0.8-0.8,2-0.8,3.5c0,1.5,0.3,2.6,0.8,3.4C140.7,259,141.5,259.4,142.5,259.4z"/>
		<path fill="#444444" d="M158.7,261.7c-2.1,0-3.7-0.6-4.9-1.8c-1.2-1.2-1.8-2.9-1.8-5.1c0-2.2,0.5-3.9,1.6-5.2
			c1.1-1.3,2.6-1.9,4.5-1.9c1.8,0,3.2,0.5,4.2,1.6c1,1.1,1.5,2.6,1.5,4.5v1.6h-9c0,1.3,0.4,2.3,1.1,3c0.7,0.7,1.6,1.1,2.8,1.1
			c0.8,0,1.5-0.1,2.2-0.2c0.7-0.2,1.4-0.4,2.2-0.8v2.3c-0.7,0.3-1.4,0.6-2.1,0.7C160.4,261.7,159.6,261.7,158.7,261.7z M158.1,249.9
			c-0.9,0-1.6,0.3-2.2,0.9c-0.5,0.6-0.9,1.4-1,2.5h6.1c0-1.1-0.3-2-0.8-2.5C159.8,250.2,159.1,249.9,158.1,249.9z"/>
		<path fill="#444444" d="M29.3,288.5l-0.6-1.9h-0.1c-0.7,0.8-1.3,1.4-2,1.7c-0.7,0.3-1.5,0.4-2.5,0.4c-1.3,0-2.4-0.4-3.1-1.1
			c-0.7-0.7-1.1-1.7-1.1-3c0-1.4,0.5-2.4,1.6-3.1c1-0.7,2.6-1.1,4.7-1.2l2.3-0.1v-0.7c0-0.9-0.2-1.5-0.6-1.9c-0.4-0.4-1-0.6-1.9-0.6
			c-0.7,0-1.4,0.1-2,0.3c-0.6,0.2-1.2,0.4-1.8,0.7l-0.9-2.1c0.7-0.4,1.5-0.7,2.4-0.9c0.9-0.2,1.7-0.3,2.5-0.3c1.7,0,3,0.4,3.9,1.1
			c0.9,0.7,1.3,1.9,1.3,3.5v9.1H29.3z M25.1,286.5c1,0,1.9-0.3,2.5-0.9c0.6-0.6,0.9-1.4,0.9-2.4V282l-1.7,0.1
			c-1.4,0-2.3,0.3-2.9,0.7c-0.6,0.4-0.9,1-0.9,1.8c0,0.6,0.2,1.1,0.5,1.4C23.8,286.4,24.4,286.5,25.1,286.5z"/>
		<path fill="#444444" d="M44.9,288.5l-0.4-1.8h-0.1c-0.4,0.6-1,1.1-1.7,1.5c-0.7,0.4-1.6,0.5-2.5,0.5c-1.6,0-2.9-0.4-3.7-1.2
			s-1.2-2-1.2-3.7V275h2.9v8.3c0,1,0.2,1.8,0.6,2.3c0.4,0.5,1.1,0.8,2,0.8c1.2,0,2.1-0.4,2.7-1.1c0.6-0.7,0.8-1.9,0.8-3.6V275h2.9
			v13.5H44.9z"/>
		<path fill="#444444" d="M56.3,286.4c0.7,0,1.4-0.1,2.1-0.3v2.2c-0.3,0.1-0.7,0.3-1.2,0.3c-0.5,0.1-1,0.1-1.6,0.1
			c-2.7,0-4.1-1.4-4.1-4.3v-7.3h-1.8v-1.3l2-1l1-2.9h1.8v3h3.8v2.2h-3.8v7.2c0,0.7,0.2,1.2,0.5,1.5
			C55.3,286.2,55.7,286.4,56.3,286.4z"/>
		<path fill="#444444" d="M73.1,281.7c0,2.2-0.6,3.9-1.7,5.2c-1.1,1.2-2.7,1.9-4.7,1.9c-1.3,0-2.4-0.3-3.3-0.9
			c-1-0.6-1.7-1.4-2.2-2.5c-0.5-1.1-0.8-2.3-0.8-3.7c0-2.2,0.6-3.9,1.7-5.1c1.1-1.2,2.7-1.8,4.7-1.8c2,0,3.5,0.6,4.6,1.9
			C72.5,277.9,73.1,279.6,73.1,281.7z M63.2,281.7c0,3.1,1.2,4.7,3.5,4.7c2.3,0,3.4-1.6,3.4-4.7c0-3.1-1.1-4.6-3.4-4.6
			c-1.2,0-2.1,0.4-2.6,1.2C63.5,279.1,63.2,280.2,63.2,281.7z"/>
		<path fill="#444444" d="M87.7,288.5h-2.9v-8.3c0-1-0.2-1.8-0.6-2.3s-1-0.8-1.8-0.8c-1.1,0-1.9,0.4-2.4,1.1
			c-0.5,0.7-0.8,1.9-0.8,3.6v6.7h-2.9V275h2.2l0.4,1.8h0.1c0.4-0.6,0.9-1.1,1.6-1.5c0.7-0.3,1.5-0.5,2.4-0.5c2.1,0,3.5,0.7,4.1,2.1
			h0.2c0.4-0.7,1-1.2,1.7-1.6c0.7-0.4,1.6-0.6,2.5-0.6c1.6,0,2.8,0.4,3.5,1.2c0.7,0.8,1.1,2.1,1.1,3.7v8.8h-2.9v-8.3
			c0-1-0.2-1.8-0.6-2.3c-0.4-0.5-1-0.8-1.8-0.8c-1.1,0-1.9,0.3-2.4,1c-0.5,0.7-0.8,1.8-0.8,3.2V288.5z"/>
		<path fill="#444444" d="M108.7,288.5l-0.6-1.9H108c-0.7,0.8-1.3,1.4-2,1.7c-0.7,0.3-1.5,0.4-2.5,0.4c-1.3,0-2.4-0.4-3.1-1.1
			c-0.7-0.7-1.1-1.7-1.1-3c0-1.4,0.5-2.4,1.6-3.1c1-0.7,2.6-1.1,4.7-1.2l2.3-0.1v-0.7c0-0.9-0.2-1.5-0.6-1.9c-0.4-0.4-1-0.6-1.9-0.6
			c-0.7,0-1.4,0.1-2,0.3c-0.6,0.2-1.2,0.4-1.8,0.7l-0.9-2.1c0.7-0.4,1.5-0.7,2.4-0.9c0.9-0.2,1.7-0.3,2.5-0.3c1.7,0,3,0.4,3.9,1.1
			c0.9,0.7,1.3,1.9,1.3,3.5v9.1H108.7z M104.4,286.5c1,0,1.9-0.3,2.5-0.9c0.6-0.6,0.9-1.4,0.9-2.4V282l-1.7,0.1
			c-1.4,0-2.3,0.3-2.9,0.7c-0.6,0.4-0.9,1-0.9,1.8c0,0.6,0.2,1.1,0.5,1.4C103.2,286.4,103.7,286.5,104.4,286.5z"/>
		<path fill="#444444" d="M119.8,286.4c0.7,0,1.4-0.1,2.1-0.3v2.2c-0.3,0.1-0.7,0.3-1.2,0.3c-0.5,0.1-1,0.1-1.6,0.1
			c-2.7,0-4.1-1.4-4.1-4.3v-7.3h-1.8v-1.3l2-1l1-2.9h1.8v3h3.8v2.2h-3.8v7.2c0,0.7,0.2,1.2,0.5,1.5
			C118.8,286.2,119.2,286.4,119.8,286.4z"/>
		<path fill="#444444" d="M124.4,271.4c0-0.5,0.1-0.9,0.4-1.2c0.3-0.3,0.7-0.4,1.2-0.4c0.5,0,0.9,0.1,1.2,0.4
			c0.3,0.3,0.4,0.7,0.4,1.2c0,0.5-0.1,0.9-0.4,1.2c-0.3,0.3-0.7,0.4-1.2,0.4c-0.5,0-0.9-0.1-1.2-0.4
			C124.6,272.3,124.4,271.9,124.4,271.4z M127.5,288.5h-2.9V275h2.9V288.5z"/>
		<path fill="#444444" d="M140.6,288.5h-10.2v-1.8l6.8-9.5h-6.4V275h9.6v2l-6.7,9.3h6.9V288.5z"/>
		<path fill="#444444" d="M152,288.5l-0.6-1.9h-0.1c-0.7,0.8-1.3,1.4-2,1.7c-0.7,0.3-1.5,0.4-2.5,0.4c-1.3,0-2.4-0.4-3.1-1.1
			c-0.7-0.7-1.1-1.7-1.1-3c0-1.4,0.5-2.4,1.5-3.1s2.6-1.1,4.7-1.2l2.3-0.1v-0.7c0-0.9-0.2-1.5-0.6-1.9c-0.4-0.4-1-0.6-1.9-0.6
			c-0.7,0-1.4,0.1-2,0.3c-0.6,0.2-1.2,0.4-1.8,0.7l-0.9-2.1c0.7-0.4,1.5-0.7,2.4-0.9c0.9-0.2,1.7-0.3,2.5-0.3c1.7,0,3,0.4,3.9,1.1
			s1.3,1.9,1.3,3.5v9.1H152z M147.7,286.5c1,0,1.9-0.3,2.5-0.9c0.6-0.6,0.9-1.4,0.9-2.4V282l-1.7,0.1c-1.4,0-2.3,0.3-2.9,0.7
			c-0.6,0.4-0.9,1-0.9,1.8c0,0.6,0.2,1.1,0.5,1.4C146.4,286.4,147,286.5,147.7,286.5z"/>
		<path fill="#444444" d="M164.9,274.7c0.6,0,1.1,0,1.4,0.1l-0.3,2.7c-0.4-0.1-0.8-0.1-1.3-0.1c-1.1,0-2.1,0.4-2.8,1.1
			c-0.7,0.7-1.1,1.7-1.1,2.9v7.1H158V275h2.2l0.4,2.4h0.1c0.4-0.8,1-1.4,1.8-1.9C163.3,275,164,274.7,164.9,274.7z"/>
		<path fill="#444444" d="M173.2,275h3.1l2.7,7.7c0.4,1.1,0.7,2.1,0.8,3.1h0.1c0.1-0.4,0.2-1,0.4-1.6c0.2-0.6,1.2-3.7,3.1-9.1h3.1
			l-5.8,15.3c-1,2.8-2.8,4.2-5.2,4.2c-0.6,0-1.3-0.1-1.9-0.2V292c0.4,0.1,0.9,0.1,1.5,0.1c1.4,0,2.4-0.8,2.9-2.4l0.5-1.3L173.2,275z
			"/>
		<path fill="#444444" d="M32.9,308.7c0,2.2-0.6,3.9-1.7,5.2c-1.1,1.2-2.7,1.9-4.7,1.9c-1.3,0-2.4-0.3-3.3-0.9
			c-1-0.6-1.7-1.4-2.2-2.5c-0.5-1.1-0.8-2.3-0.8-3.7c0-2.2,0.6-3.9,1.7-5.1c1.1-1.2,2.7-1.8,4.7-1.8c2,0,3.5,0.6,4.6,1.9
			C32.3,304.9,32.9,306.6,32.9,308.7z M23,308.7c0,3.1,1.2,4.7,3.5,4.7c2.3,0,3.4-1.6,3.4-4.7c0-3.1-1.1-4.6-3.4-4.6
			c-1.2,0-2.1,0.4-2.6,1.2C23.3,306.1,23,307.2,23,308.7z"/>
		<path fill="#444444" d="M43,315.7c-1.7,0-3-0.6-4-1.8h-0.2C39,315,39,315.7,39,316v5.5h-2.9V302h2.3c0.1,0.3,0.2,0.9,0.4,1.8H39
			c0.9-1.4,2.2-2.1,4-2.1c1.7,0,3,0.6,3.9,1.8c0.9,1.2,1.4,2.9,1.4,5.1c0,2.2-0.5,3.9-1.4,5.2C46,315.1,44.7,315.7,43,315.7z
			 M42.3,304.1c-1.1,0-2,0.3-2.5,1c-0.5,0.7-0.8,1.7-0.8,3.2v0.4c0,1.6,0.3,2.8,0.8,3.6c0.5,0.7,1.4,1.1,2.6,1.1
			c1,0,1.8-0.4,2.3-1.2s0.8-2,0.8-3.5c0-1.5-0.3-2.7-0.8-3.4C44.1,304.5,43.4,304.1,42.3,304.1z"/>
		<path fill="#444444" d="M56.8,313.4c0.7,0,1.4-0.1,2.1-0.3v2.2c-0.3,0.1-0.7,0.3-1.2,0.3c-0.5,0.1-1,0.1-1.6,0.1
			c-2.7,0-4.1-1.4-4.1-4.3v-7.3h-1.8v-1.3l2-1l1-2.9h1.8v3h3.8v2.2h-3.8v7.2c0,0.7,0.2,1.2,0.5,1.5
			C55.8,313.2,56.2,313.4,56.8,313.4z"/>
		<path fill="#444444" d="M61.4,298.4c0-0.5,0.1-0.9,0.4-1.2c0.3-0.3,0.7-0.4,1.2-0.4c0.5,0,0.9,0.1,1.2,0.4
			c0.3,0.3,0.4,0.7,0.4,1.2c0,0.5-0.1,0.9-0.4,1.2c-0.3,0.3-0.7,0.4-1.2,0.4c-0.5,0-0.9-0.1-1.2-0.4
			C61.5,299.3,61.4,298.9,61.4,298.4z M64.4,315.5h-2.9V302h2.9V315.5z"/>
		<path fill="#444444" d="M79.9,315.5H77v-8.3c0-1-0.2-1.8-0.6-2.3s-1-0.8-1.8-0.8c-1.1,0-1.9,0.4-2.4,1.1c-0.5,0.7-0.8,1.9-0.8,3.6
			v6.7h-2.9V302h2.2l0.4,1.8h0.1c0.4-0.6,0.9-1.1,1.6-1.5c0.7-0.3,1.5-0.5,2.4-0.5c2.1,0,3.5,0.7,4.1,2.1h0.2c0.4-0.7,1-1.2,1.7-1.6
			c0.7-0.4,1.6-0.6,2.5-0.6c1.6,0,2.8,0.4,3.5,1.2c0.7,0.8,1.1,2.1,1.1,3.7v8.8h-2.9v-8.3c0-1-0.2-1.8-0.6-2.3
			c-0.4-0.5-1-0.8-1.8-0.8c-1.1,0-1.9,0.3-2.4,1c-0.5,0.7-0.8,1.8-0.8,3.2V315.5z"/>
		<path fill="#444444" d="M92.3,298.4c0-0.5,0.1-0.9,0.4-1.2c0.3-0.3,0.7-0.4,1.2-0.4c0.5,0,0.9,0.1,1.2,0.4
			c0.3,0.3,0.4,0.7,0.4,1.2c0,0.5-0.1,0.9-0.4,1.2c-0.3,0.3-0.7,0.4-1.2,0.4c-0.5,0-0.9-0.1-1.2-0.4
			C92.4,299.3,92.3,298.9,92.3,298.4z M95.3,315.5h-2.9V302h2.9V315.5z"/>
		<path fill="#444444" d="M108.4,315.5H98.2v-1.8l6.8-9.5h-6.4V302h9.6v2l-6.7,9.3h6.9V315.5z"/>
		<path fill="#444444" d="M119.8,315.5l-0.6-1.9h-0.1c-0.7,0.8-1.3,1.4-2,1.7c-0.7,0.3-1.5,0.4-2.5,0.4c-1.3,0-2.4-0.4-3.1-1.1
			c-0.7-0.7-1.1-1.7-1.1-3c0-1.4,0.5-2.4,1.6-3.1c1-0.7,2.6-1.1,4.7-1.2l2.3-0.1v-0.7c0-0.9-0.2-1.5-0.6-1.9c-0.4-0.4-1-0.6-1.9-0.6
			c-0.7,0-1.4,0.1-2,0.3c-0.6,0.2-1.2,0.4-1.8,0.7l-0.9-2.1c0.7-0.4,1.5-0.7,2.4-0.9c0.9-0.2,1.7-0.3,2.5-0.3c1.7,0,3,0.4,3.9,1.1
			c0.9,0.7,1.3,1.9,1.3,3.5v9.1H119.8z M115.5,313.5c1,0,1.9-0.3,2.5-0.9c0.6-0.6,0.9-1.4,0.9-2.4V309l-1.7,0.1
			c-1.4,0-2.3,0.3-2.9,0.7c-0.6,0.4-0.9,1-0.9,1.8c0,0.6,0.2,1.1,0.5,1.4C114.3,313.4,114.8,313.5,115.5,313.5z"/>
		<path fill="#444444" d="M132.7,301.7c0.6,0,1.1,0,1.4,0.1l-0.3,2.7c-0.4-0.1-0.8-0.1-1.3-0.1c-1.1,0-2.1,0.4-2.8,1.1
			c-0.7,0.7-1.1,1.7-1.1,2.9v7.1h-2.9V302h2.2l0.4,2.4h0.1c0.4-0.8,1-1.4,1.8-1.9C131.1,302,131.9,301.7,132.7,301.7z"/>
		<path fill="#444444" d="M150,315.7c-1.7,0-3-0.6-4-1.8h-0.2c0.1,1.1,0.2,1.8,0.2,2.1v5.5h-2.9V302h2.3c0.1,0.3,0.2,0.9,0.4,1.8
			h0.1c0.9-1.4,2.2-2.1,4-2.1c1.7,0,3,0.6,3.9,1.8c0.9,1.2,1.4,2.9,1.4,5.1c0,2.2-0.5,3.9-1.4,5.2S151.7,315.7,150,315.7z
			 M149.3,304.1c-1.1,0-2,0.3-2.5,1c-0.5,0.7-0.8,1.7-0.8,3.2v0.4c0,1.6,0.3,2.8,0.8,3.6c0.5,0.7,1.4,1.1,2.6,1.1
			c1,0,1.8-0.4,2.3-1.2s0.8-2,0.8-3.5c0-1.5-0.3-2.7-0.8-3.4C151.1,304.5,150.3,304.1,149.3,304.1z"/>
		<path fill="#444444" d="M165.6,301.7c0.6,0,1.1,0,1.4,0.1l-0.3,2.7c-0.4-0.1-0.8-0.1-1.3-0.1c-1.1,0-2.1,0.4-2.8,1.1
			c-0.7,0.7-1.1,1.7-1.1,2.9v7.1h-2.9V302h2.2l0.4,2.4h0.1c0.4-0.8,1-1.4,1.8-1.9C164,302,164.7,301.7,165.6,301.7z"/>
		<path fill="#444444" d="M181.5,308.7c0,2.2-0.6,3.9-1.7,5.2c-1.1,1.2-2.7,1.9-4.7,1.9c-1.3,0-2.4-0.3-3.3-0.9s-1.7-1.4-2.2-2.5
			c-0.5-1.1-0.8-2.3-0.8-3.7c0-2.2,0.6-3.9,1.7-5.1c1.1-1.2,2.7-1.8,4.7-1.8c2,0,3.5,0.6,4.6,1.9
			C180.9,304.9,181.5,306.6,181.5,308.7z M171.6,308.7c0,3.1,1.2,4.7,3.5,4.7c2.3,0,3.4-1.6,3.4-4.7c0-3.1-1.1-4.6-3.4-4.6
			c-1.2,0-2.1,0.4-2.6,1.2S171.6,307.2,171.6,308.7z"/>
		<path fill="#444444" d="M190.2,315.7c-2,0-3.6-0.6-4.7-1.8c-1.1-1.2-1.6-2.9-1.6-5.1c0-2.3,0.6-4,1.7-5.2c1.1-1.2,2.7-1.8,4.8-1.8
			c1.4,0,2.7,0.3,3.8,0.8l-0.9,2.3c-1.2-0.5-2.2-0.7-3-0.7c-2.3,0-3.5,1.5-3.5,4.7c0,1.5,0.3,2.7,0.9,3.4s1.4,1.1,2.6,1.1
			c1.3,0,2.5-0.3,3.6-1v2.5c-0.5,0.3-1.1,0.5-1.6,0.6S191,315.7,190.2,315.7z"/>
		<path fill="#444444" d="M203,315.7c-2.1,0-3.7-0.6-4.9-1.8c-1.2-1.2-1.8-2.9-1.8-5.1c0-2.2,0.5-3.9,1.6-5.2
			c1.1-1.3,2.6-1.9,4.5-1.9c1.8,0,3.2,0.5,4.2,1.6c1,1.1,1.6,2.6,1.6,4.5v1.6h-9c0,1.3,0.4,2.3,1.1,3c0.7,0.7,1.6,1.1,2.8,1.1
			c0.8,0,1.5-0.1,2.2-0.2c0.7-0.2,1.4-0.4,2.2-0.8v2.3c-0.7,0.3-1.4,0.6-2.1,0.7C204.8,315.7,204,315.7,203,315.7z M202.5,303.9
			c-0.9,0-1.6,0.3-2.2,0.9c-0.5,0.6-0.9,1.4-1,2.5h6.1c0-1.1-0.3-2-0.8-2.5C204.1,304.2,203.4,303.9,202.5,303.9z"/>
		<path fill="#444444" d="M220.6,311.6c0,1.3-0.5,2.3-1.4,3c-1,0.7-2.3,1.1-4.1,1.1c-1.8,0-3.2-0.3-4.3-0.8v-2.5
			c1.6,0.7,3.1,1.1,4.4,1.1c1.8,0,2.6-0.5,2.6-1.6c0-0.3-0.1-0.6-0.3-0.9c-0.2-0.2-0.5-0.5-1-0.7c-0.4-0.2-1.1-0.5-1.9-0.8
			c-1.6-0.6-2.6-1.2-3.2-1.8c-0.5-0.6-0.8-1.4-0.8-2.3c0-1.2,0.5-2.1,1.4-2.7c0.9-0.6,2.2-1,3.8-1c1.6,0,3.1,0.3,4.5,1l-0.9,2.2
			c-1.5-0.6-2.7-0.9-3.7-0.9c-1.5,0-2.3,0.4-2.3,1.3c0,0.4,0.2,0.8,0.6,1.1c0.4,0.3,1.3,0.7,2.6,1.2c1.1,0.4,1.9,0.8,2.4,1.2
			c0.5,0.4,0.9,0.8,1.1,1.2C220.5,310.4,220.6,311,220.6,311.6z"/>
		<path fill="#444444" d="M235.7,308.7c0,2.2-0.6,3.9-1.7,5.2c-1.1,1.2-2.7,1.9-4.7,1.9c-1.3,0-2.4-0.3-3.3-0.9s-1.7-1.4-2.2-2.5
			c-0.5-1.1-0.8-2.3-0.8-3.7c0-2.2,0.6-3.9,1.7-5.1c1.1-1.2,2.7-1.8,4.7-1.8c2,0,3.5,0.6,4.6,1.9
			C235.1,304.9,235.7,306.6,235.7,308.7z M225.9,308.7c0,3.1,1.2,4.7,3.5,4.7c2.3,0,3.4-1.6,3.4-4.7c0-3.1-1.1-4.6-3.4-4.6
			c-1.2,0-2.1,0.4-2.6,1.2S225.9,307.2,225.9,308.7z"/>
		<path fill="#444444" d="M248.1,311.6c0,1.3-0.5,2.3-1.4,3c-1,0.7-2.3,1.1-4.1,1.1c-1.8,0-3.2-0.3-4.3-0.8v-2.5
			c1.6,0.7,3.1,1.1,4.4,1.1c1.8,0,2.6-0.5,2.6-1.6c0-0.3-0.1-0.6-0.3-0.9c-0.2-0.2-0.5-0.5-1-0.7c-0.4-0.2-1.1-0.5-1.9-0.8
			c-1.6-0.6-2.6-1.2-3.2-1.8c-0.5-0.6-0.8-1.4-0.8-2.3c0-1.2,0.5-2.1,1.4-2.7c0.9-0.6,2.2-1,3.8-1c1.6,0,3.1,0.3,4.5,1l-0.9,2.2
			c-1.5-0.6-2.7-0.9-3.7-0.9c-1.5,0-2.3,0.4-2.3,1.3c0,0.4,0.2,0.8,0.6,1.1c0.4,0.3,1.3,0.7,2.6,1.2c1.1,0.4,1.9,0.8,2.4,1.2
			c0.5,0.4,0.9,0.8,1.1,1.2C247.9,310.4,248.1,311,248.1,311.6z"/>
		<path fill="#444444" d="M250.7,314c0-0.6,0.2-1,0.5-1.4s0.8-0.5,1.3-0.5c0.6,0,1,0.2,1.4,0.5c0.3,0.3,0.5,0.8,0.5,1.3
			c0,0.6-0.2,1-0.5,1.4c-0.3,0.3-0.8,0.5-1.3,0.5s-1-0.2-1.3-0.5C250.9,315,250.7,314.5,250.7,314z"/>
	</g>
</g>
<g>
	<g>
		<path fill="#429DFF" d="M135.4,44.9V23.4c0-2.4-1.2-4.5-3.3-5.7c-2-1.2-4.5-1.2-6.6-0.1c-19.8,11.1-41.4,17.6-64.1,19.2
			c-0.2,0-20.7,0.1-20.7,0.1c-5.2,0-9.4,3.9-10,8.9h-4.2c-4.6,0-8.4,3.8-8.4,8.4v18.4c0,4.6,3.8,8.4,8.4,8.4h4.2
			c0.4,3.6,2.7,6.6,5.9,8l15,41.4c0.9,2.6,3.4,4.3,6.1,4.3h15c2.1,0,4.1-1,5.4-2.8c1.2-1.7,1.5-4,0.8-6L66.1,90.4
			c21,2.2,41,8.5,59.4,18.8c1,0.6,2.1,0.9,3.2,0.9c1.2,0,2.3-0.3,3.3-0.9c2-1.2,3.3-3.3,3.3-5.7V82c9.2-1.2,16.3-9.1,16.3-18.6
			C151.7,54,144.6,46.1,135.4,44.9z M30.7,74.6h-4.1c-1.1,0-1.9-0.9-1.9-1.9V54.3c0-1.1,0.9-1.9,1.9-1.9h4.1V74.6z M39.3,83.1
			c-1.3-0.6-2.1-1.8-2.1-3.3V47.1h0c0-2,1.6-3.6,3.6-3.6h17.6v40c0,0-17.7,0-17.8,0C39.9,83.4,39.7,83.3,39.3,83.1z M72.9,128.2
			C72.9,128.2,73,128.2,72.9,128.2c0,0.1-0.1,0.1-0.1,0.1h-15c0,0-0.1,0-0.1-0.1L43.8,89.9h15.2L72.9,128.2z M128.9,103.5
			c0,0,0,0.1-0.1,0.1c-0.1,0-0.1,0-0.2,0c-19.8-11.1-41.3-17.7-63.9-19.8V43.1c22.6-2.1,44.1-8.7,63.9-19.8c0,0,0.1,0,0.2,0
			c0.1,0,0.1,0.1,0.1,0.1V103.5z M135.4,75.5v-24c5.6,1.1,9.8,6.1,9.8,12C145.2,69.4,141,74.4,135.4,75.5z"/>
	</g>
</g>
</svg>
