<?xml version="1.0" encoding="utf-8"?>
<!-- Generator: Adobe Illustrator 18.1.1, SVG Export Plug-In . SVG Version: 6.00 Build 0)  -->
<svg version="1.1" id="Capa_1" xmlns="http://www.w3.org/2000/svg" xmlns:xlink="http://www.w3.org/1999/xlink" x="0px" y="0px"
	 viewBox="0 0 85.5 56.8" enable-background="new 0 0 85.5 56.8" xml:space="preserve">
<g>
	<defs>
		<rect id="SVGID_1_" x="0" y="0" width="85.2" height="56.8"/>
	</defs>
	<clipPath id="SVGID_2_">
		<use xlink:href="#SVGID_1_"  overflow="visible"/>
	</clipPath>
	<g clip-path="url(#SVGID_2_)">
		<rect x="0" y="0" fill="#FFFFFF" width="85.2" height="56.8"/>
		<g>
			<g>
				<g>
					<rect id="stripe" x="0" y="0.1" fill="#DA1E3F" width="99.1" height="4.4"/>
				</g>
				<g>
					<rect id="stripe_1_" x="0" y="8.8" fill="#DA1E3F" width="99.1" height="4.4"/>
				</g>
				<g>
					<rect id="stripe_2_" x="0" y="17.5" fill="#DA1E3F" width="99.1" height="4.4"/>
				</g>
				<g>
					<rect id="stripe_3_" x="0" y="26.2" fill="#DA1E3F" width="99.1" height="4.4"/>
				</g>
				<g>
					<rect id="stripe_4_" x="0" y="34.9" fill="#DA1E3F" width="99.1" height="4.4"/>
				</g>
				<g>
					<rect id="stripe_5_" x="0" y="43.6" fill="#DA1E3F" width="99.1" height="4.4"/>
				</g>
				<g>
					<rect id="stripe_6_" x="0" y="52.3" fill="#DA1E3F" width="99.1" height="4.4"/>
				</g>
			</g>
			<rect x="0" y="0.1" fill="#091F44" width="39.6" height="30.5"/>
			<g>
				<polygon fill="none" points="36.3,21.4 36.3,21.4 36.3,21.4 				"/>
				<polygon fill="none" points="10,21.4 10,21.4 10,21.4 				"/>
				<rect x="23.1" y="21.4" fill="none" width="0" height="0"/>
				<polygon fill="#FFFFFF" points="3.4,1.3 3,2.5 1.9,2.5 2.8,3.3 2.4,4.5 3.4,3.7 4.3,4.5 4,3.3 4.9,2.5 3.8,2.5 				"/>
				<polygon fill="#FFFFFF" points="10,1.3 9.6,2.5 8.4,2.5 9.4,3.3 9,4.5 10,3.7 10.9,4.5 10.5,3.3 11.5,2.5 10.3,2.5 				"/>
				<polygon fill="#FFFFFF" points="16.5,1.3 16.2,2.5 15,2.5 16,3.3 15.6,4.5 16.5,3.7 17.5,4.5 17.1,3.3 18.1,2.5 16.9,2.5 				
					"/>
				<polygon fill="#FFFFFF" points="23.1,1.3 22.7,2.5 21.6,2.5 22.5,3.3 22.2,4.5 23.1,3.7 24.1,4.5 23.7,3.3 24.6,2.5 23.5,2.5 
									"/>
				<polygon fill="#FFFFFF" points="29.7,1.3 29.3,2.5 28.2,2.5 29.1,3.3 28.7,4.5 29.7,3.7 30.6,4.5 30.3,3.3 31.2,2.5 30,2.5 				
					"/>
				<polygon fill="#FFFFFF" points="35.7,3.3 35.3,4.5 36.3,3.7 37.2,4.5 36.8,3.3 37.8,2.5 36.6,2.5 36.3,1.3 35.9,2.5 34.7,2.5 
									"/>
				<polygon fill="#FFFFFF" points="6.7,4.4 6.3,5.6 5.1,5.6 6.1,6.3 5.7,7.5 6.7,6.8 7.6,7.5 7.3,6.3 8.2,5.6 7,5.6 				"/>
				<polygon fill="#FFFFFF" points="13.3,4.4 12.9,5.6 11.7,5.6 12.7,6.3 12.3,7.5 13.3,6.8 14.2,7.5 13.8,6.3 14.8,5.6 13.6,5.6 
									"/>
				<polygon fill="#FFFFFF" points="19.8,4.4 19.5,5.6 18.3,5.6 19.2,6.3 18.9,7.5 19.8,6.8 20.8,7.5 20.4,6.3 21.4,5.6 20.2,5.6 
									"/>
				<polygon fill="#FFFFFF" points="26.4,4.4 26,5.6 24.9,5.6 25.8,6.3 25.5,7.5 26.4,6.8 27.3,7.5 27,6.3 27.9,5.6 26.8,5.6 				
					"/>
				<polygon fill="#FFFFFF" points="33,4.4 32.6,5.6 31.4,5.6 32.4,6.3 32,7.5 33,6.8 33.9,7.5 33.6,6.3 34.5,5.6 33.3,5.6 				"/>
				<polygon fill="#FFFFFF" points="3.4,7.4 3,8.6 1.9,8.6 2.8,9.4 2.4,10.6 3.4,9.9 4.3,10.6 4,9.4 4.9,8.6 3.8,8.6 				"/>
				<polygon fill="#FFFFFF" points="10,7.4 9.6,8.6 8.4,8.6 9.4,9.4 9,10.6 10,9.9 10.9,10.6 10.5,9.4 11.5,8.6 10.3,8.6 				"/>
				<polygon fill="#FFFFFF" points="16.5,7.4 16.2,8.6 15,8.6 16,9.4 15.6,10.6 16.5,9.9 17.5,10.6 17.1,9.4 18.1,8.6 16.9,8.6 				
					"/>
				<polygon fill="#FFFFFF" points="23.1,7.4 22.7,8.6 21.6,8.6 22.5,9.4 22.2,10.6 23.1,9.9 24.1,10.6 23.7,9.4 24.6,8.6 23.5,8.6 
									"/>
				<polygon fill="#FFFFFF" points="29.7,7.4 29.3,8.6 28.2,8.6 29.1,9.4 28.7,10.6 29.7,9.9 30.6,10.6 30.3,9.4 31.2,8.6 30,8.6 
									"/>
				<polygon fill="#FFFFFF" points="36.3,7.4 35.9,8.6 34.7,8.6 35.7,9.4 35.3,10.6 36.3,9.9 37.2,10.6 36.8,9.4 37.8,8.6 36.6,8.6 
									"/>
				<polygon fill="#FFFFFF" points="6.7,10.5 6.3,11.7 5.1,11.7 6.1,12.5 5.7,13.7 6.7,12.9 7.6,13.7 7.3,12.5 8.2,11.7 7,11.7 				
					"/>
				<polygon fill="#FFFFFF" points="13.3,10.5 12.9,11.7 11.7,11.7 12.7,12.5 12.3,13.7 13.3,12.9 14.2,13.7 13.8,12.5 14.8,11.7 
					13.6,11.7 				"/>
				<polygon fill="#FFFFFF" points="19.8,10.5 19.5,11.7 18.3,11.7 19.2,12.5 18.9,13.7 19.8,12.9 20.8,13.7 20.4,12.5 21.4,11.7 
					20.2,11.7 				"/>
				<polygon fill="#FFFFFF" points="26.4,10.5 26,11.7 24.9,11.7 25.8,12.5 25.5,13.7 26.4,12.9 27.3,13.7 27,12.5 27.9,11.7 
					26.8,11.7 				"/>
				<polygon fill="#FFFFFF" points="33,10.5 32.6,11.7 31.4,11.7 32.4,12.5 32,13.7 33,12.9 33.9,13.7 33.6,12.5 34.5,11.7 
					33.3,11.7 				"/>
				<polygon fill="#FFFFFF" points="3.4,13.6 3,14.8 1.9,14.8 2.8,15.5 2.4,16.7 3.4,16 4.3,16.7 4,15.5 4.9,14.8 3.8,14.8 				"/>
				<polygon fill="#FFFFFF" points="10,13.6 9.6,14.8 8.4,14.8 9.4,15.5 9,16.7 10,16 10.9,16.7 10.5,15.5 11.5,14.8 10.3,14.8 				
					"/>
				<polygon fill="#FFFFFF" points="16.5,13.6 16.2,14.8 15,14.8 16,15.5 15.6,16.7 16.5,16 17.5,16.7 17.1,15.5 18.1,14.8 
					16.9,14.8 				"/>
				<polygon fill="#FFFFFF" points="23.1,13.6 22.7,14.8 21.6,14.8 22.5,15.5 22.2,16.7 23.1,16 24.1,16.7 23.7,15.5 24.6,14.8 
					23.5,14.8 				"/>
				<polygon fill="#FFFFFF" points="29.7,13.6 29.3,14.8 28.2,14.8 29.1,15.5 28.7,16.7 29.7,16 30.6,16.7 30.3,15.5 31.2,14.8 
					30,14.8 				"/>
				<polygon fill="#FFFFFF" points="36.3,13.6 35.9,14.8 34.7,14.8 35.7,15.5 35.3,16.7 36.3,16 37.2,16.7 36.8,15.5 37.8,14.8 
					36.6,14.8 				"/>
				<polygon fill="#FFFFFF" points="6.7,16.6 6.3,17.8 5.1,17.8 6.1,18.6 5.7,19.8 6.7,19 7.6,19.8 7.3,18.6 8.2,17.8 7,17.8 				
					"/>
				<polygon fill="#FFFFFF" points="13.3,16.6 12.9,17.8 11.7,17.8 12.7,18.6 12.3,19.8 13.3,19 14.2,19.8 13.8,18.6 14.8,17.8 
					13.6,17.8 				"/>
				<polygon fill="#FFFFFF" points="19.8,16.6 19.5,17.8 18.3,17.8 19.2,18.6 18.9,19.8 19.8,19 20.8,19.8 20.4,18.6 21.4,17.8 
					20.2,17.8 				"/>
				<polygon fill="#FFFFFF" points="26.4,16.6 26,17.8 24.9,17.8 25.8,18.6 25.5,19.8 26.4,19 27.3,19.8 27,18.6 27.9,17.8 
					26.8,17.8 				"/>
				<polygon fill="#FFFFFF" points="33,16.6 32.6,17.8 31.4,17.8 32.4,18.6 32,19.8 33,19 33.9,19.8 33.6,18.6 34.5,17.8 33.3,17.8 
									"/>
				<polygon fill="#FFFFFF" points="3.4,19.7 3,20.9 1.9,20.9 2.8,21.6 2.4,22.8 3.4,22.1 4.3,22.8 4,21.6 4.9,20.9 3.8,20.9 				
					"/>
				<path fill="#FFFFFF" d="M10,19.7l-0.4,1.2H8.4l0.9,0.7L9,22.8l0.9-0.7l0.9,0.7l-0.4-1.2l0.9-0.7h-1.2L10,19.7z M10,21.4L10,21.4
					L10,21.4L10,21.4z"/>
				<polygon fill="#FFFFFF" points="16.5,19.7 16.2,20.9 15,20.9 16,21.6 15.6,22.8 16.5,22.1 17.5,22.8 17.1,21.6 18.1,20.9 
					16.9,20.9 				"/>
				<path fill="#FFFFFF" d="M23.1,19.7l-0.4,1.2h-1.2l0.9,0.7l-0.4,1.2l0.9-0.7l0.9,0.7l-0.4-1.2l0.9-0.7h-1.2L23.1,19.7z
					 M23.1,21.4L23.1,21.4L23.1,21.4L23.1,21.4L23.1,21.4z"/>
				<polygon fill="#FFFFFF" points="29.7,19.7 29.3,20.9 28.2,20.9 29.1,21.6 28.7,22.8 29.7,22.1 30.6,22.8 30.3,21.6 31.2,20.9 
					30,20.9 				"/>
				<path fill="#FFFFFF" d="M36.3,19.7l-0.4,1.2h-1.2l0.9,0.7l-0.4,1.2l0.9-0.7l0.9,0.7l-0.4-1.2l0.9-0.7h-1.2L36.3,19.7z
					 M36.3,21.4L36.3,21.4L36.3,21.4L36.3,21.4z"/>
				<polygon fill="#FFFFFF" points="7,23.9 6.7,22.7 6.3,23.9 5.1,23.9 6.1,24.7 5.7,25.9 6.7,25.1 7.6,25.9 7.3,24.7 8.2,23.9 				
					"/>
				<polygon fill="#FFFFFF" points="13.6,23.9 13.3,22.7 12.9,23.9 11.7,23.9 12.7,24.7 12.3,25.9 13.3,25.1 14.2,25.9 13.8,24.7 
					14.8,23.9 				"/>
				<polygon fill="#FFFFFF" points="20.2,23.9 19.8,22.7 19.5,23.9 18.3,23.9 19.2,24.7 18.9,25.9 19.8,25.1 20.8,25.9 20.4,24.7 
					21.4,23.9 				"/>
				<polygon fill="#FFFFFF" points="26.8,23.9 26.4,22.7 26,23.9 24.9,23.9 25.8,24.7 25.5,25.9 26.4,25.1 27.3,25.9 27,24.7 
					27.9,23.9 				"/>
				<polygon fill="#FFFFFF" points="33.3,23.9 33,22.7 32.6,23.9 31.4,23.9 32.4,24.7 32,25.9 33,25.1 33.9,25.9 33.6,24.7 
					34.5,23.9 				"/>
				<polygon fill="#FFFFFF" points="3.8,27 3.4,25.8 3,27 1.9,27 2.8,27.7 2.4,29 3.4,28.2 4.3,29 4,27.7 4.9,27 				"/>
				<polygon fill="#FFFFFF" points="10.3,27 10,25.8 9.6,27 8.4,27 9.4,27.7 9,29 10,28.2 10.9,29 10.5,27.7 11.5,27 				"/>
				<polygon fill="#FFFFFF" points="16.9,27 16.5,25.8 16.2,27 15,27 16,27.7 15.6,29 16.5,28.2 17.5,29 17.1,27.7 18.1,27 				"/>
				<polygon fill="#FFFFFF" points="23.5,27 23.1,25.8 22.7,27 21.6,27 22.5,27.7 22.2,29 23.1,28.2 24.1,29 23.7,27.7 24.6,27 				
					"/>
				<polygon fill="#FFFFFF" points="30,27 29.7,25.8 29.3,27 28.2,27 29.1,27.7 28.7,29 29.7,28.2 30.6,29 30.3,27.7 31.2,27 				
					"/>
				<polygon fill="#FFFFFF" points="36.6,27 36.3,25.8 35.9,27 34.7,27 35.7,27.7 35.3,29 36.3,28.2 37.2,29 36.8,27.7 37.8,27 				
					"/>
			</g>
		</g>
	</g>
</g>
</svg>
