<?xml version="1.0" encoding="utf-8"?>
<!-- Generator: Adobe Illustrator 18.1.1, SVG Export Plug-In . SVG Version: 6.00 Build 0)  -->
<svg version="1.1" id="Capa_1" xmlns="http://www.w3.org/2000/svg" xmlns:xlink="http://www.w3.org/1999/xlink" x="0px" y="0px"
	 viewBox="0 0 313.2 313.2" enable-background="new 0 0 313.2 313.2" xml:space="preserve">
<rect x="0" y="0" fill="none" width="313.2" height="313.2"/>
<g>
	<g>
		<path fill="#2BFDB1" d="M201,238.2c-10.9,0-22.1-4.3-37.6-10.2l-0.7-0.3c-26.4-10.1-38.3-22.4-58.1-42.7
			c-21.4-22-30.5-46.2-31.8-61.5c-1.6-17.9,8.1-31.2,12.3-36.1c7.1-8.2,15.6-8.8,16.5-8.8l9.1,0c7.4,0,10.9,4.7,11.9,7.7
			c0.9,2.1,9,22.4,12.5,30.4c3.6,9.2,0.3,14-1.2,15.6l-9.7,11.5c-0.1,0.4-0.3,1.5,0.8,3.4c11.8,19.6,29.5,34.9,49.7,43
			c1.3,0.5,2.2,0.6,2.6,0.6c0.1,0,0.1,0.1,0,0.2l0.1-0.1c0.1-0.1,9-9.9,12.4-15.3c2.2-3.4,5.6-5.3,9.5-5.3c3.7,0,6.8,1.7,8,2.3
			c2.7,1.3,22.9,10.8,27.9,13.5c0.9,0.5,1.7,0.8,2.3,1.1c5,2.3,6.3,4.5,6.3,11.1l0,0.5c-1.2,13-3.4,23.1-21.9,33.5
			C214.9,236.3,208.3,238.2,201,238.2z M101.8,88.8c0.1,0-4.8,0.4-9,5.3c-3.4,3.9-11.1,14.5-9.8,28.5c1.1,12.9,9.4,35.1,29,55.3
			c20.8,21.5,31,31.3,54.4,40.3l0.7,0.3c14.5,5.6,25,9.6,34,9.6c5.4,0,10.3-1.5,15.6-4.6c15.3-8.6,16-15.3,16.9-25.3
			c0-0.6,0-1.1,0-1.4c-0.1,0-0.2-0.1-0.3-0.2c-0.8-0.4-1.7-0.8-2.8-1.4c-5.1-2.7-27.5-13.3-27.8-13.4l-0.6-0.3
			c-0.4-0.3-1.8-0.9-2.8-0.9c-0.3,0-0.5,0-0.9,0.6c-3.7,5.8-12.1,15.2-13.3,16.5c-1.4,1.7-4.1,3.4-7.9,3.4c-1.9,0-4-0.4-6.2-1.3
			c-22.3-8.9-41.7-25.7-54.7-47.3c-3.9-6.6-2.1-12.3-0.4-14.6l10.6-12.6c0.2-0.5,0.2-2-0.8-4.7c-3.6-8.4-12.2-29.8-12.6-30.7
			l-0.2-0.5c-0.1-0.1-0.7-0.6-2.1-0.6H101.8z"/>
	</g>
	<path fill="#2BFDB1" d="M156.6,17.2c76.9,0,139.4,62.5,139.4,139.4S233.4,296,156.6,296c-26.4,0-52-7.4-74.2-21.3l-4.1-2.6
		l-4.6,1.5l-49.2,16.5l16.4-48l1.4-4.2l-2-3.9l-1-1.9l-0.2-0.4l-0.2-0.4c-14.2-22.3-21.7-48.2-21.7-74.8
		C17.1,79.7,79.7,17.2,156.6,17.2 M156.6,7C73.9,7,6.9,74,6.9,156.6c0,29.5,8.6,57.1,23.3,80.2l1,1.9l-23,67.4l0.2,0.1l68.5-22.9
		c23.1,14.5,50.4,22.9,79.6,22.9c82.6,0,149.6-67,149.6-149.6S239.2,7,156.6,7L156.6,7z"/>
</g>
</svg>
